<svg width="36" height="74" viewBox="0 0 36 74" fill="none" xmlns="http://www.w3.org/2000/svg">
<g clip-path="url(#clip0_1986_3227)">
<path d="M18 1.2832V69.3895" stroke="#443D72" stroke-width="2" stroke-linecap="round" stroke-linejoin="round"/>
<path d="M6.41096 30.5972C6.73406 30.9223 7.06566 31.2302 7.40576 31.5296C13.6467 36.9357 21.282 29.2628 15.8999 22.9843C15.6108 22.6421 15.2962 22.3085 14.9731 21.9834C11.1299 18.1171 6.04535 16.3977 1.36041 16.9024C0.858762 21.6156 2.56778 26.7394 6.41096 30.5972Z" stroke="#443D72" stroke-width="2" stroke-linecap="round" stroke-linejoin="round"/>
<path d="M29.5975 30.5972C29.2744 30.9223 28.9428 31.2302 28.6027 31.5296C22.3618 36.9357 14.7265 29.2628 20.1086 22.9843C20.3977 22.6421 20.7123 22.3085 21.0354 21.9834C24.8786 18.1171 29.9632 16.3977 34.6481 16.9024C35.1497 21.6156 33.4407 26.7394 29.5975 30.5972Z" stroke="#443D72" stroke-width="2" stroke-linecap="round" stroke-linejoin="round"/>
<path d="M6.41096 50.2716C6.73406 50.5966 7.06566 50.9046 7.40576 51.2039C13.6467 56.61 21.282 48.9372 15.8999 42.6586C15.6108 42.3164 15.2962 41.9828 14.9731 41.6578C11.1299 37.7914 6.04535 36.072 1.36041 36.5767C0.858762 41.2899 2.56778 46.4137 6.41096 50.2716Z" stroke="#443D72" stroke-width="2" stroke-linecap="round" stroke-linejoin="round"/>
<path d="M29.5975 50.2716C29.2744 50.5966 28.9428 50.9046 28.6027 51.2039C22.3618 56.61 14.7265 48.9372 20.1086 42.6586C20.3977 42.3164 20.7123 41.9828 21.0354 41.6578C24.8786 37.7914 29.9632 36.072 34.6481 36.5767C35.1497 41.2899 33.4407 46.4137 29.5975 50.2716Z" stroke="#443D72" stroke-width="2" stroke-linecap="round" stroke-linejoin="round"/>
<path d="M6.41096 69.9454C6.73406 70.2704 7.06566 70.5784 7.40576 70.8778C13.6467 76.2838 21.282 68.611 15.8999 62.3324C15.6108 61.9902 15.2962 61.6566 14.9731 61.3316C11.1299 57.4652 6.04535 55.7459 1.36041 56.2506C0.858762 60.9638 2.56778 66.0876 6.41096 69.9454Z" stroke="#443D72" stroke-width="2" stroke-linecap="round" stroke-linejoin="round"/>
<path d="M29.5975 69.9454C29.2744 70.2704 28.9428 70.5784 28.6027 70.8778C22.3618 76.2838 14.7265 68.611 20.1086 62.3324C20.3977 61.9902 20.7123 61.6566 21.0354 61.3316C24.8786 57.4652 29.9632 55.7459 34.6481 56.2506C35.1497 60.9638 33.4407 66.0876 29.5975 69.9454Z" stroke="#443D72" stroke-width="2" stroke-linecap="round" stroke-linejoin="round"/>
<path d="M7.79688 4.96973V12.6169" stroke="#443D72" stroke-width="2" stroke-linecap="round" stroke-linejoin="round"/>
<path d="M28.2031 4.96973V12.6169" stroke="#443D72" stroke-width="2" stroke-linecap="round" stroke-linejoin="round"/>
</g>
<defs>
<clipPath id="clip0_1986_3227">
<rect width="36" height="74" fill="white"/>
</clipPath>
</defs>
</svg>
