<svg width="76" height="54" viewBox="0 0 76 54" fill="none" xmlns="http://www.w3.org/2000/svg">
<g clip-path="url(#clip0_1986_3273)">
<path d="M67.2489 43.0291C67.2489 40.6247 69.0364 38.6447 71.3587 38.3214V17.1201C67.8041 16.8372 65.0011 13.8806 65.0011 10.2708C65.0011 10.0553 65.0146 9.84648 65.0349 9.6377H29.2997C28.081 9.6377 27.0925 10.621 27.0925 11.8333V32.8594C27.6274 32.7248 28.1893 32.6439 28.7648 32.6439C32.5225 32.6439 35.5693 35.6746 35.5693 39.4125C35.5693 43.1503 32.5225 46.181 28.7648 46.181C28.1893 46.181 27.6274 46.1002 27.0925 45.9655V50.8078C27.0925 52.0201 28.081 53.0034 29.2997 53.0034H69.1515C70.3702 53.0034 71.3587 52.0201 71.3587 50.8078V47.7435C69.0364 47.4202 67.2489 45.4401 67.2489 43.0358V43.0291Z" stroke="#443D72" stroke-width="2" stroke-linecap="round" stroke-linejoin="round"/>
<path d="M37.1196 24.4338C39.681 24.4338 41.7575 22.3683 41.7575 19.8204C41.7575 17.2725 39.681 15.207 37.1196 15.207C34.5582 15.207 32.4817 17.2725 32.4817 19.8204C32.4817 22.3683 34.5582 24.4338 37.1196 24.4338Z" stroke="#443D72" stroke-width="2" stroke-linecap="round" stroke-linejoin="round"/>
<path d="M60.2683 32.5628C63.4954 32.5628 66.1114 29.9606 66.1114 26.7506C66.1114 23.5407 63.4954 20.9385 60.2683 20.9385C57.0413 20.9385 54.4253 23.5407 54.4253 26.7506C54.4253 29.9606 57.0413 32.5628 60.2683 32.5628Z" stroke="#443D72" stroke-width="2" stroke-linecap="round" stroke-linejoin="round"/>
<path d="M46.4903 47.609C48.6291 47.609 50.363 45.8842 50.363 43.7566C50.363 41.629 48.6291 39.9043 46.4903 39.9043C44.3514 39.9043 42.6175 41.629 42.6175 43.7566C42.6175 45.8842 44.3514 47.609 46.4903 47.609Z" stroke="#443D72" stroke-width="2" stroke-linecap="round" stroke-linejoin="round"/>
<path d="M12.2277 11.2944H7.69817C7.20392 11.2944 6.72998 11.5099 6.41176 11.8938C5.44356 13.0724 3.51394 15.8405 3.70352 18.9789C3.91341 22.4945 5.75501 28.7242 3.03323 33.2972C1.78067 35.3984 1.00882 37.7422 1.00882 40.1802V48.3765C1.00882 50.9223 3.08739 52.9899 5.64668 52.9899H13.0266" stroke="#443D72" stroke-width="2" stroke-linecap="round" stroke-linejoin="round"/>
<path d="M11.9704 11.2944H16.5C16.9942 11.2944 17.4682 11.5099 17.7864 11.8938C18.7546 13.0724 20.6842 15.8405 20.4946 18.9789C20.2847 22.4945 18.4431 28.7242 21.1649 33.2972C22.4175 35.3984 23.1893 37.7422 23.1893 40.1802V48.3765C23.1893 50.9223 21.1107 52.9899 18.5514 52.9899H11.1715" stroke="#443D72" stroke-width="2" stroke-linecap="round" stroke-linejoin="round"/>
<path d="M16.2562 1.01025H7.93514C7.06763 1.01025 6.36436 1.7098 6.36436 2.57274V6.78875C6.36436 7.65169 7.06763 8.35124 7.93514 8.35124H16.2562C17.1237 8.35124 17.827 7.65169 17.827 6.78875V2.57274C17.827 1.7098 17.1237 1.01025 16.2562 1.01025Z" stroke="#443D72" stroke-width="2" stroke-linecap="round" stroke-linejoin="round"/>
<path d="M1.01559 43.0287H10.9955C12.4105 43.0287 13.5615 41.8838 13.5615 40.4762V22.676C13.5615 21.2685 12.4105 20.1235 10.9955 20.1235H8.87625" stroke="#443D72" stroke-width="2" stroke-linecap="round" stroke-linejoin="round"/>
</g>
<defs>
<clipPath id="clip0_1986_3273">
<rect width="76" height="54" fill="white"/>
</clipPath>
</defs>
</svg>
