<svg width="65" height="72" viewBox="0 0 65 72" fill="none" xmlns="http://www.w3.org/2000/svg">
<g clip-path="url(#clip0_1986_3245)">
<path d="M14.5925 4.93652V4.98205C14.5925 7.03083 15.9446 8.83246 17.9173 9.41132L20.4844 10.1658C23.1952 10.9658 25.0568 13.4503 25.0568 16.2666V21.3723C25.0568 24.5073 22.5028 27.0438 19.3609 27.0438C16.2124 27.0438 13.665 24.5008 13.665 21.3723V11.5186" stroke="#443D72" stroke-width="2" stroke-linecap="round" stroke-linejoin="round"/>
<path d="M24.6453 30.1787C28.8845 30.1787 32.6535 32.1885 35.0442 35.2974" stroke="#443D72" stroke-width="2" stroke-linecap="round" stroke-linejoin="round"/>
<path d="M0.979801 49.099V43.1998C0.979801 36.0064 6.83901 30.1787 14.0569 30.1787" stroke="#443D72" stroke-width="2" stroke-linecap="round" stroke-linejoin="round"/>
<path d="M15.2457 26.2959L14.2986 29.1317C13.3449 32 15.4874 34.9593 18.5248 34.9593H20.1839C23.2213 34.9593 25.3638 32 24.4101 29.1317L23.5218 26.4715" stroke="#443D72" stroke-width="2" stroke-linecap="round" stroke-linejoin="round"/>
<path d="M25.0111 26.0162L20.9939 26.9984C19.9161 27.265 18.7861 27.265 17.7083 26.9984L13.6911 26.0162C9.38649 24.9626 6.64305 20.7675 7.41383 16.4227L9.47794 7.38209C10.1377 3.67477 13.371 0.975586 17.1465 0.975586H21.5491C25.3311 0.975586 28.5645 3.67477 29.2177 7.38209L31.2818 16.4227C32.0526 20.7675 29.3091 24.9626 25.0045 26.0162H25.0111Z" stroke="#443D72" stroke-width="2" stroke-linecap="round" stroke-linejoin="round"/>
<path d="M9.55633 41.561V49.0992" stroke="#443D72" stroke-width="2" stroke-linecap="round" stroke-linejoin="round"/>
<path d="M55.1171 13.2163V17.7626C55.1171 22.9724 50.8778 27.1935 45.6457 27.1935C40.4135 27.1935 36.1743 22.9724 36.1743 17.7626V10.7707C36.1743 5.56098 40.4135 1.33984 45.6457 1.33984H55.1171V3.51871C55.1171 6.57562 52.6284 9.04716 49.5649 9.04716H40.5964" stroke="#443D72" stroke-width="2" stroke-linecap="round" stroke-linejoin="round"/>
<path d="M50.9366 30.1787C58.161 30.1787 64.0137 36.0129 64.0137 43.1998V49.099" stroke="#443D72" stroke-width="2" stroke-linecap="round" stroke-linejoin="round"/>
<path d="M32.4967 32.7805C34.685 31.1415 37.4023 30.1724 40.3482 30.1724" stroke="#443D72" stroke-width="2" stroke-linecap="round" stroke-linejoin="round"/>
<path d="M41.5305 26.2959L40.5834 29.1317C39.6297 32 41.7722 34.9593 44.8096 34.9593H46.4687C49.5061 34.9593 51.6486 32 50.6949 29.1317L49.8066 26.4715" stroke="#443D72" stroke-width="2" stroke-linecap="round" stroke-linejoin="round"/>
<path d="M27.5128 51.4473L26.6702 53.9839C25.8145 56.553 27.7349 59.2001 30.4522 59.2001H31.935C34.6523 59.2001 36.5727 56.553 35.717 53.9839L34.9266 51.6034" stroke="#443D72" stroke-width="2" stroke-linecap="round" stroke-linejoin="round"/>
<path d="M22.6987 64.5464V70.7838" stroke="#443D72" stroke-width="2" stroke-linecap="round" stroke-linejoin="round"/>
<path d="M39.6819 64.5464V70.7838" stroke="#443D72" stroke-width="2" stroke-linecap="round" stroke-linejoin="round"/>
<path d="M36.4551 55.3755C41.7003 55.3755 45.9527 59.6096 45.9527 64.8324V71.0243" stroke="#443D72" stroke-width="2" stroke-linecap="round" stroke-linejoin="round"/>
<path d="M16.4215 71.0243V64.8324C16.4215 59.6096 20.6738 55.3755 25.919 55.3755" stroke="#443D72" stroke-width="2" stroke-linecap="round" stroke-linejoin="round"/>
<path d="M26.4612 54.0358H22.7249C21.0723 54.0358 19.89 52.4943 20.3668 50.9658L24.0313 39.2975C24.9588 36.3382 27.7806 34.3154 30.9813 34.3154C32.8103 34.3154 34.5151 34.9788 35.815 36.0975C36.9189 37.0471 38.0816 37.9382 39.388 38.6081L42.1118 40.0065" stroke="#443D72" stroke-width="2" stroke-linecap="round" stroke-linejoin="round"/>
<path d="M39.7669 44.5464L41.9812 50.8944C42.5168 52.4358 41.3345 54.0358 39.6493 54.0358H35.7235" stroke="#443D72" stroke-width="2" stroke-linecap="round" stroke-linejoin="round"/>
<path d="M36.0044 39.7725L35.5798 47.7725C35.4557 50.1529 33.4765 52.0196 31.0793 52.0196C28.682 52.0196 26.7094 50.1529 26.5787 47.7725L26.3697 43.87" stroke="#443D72" stroke-width="2" stroke-linecap="round" stroke-linejoin="round"/>
<path d="M55.2804 41.561V49.0992" stroke="#443D72" stroke-width="2" stroke-linecap="round" stroke-linejoin="round"/>
</g>
<defs>
<clipPath id="clip0_1986_3245">
<rect width="65" height="72" fill="white"/>
</clipPath>
</defs>
</svg>
