<svg width="41" height="30" viewBox="0 0 41 30" fill="none" xmlns="http://www.w3.org/2000/svg">
<path d="M11.3042 28.4319C13.6636 28.4319 15.5762 26.5193 15.5762 24.1599C15.5762 21.8006 13.6636 19.8879 11.3042 19.8879C8.94487 19.8879 7.03223 21.8006 7.03223 24.1599C7.03223 26.5193 8.94487 28.4319 11.3042 28.4319Z" stroke="#494949" stroke-width="1.5" stroke-miterlimit="10"/>
<path d="M30.5044 28.4319C32.8638 28.4319 34.7764 26.5193 34.7764 24.1599C34.7764 21.8006 32.8638 19.8879 30.5044 19.8879C28.1451 19.8879 26.2324 21.8006 26.2324 24.1599C26.2324 26.5193 28.1451 28.4319 30.5044 28.4319Z" stroke="#494949" stroke-width="1.5" stroke-miterlimit="10"/>
<path d="M7.03229 24.16H3.48029C2.49629 24.16 1.69629 23.36 1.69629 22.376V3.35199C1.69629 2.36799 2.49629 1.56799 3.48029 1.56799H29.0243V20.2" stroke="#494949" stroke-width="1.5" stroke-miterlimit="10"/>
<path d="M28.6161 16H1.7041" stroke="#494949" stroke-width="1.5" stroke-miterlimit="10"/>
<path d="M29.2559 5.28003H34.8559C35.5999 5.28003 36.2879 5.67203 36.6639 6.31203L40.0319 11.992V22.472C40.0319 23.4 39.2799 24.16 38.3439 24.16H34.7759" stroke="#494949" stroke-width="1.5" stroke-miterlimit="10"/>
<path d="M29.2559 12.1281H40.2959" stroke="#494949" stroke-width="1.5" stroke-miterlimit="10"/>
<path d="M15.5762 24.16H26.2322" stroke="#494949" stroke-width="1.5" stroke-miterlimit="10"/>
</svg>
