<svg width="42" height="46" viewBox="0 0 42 46" fill="none" xmlns="http://www.w3.org/2000/svg">
<path d="M21.9684 1.35999L24.8084 5.39998L20.7764 8.23998" stroke="#494949" stroke-width="1.5" stroke-linecap="round" stroke-linejoin="round"/>
<path d="M24.0719 5.21593C23.1679 5.08793 22.2479 5.02393 21.3119 5.02393C10.3679 5.02393 1.50391 13.8959 1.50391 24.8319C1.50391 35.7679 10.3759 44.6399 21.3119 44.6399C30.5359 44.6399 38.2799 38.3359 40.4959 29.8079" stroke="#494949" stroke-width="1.5" stroke-miterlimit="10" stroke-linecap="round"/>
<path d="M15.2402 28.64C15.1842 28.48 15.1602 28.336 15.1602 28.208C15.1602 27.976 15.2322 27.784 15.3842 27.632C15.5362 27.48 15.7282 27.408 15.9762 27.408C16.3122 27.408 16.5922 27.6 16.8002 27.984C17.1042 28.536 17.6162 28.808 18.3282 28.808C18.8242 28.808 19.2242 28.656 19.5122 28.36C19.8002 28.064 19.9522 27.664 19.9522 27.168C19.9522 26.672 19.7922 26.232 19.4642 25.92C19.1442 25.608 18.7282 25.448 18.2322 25.448H18.0722C17.8402 25.448 17.6482 25.376 17.4962 25.224C17.3442 25.072 17.2722 24.888 17.2722 24.648C17.2722 24.408 17.3442 24.224 17.4962 24.08C17.6482 23.936 17.8322 23.856 18.0722 23.856H18.2322C18.6642 23.856 19.0242 23.712 19.2962 23.424C19.5682 23.136 19.7122 22.76 19.7122 22.28C19.7122 21.8 19.5842 21.464 19.3202 21.208C19.0642 20.952 18.7042 20.816 18.2482 20.816C17.5682 20.816 17.1122 21.088 16.8642 21.624C16.6882 21.992 16.4162 22.176 16.0722 22.176C15.8402 22.176 15.6482 22.104 15.4882 21.952C15.3282 21.8 15.2562 21.616 15.2562 21.376C15.2562 21.24 15.2882 21.096 15.3522 20.944C15.5602 20.432 15.9282 20.016 16.4322 19.696C16.9442 19.376 17.5682 19.208 18.3042 19.208C19.2882 19.208 20.0642 19.48 20.6402 20.024C21.2082 20.568 21.4962 21.28 21.4962 22.144C21.4962 23.152 21.0962 23.912 20.2882 24.432V24.464C20.6722 24.648 21.0002 24.968 21.2882 25.424C21.5762 25.888 21.7202 26.448 21.7202 27.12C21.7202 28.072 21.4002 28.856 20.7682 29.456C20.1362 30.056 19.3202 30.36 18.3362 30.36C17.5602 30.36 16.9042 30.2 16.3682 29.88C15.8242 29.56 15.4482 29.136 15.2402 28.592V28.64Z" fill="#494949"/>
<path d="M24.0482 28.296C23.8962 27.832 23.8242 26.672 23.8242 24.832C23.8242 22.992 23.8962 21.832 24.0482 21.368C24.4962 19.96 25.5122 19.256 27.1122 19.256C28.7122 19.256 29.7282 19.96 30.1922 21.368C30.3442 21.832 30.4162 22.992 30.4162 24.832C30.4162 26.672 30.3442 27.832 30.1922 28.296C29.7282 29.704 28.6962 30.408 27.1122 30.408C25.5282 30.408 24.4882 29.704 24.0482 28.296ZM25.8002 27.96C26.0002 28.536 26.4402 28.816 27.1202 28.816C27.8002 28.816 28.2402 28.528 28.4562 27.96C28.5522 27.672 28.6002 26.632 28.6002 24.832C28.6002 23.032 28.5522 21.984 28.4562 21.704C28.2402 21.128 27.8002 20.848 27.1202 20.848C26.4402 20.848 26.0002 21.136 25.8002 21.704C25.7042 21.992 25.6562 23.032 25.6562 24.832C25.6562 26.632 25.7042 27.68 25.8002 27.96Z" fill="#494949"/>
</svg>
