<svg width="24" height="19" viewBox="0 0 24 19" fill="none" xmlns="http://www.w3.org/2000/svg">
<g clip-path="url(#clip0_269_780)">
<path d="M13.59 16.5H4.28C2.19 16.5 0.5 14.81 0.5 12.72V4.28C0.5 2.19 2.19 0.5 4.28 0.5H16.72C18.81 0.5 20.5 2.19 20.5 4.28V8.96" stroke="#959595" stroke-miterlimit="10" stroke-linecap="round"/>
<path d="M3.29004 3.52002L9.68004 8.77002C10.16 9.16002 10.85 9.16002 11.33 8.77002L17.72 3.52002" stroke="#959595" stroke-miterlimit="10" stroke-linecap="round"/>
<path d="M18.8501 18.4902C21.1973 18.4902 23.1001 16.5874 23.1001 14.2402C23.1001 11.893 21.1973 9.99023 18.8501 9.99023C16.5029 9.99023 14.6001 11.893 14.6001 14.2402C14.6001 16.5874 16.5029 18.4902 18.8501 18.4902Z" stroke="#959595" stroke-miterlimit="10" stroke-linecap="round"/>
<path d="M19.01 12.2002L20.71 13.9002C20.9 14.0902 20.9 14.4002 20.71 14.5902L19.01 16.2902" stroke="#959595" stroke-miterlimit="10" stroke-linecap="round"/>
<path d="M20.7801 14.24H16.8601" stroke="#959595" stroke-miterlimit="10" stroke-linecap="round"/>
</g>
<defs>
<clipPath id="clip0_269_780">
<rect width="23.61" height="18.99" fill="white"/>
</clipPath>
</defs>
</svg>
