<svg width="114" height="177" viewBox="0 0 114 177" fill="none" xmlns="http://www.w3.org/2000/svg">
<g clip-path="url(#clip0_125_188)">
<path d="M90.6099 111.11C90.2599 110.53 89.0499 108.93 89.0499 106.94C89.0499 105.28 90.0499 104.21 91.1199 102.15C92.6999 98.2498 93.4899 94.1798 93.1999 89.9298C93.1699 89.5098 93.1699 89.0098 92.9499 88.6898C92.6499 88.2598 92.1899 87.7498 91.7399 87.6798C91.2799 87.6098 90.6299 87.9098 90.2599 88.2598C89.8799 88.6198 89.5899 89.2198 89.5099 89.7498C89.3499 90.7998 89.1999 91.8498 89.0599 92.8998C88.7299 94.4998 88.8599 97.0298 87.9699 98.3598C87.9199 98.3398 87.8699 98.3198 87.8199 98.2898C87.7499 98.0398 87.6499 97.7998 87.5699 97.5598C87.0899 95.0898 86.1799 92.7398 85.0099 90.4898C84.5999 89.6998 83.8599 89.2098 82.8899 89.3298C81.8899 89.4498 81.4799 90.1998 81.1799 91.0298C81.1299 91.1598 81.0899 91.2998 81.0699 91.4398C80.6399 94.6198 80.8799 97.7198 82.2899 100.65C83.3199 102.81 84.9799 104.27 87.1999 104.94C87.2399 105.35 87.2899 105.75 87.3499 106.16C87.7299 108.69 88.3399 110.75 89.7399 112.93C90.8899 114.73 90.8499 116.39 90.2699 118.23C87.9599 125.57 85.6499 132.9 83.3299 140.24C83.2299 140.74 82.8899 142.73 82.1699 142.77C82.1699 142.77 82.1499 142.77 82.1399 142.77C81.9699 142.77 81.7999 142.67 81.6599 142.57C81.4099 139.79 81.0599 136.98 80.8899 134.21C80.2499 123.85 78.7899 113.57 77.2399 103.31C76.8399 100.62 76.9499 98.2198 77.8099 95.6998C80.4299 88.0398 82.5999 80.2498 83.8899 72.2398C84.4399 68.8198 84.9599 65.3998 85.4799 61.9698C85.8299 59.6698 86.4699 57.6498 88.1199 55.7698C89.9999 53.6298 91.2899 50.9698 92.7799 48.4998C93.4499 47.3998 93.7499 45.9398 94.6599 45.1498C95.6999 44.2498 97.0899 45.5198 98.3399 45.4198C99.7599 45.2998 101.22 45.2498 102.56 44.8198C103.44 44.5398 104.23 43.7298 104.87 42.9998C105.39 42.4098 105.22 41.5798 104.68 41.0998C103.82 40.5498 102.85 40.3598 101.86 40.3598C101.01 40.3598 100.14 40.5098 99.3299 40.6998C99.0499 40.7698 98.7699 40.8398 98.4899 40.9098C98.4999 40.8798 98.5199 40.8398 98.5299 40.8098C99.7999 39.3798 100.35 37.5098 100.82 35.6998C101.08 34.6998 101.26 33.6598 101.43 32.6298C101.6 31.6398 100.21 30.8298 99.2499 31.3298C98.5099 31.7098 97.7599 32.2198 97.2199 32.8498C95.6099 34.7398 94.5499 36.9398 94.0399 39.3798C92.9399 44.6798 90.3499 49.3198 87.6499 53.9198C87.4499 54.2498 87.0199 54.4398 86.6899 54.6998C86.5699 54.3598 86.3099 53.9998 86.3399 53.6698C86.8999 48.0398 86.5099 42.4698 85.2599 36.9598C85.1399 36.4498 85.0799 35.9298 85.0999 35.4298C85.2299 35.4498 85.3699 35.4198 85.4999 35.2898C85.6499 35.1298 85.8099 34.9598 85.9599 34.7898C85.9799 34.7698 85.9999 34.7598 86.0099 34.7398C86.5599 34.1498 87.1199 33.5598 87.6699 32.9598C89.4299 31.0798 90.8799 28.9598 92.3299 26.8598C92.7899 26.0398 93.1699 25.1798 93.5199 24.2898C94.1499 22.6998 94.6499 20.9998 94.8499 19.3098C95.0899 17.2498 93.2799 16.0398 91.4099 17.0198C90.3099 17.5998 89.3299 18.5798 88.5799 19.5898C87.3999 21.1898 86.4599 22.9698 85.4099 24.6698C83.7599 23.0398 84.1599 20.6698 83.2599 18.7598C82.7099 17.5798 82.2999 16.3298 81.6799 15.1998C81.1999 14.3298 80.5399 13.5298 79.8399 12.8198C79.0799 12.0498 78.0599 11.8998 77.0199 12.2298C75.8899 12.5898 75.4099 13.4998 75.4699 14.5798C75.5699 16.5898 75.5999 18.6398 76.0499 20.5798C77.1099 25.1598 79.3599 29.1898 82.3599 32.7898C83.1999 33.7998 84.0599 34.7398 84.1999 36.1398C84.4699 38.8698 84.9099 41.5798 85.0899 44.3098C85.5899 52.0198 84.3699 59.6098 82.9299 67.1198C81.2299 76.0498 79.0699 84.8998 77.0799 93.7698C76.9399 94.3798 76.5099 94.9298 76.2599 95.4198C74.2099 86.6098 72.1899 77.8998 70.1299 69.1898C69.7999 67.7798 69.2699 66.4498 69.9899 64.9898C71.4899 61.9498 71.9399 58.6498 72.0999 55.3198C72.1699 53.9298 72.7199 53.2398 73.9499 52.7998C74.6099 52.5598 75.2499 52.1298 75.7799 51.6598C78.0699 49.5698 79.9099 47.1698 80.1299 43.9398C80.2499 42.2598 79.1499 41.1098 77.7899 41.1198C74.8699 41.7598 75.2399 44.3398 73.3099 45.6298C72.9099 45.1298 72.7199 44.5198 72.4599 43.9398C72.0399 42.5198 71.6699 41.1098 71.1199 39.7798C70.6899 38.7398 70.0699 37.6998 69.2899 36.8898C68.2099 35.7798 66.1999 36.3098 65.7999 37.8198C65.5199 38.8798 65.4499 40.0998 65.6499 41.1798C66.2699 44.5198 67.7999 47.4698 70.1799 49.8998C71.2099 50.9498 71.5299 51.9698 71.1999 53.3998C70.5799 56.0698 70.1399 58.7798 69.5799 61.4598C69.4699 61.9698 69.1999 62.4498 69.0099 62.9398C68.6699 62.5398 68.1399 62.1798 67.9999 61.7198C65.3599 52.9898 62.0599 44.5198 58.0099 36.3498C57.3799 35.0798 57.4199 33.9298 57.7999 32.6098C58.3099 30.8098 58.6599 28.9598 58.9399 27.1098C59.8099 21.4098 62.5599 21.0698 64.4299 18.9398C65.5299 17.5198 66.3199 15.8798 66.9899 14.1998C67.8399 12.0898 68.2899 9.79981 68.7199 7.54981C68.8199 7.03981 68.2599 6.06981 67.7699 5.85981C67.2699 5.64981 66.3499 5.95981 65.8599 6.33981C65.2099 6.85981 64.6499 7.60981 64.2899 8.36981C63.9899 9.01981 63.6899 9.65981 63.4099 10.3198C62.4199 12.0498 61.7399 14.1498 61.1199 16.0498L61.0999 16.0298L61.1199 16.0598L61.0899 16.0398C61.0899 16.1298 61.0699 16.2198 61.0599 16.3098C61.0099 16.4298 60.9599 16.5398 60.8999 16.6598C60.3999 15.6698 60.3799 14.5098 60.2499 13.3798C59.9199 10.5198 59.6199 7.64981 59.0699 4.82981C58.8099 3.45981 58.1399 2.12981 57.4399 0.899814C56.9399 0.0298137 55.3199 0.209814 54.8799 1.10981C54.5599 1.74981 54.2499 2.43981 54.1699 3.13981C53.6499 7.63981 53.7999 12.1398 55.8199 16.2498C57.3899 19.4498 57.6099 22.6898 57.3899 25.9498C57.0899 27.4998 57.3099 29.6698 56.0799 30.8198C54.7199 30.6498 48.2299 20.2198 48.2299 14.4598C48.2299 12.8298 48.4099 11.1898 48.4999 9.58981C48.5099 9.56981 48.5299 9.54981 48.5399 9.53981C48.6299 6.74981 48.1699 4.01981 47.2699 1.36981C47.0799 0.809814 46.3499 0.199814 45.7599 0.0498137C44.8499 -0.180186 44.0299 0.429814 43.7499 1.29981C43.2999 2.65981 42.9799 4.05981 42.7399 5.46981C42.5499 6.58981 42.5599 7.73981 42.4799 8.87981C41.8899 8.84981 41.4799 8.59981 41.1499 8.26981C39.3699 6.87981 38.3999 5.46981 36.9499 3.84981C36.6299 3.55981 36.3099 3.27981 35.9699 3.00981C35.2199 2.41981 34.1999 2.08981 33.2499 1.84981C32.1999 1.58981 31.1899 2.57981 31.4299 3.64981C31.6799 4.74981 32.0699 5.85981 32.6199 6.83981C34.5299 10.2198 37.4699 12.5498 40.9099 14.1398C42.5699 14.9098 44.1199 15.6898 45.3299 16.9598C48.1299 19.8998 50.0099 23.4498 51.7699 27.0798C52.3099 28.1998 52.8599 29.3198 53.4099 30.4398C56.0999 35.8698 59.0599 41.1698 60.8699 46.9998C60.2799 46.7998 59.5899 46.6998 59.1599 46.3198C54.3099 41.9598 50.0999 37.0398 46.3399 31.7198C45.3599 30.3298 45.0599 28.9598 45.5399 27.2598C45.9199 25.9198 45.9799 24.4298 45.8799 23.0298C45.7799 21.5798 44.7499 20.3198 43.9999 20.4098C42.7699 20.5498 42.5299 21.6298 42.1999 22.5798C41.7899 23.7598 41.1499 23.6398 40.2699 23.0098C38.9799 22.0898 37.6699 21.1798 36.2699 20.4498C34.6399 19.5998 33.2499 19.7398 32.7299 20.6298C31.9799 21.8998 32.8399 22.8898 33.5399 23.7398C35.0399 25.5498 36.8899 26.8198 39.0599 27.4898C41.2099 28.1598 43.1299 29.5798 44.5599 31.3198C49.0499 38.5298 54.6699 44.7898 61.2099 50.2498C62.4899 51.3198 63.3499 52.5298 63.8099 54.0898C65.6999 60.4398 67.6199 66.7798 69.4899 73.1398C69.9399 74.6598 70.2499 76.2198 70.5599 77.7698C70.6299 78.1098 70.3999 78.5098 70.3099 78.8798C69.9399 78.6998 69.5199 78.5898 69.2099 78.3398C68.3199 77.6098 67.4899 76.7998 66.5899 76.0698C64.8399 74.6598 63.4999 73.1298 63.2099 71.2698C63.5099 68.1898 64.0099 65.1298 64.2599 62.0498L64.1999 59.8398C64.0399 57.5398 63.0099 56.3598 61.6699 56.3198C60.3399 56.2798 59.5299 57.5398 59.5199 59.9598C59.5199 61.4698 59.6999 62.9798 59.8199 64.6798C58.0899 63.1498 56.7099 61.6598 55.0599 60.5498C54.3199 60.0598 53.5299 60.0098 52.8799 60.2898C52.8599 60.2698 52.8399 60.2498 52.8099 60.2398C52.2299 60.8398 52.0099 61.5898 52.0099 62.3698C52.0099 68.2298 57.1099 68.5598 63.9299 74.9498C65.7399 77.0498 67.5699 79.1098 70.0099 80.5498C71.2699 81.2898 71.7699 82.3398 71.9999 83.6898C73.4599 92.1998 75.1299 100.67 76.3899 109.21C77.6699 117.91 78.5799 126.66 79.5999 135.4C79.8299 137.4 79.8999 139.43 79.8999 141.45C79.8999 142.1 79.6699 143 79.2099 143.36C78.3999 143.99 78.0599 142.9 77.5399 142.51C77.3099 142.34 77.1599 142.08 76.9699 141.86C71.9199 135.72 67.1899 129.35 62.8999 122.66C61.7899 120.93 60.8099 119.35 62.0399 117.18C62.4699 116.42 62.2599 115.2 62.1299 114.22C61.5099 109.5 60.8599 104.79 60.1399 100.08C59.8199 98.0098 59.8899 96.1998 61.2999 94.3998C63.4799 91.6198 64.3399 88.2098 65.1099 84.8198C65.3299 83.8598 65.2899 82.8098 65.2299 81.8198C65.1799 80.9298 63.9299 80.2998 63.2699 80.8998C62.3399 81.7398 61.4099 82.7098 60.8399 83.8098C59.9899 85.4498 59.4599 87.2598 58.5999 89.5098C57.8199 86.5098 57.2499 83.9898 56.4899 81.5198C56.1199 80.2998 55.5199 79.1198 54.8299 78.0498C54.2799 77.1898 52.6099 77.5598 52.3699 78.5498C52.1699 79.3798 52.0399 80.2598 52.0799 81.1098C52.2599 85.5198 53.2799 89.7098 56.0499 93.2498C57.1699 94.6798 57.7799 96.1698 58.0299 97.9298C58.4799 101.07 59.0399 104.19 59.5099 107.33C59.9399 110.18 60.3499 113.03 60.6999 115.89C60.7399 116.18 60.4399 116.58 60.1899 116.81C60.0999 116.89 59.6099 116.71 59.4499 116.52C58.9899 115.97 58.5399 115.39 58.1999 114.77C55.8499 110.46 53.4799 106.17 51.2199 101.81C47.4099 94.4298 47.6099 94.4298 48.3499 86.1298C48.9799 79.0898 49.2399 72.0098 48.1399 64.9598C47.8899 63.3898 47.3999 61.7598 47.6399 60.2498C47.6699 60.0498 47.7399 59.8498 47.8099 59.6498C47.8599 59.6298 47.9099 59.5898 47.9599 59.5398C47.9899 59.4598 48.0299 59.3798 48.0599 59.2898C49.6999 58.1298 50.5899 56.3398 51.2499 54.5098C51.6399 53.4298 51.6399 52.2298 51.4999 50.9898C51.3599 49.7498 50.0599 48.9998 48.9199 49.5198C48.2899 49.8098 47.6999 50.2798 47.1999 50.7698C46.4799 51.4698 45.9399 51.3098 45.5499 50.5198C45.0399 49.4898 44.7599 48.3098 44.1199 47.3798C43.3999 46.3398 42.5099 45.3298 41.4799 44.6298C40.0999 43.6998 38.3199 44.6098 38.3299 46.2298C38.3299 47.6298 38.4899 49.1798 39.1099 50.3898C40.1499 52.4198 41.2699 54.6598 42.9799 56.0398C45.6499 58.2098 46.1599 61.0198 46.6399 63.9998C46.7299 64.5698 46.7699 65.1498 46.7699 65.7298C46.7399 72.6498 46.7199 79.5798 46.6199 86.4998C46.5999 87.5398 46.1899 88.5698 45.7999 90.2898C44.5799 87.5198 43.5699 85.4598 42.7399 83.3298C38.7299 73.0498 34.7699 62.7498 30.7699 52.4598C28.3599 46.2698 27.8999 45.1398 27.8999 43.5598C27.8999 42.7898 28.0499 42.0098 28.4299 41.2198C28.8299 40.8198 29.2599 40.4498 29.6999 40.0898C31.0599 38.9698 32.1999 37.6598 32.5699 35.9098C32.6899 35.3298 32.4599 34.3398 32.0499 34.0798C31.5899 33.7998 30.5499 33.8898 30.0999 34.2498C29.0799 35.0698 28.2599 36.1498 27.2699 37.2198C26.2099 34.8698 25.3899 32.7098 24.2799 30.6998C23.3199 28.9498 22.1499 27.2798 20.8599 25.7498C20.1599 24.9198 19.0899 24.2598 18.0599 23.8598C16.3199 23.1898 14.8599 24.3298 14.8799 26.2098C14.8999 28.4498 15.6999 30.5098 17.0299 32.2098C18.7899 34.4698 20.7099 36.6298 22.7999 38.5898C24.1599 39.8598 24.8699 40.4798 25.4099 41.1098C25.4499 41.1398 25.4799 41.1698 25.5199 41.1898C25.5499 41.3098 28.1799 49.6798 28.5399 50.2098C30.2699 55.3198 32.0399 60.4098 33.8699 65.4798C39.1499 80.1298 44.9799 94.5298 52.3299 108.29C52.8599 109.29 53.3699 110.33 53.9999 111.6C52.3099 110.48 50.6499 109.32 49.0099 108.12C48.9899 108.1 48.9799 108.07 48.9599 108.05C44.1899 102.46 39.3099 96.9498 34.5699 91.3198C32.4899 88.8498 31.2799 87.3898 30.4799 86.0198C29.4599 84.2698 28.4599 80.9998 28.4599 78.3298C28.4599 77.3098 28.6099 76.3698 28.9599 75.6398C28.9599 75.6398 28.9599 75.6498 28.9599 75.6598C29.0499 75.6298 29.1499 75.5998 29.2399 75.5598C29.9799 75.2598 30.6099 74.5098 31.0899 73.8198C32.1199 72.3598 32.6699 70.7098 32.1499 68.9198C32.0899 68.7098 31.9499 68.4798 31.7799 68.2898C31.3199 68.0198 30.9299 67.8998 30.5999 67.8998C29.4799 67.8998 28.9099 69.1498 27.8299 69.8498C27.8299 69.8698 27.8299 69.8898 27.8199 69.9198C27.7799 69.9798 27.7499 70.0398 27.7099 70.0998C27.5199 69.9198 27.3799 69.6898 27.3099 69.3398C26.9999 67.6398 26.6999 65.9398 26.2799 64.2698C26.0399 63.2998 25.6399 62.3498 25.1899 61.4598C24.7199 60.5398 24.0199 59.7498 22.8199 59.9898C21.6099 60.2298 21.2799 61.3098 21.1599 62.2798C21.0299 63.3998 21.0799 64.5898 21.2699 65.7098C21.7899 68.7398 22.9399 71.5398 24.8399 73.9698C26.2999 75.8298 26.6999 77.9298 26.8499 81.2398C26.0699 80.0698 25.8099 79.7198 25.5899 79.3598C23.1599 75.3598 20.7299 71.3598 18.3199 67.3398C17.8599 66.1398 17.3799 65.0498 17.3799 63.8798C17.3799 63.3798 17.4699 62.8598 17.6899 62.3098C18.0799 60.9598 18.4299 59.5898 18.7599 58.2298C18.7899 58.1198 18.8299 58.0198 18.8599 57.9098C18.9099 57.7198 18.9399 57.5398 18.9799 57.3498C19.7099 54.1198 19.6299 50.8498 19.1999 47.5898C19.0799 46.6498 18.6999 45.9298 18.2099 45.5198C17.8399 45.4398 17.4999 45.3998 17.1899 45.3998C13.1899 45.3998 14.2799 51.8398 13.6299 54.5298C13.1699 53.9498 12.7899 53.3698 12.2899 52.8098C12.0599 52.5098 11.8299 52.2098 11.6099 51.8998C10.8599 50.8398 10.2099 49.7098 9.40994 48.6898C8.24994 47.2198 7.09994 45.7198 5.74994 44.4398C4.95994 43.6898 3.82994 43.1598 2.75994 42.8798C1.05994 42.4198 -0.14006 43.4798 -0.0200598 45.1798C0.0399402 46.0298 0.14994 46.9498 0.52994 47.6898C1.76994 50.1198 2.94994 52.6198 4.50994 54.8298C6.85994 58.1598 9.96994 60.7598 13.4399 62.9098C14.4499 63.5398 15.1999 64.2498 15.7599 65.3498C17.6499 69.0798 19.7799 72.6798 21.6399 76.4198C22.2499 77.6398 23.0199 78.7598 23.8199 79.8598C25.7399 81.8898 26.8099 84.4798 28.4599 86.6898C29.7699 88.4498 31.2999 90.2098 32.7699 91.8498C34.1999 93.6498 35.4999 95.5698 37.0399 97.2698C37.5599 97.8498 36.9499 98.2398 36.2899 98.2498C35.8599 98.2498 35.4299 98.2198 34.9899 98.1998C33.5599 97.6198 32.1499 96.9998 30.6999 96.4598C27.6099 95.2998 24.5099 94.1998 21.4199 93.0498C19.7099 92.4098 19.1099 91.1998 19.2399 89.3498C19.4699 86.1098 18.4999 83.0898 16.8799 80.3098C16.6399 79.8898 15.8699 79.3798 15.5599 79.4898C14.9799 79.6998 14.2399 80.2698 14.1299 80.8098C13.8299 82.3298 13.8099 83.9098 13.6599 85.6498C12.1399 85.0798 10.6899 84.5098 9.21994 83.9898C7.30994 83.3198 5.34994 82.8698 3.29994 83.1698C1.81994 83.3898 1.10994 84.7698 1.86994 86.0298C2.22994 86.6298 2.70994 87.2198 3.24994 87.6498C6.01994 89.8698 9.26994 90.9998 12.7299 91.4598C13.0599 91.4998 13.4099 91.5398 13.7499 91.5298C19.4899 91.8098 15.4399 92.8698 28.2499 96.7898C30.7199 97.5498 33.1799 98.5398 35.5899 99.4198C36.6999 99.6398 37.8199 99.7098 38.9099 99.5998C39.5299 99.9298 40.0699 100.45 40.5699 101.09C41.1799 101.88 41.8599 102.63 42.5699 103.34C44.2699 105.05 45.8699 106.88 47.6899 108.46C48.6999 109.83 50.3099 110.97 51.9299 111.9C52.4599 112.4 53.0099 112.89 53.5999 113.3C55.1699 114.39 56.4999 115.62 57.4699 117.3C61.7299 124.65 66.5699 131.59 71.7599 138.31C72.1599 138.82 72.5299 139.28 72.5299 139.88C72.5299 140 72.5099 140.13 72.4799 140.26C72.4099 140.29 72.3299 140.33 72.2599 140.35C71.4499 140.12 70.8199 139.54 70.0999 139.13V139.1C66.8599 137.12 63.9799 135.34 61.0899 133.57C60.0499 132.94 59.4599 132.07 59.1699 130.84C58.7399 129.03 58.2199 127.2 57.4799 125.5C55.9299 121.91 53.9999 118.53 51.3499 115.6C50.2499 114.38 48.9799 113.49 47.2499 113.48C45.9699 113.48 44.8499 114.47 45.1999 115.66C45.7099 117.43 46.3999 119.21 47.3299 120.79C48.3199 122.48 49.6799 123.96 51.1499 125.89C48.5399 125.14 46.3799 124.35 44.1499 123.93C42.3399 123.59 40.4499 123.61 38.5899 123.62C37.7299 123.62 37.1399 124.94 37.6899 125.62C38.3899 126.5 39.1599 127.5 40.1399 127.96C44.3099 129.94 48.4899 131.99 53.3699 131.16C54.8599 130.91 56.2099 131.28 57.3399 132.39C59.9599 134.96 63.0999 136.73 66.2699 138.45C67.2499 138.84 67.8899 139.5 68.7999 140.02C69.7499 140.56 70.8199 140.89 71.7699 141.45C72.0899 141.64 72.4099 141.83 72.7199 142.04C74.9099 142.82 78.8599 146.4 80.8199 154.67C81.0899 159.76 80.3299 164.75 79.4899 169.74C79.1599 171.72 79.1099 173.75 78.9699 175.76C78.9499 175.99 79.2099 176.24 79.3399 176.48C79.5599 176.33 79.8999 176.22 79.9899 176.01C80.2799 175.36 80.5599 174.68 80.7099 173.98C81.7799 169.03 82.4399 164.03 82.4799 158.96C82.4899 157.54 82.4599 156.11 82.3599 154.68C82.2199 153.91 82.1599 153.08 82.1599 152.21C82.1599 149.28 82.8599 145.97 83.7899 143.53C85.6199 138.71 87.2699 133.82 88.9599 128.95C89.4399 127.55 90.1499 126.39 91.2499 125.39C93.6199 123.22 95.4799 120.63 96.8899 117.76C97.9699 115.56 98.9099 113.29 99.7699 110.99C100.28 109.63 100.89 108.88 102.51 108.82C107.04 108.65 110.23 105.93 113 102.69C113.37 102.25 113.53 101.18 113.25 100.75C113.08 100.48 112.66 100.27 112.22 100.16C109.72 100.21 106.69 100.66 104.72 102.34C104.64 102.29 104.56 102.26 104.48 102.25C104.48 102.22 104.48 102.2 104.5 102.17C105.33 98.9798 106.3 95.8198 106.94 92.5998C107.22 91.1598 107.69 89.3998 106.16 88.2198C105.25 87.5298 103.74 88.6298 102.4 91.0498C99.6899 95.9598 98.5199 101.22 99.2699 106.8C99.4099 107.83 99.5999 108.73 99.0899 109.67C97.0599 113.46 95.0799 117.28 92.9799 121.03C92.6299 121.66 91.8299 122.03 91.2099 122.5C91.1699 118.94 92.7899 115.72 93.4099 112.28C95.0799 103.09 96.3099 93.8798 96.2799 84.5398C96.2799 83.9498 96.3199 83.4298 96.4299 82.9698C96.3999 82.8998 96.3999 82.9098 96.3899 82.8698C97.6499 81.3698 99.6799 80.8998 101.39 80.0898C101.96 79.8198 102.41 79.3998 102.98 79.1298C105.12 77.9398 106.6 75.9098 107.89 73.6998C109.07 71.6798 109.11 69.5898 108.07 68.8998C106.42 67.8098 104.73 68.2898 103.14 69.0998C102.51 69.4198 101.97 69.9398 101.42 70.4098C100.87 70.8798 100.4 71.4498 99.8199 71.8598C99.2199 72.2898 98.6999 72.0098 98.5999 71.3198C98.3999 69.8898 98.3599 68.4398 98.1499 67.0098C97.8499 64.9998 97.3599 63.0198 95.9699 61.4398C94.9399 60.2698 92.9099 60.4198 92.3099 61.8298C91.7499 63.1298 91.3699 64.5698 91.2699 65.9798C90.9999 69.7898 91.6299 73.4798 93.5899 76.8298C94.3399 78.1198 94.6699 79.4298 94.7099 80.9298C94.9299 89.7698 94.2599 98.5398 92.6399 107.24C92.3599 108.74 91.7899 110.19 91.3499 111.67C91.0099 111.51 90.7499 111.31 90.5499 111.08L90.6099 111.11ZM103.17 77.0998C101.8 78.1498 100.49 79.0598 98.7999 79.4598C98.5999 79.3198 98.3999 79.1898 98.2099 79.0498C98.1999 78.9198 98.1899 78.8198 98.1899 78.7498C98.1899 78.4398 98.3099 78.3998 98.6299 77.8298C99.3999 75.1998 101.11 73.1198 103.07 71.2198C103.58 70.7298 104.18 70.2198 104.83 70.0298C105.42 69.8598 106.23 69.9498 106.75 70.2498C107.02 70.3998 107.03 71.3098 106.9 71.8098C106.31 74.0198 104.74 75.5698 103.17 77.0998ZM97.0599 74.2998C96.9999 75.2198 97.0099 76.6198 96.0199 76.6198C95.8999 76.6198 95.7699 76.5998 95.6299 76.5598C95.5299 76.3998 95.3299 76.3198 95.1799 76.2098C94.7199 75.8698 94.3199 75.5098 94.1399 75.0598C92.6599 71.2398 92.5399 67.2598 93.3699 63.2598C93.4399 62.8998 93.8799 62.4198 94.1999 62.3598C94.4999 62.3098 95.0299 62.6798 95.2099 62.9998C96.5999 65.4298 96.6699 68.1898 97.0499 70.8698C97.1499 71.5698 97.0599 72.2998 97.0599 73.0098H97.0699C97.0699 73.4398 97.1399 73.8798 97.0599 74.2898V74.2998ZM87.1699 101.13C87.0799 101.89 87.1499 102.38 86.6299 103.01C86.5699 103.01 86.5199 103.01 86.4699 103.01C86.1299 103.01 86.0599 102.92 85.8699 102.57C85.1399 102.01 84.5799 101.3 84.1799 100.49C83.1599 98.4298 82.4199 96.1598 82.3299 93.8498C82.3299 93.8198 82.3299 93.7798 82.3299 93.7498C82.3299 93.2098 82.5499 91.4798 83.1399 91.4798C84.3199 91.4798 85.6899 96.7398 85.8099 97.0098C86.1299 97.7798 86.4599 98.5498 86.7899 99.3098C86.9799 99.9198 87.0899 100.52 87.1799 101.13H87.1699ZM90.6399 100.38C90.3699 100.92 90.0999 101.47 89.8299 102.01C89.6099 102.01 89.3999 101.94 89.2099 101.84C89.0999 101.16 89.0599 100.46 89.0599 99.7598C89.0599 97.4898 90.1499 91.2798 91.4999 89.9098C91.4999 89.9098 91.4999 89.8998 91.4899 89.8898C91.5699 89.8798 91.6399 89.8698 91.7199 89.8498C91.7899 89.8998 91.8599 89.9498 91.9399 89.9998C92.0299 90.4398 92.0599 90.9098 92.0599 91.3798C92.0599 92.9898 91.6599 94.7198 91.4599 96.2098C91.1899 97.5998 90.9099 98.9898 90.6399 100.38ZM97.0599 43.3498C98.5399 42.2198 100.89 41.5598 102.83 41.5598C103.06 41.5598 103.29 41.5598 103.51 41.5898C103.68 41.7698 103.79 41.9498 103.9 42.1698C103.34 44.2998 99.5399 44.6398 99.4199 44.6398C99.2799 44.6398 99.1299 44.6098 98.9599 44.5398C98.4799 44.5498 97.9899 44.5398 97.5099 44.5398C97.2999 44.5398 96.9599 44.3098 96.8899 44.1098C96.8099 43.8898 96.8899 43.4698 97.0599 43.3398V43.3498ZM97.3599 40.5198C96.8799 41.4398 96.1399 42.0198 95.1999 42.4198C94.8599 42.2498 94.7699 41.7198 94.7699 41.1698C94.7699 37.5598 96.6999 36.0698 98.1899 33.5898C98.4399 33.4898 98.8599 33.1698 98.9499 32.8698C99.0999 32.8698 99.2399 32.8498 99.3899 32.8498C99.6999 33.0898 99.7999 33.4398 99.7999 33.8198C99.7999 34.3798 99.5799 34.9998 99.4399 35.4498C99.2399 36.1198 99.1499 36.8198 98.9099 37.4798C98.5199 38.5498 97.7999 39.4698 97.3599 40.5198ZM90.4899 26.6198C89.8099 27.9798 87.7499 31.9298 86.2799 32.4498C86.2399 32.4598 86.1999 32.4698 86.1599 32.4698C85.2099 32.4698 84.9299 30.4598 84.9299 29.5198C84.9299 27.2698 87.0299 25.0498 88.3999 23.1698C89.2299 22.0298 89.7499 20.6698 90.6099 19.5698C90.6699 19.4898 90.7399 19.4098 90.7999 19.3298C91.1499 18.8998 91.6199 18.5098 92.1199 18.2798C92.8399 18.5798 93.0799 19.1398 93.0799 19.7998C93.0799 20.7298 92.5999 21.8398 92.3499 22.5798C92.3099 22.6898 92.2699 22.7898 92.2299 22.8898C91.6999 24.1498 91.0999 25.3898 90.4899 26.6198ZM83.3199 30.4198C83.2999 30.5198 82.8799 30.5598 82.6499 30.5498C82.5499 30.5498 82.4399 30.3698 82.3499 30.2498C79.4199 26.0398 77.4499 21.4398 76.9199 16.2998C76.8499 15.6198 77.0399 14.8798 77.2499 14.2098C77.4699 13.5298 78.1199 13.3398 78.5799 13.8498C79.3499 14.6898 80.1399 15.5898 80.5899 16.6198C82.2799 20.4698 83.4499 24.4698 83.5199 29.0698C83.4899 29.2998 83.4499 29.8698 83.3099 30.4198H83.3199ZM74.8699 50.1198C74.4299 50.5298 73.9599 50.8798 73.4999 51.2598C73.2999 51.2598 73.1999 51.1998 73.0099 51.1498C72.9599 50.9698 72.9299 50.7898 72.9299 50.5998C72.9299 49.4198 73.8399 47.9998 74.4899 47.1898C74.5599 47.0098 74.6299 46.8398 74.7099 46.6598C75.2099 45.5298 75.9899 44.5098 76.7399 43.5098C76.9099 43.2798 77.6299 43.1498 77.8099 43.2998C78.0599 43.5198 78.2299 44.1098 78.1199 44.4398C77.3899 46.5798 76.4999 48.6198 74.8799 50.1198H74.8699ZM70.9799 48.6898C68.9699 45.8698 67.2199 42.9298 67.1099 39.4498C67.2099 39.0298 67.2599 38.7498 67.3499 38.4798C67.3899 38.3598 67.4999 38.1698 67.5799 38.1698C67.8399 38.1498 68.1399 38.1298 68.3499 38.2498C68.5799 38.3798 68.8099 38.6398 68.8899 38.8898C69.7299 41.3898 70.5499 43.8898 71.3599 46.3898C71.7399 47.1398 71.9499 47.6998 71.9499 48.4698C71.9499 48.5798 71.9499 48.6998 71.9399 48.8198C71.8399 48.9198 71.7399 49.0298 71.6199 49.1098C71.5399 49.1098 71.4599 49.1098 71.3799 49.1098C71.1799 48.9598 71.1699 48.9498 70.9899 48.6998L70.9799 48.6898ZM62.2699 16.6998C62.6199 14.4398 64.7399 9.78981 66.3499 8.16981C66.4599 8.02981 66.5699 7.87981 66.6899 7.73981C67.1899 7.74981 67.3399 8.08981 67.3399 8.49981C67.3399 9.90981 65.4599 13.3398 64.6799 15.4898C64.1499 16.5398 63.5299 17.5198 62.7599 18.4298C62.1899 19.1098 62.0499 18.4798 61.8799 18.0098L62.2799 16.6898L62.2699 16.6998ZM41.7599 13.0598C41.5799 13.0598 41.3899 13.0198 41.2099 12.9498C41.1999 12.9298 41.1799 12.8998 41.1699 12.8798C41.0299 12.8398 40.8999 12.7798 40.7799 12.7098C39.9399 12.2198 39.1299 11.6998 38.3699 11.1198C36.6199 9.77981 32.9599 7.15981 32.9599 4.93981C32.9599 4.22981 33.2399 3.56981 33.8299 3.56981C34.0199 3.56981 34.2499 3.63981 34.5199 3.79981C34.6899 3.86981 34.8499 3.95981 34.9799 4.06981C36.3799 5.19981 37.6599 6.43981 38.8299 7.77981C39.9799 9.38981 42.8199 10.7298 42.8199 12.1298C42.8199 12.6898 42.3299 13.0398 41.7599 13.0398V13.0598ZM46.9299 13.8798C46.9299 13.9898 46.9299 14.0998 46.9299 14.2098C46.9299 14.2598 46.9299 14.3098 46.9299 14.3498C46.9299 14.8698 46.9199 15.3598 46.6699 15.8398C46.5799 15.8598 46.4899 15.8798 46.3999 15.8998C46.2699 15.8398 46.1299 15.7798 45.9999 15.7198C45.9399 15.5998 44.0999 9.13981 44.0999 7.09981C44.0999 5.78981 44.3399 2.24981 45.6499 2.24981C47.0799 2.24981 47.2699 8.57981 47.2699 9.57981C47.2699 10.9698 47.1599 12.3498 46.9299 13.8698V13.8798ZM55.8999 10.7898C55.7499 9.56981 55.5199 7.68981 55.5199 5.92981C55.5199 4.73981 55.6199 3.59981 55.9199 2.76981C55.9199 2.76981 55.9199 2.74981 55.9199 2.73981C55.9499 2.73981 55.9899 2.73981 56.0199 2.73981C56.8499 2.73981 57.0299 3.85981 57.2499 4.49981C58.0699 9.06981 58.8599 13.6398 59.6399 18.2098C59.6999 18.4798 59.7299 18.7598 59.7299 19.0398C59.7299 19.6598 59.6099 20.2998 59.4899 20.8898C59.4199 20.9198 59.3399 20.9498 59.2699 20.9798C58.9399 20.8398 58.9099 20.5098 58.8399 20.1798C58.6399 19.3398 58.3599 18.5198 57.9699 17.7398C56.8399 15.4598 56.2099 13.1398 55.9099 10.7898H55.8999ZM41.2099 27.3498C40.1699 27.0798 39.2999 26.5898 38.4099 26.0098C36.8599 25.1998 35.5199 24.0498 34.4499 22.4898C34.3099 22.2798 34.2199 21.9098 34.3099 21.6998C34.3899 21.5098 34.8299 21.2898 34.9899 21.3598C36.4199 21.9998 37.7899 22.7198 38.9899 23.6398C39.5899 24.1798 41.7799 25.4798 41.7799 26.5498C41.7799 26.8398 41.6199 27.1098 41.2099 27.3498ZM43.5999 26.3798C43.2999 26.2598 43.0499 25.9998 42.9399 25.6998C42.8399 25.4198 42.7999 25.1198 42.7899 24.8298C42.7599 24.5498 42.7599 24.2598 42.7699 23.9698C42.7699 23.9698 42.7699 23.9598 42.7599 23.9498C42.8599 23.2698 43.0799 22.2198 43.7199 21.8498C44.6499 22.1398 44.8599 23.1698 44.8599 24.1398C44.8599 25.1998 44.4999 26.2698 43.5999 26.3798ZM60.1199 68.8298C59.8599 68.9498 59.5999 69.0098 59.3499 69.0098C58.3799 69.0098 57.4699 68.2298 56.6199 67.7198C55.9799 67.3298 55.4199 66.8098 54.9999 66.0598C54.5299 65.2198 54.2699 64.2498 53.9799 63.3198C53.9099 63.0998 54.0399 62.7198 54.2099 62.5498C54.3299 62.4298 54.7799 62.4398 54.9199 62.5698C56.4799 64.0098 58.0699 65.4298 59.5099 66.9798C59.8599 67.4598 60.1999 67.8798 60.1999 68.4198C60.1999 68.5498 60.1799 68.6798 60.1399 68.8298H60.1199ZM62.5199 62.5798C62.5099 62.7698 62.4999 62.9698 62.4999 63.1598C62.4999 63.9598 62.5799 64.7698 62.5799 65.5698C62.5799 67.8398 62.3799 67.8398 61.7799 67.8898C61.0299 67.0298 60.9999 64.3998 60.9099 63.1998C60.8899 62.9398 60.8799 62.6798 60.8799 62.4198C60.8799 61.7298 60.9399 61.0498 61.0299 60.4698C61.0499 59.9598 61.0999 59.4398 61.1599 58.9298C61.1799 58.7598 61.5199 58.4798 61.6699 58.4998C61.8999 58.5398 62.2699 58.7798 62.2799 58.9598C62.3399 59.8898 62.3999 60.8098 62.4499 61.7398C62.4599 62.0098 62.4899 62.2798 62.5099 62.5698L62.5199 62.5798ZM57.0599 89.8998C56.8799 89.9598 56.7099 89.9898 56.5499 89.9898C54.1599 89.9898 53.3199 84.5698 53.3199 82.3198C53.3199 81.3298 53.4699 80.4698 53.8699 79.9898C55.7499 81.0798 56.1999 85.2998 56.8499 87.3298C56.9799 87.7498 57.3399 88.5598 57.3399 89.1998C57.3399 89.4898 57.2699 89.7398 57.0699 89.8998H57.0599ZM62.1599 91.0398C61.3099 92.0098 60.8599 93.0498 59.4899 93.3998C59.4299 93.3698 59.3699 93.3398 59.3199 93.3098C59.2399 93.0998 59.2099 92.8698 59.2099 92.6498C59.2099 92.1998 59.3399 91.7398 59.4799 91.3098C59.9399 87.1698 61.3699 84.9298 63.2799 82.4998C63.8499 82.5398 63.9799 83.0898 63.9799 83.6698C63.9799 85.8898 62.9499 88.9098 62.1599 91.0298V91.0398ZM44.5499 55.6298C42.6499 54.1998 41.4899 52.1998 40.6699 50.0598C40.4499 49.4798 40.3599 48.8598 40.3099 48.2198C40.2199 47.8598 40.1499 47.4798 40.1499 47.1198C40.1499 46.5598 40.3099 46.0398 40.7999 45.6798C43.1599 47.1398 43.6499 50.1198 44.6199 52.4598C44.9599 53.4498 45.0799 54.4798 44.5499 55.6398V55.6298ZM16.8699 28.1598C16.6099 27.5298 16.6999 26.7498 16.6899 26.0398C16.6899 25.7698 16.8199 25.2998 16.9499 25.2798C17.3199 25.2098 17.7999 25.2098 18.1199 25.3898C18.7299 25.7498 19.3599 26.1598 19.7799 26.6998C22.4999 30.1698 24.8499 33.8298 25.2499 38.3798C21.0299 36.1498 18.6199 32.3998 16.8699 28.1498V28.1598ZM47.0099 57.2698C46.9099 56.2598 46.9699 55.2898 47.2199 54.3798C47.4699 52.4498 48.6099 51.0598 49.3999 51.0598C50.0199 51.0598 50.3199 51.9398 50.3199 52.6798C50.3199 53.5098 49.8399 54.2898 49.5099 55.0698C49.1899 56.0498 48.8499 57.3098 47.9199 57.8598C47.7199 57.9198 47.5099 57.9598 47.3099 57.9798C47.2299 57.9798 47.0299 57.5298 46.9999 57.2798L47.0099 57.2698ZM25.7799 71.4398C25.5799 71.4998 25.1599 71.3298 25.0499 71.1398C23.7599 68.8998 23.1199 66.4598 22.9099 64.0598C22.9599 63.6098 22.9699 63.3298 23.0199 63.0498C23.0399 62.9198 23.1699 62.6998 23.1799 62.6998C23.4399 62.7998 23.8499 62.8698 23.8999 63.0498C24.6699 65.6098 25.4099 68.1698 26.1099 70.7498C26.1599 70.9498 25.9499 71.3798 25.7699 71.4398H25.7799ZM13.7599 61.3298C13.6299 61.4298 13.2099 61.2898 13.0099 61.1398C8.49994 57.6998 4.68994 53.6698 2.53994 48.3198C2.11994 47.2798 1.97994 46.1198 1.81994 44.9998C1.77994 44.7098 2.14994 44.3698 2.30994 44.0798C2.73994 44.2098 3.05994 44.2298 3.25994 44.3898C4.14994 45.0998 5.11994 45.7598 5.84994 46.6098C8.85994 50.0998 11.3199 53.9698 13.3399 58.0998C13.6999 58.8498 13.8199 59.7198 13.9899 60.5498C14.0399 60.7898 13.9299 61.1798 13.7499 61.3198L13.7599 61.3298ZM15.6799 57.9398C15.6799 57.5198 15.6999 57.3298 15.6999 56.8598C15.6999 55.6498 15.5899 54.4098 15.5899 53.1898C15.5899 51.9698 15.9899 48.0498 17.1299 48.0498C18.0199 48.0498 18.5699 50.9798 18.5699 52.1198C18.5699 53.0298 18.4499 53.9298 18.3199 54.8398C18.2499 56.2198 17.7099 59.2198 16.8299 60.2898C15.8199 60.1598 15.6899 58.9498 15.6899 57.9398H15.6799ZM28.2699 74.4498C27.9299 73.9498 27.8499 73.4598 27.9099 72.9698C27.8899 72.8698 27.8799 72.7798 27.8599 72.6798C28.3699 71.4898 28.6199 70.6298 29.9099 70.1198C30.8499 70.1198 30.5399 70.9398 30.4499 71.3598C30.0299 73.3798 28.6899 75.0598 28.2699 74.4498ZM15.5099 90.4598C15.0899 90.4298 14.6599 90.3998 14.2599 90.4898C10.7299 90.3598 7.68994 88.7398 4.76994 86.7798C4.41994 86.5498 4.07994 86.2198 3.88994 85.8598C3.71994 85.5298 3.68994 85.0698 3.75994 84.6998C3.78994 84.5498 4.25994 84.3298 4.47994 84.3798C6.26994 84.7798 8.10994 85.0898 9.81994 85.7298C11.4099 86.3198 12.8799 87.2498 14.3699 88.0798C15.2799 88.5898 15.7499 89.3998 15.7899 90.4398C15.6999 90.4398 15.6099 90.4398 15.5199 90.4398L15.5099 90.4598ZM18.3699 89.3598C18.3399 89.8798 18.1699 90.1498 17.9299 90.2898C16.3199 90.0698 15.2799 87.6398 15.2799 85.6098C15.2799 84.6198 15.5299 83.7198 16.0899 83.2298C16.3099 83.3698 16.6299 83.4498 16.7299 83.6498C17.6499 85.4398 18.5099 87.2598 18.3799 89.3598H18.3699ZM42.7199 127.52C41.5999 127.03 40.0799 126.46 39.8199 125.14C40.1999 124.78 40.6499 124.67 41.1199 124.67C41.5899 124.67 42.1299 124.8 42.6099 124.9C44.6099 125.34 46.5699 125.89 48.4999 126.54C50.5999 127.24 54.7799 127.63 54.7799 129.25C54.7799 130.14 53.7399 130.47 52.8499 130.47C51.9599 130.47 51.1099 130.17 50.2199 130.08C47.5699 129.51 45.0699 128.71 42.7399 127.52H42.7199ZM47.6299 117.42C47.4999 116.84 47.0999 116.26 47.0999 115.68C47.0999 115.45 47.1599 115.22 47.3099 114.99C50.0299 115 51.1599 118.08 52.3999 120.07C53.6099 122.02 54.7599 124 55.9399 125.96C56.0399 126.13 55.9699 126.56 55.8299 126.66C55.6499 126.79 55.2299 126.83 55.0699 126.7C51.7799 124.23 49.2599 121.15 47.6299 117.42ZM102.27 104.44C101.78 104.92 101.4 105.12 101.13 105.12C100.66 105.12 100.47 104.55 100.47 103.82C100.47 103.51 100.5 103.16 100.57 102.83C100.97 98.5398 101.94 94.4098 104.61 90.8198C104.72 90.6698 105.09 90.6798 105.34 90.6798C105.4 90.6798 105.47 90.9098 105.58 91.1298C105.23 92.8798 104.92 94.7298 104.47 96.5498C103.8 99.1998 103.05 101.83 102.27 104.45V104.44ZM111.01 101.99C110.43 105.03 105.35 107.38 103.6 107.38C103.14 107.38 102.57 107.09 102.57 106.63C102.57 105.78 106.64 102.24 110.86 102.02C110.91 102.02 110.96 102 111.01 101.99Z" fill="#018973"/>
</g>
<defs>
<clipPath id="clip0_125_188">
<rect width="113.45" height="176.51" fill="white"/>
</clipPath>
</defs>
</svg>
