<svg width="85" height="157" viewBox="0 0 85 157" fill="none" xmlns="http://www.w3.org/2000/svg">
<g clip-path="url(#clip0_1_230)">
<path d="M28.1645 26.4306C29.1401 32.0503 28.8906 37.0303 28.8679 42.6728C27.7486 41.1727 27.0906 39.4441 25.9486 38.005C24.6175 36.3221 23.0595 34.8372 21.7587 33.1087C19.1873 29.6897 17.0545 25.9204 15.5646 21.8998C12.9857 14.9324 12.4033 7.13493 14.4907 0.00756836C20.178 8.20099 25.994 16.6762 28.1645 26.4382V26.4306Z" fill="#018973"/>
<path d="M38.2534 48.422C38.1854 48.6123 38.1097 48.8027 38.0417 48.9931C36.3324 53.5086 34.3661 58.1231 34.6005 62.9432C33.3451 59.4938 31.9081 56.5697 31.4997 52.907C31.0762 49.1149 30.9854 45.2695 31.6207 41.4926C32.1804 38.1345 33.2014 34.8526 34.6535 31.7838C35.2056 30.6112 39.9248 24.6336 39.7509 23.9178C41.7853 32.1874 41.1727 40.4189 38.261 48.4144L38.2534 48.422Z" fill="#018973"/>
<path d="M22.4996 44.6983C17.4021 40.2056 10.898 37.1064 7.19971 31.3954C9.80136 40.8529 15.7761 49.7544 24.6096 53.9197C29.5785 56.265 33.1936 58.8159 35.7045 63.9787C33.0801 56.8057 28.2323 49.7468 22.4996 44.6983Z" fill="#018973"/>
<path d="M14.6572 52.5339C14.8841 54.8335 16.374 57.5748 17.2513 59.7069C18.295 62.2426 18.8169 65.0524 20.4504 67.3064C22.2958 69.8497 25.268 71.2432 28.0058 72.7585C35.8108 77.0761 44.0166 82.5815 47.367 91.4298C40.6965 75.4084 28.8075 62.3111 14.6648 52.5262L14.6572 52.5339Z" fill="#018973"/>
<path d="M50.8533 54.4528C54.0902 60.9482 55.0129 68.5248 53.6894 75.6521C53.1449 78.599 52.3659 81.5155 51.776 84.4471C51.4356 86.1452 50.6491 87.7671 50.0289 89.3738C49.6508 90.3485 47.881 93.3259 48.1231 94.2929C45.9903 87.4245 45.3248 80.2362 45.9222 73.0784C46.1869 69.9259 46.913 66.8724 47.7903 63.8189C48.2214 62.3188 51.4508 55.6407 50.8608 54.4452L50.8533 54.4528Z" fill="#018973"/>
<path d="M0.000238732 58.3514C1.21031 62.9431 1.42207 67.7937 3.10861 72.2254C4.56826 76.0632 7.15479 79.4289 10.4069 81.8961C12.048 83.1449 13.3942 83.5333 15.2698 84.0968C17.6749 84.8125 19.7017 86.2289 21.8799 87.4092C15.9429 76.8704 6.55732 68.4942 -0.00732422 58.3514H0.000238732Z" fill="#018973"/>
<path d="M27.0149 39.1776C28.9662 47.0893 30.9325 55.0619 34.3132 62.5015C36.0526 66.324 38.1476 69.9639 39.9627 73.7408C41.7022 77.3654 43.1769 81.1194 44.4778 84.9268C47.1475 92.7242 49.6508 100.735 50.1424 109.012C50.6189 117.084 49.8097 125.163 50.0895 133.242C50.3693 141.413 51.7533 149.758 56.276 156.711C56.7676 157.464 57.8944 156.642 57.4029 155.888C48.7887 142.639 52.1315 125.856 51.6248 110.992C51.4811 106.85 51.0424 102.715 50.0365 98.6789C49.0534 94.7269 47.8584 90.8053 46.6105 86.9294C45.3778 83.0992 44.0013 79.3147 42.3753 75.6368C40.719 71.9056 38.7299 68.3496 36.9073 64.6945C32.8006 56.4554 30.509 47.5766 28.3157 38.6674C28.104 37.7994 26.8032 38.3019 27.0149 39.17V39.1776Z" fill="#018973"/>
<path d="M51.7988 114.304C53.871 110.962 56.5332 108.045 58.9155 104.931C60.1558 103.316 61.3281 101.641 62.3491 99.8821C63.4684 97.9556 64.3684 95.892 65.2154 93.8284C68.6868 85.3609 70.2977 76.3298 71.7876 67.3445C72.6196 62.3188 73.4439 57.2931 74.6086 52.3359C74.8128 51.4602 73.4439 51.2242 73.2397 52.0998C71.175 60.8872 70.1919 69.8878 68.3011 78.7132C66.4482 87.3407 63.7407 96.1357 58.4315 103.278C55.8223 106.781 52.8425 110.01 50.5358 113.733C50.0669 114.495 51.3299 115.073 51.7988 114.32V114.304Z" fill="#018973"/>
<path d="M51.2163 126.792C50.4827 122.932 49.7339 119.01 48.1986 115.378C46.6331 111.654 44.0995 108.654 41.4979 105.631C38.9189 102.639 36.3097 99.6537 33.4055 96.9809C30.3803 94.1939 26.8862 92.039 23.7854 89.3586C20.5636 86.5792 17.8636 83.1907 15.8519 79.429C15.4359 78.6447 14.1275 79.1397 14.5511 79.9316C16.283 83.1831 18.4611 86.1528 21.0703 88.7494C23.914 91.5821 27.3173 93.6914 30.403 96.2195C33.4736 98.7399 36.1887 101.656 38.8055 104.641C41.4071 107.619 44.2583 110.588 46.0961 114.129C48.1533 118.104 49.0079 122.566 49.8398 126.922C50.0062 127.798 51.3902 127.668 51.2238 126.785L51.2163 126.792Z" fill="#018973"/>
<path d="M12.1914 92.808C13.7342 94.5746 15.2847 96.3336 16.8275 98.1002C18.7334 100.278 20.798 102.547 23.5736 103.339C24.761 103.674 26.0165 103.712 27.2492 103.705C29.1475 103.682 31.1063 103.126 32.9441 103.126C35.0542 103.126 37.4517 104.184 39.4937 104.725C37.497 104.2 35.6819 100.118 34.0483 98.8312C32.6114 97.6966 30.7358 97.354 29.0417 96.7067C23.5812 94.6127 18.0527 93.1583 12.199 92.8232L12.1914 92.808Z" fill="#018973"/>
<path d="M40.1819 93.0441C41.6794 95.5569 43.5021 98.4734 43.9936 101.382C44.4172 103.903 43.3659 107.885 44.3869 110.185C42.1861 105.22 39.4634 100.499 36.2643 96.1204C34.487 93.6913 32.5055 91.247 31.4845 88.3687C30.9854 86.9752 30.8644 85.6045 30.7509 84.1425C30.7055 83.5562 30.9476 80.7844 30.6753 80.4874C34.2904 84.3024 37.4895 88.5209 40.1895 93.0441H40.1819Z" fill="#018973"/>
<path d="M76.7713 30.4208C76.1511 31.2355 77.5503 37.6014 77.5578 38.9645C77.573 41.9799 77.3007 44.9953 76.7713 47.9574C75.7427 53.638 73.4133 58.8236 72.4528 64.5347C71.8402 55.8844 67.8924 48.1021 71.2352 39.3604C72.4907 36.0709 74.6461 33.223 76.7713 30.4284V30.4208Z" fill="#018973"/>
<path d="M59.1802 66.8572C59.7323 69.9335 60.7912 73.7866 62.9693 76.1319C65.1852 78.5229 66.902 79.9773 68.2709 83.1907C68.7701 71.1975 64.7088 59.5471 60.7004 48.2468C61.1088 49.3966 60.0954 50.7977 59.7777 51.7953C59.3088 53.2725 59.1046 54.8107 58.9382 56.3717C58.5752 59.8593 58.5525 63.4001 59.1802 66.8648V66.8572Z" fill="#018973"/>
<path d="M85.0001 67.3445C83.4572 73.0707 80.727 78.462 77.0892 83.1374C75.2514 85.4979 73.1716 87.5311 70.9935 89.5566C70.0632 90.4247 69.4658 91.4374 68.4221 92.1989C67.7263 92.7015 67.0078 93.1583 66.2742 93.6076C65.949 93.8056 64.3456 94.4528 64.2549 94.765C66.8717 86.13 71.5607 78.9569 77.9665 72.6367C80.069 70.5579 82.2547 68.4258 85.0001 67.3521V67.3445Z" fill="#018973"/>
</g>
<defs>
<clipPath id="clip0_1_230">
<rect width="85" height="157" fill="white"/>
</clipPath>
</defs>
</svg>
