<svg width="92" height="85" viewBox="0 0 92 85" fill="none" xmlns="http://www.w3.org/2000/svg">
<g clip-path="url(#clip0_1_286)">
<path d="M90.3981 28.1221C90.3981 34.4867 88.136 40.8369 83.5974 45.8911C83.2804 46.2511 82.9346 46.6254 82.5888 46.971L47.0001 82.5377C46.6543 82.8833 46.2941 83.2289 45.9194 83.56C45.5592 83.2289 45.1846 82.8833 44.8388 82.5377L9.25009 46.9566C8.90429 46.611 8.55849 46.2511 8.2415 45.8767C-1.15277 35.4227 -0.821372 19.3241 9.25009 9.25885C14.4659 4.04624 21.2811 1.43994 28.1251 1.43994C34.508 1.43994 40.8765 3.70066 45.9194 8.25089C56.4088 -1.15196 72.5029 -0.820774 82.5888 9.25885C87.8046 14.4571 90.3981 21.2824 90.3981 28.1221Z" stroke="#FF8398" stroke-width="2" stroke-linejoin="round"/>
<path d="M38.3697 45.819L52.3747 58.6345C52.8213 50.0956 49.5939 41.4128 42.7931 35.1778C35.9924 28.9428 26.1802 26.2645 17.3479 27.8917C16.4978 36.8337 19.7109 46.0494 26.8574 52.5867C33.2115 58.3897 41.3955 60.9096 49.3345 60.2617L38.3697 45.819Z" stroke="#FF8398" stroke-width="2" stroke-linejoin="round"/>
<path d="M52.0143 51.1181C57.5328 49.7789 62.7198 46.8414 66.8406 42.3488C73.382 35.2067 75.7594 25.7462 74.1312 16.9193C65.1836 16.0698 55.9622 19.2809 49.4208 26.423C46.8417 29.2309 44.911 32.4132 43.6143 35.7682" stroke="#FF8398" stroke-width="2" stroke-linejoin="round"/>
<path d="M49.0605 43.328L56.1927 37.9138L49.8242 44.8832" stroke="#FF8398" stroke-width="2" stroke-linejoin="round"/>
</g>
<defs>
<clipPath id="clip0_1_286">
<rect width="91.8391" height="85" fill="white"/>
</clipPath>
</defs>
</svg>
