<svg width="95" height="83" viewBox="0 0 95 83" fill="none" xmlns="http://www.w3.org/2000/svg">
<g clip-path="url(#clip0_1_322)">
<path d="M83.4041 58.0127C83.4041 71.0649 72.8304 81.6374 59.7768 81.6374C46.7231 81.6374 36.1494 71.0649 36.1494 58.0127" stroke="#A984BA" stroke-width="2" stroke-miterlimit="10"/>
<path d="M38.7657 40.6826C36.8444 47.0044 35.7543 53.476 36.2312 59.5524" stroke="#A984BA" stroke-width="2" stroke-miterlimit="10" stroke-linecap="round"/>
<path d="M59.9678 1.36255C59.9678 1.36255 54.313 8.48812 48.522 18.7201" stroke="#A984BA" stroke-width="2" stroke-miterlimit="10" stroke-linecap="round"/>
<path d="M79.2349 36.0503C82.0963 43.8026 83.9222 51.9772 83.3363 59.5524" stroke="#A984BA" stroke-width="2" stroke-miterlimit="10" stroke-linecap="round"/>
<path d="M59.5996 1.36255C59.5996 1.36255 65.6223 8.96498 71.6177 19.7283" stroke="#A984BA" stroke-width="2" stroke-miterlimit="10" stroke-linecap="round"/>
<path d="M30.1816 20.4365C30.1816 20.4365 41.314 23.3522 49.8984 31.4723C55.9892 37.2354 59.3139 45.342 59.3139 53.721V81.6238" stroke="#A984BA" stroke-width="2" stroke-linecap="round" stroke-linejoin="round"/>
<path d="M79.6571 24.2515C79.6571 24.2515 60.1312 28.366 59.2046 51.0371" stroke="#A984BA" stroke-width="2" stroke-linecap="round" stroke-linejoin="round"/>
<path d="M48.522 18.72C54.5174 25.8047 57.0518 33.6523 57.0518 33.6523" stroke="#A984BA" stroke-width="2" stroke-linecap="round" stroke-linejoin="round"/>
<path d="M50.5388 38.0121C50.5388 38.0121 34.8553 46.6091 22.0742 32.9166C9.29309 19.2104 1.36279 16.3901 1.36279 16.3901C1.36279 16.3901 18.4497 3.5423 34.6101 8.8967C40.4965 10.845 45.0748 14.6598 48.5221 18.7335" stroke="#A984BA" stroke-width="2" stroke-linecap="round" stroke-linejoin="round"/>
<path d="M63.3062 29.4152C63.3062 29.4152 72.2993 9.57808 93.6375 19.0879C93.6375 19.0879 85.0259 28.3798 82.7504 32.1946C79.4801 37.6853 73.8662 38.639 67.2713 36.2819" stroke="#A984BA" stroke-width="2" stroke-linecap="round" stroke-linejoin="round"/>
</g>
<defs>
<clipPath id="clip0_1_322">
<rect width="95" height="83" fill="white"/>
</clipPath>
</defs>
</svg>
