<svg width="161" height="87" viewBox="0 0 161 87" fill="none" xmlns="http://www.w3.org/2000/svg">
<g clip-path="url(#clip0_256_388)">
<path d="M0.5 13.6602H132.1" stroke="#5B5B5B" stroke-linecap="round" stroke-linejoin="round"/>
<path d="M8.52999 8.60996C9.3308 8.60996 9.97999 7.96077 9.97999 7.15996C9.97999 6.35915 9.3308 5.70996 8.52999 5.70996C7.72917 5.70996 7.07999 6.35915 7.07999 7.15996C7.07999 7.96077 7.72917 8.60996 8.52999 8.60996Z" fill="#5B5B5B"/>
<path d="M15.11 8.60996C15.9108 8.60996 16.56 7.96077 16.56 7.15996C16.56 6.35915 15.9108 5.70996 15.11 5.70996C14.3092 5.70996 13.66 6.35915 13.66 7.15996C13.66 7.96077 14.3092 8.60996 15.11 8.60996Z" fill="#5B5B5B"/>
<path d="M21.69 8.60996C22.4908 8.60996 23.14 7.96077 23.14 7.15996C23.14 6.35915 22.4908 5.70996 21.69 5.70996C20.8892 5.70996 20.24 6.35915 20.24 7.15996C20.24 7.96077 20.8892 8.60996 21.69 8.60996Z" fill="#5B5B5B"/>
<path d="M101.89 41.8101H159.63" stroke="#5B5B5B" stroke-linecap="round" stroke-linejoin="round"/>
<path d="M155.31 37.5L159.63 41.81L155.31 46.13" stroke="#5B5B5B" stroke-linecap="round" stroke-linejoin="round"/>
<path d="M132.1 37.02V5.3C132.1 2.65 129.95 0.5 127.3 0.5H5.3C2.65 0.5 0.5 2.65 0.5 5.3V81.25C0.5 83.9 2.65 86.05 5.3 86.05H127.31C129.96 86.05 132.11 83.9 132.11 81.25V46.61" stroke="#5B5B5B" stroke-linecap="round" stroke-linejoin="round"/>
</g>
<defs>
<clipPath id="clip0_256_388">
<rect width="160.13" height="86.54" fill="white"/>
</clipPath>
</defs>
</svg>
