<svg width="121" height="33" viewBox="0 0 121 33" fill="none" xmlns="http://www.w3.org/2000/svg">
<g clip-path="url(#clip0_1_371)">
<path d="M32.1112 30.2426C32.1112 30.609 32.054 30.9733 31.9141 31.3121C31.7743 31.6489 31.5773 31.9305 31.3506 32.1847C31.0964 32.4092 30.8167 32.6061 30.5074 32.748C30.1981 32.8878 29.8316 32.9725 29.465 32.9725C29.0985 32.9725 28.7045 32.8878 28.3676 32.748C28.0308 32.6082 27.7193 32.4113 27.4672 32.1847C27.213 31.9602 27.016 31.651 26.8486 31.3121C26.7088 30.9754 26.624 30.609 26.624 30.2426V22.0551C26.624 20.31 26.9609 18.6793 27.6367 17.1311C28.3125 15.583 29.2129 14.2615 30.3654 13.1073C31.5201 11.9531 32.8421 11.053 34.3908 10.3795C35.9394 9.70392 37.5432 9.36719 39.2868 9.36719H39.344C40.2444 9.36719 40.9478 9.62133 41.4541 10.1275C41.9605 10.6336 42.2147 11.3092 42.2147 12.0971C42.2147 12.8849 42.1299 12.8574 41.9901 13.1941C41.8503 13.5308 41.6236 13.8125 41.3715 14.0666C41.1173 14.3208 40.8079 14.5177 40.4711 14.6575C40.1342 14.7973 39.7677 14.882 39.3737 14.882H39.3165C38.3589 14.882 37.4309 15.079 36.5581 15.4454C35.6852 15.8117 34.9268 16.3179 34.2785 16.9638C33.6302 17.6098 33.1238 18.3425 32.7298 19.2151C32.3357 20.0876 32.1387 20.9877 32.1387 21.9725V30.2151L32.1112 30.2426Z" fill="white"/>
<path d="M43.0007 20.9308C43.0007 19.2705 43.31 17.6948 43.9583 16.2335C44.6045 14.7701 45.4773 13.5036 46.5747 12.4066C47.6722 11.3095 48.9391 10.437 50.403 9.81859C51.867 9.20018 53.4135 8.86133 55.0745 8.86133C56.7355 8.86133 58.3117 9.17053 59.7735 9.81859C61.2375 10.437 62.5319 11.3095 63.6018 12.4066C64.6992 13.5036 65.5445 14.7701 66.1611 16.2335C66.7797 17.6969 67.0911 19.2726 67.0911 20.9308V29.9041C67.0911 30.298 67.0064 30.6644 66.8665 31.0011C66.7246 31.3378 66.5297 31.6195 66.2755 31.8736C66.0233 32.1278 65.714 32.3247 65.3751 32.4921C65.0382 32.6615 64.6717 32.7165 64.2776 32.7165C63.6315 32.7165 63.0679 32.5196 62.6167 32.1257C62.1654 31.7318 61.8561 31.2531 61.7163 30.6623C60.7587 31.3929 59.7184 31.9562 58.5935 32.3777C57.4685 32.7991 56.2863 32.9961 55.047 32.9961C53.8076 32.9961 51.8394 32.6869 50.3755 32.0388C48.9115 31.4204 47.6467 30.5479 46.5472 29.4509C45.4498 28.3538 44.5769 27.0598 43.9307 25.5964C43.2825 24.133 42.9731 22.5573 42.9731 20.9266H43.0007V20.9308ZM48.4878 20.9308C48.4878 21.8309 48.6573 22.6759 48.9942 23.4638C49.331 24.2791 49.8098 24.9547 50.4009 25.5731C50.992 26.164 51.6954 26.6426 52.4835 26.9793C53.2716 27.3161 54.1148 27.4855 55.0448 27.4855C55.9749 27.4855 56.8181 27.3161 57.6062 26.9793C58.3943 26.6426 59.0977 26.164 59.6888 25.5731C60.2799 24.9822 60.729 24.2791 61.068 23.4638C61.4048 22.6759 61.5743 21.8034 61.5743 20.9308C61.5743 20.0583 61.4048 19.1582 61.068 18.3704C60.7311 17.5825 60.2799 16.8794 59.6888 16.2886C59.0977 15.6977 58.3943 15.219 57.6062 14.8823C56.7906 14.5456 55.9452 14.3762 55.0448 14.3762C54.1444 14.3762 53.2991 14.5456 52.5131 14.8823C51.6975 15.219 51.0216 15.6977 50.403 16.2886C49.8119 16.8794 49.3331 17.5825 48.9963 18.3704C48.6594 19.1857 48.4899 20.0308 48.4899 20.9308H48.4878Z" fill="white"/>
<path d="M23.19 16.1758H23.2176C22.5989 14.7124 21.7261 13.4184 20.6287 12.3489C19.5312 11.2519 18.2643 10.4068 16.8004 9.76091C15.3364 9.1425 13.7602 8.80365 12.1014 8.80365H5.51679V2.86949C5.51679 2.47558 5.45959 2.08166 5.31977 1.74493C5.17994 1.40819 4.98291 1.09899 4.75622 0.844849C4.50199 0.590709 4.22234 0.395869 3.88337 0.226443C3.54651 0.0866663 3.18 0.00195312 2.78594 0.00195312C2.39188 0.00195312 2.02537 0.0866663 1.68851 0.226443C1.35166 0.36622 1.06989 0.563178 0.815655 0.844849C0.561425 1.09899 0.364397 1.40819 0.22457 1.74493C0.0847434 2.08166 0 2.47558 0 2.86949V20.8731C0 22.5335 0.309313 24.0795 0.9576 25.543C1.60589 27.0064 2.44908 28.3004 3.54651 29.3974C4.64394 30.4944 5.93839 31.367 7.40233 31.9854C8.86628 32.6038 10.4425 32.9427 12.0738 32.9427C13.7051 32.9427 15.311 32.6334 16.7728 31.9854C18.2368 31.367 19.5016 30.4944 20.6011 29.3974C21.6985 28.3004 22.5439 27.0064 23.19 25.543C23.8383 24.0795 24.1476 22.5039 24.1476 20.8731C24.1476 19.2424 23.8383 17.6371 23.19 16.1758ZM10.8641 14.8543C12.131 15.1635 13.4806 15.5849 14.6076 16.1207C14.3259 17.4147 14.186 18.7659 14.2411 20.115C14.2687 20.9875 14.381 21.8876 14.578 22.7601L11.5675 19.7507C11.2857 18.7934 10.9213 17.6117 10.8641 16.0932C10.8366 15.6993 10.8641 15.2778 10.8641 14.8564V14.8543ZM10.076 14.6573V16.1207L10.0484 16.0932C10.076 17.0505 10.2455 17.8658 10.415 18.5965L6.0528 14.2359C6.78371 14.1236 8.33239 14.2931 10.0781 14.6573H10.076ZM5.51679 14.8267L9.87896 19.1874C9.14805 18.9904 8.33028 18.8506 7.37479 18.821L7.40233 18.8485C6.92353 18.821 6.41719 18.8485 5.93839 18.8485C5.57188 17.1331 5.40451 15.5574 5.51679 14.8246V14.8267ZM7.37479 23.3785C6.84091 22.254 6.41719 20.9303 6.10788 19.6363H7.34513C8.86416 19.6935 10.0463 20.0578 11.0039 20.3395L14.0144 23.3489C13.1416 23.1519 12.2687 23.0397 11.3683 23.0122C10.0463 22.955 8.69467 23.0969 7.37267 23.3785H7.37479ZM8.80908 25.6298C8.41502 25.2359 8.07816 24.7022 7.73919 24.1113C8.92136 23.8572 10.1311 23.7449 11.3408 23.8021V23.8296C12.6352 23.8572 13.9022 24.0838 15.1119 24.448L16.8004 26.136C15.6754 26.9788 12.1014 28.9209 8.80908 25.6298ZM17.3364 25.5451L15.6479 23.8572C15.2814 22.6204 15.0843 21.3539 15.0292 20.0874C14.972 18.8782 15.0864 17.6689 15.3386 16.4871C15.9572 16.7963 16.4635 17.1627 16.8576 17.5566H16.83C20.1223 20.8202 18.1817 24.4205 17.3364 25.5472V25.5451Z" fill="white"/>
<path d="M94.023 30.2431C94.023 30.637 93.9382 31.0034 93.7984 31.3126C93.6565 31.6218 93.4616 31.931 93.2349 32.1851C93.0103 32.4393 92.7285 32.6066 92.3917 32.7485C92.0548 32.8882 91.7158 32.9454 91.3514 32.9454C90.987 32.9454 90.6205 32.8882 90.2816 32.7485C89.9447 32.6087 89.6333 32.4117 89.3812 32.1851C89.1291 31.931 88.932 31.6514 88.7625 31.3126C88.6206 30.9758 88.5358 30.637 88.5358 30.2431V20.5095C88.5083 19.6942 88.3388 18.9063 88.0295 18.1757C87.7202 17.445 87.2986 16.8245 86.7923 16.2908C86.2584 15.7571 85.6652 15.3336 84.9639 15.0244C84.2605 14.7151 83.5 14.5457 82.6568 14.5457C81.8136 14.5457 80.9958 14.7151 80.2649 15.0244C79.5319 15.3336 78.9132 15.7847 78.4069 16.3183C77.9006 16.8817 77.4768 17.5276 77.1951 18.2879C76.9154 19.0482 76.7459 19.8361 76.7459 20.7065V30.2431C76.7459 30.637 76.6887 31.0034 76.5489 31.3126C76.407 31.6493 76.212 31.931 75.9854 32.1851C75.7332 32.4393 75.4515 32.6066 75.1422 32.7485C74.8328 32.8882 74.4663 32.9454 74.0723 32.9454C73.6782 32.9454 73.3392 32.8882 73.0024 32.7485C72.6655 32.6087 72.3562 32.4117 72.102 32.1851C71.8478 31.931 71.6232 31.6514 71.4834 31.3126C71.3414 30.9758 71.2588 30.637 71.2588 30.2431V20.7065C71.2588 19.0758 71.5406 17.5848 72.1316 16.1489C72.7227 14.7427 73.5108 13.5038 74.5235 12.4639C75.5383 11.424 76.748 10.579 78.1548 9.96062C79.5636 9.34222 81.053 9.06055 82.6568 9.06055C84.2605 9.06055 85.7817 9.36975 87.1588 9.96062C88.538 10.579 89.7477 11.3944 90.7625 12.4639C91.7752 13.5334 92.5633 14.7427 93.1544 16.1489C93.7454 17.5552 94.0272 19.0736 94.0272 20.7065V30.2431H94.023Z" fill="white"/>
<path d="M96.3596 20.8732C96.3596 19.2128 96.6689 17.6372 97.3172 16.1759C97.9655 14.7125 98.8362 13.4481 99.9336 12.349C101.031 11.2519 102.298 10.3794 103.762 9.76097C105.226 9.14256 106.772 8.80371 108.433 8.80371C110.094 8.80371 111.671 9.11291 113.132 9.76097C114.596 10.3794 115.891 11.2519 116.961 12.349C118.058 13.446 118.903 14.7125 119.522 16.1759C120.141 17.6393 120.452 19.215 120.452 20.8732V29.8464C120.452 30.2404 120.367 30.6068 120.228 30.9435C120.086 31.2802 119.891 31.5619 119.636 31.816C119.384 32.0702 119.075 32.2671 118.736 32.4344C118.399 32.5742 118.033 32.6589 117.639 32.6589C116.99 32.6589 116.429 32.462 115.978 32.0681C115.529 31.6741 115.219 31.1955 115.077 30.6046C114.12 31.3353 113.079 31.8986 111.952 32.3201C110.825 32.7415 109.645 32.9385 108.406 32.9385C107.166 32.9385 105.198 32.6293 103.734 31.9812C102.27 31.3628 101.006 30.4903 99.9061 29.3932C98.8087 28.2962 97.9358 27.0022 97.2896 25.5388C96.6413 24.0754 96.332 22.4997 96.332 20.869H96.3596V20.8732ZM101.847 20.8732C101.847 21.7733 102.016 22.6183 102.353 23.4061C102.69 24.2215 103.169 24.8971 103.76 25.5155C104.351 26.1064 105.054 26.585 105.842 26.9217C106.628 27.2585 107.474 27.4279 108.404 27.4279C109.334 27.4279 110.177 27.2585 110.965 26.9217C111.753 26.585 112.457 26.1064 113.048 25.5155C113.639 24.9246 114.088 24.2215 114.427 23.4061C114.764 22.6183 114.933 21.7458 114.933 20.8732C114.933 20.0007 114.764 19.1006 114.427 18.3128C114.09 17.5249 113.611 16.8218 113.048 16.2309C112.457 15.6401 111.753 15.1614 110.965 14.8247C110.149 14.488 109.304 14.3185 108.404 14.3185C107.503 14.3185 106.66 14.488 105.872 14.8247C105.056 15.1614 104.381 15.6401 103.76 16.2309C103.169 16.8218 102.69 17.5249 102.353 18.3128C102.016 19.1281 101.847 19.9731 101.847 20.8732Z" fill="white"/>
</g>
<defs>
<clipPath id="clip0_1_371">
<rect width="120.45" height="33" fill="white"/>
</clipPath>
</defs>
</svg>
