<svg width="121" height="33" viewBox="0 0 121 33" fill="none" xmlns="http://www.w3.org/2000/svg">
<g clip-path="url(#clip0_235_104)">
<path d="M32.1114 30.2426C32.1114 30.609 32.0542 30.9733 31.9144 31.3121C31.7745 31.6489 31.5775 31.9305 31.3508 32.1847C31.0966 32.4092 30.8169 32.6061 30.5076 32.748C30.1983 32.8878 29.8318 32.9725 29.4653 32.9725C29.0988 32.9725 28.7047 32.8878 28.3678 32.748C28.031 32.6082 27.7196 32.4113 27.4674 32.1847C27.2132 31.9602 27.0162 31.651 26.8488 31.3121C26.709 30.9754 26.6243 30.609 26.6243 30.2426V22.0551C26.6243 20.31 26.9611 18.6793 27.6369 17.1311C28.3128 15.583 29.2132 14.2615 30.3657 13.1073C31.5203 11.9531 32.8423 11.053 34.391 10.3795C35.9397 9.70392 37.5434 9.36719 39.287 9.36719H39.3442C40.2446 9.36719 40.948 9.62133 41.4543 10.1275C41.9607 10.6336 42.2149 11.3092 42.2149 12.0971C42.2149 12.8849 42.1302 12.8574 41.9903 13.1941C41.8505 13.5308 41.6238 13.8125 41.3717 14.0666C41.1175 14.3208 40.8082 14.5177 40.4713 14.6575C40.1345 14.7973 39.768 14.882 39.3739 14.882H39.3167C38.3591 14.882 37.4312 15.079 36.5583 15.4454C35.6854 15.8117 34.927 16.3179 34.2787 16.9638C33.6304 17.6098 33.1241 18.3425 32.73 19.2151C32.336 20.0876 32.1389 20.9877 32.1389 21.9725V30.2151L32.1114 30.2426Z" fill="#00AC58"/>
<path d="M43.0009 20.9306C43.0009 19.2702 43.3102 17.6945 43.9585 16.2332C44.6047 14.7698 45.4775 13.5034 46.575 12.4063C47.6724 11.3093 48.9393 10.4367 50.4033 9.81834C51.8672 9.19994 53.4138 8.86108 55.0747 8.86108C56.7357 8.86108 58.3119 9.17029 59.7738 9.81834C61.2377 10.4367 62.5321 11.3093 63.602 12.4063C64.6995 13.5034 65.5448 14.7698 66.1613 16.2332C66.7799 17.6967 67.0913 19.2723 67.0913 20.9306V29.9038C67.0913 30.2977 67.0066 30.6641 66.8668 31.0009C66.7248 31.3376 66.5299 31.6193 66.2757 31.8734C66.0236 32.1275 65.7143 32.3245 65.3753 32.4918C65.0384 32.6612 64.6719 32.7163 64.2779 32.7163C63.6317 32.7163 63.0681 32.5193 62.6169 32.1254C62.1656 31.7315 61.8563 31.2529 61.7165 30.662C60.7589 31.3927 59.7187 31.956 58.5937 32.3774C57.4687 32.7989 56.2866 32.9959 55.0472 32.9959C53.8078 32.9959 51.8397 32.6867 50.3757 32.0386C48.9118 31.4202 47.647 30.5476 46.5474 29.4506C45.45 28.3536 44.5771 27.0596 43.931 25.5962C43.2827 24.1327 42.9734 22.5571 42.9734 20.9264H43.0009V20.9306ZM48.488 20.9306C48.488 21.8307 48.6575 22.6757 48.9944 23.4635C49.3312 24.2789 49.81 24.9545 50.4011 25.5729C50.9922 26.1637 51.6956 26.6424 52.4837 26.9791C53.2718 27.3158 54.115 27.4853 55.0451 27.4853C55.9751 27.4853 56.8183 27.3158 57.6064 26.9791C58.3946 26.6424 59.0979 26.1637 59.689 25.5729C60.2801 24.982 60.7292 24.2789 61.0682 23.4635C61.4051 22.6757 61.5746 21.8031 61.5746 20.9306C61.5746 20.058 61.4051 19.158 61.0682 18.3701C60.7313 17.5823 60.2801 16.8792 59.689 16.2883C59.0979 15.6974 58.3946 15.2188 57.6064 14.8821C56.7908 14.5453 55.9455 14.3759 55.0451 14.3759C54.1447 14.3759 53.2994 14.5453 52.5134 14.8821C51.6977 15.2188 51.0219 15.6974 50.4033 16.2883C49.8122 16.8792 49.3334 17.5823 48.9965 18.3701C48.6597 19.1855 48.4902 20.0305 48.4902 20.9306H48.488Z" fill="#00AC58"/>
<path d="M23.19 16.1761H23.2176C22.5989 14.7126 21.7261 13.4186 20.6287 12.3491C19.5312 11.2521 18.2643 10.4071 16.8004 9.76115C15.3364 9.14274 13.7602 8.80389 12.1014 8.80389H5.51679V2.86974C5.51679 2.47582 5.45959 2.0819 5.31977 1.74517C5.17994 1.40843 4.98291 1.09923 4.75622 0.845093C4.50199 0.590953 4.22234 0.396113 3.88337 0.226687C3.54651 0.0869104 3.18 0.00219727 2.78594 0.00219727C2.39188 0.00219727 2.02537 0.0869104 1.68851 0.226687C1.35166 0.366464 1.06989 0.563422 0.815655 0.845093C0.561425 1.09923 0.364397 1.40843 0.22457 1.74517C0.0847434 2.0819 0 2.47582 0 2.86974V20.8734C0 22.5338 0.309313 24.0798 0.9576 25.5432C1.60589 27.0066 2.44908 28.3006 3.54651 29.3977C4.64394 30.4947 5.93839 31.3672 7.40233 31.9856C8.86628 32.604 10.4425 32.9429 12.0738 32.9429C13.7051 32.9429 15.311 32.6337 16.7728 31.9856C18.2368 31.3672 19.5016 30.4947 20.6011 29.3977C21.6985 28.3006 22.5439 27.0066 23.19 25.5432C23.8383 24.0798 24.1476 22.5041 24.1476 20.8734C24.1476 19.2427 23.8383 17.6374 23.19 16.1761ZM10.8641 14.8545C12.131 15.1637 13.4806 15.5852 14.6076 16.121C14.3259 17.415 14.186 18.7662 14.2411 20.1152C14.2687 20.9878 14.381 21.8878 14.578 22.7604L11.5675 19.7509C11.2857 18.7937 10.9213 17.6119 10.8641 16.0935C10.8366 15.6995 10.8641 15.2781 10.8641 14.8566V14.8545ZM10.076 14.6576V16.121L10.0484 16.0935C10.076 17.0507 10.2455 17.8661 10.415 18.5967L6.0528 14.2361C6.78371 14.1239 8.33239 14.2933 10.0781 14.6576H10.076ZM5.51679 14.827L9.87896 19.1876C9.14805 18.9906 8.33028 18.8509 7.37479 18.8212L7.40233 18.8487C6.92353 18.8212 6.41719 18.8487 5.93839 18.8487C5.57188 17.1333 5.40451 15.5576 5.51679 14.8249V14.827ZM7.37479 23.3788C6.84091 22.2542 6.41719 20.9306 6.10788 19.6366H7.34513C8.86416 19.6938 10.0463 20.058 11.0039 20.3397L14.0144 23.3491C13.1416 23.1522 12.2687 23.0399 11.3683 23.0124C10.0463 22.9552 8.69467 23.0971 7.37267 23.3788H7.37479ZM8.80908 25.63C8.41502 25.2361 8.07816 24.7024 7.73919 24.1116C8.92136 23.8574 10.1311 23.7452 11.3408 23.8023V23.8299C12.6352 23.8574 13.9022 24.084 15.1119 24.4483L16.8004 26.1362C15.6754 26.9791 12.1014 28.9211 8.80908 25.63ZM17.3364 25.5453L15.6479 23.8574C15.2814 22.6206 15.0843 21.3541 15.0292 20.0877C14.972 18.8784 15.0864 17.6691 15.3386 16.4874C15.9572 16.7966 16.4635 17.163 16.8576 17.5569H16.83C20.1223 20.8204 18.1817 24.4208 17.3364 25.5474V25.5453Z" fill="#00AC58"/>
<path d="M94.0228 30.2426C94.0228 30.6365 93.9381 31.0029 93.7982 31.3121C93.6563 31.6213 93.4614 31.9305 93.2347 32.1846C93.0101 32.4388 92.7283 32.6061 92.3915 32.748C92.0546 32.8877 91.7157 32.9449 91.3513 32.9449C90.9869 32.9449 90.6204 32.8877 90.2814 32.748C89.9445 32.6082 89.6331 32.4112 89.381 32.1846C89.1289 31.9305 88.9318 31.6509 88.7624 31.3121C88.6204 30.9753 88.5357 30.6365 88.5357 30.2426V20.509C88.5081 19.6937 88.3386 18.9058 88.0293 18.1752C87.72 17.4445 87.2984 16.824 86.7921 16.2903C86.2582 15.7566 85.665 15.3331 84.9637 15.0239C84.2604 14.7147 83.4998 14.5452 82.6566 14.5452C81.8134 14.5452 80.9956 14.7147 80.2647 15.0239C79.5317 15.3331 78.9131 15.7842 78.4067 16.3179C77.9004 16.8812 77.4767 17.5271 77.1949 18.2874C76.9152 19.0477 76.7457 19.8356 76.7457 20.706V30.2426C76.7457 30.6365 76.6885 31.0029 76.5487 31.3121C76.4068 31.6488 76.2119 31.9305 75.9852 32.1846C75.7331 32.4388 75.4513 32.6061 75.142 32.748C74.8327 32.8877 74.4661 32.9449 74.0721 32.9449C73.678 32.9449 73.3391 32.8877 73.0022 32.748C72.6653 32.6082 72.356 32.4112 72.1018 32.1846C71.8476 31.9305 71.623 31.6509 71.4832 31.3121C71.3412 30.9753 71.2586 30.6365 71.2586 30.2426V20.706C71.2586 19.0753 71.5404 17.5843 72.1315 16.1484C72.7225 14.7422 73.5107 13.5033 74.5233 12.4634C75.5381 11.4236 76.7479 10.5785 78.1546 9.96014C79.5635 9.34173 81.0528 9.06006 82.6566 9.06006C84.2604 9.06006 85.7815 9.36926 87.1586 9.96014C88.5378 10.5785 89.7475 11.3939 90.7623 12.4634C91.775 13.5329 92.5631 14.7422 93.1542 16.1484C93.7453 17.5547 94.027 19.0732 94.027 20.706V30.2426H94.0228Z" fill="#00AC58"/>
<path d="M96.3596 20.8732C96.3596 19.2128 96.6689 17.6372 97.3172 16.1759C97.9655 14.7125 98.8362 13.4481 99.9337 12.349C101.031 11.2519 102.298 10.3794 103.762 9.76097C105.226 9.14256 106.772 8.80371 108.433 8.80371C110.094 8.80371 111.671 9.11291 113.132 9.76097C114.596 10.3794 115.891 11.2519 116.961 12.349C118.058 13.446 118.903 14.7125 119.522 16.1759C120.141 17.6393 120.452 19.215 120.452 20.8732V29.8464C120.452 30.2404 120.367 30.6068 120.228 30.9435C120.086 31.2802 119.891 31.5619 119.636 31.816C119.384 32.0702 119.075 32.2671 118.736 32.4344C118.399 32.5742 118.033 32.6589 117.639 32.6589C116.99 32.6589 116.429 32.462 115.978 32.0681C115.529 31.6741 115.219 31.1955 115.077 30.6046C114.12 31.3353 113.079 31.8986 111.952 32.3201C110.825 32.7415 109.645 32.9385 108.406 32.9385C107.167 32.9385 105.198 32.6293 103.734 31.9812C102.27 31.3628 101.006 30.4903 99.9061 29.3932C98.8087 28.2962 97.9358 27.0022 97.2897 25.5388C96.6414 24.0754 96.3321 22.4997 96.3321 20.869H96.3596V20.8732ZM101.847 20.8732C101.847 21.7733 102.016 22.6183 102.353 23.4061C102.69 24.2215 103.169 24.8971 103.76 25.5155C104.351 26.1064 105.054 26.585 105.842 26.9217C106.628 27.2585 107.474 27.4279 108.404 27.4279C109.334 27.4279 110.177 27.2585 110.965 26.9217C111.753 26.585 112.457 26.1064 113.048 25.5155C113.639 24.9246 114.088 24.2215 114.427 23.4061C114.764 22.6183 114.933 21.7458 114.933 20.8732C114.933 20.0007 114.764 19.1006 114.427 18.3128C114.09 17.5249 113.611 16.8218 113.048 16.2309C112.457 15.6401 111.753 15.1614 110.965 14.8247C110.149 14.488 109.304 14.3185 108.404 14.3185C107.503 14.3185 106.66 14.488 105.872 14.8247C105.056 15.1614 104.381 15.6401 103.76 16.2309C103.169 16.8218 102.69 17.5249 102.353 18.3128C102.016 19.1281 101.847 19.9731 101.847 20.8732Z" fill="#00AC58"/>
</g>
<defs>
<clipPath id="clip0_235_104">
<rect width="120.45" height="33" fill="white"/>
</clipPath>
</defs>
</svg>
