<svg width="82" height="105" viewBox="0 0 82 105" fill="none" xmlns="http://www.w3.org/2000/svg">
<g clip-path="url(#clip0_280_1275)">
<path d="M15.46 101.26H4.42C2.53 101.26 1 99.73 1 97.84V45.28C1 39.72 5.51 35.21 11.07 35.21H30.26C35.82 35.21 40.33 39.72 40.33 45.28V56.42" stroke="#00AC58" stroke-width="2" stroke-miterlimit="10" stroke-linecap="round"/>
<path d="M40.3301 94.3401V97.8401C40.3301 99.7301 38.8001 101.26 36.9101 101.26H33.6201" stroke="#00AC58" stroke-width="2" stroke-miterlimit="10" stroke-linecap="round"/>
<path d="M40.3301 65.8701V78.1701" stroke="#00AC58" stroke-width="2" stroke-miterlimit="10" stroke-linecap="round"/>
<path d="M30.1502 29.3999H11.1802V35.0399H30.1502V29.3999Z" stroke="#00AC58" stroke-width="2" stroke-miterlimit="10"/>
<path d="M13.6502 16.9102H27.6902C29.8802 16.9102 31.6502 18.6902 31.6502 20.8702V27.6902C31.6502 28.6302 30.8902 29.3902 29.9502 29.3902H11.3802C10.4402 29.3902 9.68018 28.6302 9.68018 27.6902V20.8702C9.68018 18.6802 11.4602 16.9102 13.6402 16.9102H13.6502Z" stroke="#00AC58" stroke-width="2" stroke-miterlimit="10"/>
<path d="M9.68018 24.03H31.6502" stroke="#00AC58" stroke-width="2" stroke-miterlimit="10"/>
<path d="M19.1498 1H22.1898C23.7398 1 24.9998 2.26 24.9998 3.81V16.91H16.3398V3.81C16.3398 2.26 17.5998 1 19.1498 1Z" stroke="#00AC58" stroke-width="2" stroke-miterlimit="10"/>
<path d="M46.54 46.6799V67.6599C46.54 70.5699 45.42 73.3599 43.42 75.4699L39.96 79.0999" stroke="#00AC58" stroke-width="2" stroke-miterlimit="10" stroke-linecap="round"/>
<path d="M35.2188 99.3761C42.1496 93.7094 44.2966 84.8696 40.0142 79.632C35.7318 74.3943 26.6417 74.7422 19.7109 80.4089C12.7801 86.0756 10.6332 94.9154 14.9156 100.153C19.198 105.391 28.288 105.043 35.2188 99.3761Z" stroke="#00AC58" stroke-width="2" stroke-miterlimit="10" stroke-linecap="round"/>
<path d="M46.12 56.09C45.14 60.33 42.19 64.7 37.68 67.9C33.17 71.1 28.08 72.45 23.75 71.97C24.73 67.72 27.68 63.36 32.18 60.16C36.68 56.96 41.78 55.61 46.11 56.09H46.12Z" stroke="#00AC58" stroke-width="2" stroke-miterlimit="10" stroke-linecap="round"/>
<path d="M46.54 46.6799V67.6599C46.54 70.5699 47.66 73.3599 49.66 75.4699L53.12 79.0999" stroke="#00AC58" stroke-width="2" stroke-miterlimit="10" stroke-linecap="round"/>
<path d="M78.1656 100.148C82.448 94.9099 80.301 86.0702 73.3702 80.4034C66.4394 74.7367 57.3493 74.3889 53.0669 79.6265C48.7846 84.8642 50.9315 93.7039 57.8623 99.3706C64.7931 105.037 73.8832 105.385 78.1656 100.148Z" stroke="#00AC58" stroke-width="2" stroke-miterlimit="10" stroke-linecap="round"/>
<path d="M46.96 56.09C47.94 60.33 50.89 64.7 55.4 67.9C59.91 71.1 65 72.45 69.33 71.97C68.35 67.72 65.4 63.36 60.9 60.16C56.4 56.96 51.3 55.61 46.97 56.09H46.96Z" stroke="#00AC58" stroke-width="2" stroke-miterlimit="10" stroke-linecap="round"/>
</g>
<defs>
<clipPath id="clip0_280_1275">
<rect width="81.37" height="104.86" fill="white"/>
</clipPath>
</defs>
</svg>
