<svg width="296" height="24" viewBox="0 0 296 24" fill="none" xmlns="http://www.w3.org/2000/svg">
<g clip-path="url(#clip0_381_38)">
<mask id="mask0_381_38" style="mask-type:luminance" maskUnits="userSpaceOnUse" x="0" y="0" width="38" height="24">
<path d="M0 0H38V24H0V0Z" fill="white"/>
</mask>
<g mask="url(#mask0_381_38)">
<path opacity="0.07" d="M35 0H3C1.3 0 0 1.3 0 3V21C0 22.7 1.4 24 3 24H35C36.7 24 38 22.7 38 21V3C38 1.3 36.6 0 35 0Z" fill="black"/>
<path d="M35 1C36.1 1 37 1.9 37 3V21C37 22.1 36.1 23 35 23H3C1.9 23 1 22.1 1 21V3C1 1.9 1.9 1 3 1H35Z" fill="white"/>
<path d="M35 1C36.1 1 37 1.9 37 3V21C37 22.1 36.1 23 35 23H3C1.9 23 1 22.1 1 21V3C1 1.9 1.9 1 3 1H35Z" fill="#FFE600"/>
<path d="M19.502 5.26321C13.812 5.26321 9.19901 8.10521 9.19901 11.6122C9.19901 15.1182 13.812 18.2362 19.502 18.2362C25.192 18.2362 29.805 15.1182 29.805 11.6122C29.805 8.10521 25.193 5.26321 19.502 5.26321Z" fill="#00BCFF"/>
<path d="M16.15 9.64995C16.145 9.65995 16.045 9.75995 16.11 9.83995C16.27 10.0359 16.76 10.1479 17.259 10.0399C17.555 9.97695 17.935 9.68495 18.303 9.40395C18.6567 9.09513 19.0596 8.8477 19.495 8.67195C19.7753 8.57393 20.0794 8.56694 20.364 8.65195C20.652 8.75395 20.92 8.90495 21.156 9.09595C21.846 9.59595 24.624 11.9309 25.104 12.3359C26.5817 11.7445 28.1082 11.2827 29.666 10.9559C29.463 9.75595 28.715 8.61295 27.566 7.71595C25.966 8.36295 23.88 8.74995 21.966 7.85095C21.314 7.56701 20.6129 7.41313 19.902 7.39795C18.384 7.43195 17.727 8.06495 17.032 8.73395L16.15 9.64995Z" fill="white"/>
<path d="M24.99 12.591C24.958 12.564 21.725 9.83899 20.993 9.30699C20.7352 9.08698 20.4211 8.94326 20.086 8.89199C19.9408 8.8808 19.7947 8.89432 19.654 8.93199C19.224 9.08799 18.824 9.31799 18.472 9.61199C18.062 9.92499 17.676 10.222 17.318 10.299C16.8854 10.3848 16.4365 10.3198 16.046 10.115C15.9559 10.0622 15.8828 9.98484 15.835 9.89199C15.8086 9.82132 15.8048 9.7442 15.8242 9.67129C15.8435 9.59837 15.8851 9.53327 15.943 9.48499L16.835 8.55499C16.939 8.45499 17.043 8.35499 17.151 8.25799C16.875 8.29799 16.603 8.35699 16.337 8.43399C16.0292 8.53223 15.7098 8.58939 15.387 8.60399C15.0624 8.57249 14.7396 8.52409 14.42 8.45899C13.4681 8.24411 12.5373 7.94424 11.639 7.56299C10.369 8.47299 9.54401 9.58899 9.29901 10.842C9.48101 10.887 9.95901 10.992 10.082 11.018C12.952 11.633 13.847 12.266 14.009 12.398C14.1056 12.2944 14.2242 12.2138 14.356 12.162C14.4889 12.1091 14.6318 12.0858 14.7746 12.0937C14.9174 12.1017 15.0568 12.1407 15.183 12.208C15.307 12.275 15.416 12.369 15.499 12.483C15.692 12.333 15.934 12.251 16.183 12.251C16.323 12.254 16.461 12.277 16.593 12.321C16.721 12.361 16.839 12.425 16.939 12.512C17.039 12.6 17.118 12.706 17.171 12.825C17.2972 12.77 17.4334 12.7421 17.571 12.743C17.735 12.745 17.898 12.778 18.048 12.843C18.258 12.938 18.427 13.098 18.528 13.297C18.6306 13.4948 18.6603 13.7224 18.612 13.94C18.779 13.9233 18.9476 13.943 19.1063 13.9978C19.2649 14.0525 19.4098 14.1409 19.531 14.257C19.7033 14.4197 19.8162 14.6353 19.8519 14.8696C19.8876 15.1039 19.844 15.3433 19.728 15.55C20.025 15.725 20.368 15.812 20.716 15.805C20.8021 15.8046 20.8872 15.7872 20.9665 15.7538C21.0458 15.7203 21.1177 15.6714 21.178 15.61C21.208 15.57 21.237 15.525 21.208 15.493L20.398 14.626C20.398 14.626 20.266 14.505 20.308 14.459C20.355 14.409 20.438 14.479 20.496 14.525C20.908 14.857 21.412 15.357 21.412 15.357C21.42 15.364 21.452 15.427 21.64 15.459C21.8638 15.4964 22.0934 15.4451 22.28 15.316C22.3274 15.2758 22.3709 15.2313 22.41 15.183C22.4668 15.1082 22.4957 15.0159 22.4917 14.922C22.4877 14.8282 22.451 14.7387 22.388 14.669L21.442 13.646C21.442 13.646 21.307 13.526 21.354 13.478C21.394 13.435 21.482 13.499 21.541 13.547C21.841 13.789 22.263 14.197 22.669 14.579C22.8051 14.6673 22.9651 14.7117 23.1272 14.7063C23.2894 14.701 23.446 14.6461 23.576 14.549C23.6806 14.4939 23.7679 14.4108 23.828 14.309C23.8868 14.2092 23.9159 14.0947 23.912 13.979C23.8909 13.8331 23.8203 13.699 23.712 13.599L22.421 12.347C22.421 12.347 22.284 12.235 22.331 12.177C22.371 12.131 22.46 12.2 22.518 12.246C23.032 12.677 23.541 13.116 24.043 13.562C24.1753 13.6441 24.3285 13.6861 24.4842 13.6829C24.6398 13.6797 24.7912 13.6315 24.92 13.544C25.001 13.4981 25.0697 13.4333 25.12 13.355C25.1711 13.2766 25.2012 13.1866 25.2077 13.0933C25.2142 13 25.1967 12.9066 25.157 12.822C25.1191 12.7341 25.0624 12.6557 24.991 12.592L24.99 12.591Z" fill="white"/>
<path d="M18.726 14.1769C18.574 14.1969 18.424 14.2299 18.278 14.2729C18.262 14.2629 18.29 14.1849 18.308 14.1409C18.328 14.0969 18.592 13.3309 17.948 13.0669C17.8037 12.993 17.6401 12.9656 17.4797 12.9885C17.3192 13.0115 17.1698 13.0836 17.052 13.1949C17.025 13.2219 17.013 13.2199 17.01 13.1849C17.0058 13.0416 16.9556 12.9035 16.867 12.7909C16.7762 12.6763 16.6522 12.5924 16.512 12.5509C16.312 12.4909 16.096 12.4959 15.898 12.5639C15.7024 12.6303 15.5332 12.7575 15.415 12.9269C15.3936 12.775 15.3205 12.6352 15.208 12.5309C15.0926 12.4247 14.9459 12.3589 14.7899 12.3434C14.6339 12.3279 14.477 12.3635 14.343 12.4449C14.2109 12.525 14.11 12.6478 14.057 12.7929C14.0048 12.9362 14.0045 13.0933 14.056 13.2369C14.1088 13.3819 14.2093 13.5046 14.341 13.5849C14.4747 13.6671 14.6315 13.7035 14.7877 13.6887C14.9439 13.6739 15.0911 13.6087 15.207 13.5029C15.211 13.5059 15.212 13.5129 15.21 13.5249C15.1625 13.7347 15.1949 13.9547 15.301 14.1419C15.408 14.3299 15.581 14.4759 15.789 14.5519C15.9018 14.5934 16.0232 14.6058 16.1421 14.588C16.2609 14.5702 16.3734 14.5227 16.469 14.4499C16.524 14.4119 16.533 14.4279 16.525 14.4789C16.502 14.6359 16.532 14.9719 17.021 15.1619C17.1424 15.2183 17.2782 15.236 17.4099 15.2123C17.5416 15.1887 17.6628 15.125 17.757 15.0299C17.82 14.9759 17.837 14.9849 17.84 15.0699C17.848 15.2379 17.907 15.3999 18.009 15.5329C18.112 15.6689 18.253 15.7729 18.414 15.8299C18.5764 15.888 18.7518 15.899 18.9202 15.8619C19.0886 15.8247 19.2431 15.7409 19.366 15.6199C19.4859 15.5019 19.5668 15.35 19.5979 15.1847C19.629 15.0193 19.6088 14.8484 19.54 14.6949C19.4706 14.5403 19.3572 14.4095 19.214 14.3189C19.0681 14.2262 18.8989 14.1769 18.726 14.1769Z" fill="white"/>
<path d="M19.5 5C13.703 5 9.002 7.971 9.002 11.615L9 12.002C9 15.87 13.109 19 19.5 19C25.929 19 30 15.87 30 12.003V11.615C30 7.971 25.3 5 19.5 5ZM29.527 10.882C28.014 11.205 26.537 11.667 25.117 12.263C24.12 11.426 21.818 9.498 21.195 9.048C20.9517 8.85117 20.6768 8.69698 20.382 8.592C20.2528 8.55204 20.1183 8.53181 19.983 8.532C19.811 8.534 19.64 8.562 19.477 8.614C19.041 8.788 18.637 9.034 18.284 9.342L18.264 9.357C17.903 9.634 17.529 9.92 17.246 9.981C17.122 10.008 16.996 10.021 16.869 10.021C16.613 10.041 16.359 9.963 16.16 9.802C16.143 9.78 16.154 9.745 16.195 9.695L16.201 9.688L17.077 8.778C17.763 8.118 18.412 7.493 19.904 7.46H19.978C20.6541 7.48604 21.3194 7.63762 21.94 7.907C22.77 8.307 23.685 8.517 24.613 8.524C25.6256 8.50786 26.6233 8.27819 27.541 7.85C28.606 8.712 29.312 9.75 29.527 10.882ZM19.503 5.391C22.581 5.391 25.335 6.241 27.186 7.579C26.3748 7.93503 25.5008 8.12575 24.615 8.14C23.7487 8.13368 22.8946 7.9356 22.114 7.56C21.4395 7.26438 20.715 7.09978 19.979 7.075H19.895C19.0111 7.06066 18.1499 7.35527 17.46 7.908C17.048 7.928 16.64 8.001 16.246 8.122C15.969 8.212 15.681 8.264 15.39 8.28C15.28 8.28 15.083 8.27 15.065 8.27C14.0195 8.09244 12.9928 7.81826 11.998 7.451C13.846 6.186 16.523 5.391 19.503 5.391ZM11.634 7.716C12.915 8.22 14.469 8.61 14.96 8.64C15.097 8.649 15.243 8.664 15.39 8.664C15.7179 8.64916 16.0424 8.59099 16.355 8.491C16.555 8.435 16.758 8.387 16.962 8.347L16.789 8.512L15.899 9.44C15.8312 9.49597 15.7828 9.572 15.7609 9.65716C15.739 9.74232 15.7446 9.83224 15.777 9.914C15.8295 10.018 15.9107 10.1047 16.011 10.164C16.299 10.32 16.625 10.4 16.956 10.394C17.083 10.395 17.209 10.382 17.333 10.356C17.706 10.276 18.098 9.976 18.513 9.658C18.8583 9.37127 19.2499 9.14538 19.671 8.99C19.777 8.963 19.885 8.948 19.995 8.947C20.022 8.947 20.05 8.948 20.078 8.952C20.404 9.003 20.708 9.143 20.955 9.355C21.685 9.884 24.919 12.609 24.951 12.635C25.0142 12.693 25.0642 12.7639 25.0977 12.8429C25.1312 12.922 25.1473 13.0072 25.145 13.093C25.1396 13.1759 25.113 13.2559 25.0679 13.3256C25.0227 13.3953 24.9604 13.4522 24.887 13.491C24.76 13.5723 24.6128 13.6163 24.462 13.618C24.3302 13.6182 24.2008 13.5823 24.088 13.514C24.076 13.504 22.968 12.526 22.56 12.197C22.5083 12.1449 22.4414 12.1106 22.369 12.099C22.3529 12.0987 22.337 12.102 22.3223 12.1086C22.3076 12.1151 22.2945 12.1248 22.284 12.137C22.22 12.213 22.292 12.319 22.376 12.387L23.67 13.642C23.767 13.732 23.83 13.851 23.85 13.979C23.8529 14.0845 23.8255 14.1886 23.771 14.279C23.7162 14.3711 23.6369 14.4462 23.542 14.496C23.4062 14.5877 23.2468 14.6384 23.083 14.642C22.9522 14.6421 22.8241 14.6046 22.714 14.534L22.529 14.358C22.189 14.036 21.839 13.704 21.582 13.498C21.5296 13.446 21.462 13.412 21.389 13.401C21.3739 13.4007 21.3589 13.4036 21.3449 13.4095C21.331 13.4153 21.3184 13.424 21.308 13.435C21.278 13.466 21.258 13.522 21.332 13.615C21.352 13.64 21.373 13.664 21.397 13.685L22.341 14.708C22.3949 14.7667 22.4266 14.8425 22.4304 14.9222C22.4342 15.0019 22.41 15.0803 22.362 15.144L22.329 15.184C22.3013 15.213 22.2719 15.2404 22.241 15.266C22.1059 15.3607 21.944 15.4098 21.779 15.406C21.7365 15.4063 21.694 15.4029 21.652 15.396C21.5837 15.3911 21.5186 15.3649 21.466 15.321L21.454 15.309C21.403 15.258 20.927 14.789 20.533 14.473C20.4833 14.4228 20.4188 14.3898 20.349 14.379C20.3331 14.3788 20.3174 14.3819 20.3027 14.3881C20.2881 14.3943 20.2749 14.4035 20.264 14.415C20.186 14.497 20.303 14.62 20.353 14.665L21.158 15.521C21.1512 15.54 21.141 15.5576 21.128 15.573C21.098 15.612 21.001 15.706 20.708 15.741C20.6729 15.7456 20.6374 15.7479 20.602 15.748C20.3257 15.731 20.0564 15.6538 19.813 15.522C19.8993 15.3464 19.938 15.1512 19.9254 14.9559C19.9128 14.7606 19.8492 14.5721 19.741 14.409C19.6314 14.2432 19.4818 14.1077 19.306 14.015C19.1148 13.9137 18.9003 13.8644 18.684 13.872C18.7181 13.6513 18.6768 13.4255 18.567 13.231C18.4551 13.0332 18.2822 12.8771 18.074 12.786C17.9154 12.7175 17.7448 12.6811 17.572 12.679C17.446 12.679 17.322 12.7 17.203 12.743C17.0774 12.5122 16.8663 12.3398 16.615 12.263C16.4762 12.2153 16.3307 12.1904 16.184 12.189C15.944 12.187 15.709 12.259 15.512 12.396C15.4205 12.2883 15.3081 12.2003 15.1815 12.1375C15.0548 12.0746 14.9168 12.0383 14.7756 12.0306C14.6345 12.0229 14.4933 12.0441 14.3606 12.0928C14.228 12.1416 14.1066 12.2168 14.004 12.314C13.754 12.13 12.759 11.521 10.097 10.939C9.897 10.89 9.697 10.837 9.499 10.78C9.749 9.63 10.509 8.578 11.634 7.716ZM16.573 14.391L16.543 14.366H16.515C16.485 14.368 16.4564 14.3792 16.433 14.398C16.3174 14.4831 16.1785 14.5305 16.035 14.534C15.9592 14.5336 15.884 14.5197 15.813 14.493C15.6199 14.4243 15.458 14.2884 15.357 14.11C15.2578 13.9342 15.2285 13.7274 15.275 13.531C15.278 13.5168 15.2771 13.502 15.2723 13.4882C15.2676 13.4745 15.2592 13.4623 15.248 13.453L15.204 13.418L15.164 13.456C15.0891 13.5241 14.9996 13.574 14.9023 13.6018C14.805 13.6297 14.7026 13.6347 14.603 13.6165C14.5034 13.5983 14.4094 13.5574 14.3283 13.497C14.2471 13.4365 14.181 13.3582 14.135 13.268C14.0835 13.1601 14.0656 13.0392 14.0836 12.921C14.1016 12.8028 14.1547 12.6927 14.236 12.605C14.3196 12.5155 14.4264 12.451 14.5445 12.4185C14.6626 12.386 14.7874 12.3869 14.905 12.421C15.0223 12.4552 15.1274 12.5222 15.208 12.614C15.2875 12.7037 15.3384 12.8151 15.354 12.934L15.376 13.099L15.47 12.959C15.5783 12.7982 15.7364 12.6773 15.92 12.615C16.1057 12.5517 16.3068 12.5493 16.494 12.608C16.624 12.647 16.737 12.724 16.818 12.828C16.8988 12.9309 16.9444 13.0572 16.948 13.188C16.955 13.269 17.014 13.273 17.026 13.273C17.0546 13.2709 17.0812 13.2576 17.1 13.236C17.1615 13.1739 17.2349 13.1249 17.3159 13.0919C17.3968 13.0589 17.4836 13.0426 17.571 13.044C17.6929 13.0465 17.8131 13.0726 17.925 13.121C18.528 13.371 18.255 14.108 18.251 14.116C18.199 14.238 18.197 14.293 18.246 14.324L18.27 14.334H18.288C18.3278 14.3298 18.3669 14.32 18.404 14.305C18.507 14.265 18.616 14.243 18.726 14.237C18.942 14.237 19.151 14.32 19.308 14.469C19.3833 14.5417 19.4433 14.6287 19.4847 14.7248C19.5261 14.8209 19.5479 14.9243 19.549 15.029C19.5492 15.1339 19.528 15.2377 19.4865 15.334C19.4451 15.4303 19.3843 15.5171 19.308 15.589C19.1523 15.7403 18.9431 15.824 18.726 15.822C18.5153 15.824 18.3116 15.7461 18.156 15.604C18.0807 15.5353 18.0198 15.4524 17.9767 15.3601C17.9336 15.2678 17.9093 15.1678 17.905 15.066C17.904 15.029 17.9 14.933 17.815 14.933C17.7767 14.9369 17.7411 14.9547 17.715 14.983C17.6084 15.0915 17.464 15.1546 17.312 15.159C17.2206 15.1571 17.1304 15.1381 17.046 15.103C16.577 14.92 16.571 14.61 16.59 14.486C16.5946 14.4699 16.5954 14.453 16.5925 14.4365C16.5895 14.4201 16.5829 14.4045 16.573 14.391ZM19.503 17.833C13.927 17.833 9.407 15.048 9.407 11.612C9.407 11.475 9.416 11.338 9.431 11.201C9.476 11.211 9.918 11.313 10.011 11.333C12.73 11.915 13.628 12.52 13.781 12.634C13.7164 12.7828 13.6909 12.9456 13.707 13.107C13.7231 13.2684 13.7802 13.423 13.873 13.556C13.9669 13.6917 14.093 13.802 14.24 13.877C14.445 13.983 14.68 14.017 14.907 13.977C14.947 14.171 15.04 14.352 15.174 14.502C15.309 14.652 15.482 14.766 15.676 14.832C15.792 14.876 15.915 14.899 16.039 14.9C16.117 14.9 16.195 14.89 16.271 14.872C16.364 15.062 16.511 15.222 16.692 15.337C16.875 15.451 17.086 15.515 17.304 15.521C17.4096 15.5211 17.5144 15.5031 17.614 15.468C17.69 15.646 17.81 15.803 17.964 15.924C18.2001 16.1067 18.494 16.1982 18.7921 16.1819C19.0901 16.1655 19.3723 16.0424 19.587 15.835C19.897 16.009 20.246 16.109 20.604 16.127C20.656 16.127 20.707 16.124 20.758 16.117C20.889 16.113 21.0179 16.0821 21.1365 16.0264C21.2552 15.9707 21.3612 15.8913 21.448 15.793C21.4637 15.7718 21.4778 15.7494 21.49 15.726C21.596 15.757 21.706 15.774 21.816 15.776C22.055 15.771 22.286 15.691 22.473 15.549C22.5714 15.4877 22.6565 15.4074 22.7235 15.3128C22.7904 15.2182 22.8379 15.1112 22.863 14.998C22.935 15.012 23.008 15.019 23.083 15.019C23.3231 15.0166 23.5575 14.9451 23.758 14.813C23.908 14.7296 24.0327 14.6073 24.119 14.459C24.204 14.3129 24.2466 14.146 24.242 13.977C24.538 14.037 24.846 13.977 25.098 13.811C25.2216 13.7388 25.3265 13.6384 25.404 13.518C25.4802 13.3989 25.5262 13.2629 25.538 13.122C25.5527 12.9261 25.5036 12.7307 25.398 12.565C26.757 12.0309 28.1573 11.6085 29.585 11.302C29.593 11.405 29.598 11.508 29.598 11.612C29.598 15.048 25.078 17.833 19.503 17.833Z" fill="#0A0080"/>
</g>
</g>
<g clip-path="url(#clip1_381_38)">
<path opacity="0.07" d="M78 0H46C44.3 0 43 1.3 43 3V21C43 22.7 44.4 24 46 24H78C79.7 24 81 22.7 81 21V3C81 1.3 79.6 0 78 0Z" fill="black"/>
<path d="M78 1C79.1 1 80 1.9 80 3V21C80 22.1 79.1 23 78 23H46C44.9 23 44 22.1 44 21V3C44 1.9 44.9 1 46 1H78Z" fill="white"/>
<path d="M71.3 10.1H71C70.6 11.1 70.3 11.6 70 13.1H71.9C71.6 11.6 71.6 10.9 71.3 10.1ZM74.2 16H72.5C72.4 16 72.4 16 72.3 15.9L72.1 15L72 14.8H69.6C69.5 14.8 69.4 14.8 69.4 15L69.1 15.9C69.1 16 69 16 69 16H66.9L67.1 15.5L70 8.7C70 8.2 70.3 8 70.8 8H72.3C72.4 8 72.5 8 72.5 8.2L73.9 14.7C74 15.1 74.1 15.4 74.1 15.8C74.2 15.9 74.2 15.9 74.2 16ZM60.8 15.7L61.2 13.9C61.3 13.9 61.4 14 61.4 14C62.1 14.3 62.8 14.5 63.5 14.4C63.7 14.4 64 14.3 64.2 14.2C64.7 14 64.7 13.5 64.3 13.1C64.1 12.9 63.8 12.8 63.5 12.6C63.1 12.4 62.7 12.2 62.4 11.9C61.2 10.9 61.6 9.5 62.3 8.8C62.9 8.4 63.2 8 64 8C65.2 8 66.5 8 67.1 8.2H67.2C67.1 8.8 67 9.3 66.8 9.9C66.3 9.7 65.8 9.5 65.3 9.5C65 9.5 64.7 9.5 64.4 9.6C64.2 9.6 64.1 9.7 64 9.8C63.8 10 63.8 10.3 64 10.5L64.5 10.9C64.9 11.1 65.3 11.3 65.6 11.5C66.1 11.8 66.6 12.3 66.7 12.9C66.9 13.8 66.6 14.6 65.8 15.2C65.3 15.6 65.1 15.8 64.4 15.8C63 15.8 61.9 15.9 61 15.6C60.9 15.8 60.9 15.8 60.8 15.7ZM57.3 16C57.4 15.3 57.4 15.3 57.5 15C58 12.8 58.5 10.5 58.9 8.3C59 8.1 59 8 59.2 8H61C60.8 9.2 60.6 10.1 60.3 11.2C60 12.7 59.7 14.2 59.3 15.7C59.3 15.9 59.2 15.9 59 15.9M48 8.2C48 8.1 48.2 8 48.3 8H51.7C52.2 8 52.6 8.3 52.7 8.8L53.6 13.2C53.6 13.3 53.6 13.3 53.7 13.4C53.7 13.3 53.8 13.3 53.8 13.3L55.9 8.2C55.8 8.1 55.9 8 56 8H58.1C58.1 8.1 58.1 8.1 58 8.2L54.9 15.5C54.8 15.7 54.8 15.8 54.7 15.9C54.6 16 54.4 15.9 54.2 15.9H52.7C52.6 15.9 52.5 15.9 52.5 15.7L50.9 9.5C50.7 9.3 50.4 9 50 8.9C49.4 8.6 48.3 8.4 48.1 8.4L48 8.2Z" fill="#142688"/>
</g>
<g clip-path="url(#clip2_381_38)">
<path opacity="0.07" d="M121 0H89C87.3 0 86 1.3 86 3V21C86 22.7 87.4 24 89 24H121C122.7 24 124 22.7 124 21V3C124 1.3 122.6 0 121 0Z" fill="black"/>
<path d="M121 1C122.1 1 123 1.9 123 3V21C123 22.1 122.1 23 121 23H89C87.9 23 87 22.1 87 21V3C87 1.9 87.9 1 89 1H121Z" fill="white"/>
<path d="M101 19C104.866 19 108 15.866 108 12C108 8.13401 104.866 5 101 5C97.134 5 94 8.13401 94 12C94 15.866 97.134 19 101 19Z" fill="#EB001B"/>
<path d="M109 19C112.866 19 116 15.866 116 12C116 8.13401 112.866 5 109 5C105.134 5 102 8.13401 102 12C102 15.866 105.134 19 109 19Z" fill="#F79E1B"/>
<path d="M108 11.9998C108 9.5998 106.8 7.4998 105 6.2998C103.2 7.5998 102 9.6998 102 11.9998C102 14.2998 103.2 16.4998 105 17.6998C106.8 16.4998 108 14.3998 108 11.9998Z" fill="#FF5F00"/>
</g>
<g clip-path="url(#clip3_381_38)">
<path opacity="0.07" d="M164 0H132C130.3 0 129 1.3 129 3V21C129 22.7 130.4 24 132 24H164C165.7 24 167 22.7 167 21V3C167 1.3 165.6 0 164 0Z" fill="black"/>
<path d="M164 1C165.1 1 166 1.9 166 3V21C166 22.1 165.1 23 164 23H132C130.9 23 130 22.1 130 21V3C130 1.9 130.9 1 132 1H164Z" fill="white"/>
<path d="M141 12V15.7C141 16 140.8 16 140.5 15.9C138.6 15.1 137.5 12.6 138.2 10.5C138.6 9.4 139.4 8.5 140.5 8.1C140.9 7.9 141 8 141 8.3V12ZM143 12V8.3C143 8 143 8 143.3 8.1C145.4 8.9 146.5 11.4 145.7 13.5C145.3 14.6 144.5 15.5 143.4 15.9C143 16.1 143 16 143 15.7V12ZM150.2 5H142C145.8 5 148.8 8.1 148.8 12C148.8 15.9 145.8 19 142 19H150.2C154 19 157 15.9 157 12C157 8.1 154 5 150.2 5Z" fill="#3086C8"/>
</g>
<g clip-path="url(#clip4_381_38)">
<path opacity="0.07" d="M207 0H175C173.3 0 172 1.3 172 3V21C172 22.7 173.4 24 175 24H207C208.7 24 210 22.7 210 21V3C210 1.3 208.6 0 207 0Z" fill="black"/>
<path d="M207 1C208.1 1 209 1.9 209 3V21C209 22.1 208.1 23 207 23H175C173.9 23 173 22.1 173 21V3C173 1.9 173.9 1 175 1H207Z" fill="white"/>
<mask id="mask1_381_38" style="mask-type:luminance" maskUnits="userSpaceOnUse" x="180" y="1" width="22" height="22">
<path d="M180.63 1.62988H201.37V22.3699H180.63V1.62988Z" fill="white"/>
</mask>
<g mask="url(#mask1_381_38)">
<path d="M197.58 22.3699H184.42C183.416 22.3672 182.453 21.9671 181.743 21.2569C181.033 20.5467 180.633 19.5842 180.63 18.5799V5.41988C180.633 4.41552 181.033 3.45306 181.743 2.74286C182.453 2.03267 183.416 1.63252 184.42 1.62988H197.58C198.584 1.63252 199.547 2.03267 200.257 2.74286C200.967 3.45306 201.367 4.41552 201.37 5.41988V18.5799C201.367 19.5842 200.967 20.5467 200.257 21.2569C199.547 21.9671 198.584 22.3672 197.58 22.3699Z" fill="url(#paint0_linear_381_38)"/>
<path d="M195.39 14.11C194.38 14.13 193.23 14.24 192.18 14.37C192.3 13.94 192.42 13.52 192.42 13.52C192.42 13.52 192.54 13.78 192.88 13.75C193.37 13.71 193.96 13.24 194.24 12.37C194.54 11.45 194.52 10.4 193.9 10.32C193.4 10.25 193.16 10.69 193.12 10.78C193.12 10.78 193.23 10.38 192.91 10.45C192.6 10.52 192.55 10.65 192.47 10.9C192.46 10.94 192.2 11.9 191.93 12.91V12.93C191.86 13.16 191.73 13.23 191.64 13.24C191.33 13.26 191.99 11.23 192.04 11.08C192.11 10.88 192.15 10.72 191.92 10.64C191.77 10.58 191.56 10.6 191.5 10.77C191.47 10.84 191.46 10.89 191.46 10.89C191.46 10.89 191.29 10.63 190.91 10.67C190.53 10.7 190.05 11.17 189.73 11.99C189.41 12.81 189.27 13.98 190.03 14.09C190.41 14.15 190.74 13.93 190.91 13.57C190.91 13.57 190.88 13.81 191.13 13.93C191.23 13.98 191.48 13.96 191.71 13.83C191.65 14.06 191.59 14.28 191.54 14.47C189.9 14.7 188.62 14.95 188.62 14.95L189.72 11.25C189.89 10.69 189.57 10.81 189.34 10.88C189.09 10.95 188.97 11.16 188.84 11.55C188.29 13.23 187.86 13.75 187.55 13.64C187.26 13.54 188.17 11.76 187.95 11.52C187.76 11.32 187.37 11.33 187.3 11.45C187.23 11.57 187.34 11.68 187.29 11.85C187.24 12.02 186.88 12.94 186.84 13.15C186.8 13.36 186.49 14.5 187.32 14.45C187.81 14.42 188.15 14.05 188.18 13.95C188.03 14.39 187.81 15.11 187.81 15.11C187.81 15.11 186.8 15.36 186 16.2C185.36 16.87 184.91 18.3 185.86 18.53C187.34 18.89 188.04 16.63 188.39 15.78C189.59 15.51 190.5 15.34 191.35 15.2C191.34 15.25 191.33 15.28 191.33 15.3C191.25 15.65 191.27 15.79 191.55 15.76C191.85 15.72 191.88 15.57 191.98 15.2C191.98 15.17 191.99 15.14 192 15.11C193 14.97 193.98 14.89 195.34 14.78C195.76 14.74 195.76 14.67 195.8 14.42C195.85 14.14 195.52 14.13 195.42 14.13L195.39 14.11ZM192.81 12.16C193.01 11.5 193.2 11.23 193.37 11.16C193.79 10.98 193.87 11.5 193.54 12.3C193.17 13.22 192.73 13.2 192.57 13.02C192.57 13.02 192.59 12.86 192.81 12.17V12.16ZM190.95 12.56C190.77 12.99 190.6 13.29 190.37 13.3C190.04 13.3 190.05 12.81 190.28 12.18C190.48 11.66 190.84 11.32 191.03 11.29C191.22 11.25 191.45 11.33 190.94 12.56H190.95ZM186.59 17.58C185.8 18.28 186 17.32 186.29 16.91C186.84 16.12 187.53 15.92 187.53 15.92C187.18 16.94 186.75 17.44 186.59 17.58Z" fill="white"/>
<path d="M196.44 11.5697C196.74 11.2297 196.87 10.4897 196.37 10.2197C195.77 9.88969 194.98 10.3897 194.66 11.4597C194.37 12.4097 194.26 13.5897 195.24 13.5397C195.72 13.5197 196.14 13.1697 196.29 12.9097C196.36 12.7797 196.39 12.5897 196.38 12.4997C196.34 12.2497 196.19 12.2197 195.94 12.5397C195.88 12.6097 195.37 13.0597 195.13 12.7897C194.95 12.5997 195.1 12.2197 195.11 12.2197C195.43 12.1997 195.99 12.0697 196.44 11.5497V11.5697ZM195.72 10.7297C195.99 10.4797 196.25 10.7797 195.94 11.2097C195.62 11.6497 195.26 11.6397 195.25 11.6497C195.29 11.4797 195.43 10.9997 195.72 10.7197V10.7297Z" fill="white"/>
<path d="M191.3 5.52012C190.24 5.57012 189.38 6.42012 189.31 7.48012C189.27 8.20012 189.58 8.84012 190.1 9.25012C190.15 9.29012 190.18 9.36012 190.18 9.42012V9.88012C190.18 9.88012 190.2 9.95012 190.23 9.96012H190.24C190.24 9.96012 190.31 9.98012 190.33 9.96012L190.73 9.67012C190.78 9.63012 190.85 9.62012 190.91 9.63012C191.07 9.67012 191.23 9.69012 191.39 9.69012C192.55 9.69012 193.48 8.75012 193.48 7.60012C193.48 6.45012 192.49 5.46012 191.29 5.51012L191.3 5.52012ZM191.54 8.23012C191.49 8.31012 191.41 8.37012 191.31 8.42012C191.21 8.47012 191.09 8.49012 190.95 8.49012C190.79 8.49012 190.65 8.46012 190.54 8.40012C190.462 8.36132 190.399 8.29812 190.36 8.22012C190.316 8.15526 190.291 8.07874 190.29 8.00012C190.29 7.96012 190.3 7.92012 190.33 7.90012C190.36 7.87012 190.39 7.86012 190.44 7.86012C190.48 7.86012 190.51 7.87012 190.53 7.89012C190.55 7.91012 190.58 7.95012 190.59 7.99012C190.61 8.04012 190.63 8.09012 190.66 8.12012C190.68 8.16012 190.72 8.18012 190.76 8.21012C190.8 8.23012 190.86 8.24012 190.94 8.24012C191.04 8.24012 191.12 8.22012 191.18 8.17012C191.24 8.12012 191.27 8.07012 191.27 8.00012C191.27 7.94012 191.25 7.90012 191.22 7.87012C191.182 7.83535 191.138 7.80819 191.09 7.79012C191.04 7.77012 190.97 7.75012 190.88 7.73012C190.777 7.70745 190.676 7.67393 190.58 7.63012C190.507 7.59354 190.442 7.54251 190.39 7.48012C190.34 7.42012 190.32 7.34012 190.32 7.24012C190.32 7.14012 190.35 7.07012 190.39 7.00012C190.442 6.92272 190.52 6.86611 190.61 6.84012C190.7 6.80012 190.82 6.78012 190.94 6.78012C191.04 6.78012 191.13 6.79012 191.2 6.82012C191.27 6.85012 191.34 6.88012 191.39 6.92012C191.44 6.96012 191.48 7.01012 191.5 7.05012C191.52 7.10012 191.53 7.14012 191.53 7.18012C191.53 7.22012 191.52 7.26012 191.49 7.29012C191.46 7.32012 191.43 7.34012 191.38 7.34012C191.34 7.34012 191.31 7.34012 191.29 7.31012C191.27 7.28012 191.25 7.26012 191.22 7.22012C191.191 7.1647 191.154 7.11409 191.11 7.07012C191.07 7.03012 191 7.02012 190.91 7.02012C190.82 7.02012 190.75 7.04012 190.7 7.08012C190.65 7.12012 190.62 7.16012 190.62 7.22012C190.62 7.25012 190.62 7.28012 190.65 7.31012C190.694 7.36166 190.754 7.39689 190.82 7.41012C190.85 7.41012 190.91 7.43012 190.98 7.45012C191.07 7.47012 191.16 7.50012 191.23 7.52012C191.3 7.54012 191.37 7.58012 191.42 7.62012C191.47 7.66012 191.51 7.71012 191.54 7.76012C191.57 7.82012 191.58 7.89012 191.58 7.97012C191.58 8.07012 191.55 8.16012 191.5 8.24012L191.54 8.23012ZM192.55 6.84012C192.55 6.84012 192.53 6.91012 192.5 6.98012L191.95 8.36012C191.95 8.36012 191.92 8.44012 191.9 8.47012C191.88 8.50012 191.87 8.52012 191.85 8.53012C191.83 8.54012 191.8 8.55012 191.77 8.54012C191.69 8.53012 191.65 8.49012 191.66 8.41012C191.66 8.39012 191.68 8.34012 191.71 8.27012L192.26 6.89012C192.29 6.82012 192.31 6.77012 192.33 6.74012C192.35 6.71012 192.38 6.70012 192.43 6.71012C192.47 6.71012 192.5 6.73012 192.52 6.75012C192.54 6.77012 192.55 6.80012 192.54 6.84012H192.55Z" fill="#13C9B2"/>
</g>
</g>
<g clip-path="url(#clip5_381_38)">
<path opacity="0.07" d="M250 0H218C216.3 0 215 1.3 215 3V21C215 22.7 216.4 24 218 24H250C251.7 24 253 22.7 253 21V3C253 1.3 251.6 0 250 0Z" fill="black"/>
<path d="M250 1C251.1 1 252 1.9 252 3V21C252 22.1 251.1 23 250 23H218C216.9 23 216 22.1 216 21V3C216 1.9 216.9 1 218 1H250Z" fill="white"/>
<path d="M225.994 4.59084C225.994 9.09084 226.316 18.3178 229.64 20.5698C229.64 20.5698 240.257 15.7438 241.865 9.20284C229.318 2.33884 225.994 4.48384 225.994 4.59084Z" fill="#F4C948"/>
<path d="M243.8 10.382L243.371 9.953L241.871 9.202C240.262 15.744 229.646 20.569 229.646 20.569C226.322 18.424 226 9.094 226 4.59V2.875C225.793 3.24214 225.648 3.6408 225.571 4.055V4.484C225.032 7.09836 224.709 9.75267 224.606 12.42C224.602 14.8295 224.818 17.2344 225.249 19.605C225.308 20.1729 225.589 20.6945 226.031 21.0561C226.473 21.4176 227.04 21.5898 227.608 21.535C228.01 21.5257 228.408 21.4535 228.788 21.321C231.137 20.5495 233.43 19.618 235.651 18.533C238.372 17.1313 240.957 15.4798 243.372 13.6C243.605 13.4662 243.808 13.2858 243.968 13.0701C244.127 12.8543 244.241 12.6079 244.301 12.3462C244.362 12.0845 244.368 11.8132 244.318 11.5492C244.269 11.2852 244.166 11.0343 244.015 10.812C243.988 10.6503 243.913 10.5004 243.8 10.382Z" fill="#F4C948"/>
<path d="M242.831 9.6312L241.866 8.8802C240.891 8.13104 239.89 7.41562 238.866 6.7352C235.85 4.7803 232.609 3.19588 229.214 2.0162C228.663 1.75275 228.037 1.69442 227.447 1.8517C226.857 2.00899 226.343 2.37157 225.997 2.8742V4.5902C225.997 4.5902 229.321 2.3382 241.869 9.2012L243.263 9.9522L242.831 9.6312Z" fill="#F4C948"/>
<path d="M232.428 13.0631L234.787 11.1331L235.645 10.3821C235.752 10.2751 235.859 10.1681 235.645 10.0601L233.286 7.27207C233.152 7.53876 233.079 7.83178 233.072 8.13007C233.078 8.17384 233.074 8.21849 233.061 8.26046C233.047 8.30244 233.023 8.34059 232.992 8.37186C232.96 8.40314 232.922 8.42667 232.88 8.4406C232.838 8.45452 232.794 8.45845 232.75 8.45207H229.426C229.212 8.45207 229.104 8.45207 229.212 8.13007C229.298 7.88402 229.369 7.63328 229.426 7.37907C229.437 7.21231 229.509 7.05533 229.627 6.93713C229.745 6.81894 229.902 6.74752 230.069 6.73607C231.814 6.52157 233.579 6.52157 235.324 6.73607C236 6.7629 236.661 6.94639 237.254 7.27207C237.672 7.54225 237.998 7.93294 238.19 8.39252C238.381 8.85211 238.429 9.35895 238.326 9.84607C238.219 10.2751 238.004 10.7041 237.897 11.2401C237.658 11.9486 237.215 12.5707 236.623 13.0286C236.032 13.4865 235.319 13.7597 234.573 13.8141C233.404 14.0103 232.213 14.0463 231.034 13.9211C230.82 13.9211 230.712 13.9211 230.605 14.2431C230.405 15.2221 230.155 16.1901 229.854 17.1431C229.852 17.2188 229.832 17.2929 229.795 17.3593C229.759 17.4256 229.707 17.4822 229.644 17.5242C229.581 17.5662 229.508 17.5925 229.433 17.6009C229.358 17.6092 229.282 17.5993 229.211 17.5721H227.602C227.173 17.5721 227.066 17.4651 227.173 17.1431L228.46 11.9951C228.46 11.7811 228.567 11.7811 228.782 11.7811H232.321C232.535 11.7811 232.643 11.7811 232.535 12.1031C232.447 12.4167 232.41 12.7427 232.428 13.0681V13.0631Z" fill="#303030"/>
</g>
<g clip-path="url(#clip6_381_38)">
<path opacity="0.07" d="M293 0H261C259.3 0 258 1.3 258 3V21C258 22.7 259.4 24 261 24H293C294.7 24 296 22.7 296 21V3C296 1.3 294.6 0 293 0Z" fill="black"/>
<path d="M293 1C294.1 1 295 1.9 295 3V21C295 22.1 294.1 23 293 23H261C259.9 23 259 22.1 259 21V3C259 1.9 259.9 1 261 1H293Z" fill="#006FCF"/>
<path d="M280.012 19.9361V11.5151L295 11.5281V13.8541L293.268 15.7061L295 17.5731V19.9481H292.234L290.764 18.3261L289.304 19.9541L280.012 19.9341V19.9361Z" fill="white"/>
<path d="M281.013 19.0119V12.4419H286.585V13.9549H282.817V14.9829H286.495V16.4709H282.817V17.4809H286.585V19.0119H281.013Z" fill="#006FCF"/>
<path d="M286.557 19.0119L289.64 15.7229L286.557 12.4409H288.943L290.827 14.5239L292.717 12.4419H295V12.4929L291.983 15.7229L295 18.9199V19.0129H292.693L290.776 16.9099L288.878 19.0139H286.557V19.0119Z" fill="#006FCF"/>
<path d="M280.71 4.04004H284.324L285.593 6.92104V4.04004H290.053L290.823 6.19904L291.594 4.04004H295V12.461H277L280.71 4.04004Z" fill="white"/>
<path d="M281.395 4.95508L278.479 11.5211H280.479L281.029 10.2061H284.009L284.559 11.5211H286.609L283.705 4.95508H281.395ZM281.645 8.73208L282.52 6.64208L283.393 8.73208H281.645Z" fill="#006FCF"/>
<path d="M286.581 11.5201V4.95312L289.392 4.96312L290.84 9.00012L292.296 4.95412H295V11.5191L293.26 11.5351V7.02513L291.616 11.5191H290.026L288.35 7.01013V11.5201H286.582H286.581Z" fill="#006FCF"/>
</g>
<defs>
<linearGradient id="paint0_linear_381_38" x1="184.61" y1="23.0699" x2="196.72" y2="2.09988" gradientUnits="userSpaceOnUse">
<stop stop-color="#571A7C"/>
<stop offset="0.32" stop-color="#5B1C7F"/>
<stop offset="0.57" stop-color="#662287"/>
<stop offset="0.8" stop-color="#762B98"/>
<stop offset="0.91" stop-color="#8031A2"/>
</linearGradient>
<clipPath id="clip0_381_38">
<rect width="38" height="24" fill="white"/>
</clipPath>
<clipPath id="clip1_381_38">
<rect width="38" height="24" fill="white" transform="translate(43)"/>
</clipPath>
<clipPath id="clip2_381_38">
<rect width="38" height="24" fill="white" transform="translate(86)"/>
</clipPath>
<clipPath id="clip3_381_38">
<rect width="38" height="24" fill="white" transform="translate(129)"/>
</clipPath>
<clipPath id="clip4_381_38">
<rect width="38" height="24" fill="white" transform="translate(172)"/>
</clipPath>
<clipPath id="clip5_381_38">
<rect width="38" height="24" fill="white" transform="translate(215)"/>
</clipPath>
<clipPath id="clip6_381_38">
<rect width="38" height="24" fill="white" transform="translate(258)"/>
</clipPath>
</defs>
</svg>
