<svg width="75" height="65" viewBox="0 0 75 65" fill="none" xmlns="http://www.w3.org/2000/svg">
<g clip-path="url(#clip0_125_438)">
<path d="M39.0801 22.9401C35.4301 20.7101 33.3201 17.8401 32.4701 14.1401C31.2101 8.54011 39.5601 6.51011 40.2401 13.9501C40.5601 17.4101 39.8901 20.5601 39.0801 22.9301V22.9401Z" stroke="#39B54A" stroke-width="2" stroke-linecap="round" stroke-linejoin="round"/>
<path d="M52.42 37.0102C52.05 38.2502 50.96 39.1402 49.68 39.2802L42.52 40.0602C41.75 40.1602 41.12 40.7202 40.93 41.4802C40.89 41.6302 40.87 41.7802 40.87 41.9302C40.87 42.5602 41.19 43.1702 41.75 43.5202L44.3 46.0802C45.19 46.9802 45.33 48.3802 44.62 49.4302L43.98 50.3802H36.64C35.44 50.3802 34.32 49.8002 33.63 48.8102L32.06 46.5602C31.72 46.0802 31.16 45.7802 30.57 45.7802H29.63C28.54 45.7802 27.7 46.7302 27.82 47.8102L27.9 48.5202C27.99 49.3602 27.33 50.1102 26.48 50.1102H18.73C18.73 50.1102 11.2 50.4902 7.20997 43.5002C6.10997 41.5802 5.46997 39.5102 5.26997 37.4002C5.06997 35.3902 5.26997 33.3402 5.82997 31.4102C6.62997 28.6902 8.15997 26.1702 10.39 24.1902C12.31 22.4802 14.87 20.9902 18.29 20.1702C28.27 17.7802 33.62 24.6702 34.97 26.7402C35.2 27.0902 35.58 27.3202 36 27.3302L36.23 27.3502C36.73 27.3702 37.2 27.1102 37.45 26.6602C37.86 25.9102 38.5 24.6002 39.07 22.9102C40.66 23.8802 42.54 24.7302 44.73 25.4702C45.54 25.7402 46.29 26.1502 46.95 26.6902L48.8 28.2102C49.38 28.6802 49.88 29.2402 50.28 29.8702L52.31 34.8302C52.59 35.5202 52.63 36.2802 52.41 36.9802L52.42 37.0102Z" stroke="#39B54A" stroke-width="2" stroke-linecap="round" stroke-linejoin="round"/>
<path d="M6.69988 29.17C3.70988 21.78 5.20988 13 11.1999 7.00005C15.2099 3.00005 20.4399 1.00005 25.6899 1.00005C30.4899 1.00005 35.2899 2.68005 39.1299 6.02005C47.1699 -0.989951 59.3799 -0.669951 67.0399 6.99005C71.0399 10.99 73.0299 16.23 73.0299 21.47C73.0299 26.27 71.3599 31.0601 68.0099 34.9001C67.6999 35.2601 67.3799 35.61 67.0399 35.94L40.1699 62.8101C39.8299 63.1501 39.4899 63.47 39.1299 63.78C38.7699 63.47 38.4199 63.1501 38.0899 62.8101L25.3799 50.1" stroke="#39B54A" stroke-width="2" stroke-linecap="round" stroke-linejoin="round"/>
<path d="M5.3 37.4095C4.98 37.5195 4.64 37.5795 4.28 37.5795C2.47 37.5795 1 36.1095 1 34.2995C1 32.4895 2.47 31.0195 4.28 31.0195C4.86 31.0195 5.38 31.1695 5.86 31.4295C5.29 33.3595 5.1 35.3995 5.3 37.4195V37.4095Z" stroke="#39B54A" stroke-width="2" stroke-linecap="round" stroke-linejoin="round"/>
</g>
<defs>
<clipPath id="clip0_125_438">
<rect width="74.03" height="64.8" fill="white"/>
</clipPath>
</defs>
</svg>
