<svg width="63" height="72" viewBox="0 0 63 72" fill="none" xmlns="http://www.w3.org/2000/svg">
<g clip-path="url(#clip0_125_368)">
<path d="M61.1 33.5803C61.1 37.6403 59.55 41.7003 56.45 44.8003L31.05 70.2003L8.61 47.7603L5.65 44.8003C-0.55 38.6003 -0.55 28.5603 5.65 22.3603C7.68 20.3303 10.13 18.9603 12.72 18.2603C13.75 20.3803 15.26 22.3103 17.23 23.8803C20.71 26.6503 24.97 27.7803 29.07 27.3603C29.07 27.3903 29.07 27.4203 29.08 27.4503C29.41 27.4503 29.73 27.4203 30.06 27.4003C30.46 27.3703 30.84 27.3303 31.24 27.2703C35.14 26.7703 38.93 25.2403 42.15 22.7603C43.5 21.7203 44.76 20.5103 45.88 19.1403C46.23 18.7103 46.56 18.2703 46.88 17.8203C50.37 18.1803 53.76 19.7003 56.44 22.3703C59.54 25.4703 61.09 29.5303 61.09 33.5903L61.1 33.5803Z" stroke="#39B54A" stroke-width="2" stroke-linecap="round" stroke-linejoin="round"/>
<path d="M29.0698 27.3501C24.9698 27.7701 20.7098 26.6501 17.2298 23.8701C15.2598 22.3001 13.7498 20.3701 12.7198 18.2501C11.7398 16.2401 11.1798 14.0501 11.0698 11.8401C13.5198 11.3901 16.0598 11.5101 18.4798 12.2101C20.4898 12.7801 22.4398 13.7601 24.1798 15.1501C25.1798 15.9501 26.0698 16.8401 26.8298 17.8001C27.6698 18.8601 28.3698 20.0301 28.9198 21.2401C28.8498 21.8401 28.8098 22.4401 28.7898 23.0401C28.7598 24.3501 28.8298 25.6601 29.0198 26.9601C29.0198 27.0301 29.0398 27.0901 29.0498 27.1501C29.0498 27.2201 29.0698 27.2801 29.0798 27.3501H29.0698Z" stroke="#39B54A" stroke-width="2" stroke-linecap="round" stroke-linejoin="round"/>
<path d="M50.0699 11.2705C49.3899 13.5505 48.3399 15.7605 46.8899 17.8005C46.5799 18.2505 46.2499 18.6905 45.8899 19.1205C44.7699 20.5005 43.5099 21.7105 42.1599 22.7405C38.9399 25.2305 35.1499 26.7605 31.2499 27.2505C30.8499 27.3105 30.4699 27.3505 30.0699 27.3805C29.7399 27.4105 29.4199 27.4305 29.0899 27.4305C29.0899 27.4005 29.0799 27.3805 29.0799 27.3405C29.0699 27.2705 29.0499 27.2105 29.0499 27.1405C29.0499 27.0805 29.0199 27.0105 29.0199 26.9505C28.8299 25.6505 28.7599 24.3405 28.7899 23.0305C28.8099 22.4305 28.8599 21.8305 28.9199 21.2305C29.3699 17.0005 31.0199 12.8505 33.9199 9.31047C38.2299 4.04047 44.4099 1.21047 50.7199 0.980469C51.2899 4.38047 51.0899 7.90047 50.0799 11.2505L50.0699 11.2705Z" stroke="#39B54A" stroke-width="2" stroke-linecap="round" stroke-linejoin="round"/>
<path d="M4.79004 42.6695L9.37004 38.3195C10.36 37.0895 12.08 36.7195 13.49 37.4195L22.73 42.0295C23.2 42.2595 23.71 42.3795 24.23 42.3795H28.6C30.98 42.3795 32.61 44.7795 31.72 46.9895C31.3 48.0495 30.36 48.8195 29.24 49.0395L22.79 50.2995C21.72 50.5095 20.82 51.2195 20.37 52.2195L18.1 57.2495" stroke="#39B54A" stroke-width="2" stroke-linecap="round" stroke-linejoin="round"/>
<path d="M39.8999 61.1804V52.4704C39.8999 51.7404 40.1799 51.0304 40.6699 50.5004L43.7099 47.2004C44.5799 46.2504 44.7299 44.8504 44.0699 43.7404L41.6899 39.7204C41.1999 38.9004 41.1499 37.8903 41.5499 37.0303L43.4399 32.8904C43.7999 32.1104 44.4799 31.5304 45.2999 31.2904L52.0999 29.3804C52.9199 29.1504 53.5999 28.5704 53.9599 27.7904L56.4499 22.3604" stroke="#39B54A" stroke-width="2" stroke-linecap="round" stroke-linejoin="round"/>
<path d="M1.66016 28.8698L8.03016 30.1598C8.97016 30.3498 9.93016 29.8798 10.3502 29.0098L11.1302 27.3898C11.6702 26.2798 13.0302 25.8698 14.1002 26.4898L15.7602 27.4598C16.2502 27.7498 16.8402 27.8198 17.3902 27.6698L21.7802 26.4398" stroke="#39B54A" stroke-width="2" stroke-linecap="round" stroke-linejoin="round"/>
</g>
<defs>
<clipPath id="clip0_125_368">
<rect width="62.1" height="71.19" fill="white"/>
</clipPath>
</defs>
</svg>
