<svg width="71" height="74" viewBox="0 0 71 74" fill="none" xmlns="http://www.w3.org/2000/svg">
<g clip-path="url(#clip0_125_324)">
<path d="M47.7001 19.7298V24.4298C47.7001 25.4698 46.8501 26.3198 45.8101 26.3198H28.9701C27.9401 26.2998 27.1201 25.4598 27.1201 24.4298V19.7298C27.1201 18.6898 27.9701 17.8398 29.0101 17.8398H45.8101C46.8501 17.8398 47.7001 18.6898 47.7001 19.7298Z" stroke="#39B54A" stroke-width="2" stroke-linecap="round" stroke-linejoin="round"/>
<path d="M54.8702 41.8396V42.0496H19.9502V41.8396C19.9502 39.2696 21.1302 36.9596 22.9702 35.4496C24.2102 34.4296 25.7602 33.7596 27.4602 33.5996C27.7102 33.5796 27.9602 33.5596 28.2202 33.5596H46.5902C46.8802 33.5596 47.1802 33.5796 47.4602 33.6096C47.9402 33.6596 48.4102 33.7496 48.8602 33.8796C50.1102 34.2296 51.2402 34.8796 52.1702 35.7296C53.8202 37.2396 54.8602 39.4196 54.8602 41.8296L54.8702 41.8396Z" stroke="#39B54A" stroke-width="2" stroke-linecap="round" stroke-linejoin="round"/>
<path d="M54.8702 64.1602V67.4902C54.8702 69.1802 54.0502 70.6802 52.7802 71.6002C51.9402 72.2202 50.9002 72.5802 49.7802 72.5802H25.0402C22.8602 72.5802 21.0102 71.2202 20.2802 69.3002C20.0702 68.7402 19.9502 68.1302 19.9502 67.5002V64.1702H54.8602L54.8702 64.1602Z" stroke="#39B54A" stroke-width="2" stroke-linecap="round" stroke-linejoin="round"/>
<path d="M45.6199 26.3203H29.1899V33.5703H45.6199V26.3203Z" stroke="#39B54A" stroke-width="2" stroke-linecap="round" stroke-linejoin="round"/>
<path d="M45.2798 15.3898V17.8398H29.5498V15.3898C29.5498 14.7798 29.7998 14.2198 30.1998 13.8198C30.5998 13.4198 31.1598 13.1698 31.7698 13.1698C32.9998 13.1698 33.9898 12.1798 33.9898 10.9498V4.42977C33.9898 3.47977 34.3698 2.62977 34.9898 2.00977C35.6098 1.38977 36.4698 1.00977 37.4098 1.00977C39.2998 1.00977 40.8298 2.53977 40.8298 4.42977V10.9498C40.8298 11.5698 41.0798 12.1198 41.4798 12.5198C41.8798 12.9298 42.4398 13.1698 43.0498 13.1698C44.2798 13.1698 45.2698 14.1698 45.2698 15.3898H45.2798Z" stroke="#39B54A" stroke-width="2" stroke-linecap="round" stroke-linejoin="round"/>
<path d="M54.8602 42.0498H19.9502V64.1598H54.8602V42.0498Z" stroke="#39B54A" stroke-width="2" stroke-linecap="round" stroke-linejoin="round"/>
<path d="M22.9698 35.45C21.1198 36.96 19.9498 39.27 19.9498 41.84V51.71C16.6298 49.94 13.8698 47.25 12.0298 43.97C10.4198 41.12 9.50977 37.83 9.50977 34.33C9.50977 32.31 9.80977 30.37 10.3798 28.54C15.4298 29.18 19.8798 31.74 22.9798 35.45H22.9698Z" stroke="#39B54A" stroke-width="2" stroke-linecap="round" stroke-linejoin="round"/>
<path d="M20.2802 69.2896C17.9802 68.7796 15.8002 67.9396 13.7902 66.8396C6.16023 62.6496 0.990234 54.5296 0.990234 45.2096C0.990234 44.4796 1.02023 43.7596 1.09023 43.0496C2.21023 42.8896 3.35023 42.8096 4.51023 42.8096C7.13023 42.8096 9.65024 43.2196 12.0202 43.9696C13.8602 47.2496 16.6202 49.9396 19.9402 51.7096V67.4896C19.9402 68.1296 20.0602 68.7296 20.2702 69.2896H20.2802Z" stroke="#39B54A" stroke-width="2" stroke-linecap="round" stroke-linejoin="round"/>
<path d="M69.88 48.6905C69.88 51.2605 69.47 53.7305 68.72 56.0505C66.31 63.5205 60.32 69.3705 52.77 71.6105C54.03 70.6805 54.86 69.1905 54.86 67.5005V46.6105C58.57 43.3305 63.3 41.1905 68.51 40.7305C69.4 43.2205 69.88 45.9105 69.88 48.7005V48.6905Z" stroke="#39B54A" stroke-width="2" stroke-linecap="round" stroke-linejoin="round"/>
<path d="M58.0299 24.0404C58.0299 28.8304 55.7299 33.0804 52.1799 35.7404C51.2499 34.8904 50.1199 34.2404 48.8699 33.8904C48.4199 33.7504 47.9499 33.6603 47.4699 33.6203C47.1799 33.5903 46.8899 33.5704 46.5999 33.5704H45.6299V26.3204H45.8199C46.8599 26.3204 47.7099 25.4704 47.7099 24.4304V22.7204C50.1999 20.7704 53.3299 19.6104 56.7299 19.6104C56.9399 19.6104 57.1499 19.6104 57.3599 19.6304C57.7999 21.0204 58.0399 22.5104 58.0399 24.0404H58.0299Z" stroke="#39B54A" stroke-width="2" stroke-linecap="round" stroke-linejoin="round"/>
<path d="M11.3599 52.0498L19.9499 60.1198" stroke="#39B54A" stroke-width="2" stroke-linecap="round" stroke-linejoin="round"/>
<path d="M15.6602 37.0801L19.9502 43.9801" stroke="#39B54A" stroke-width="2" stroke-linecap="round" stroke-linejoin="round"/>
<path d="M54.8701 62.2305L61.6001 51.2305" stroke="#39B54A" stroke-width="2" stroke-linecap="round" stroke-linejoin="round"/>
<path d="M51.8299 26.3203L46.8599 33.5803" stroke="#39B54A" stroke-width="2" stroke-linecap="round" stroke-linejoin="round"/>
<path d="M42.35 54.2996C42.35 54.4896 42.35 54.6696 42.33 54.8496C41.93 60.7996 32.89 60.7996 32.48 54.8496C32.47 54.6696 32.46 54.4796 32.46 54.2996C32.46 50.9596 34.5 48.0996 37.4 46.8896C40.3 48.0896 42.35 50.9596 42.35 54.2996Z" stroke="#39B54A" stroke-width="2" stroke-linecap="round" stroke-linejoin="round"/>
</g>
<defs>
<clipPath id="clip0_125_324">
<rect width="70.88" height="73.58" fill="white"/>
</clipPath>
</defs>
</svg>
