<svg width="77" height="73" viewBox="0 0 77 73" fill="none" xmlns="http://www.w3.org/2000/svg">
<g clip-path="url(#clip0_125_351)">
<path d="M29.36 51.1297C29.28 51.1597 29.19 51.1997 29.11 51.2297C29.05 51.2497 29 51.2797 28.94 51.2897C23.61 53.3197 17.47 53.1997 11.97 50.4497C6.32 47.6197 2.49 42.5997 1 36.9297C3.97 35.7197 7.19 35.1897 10.43 35.4197C13.12 35.5997 15.83 36.3097 18.4 37.5997C19.88 38.3397 21.23 39.2297 22.45 40.2397C25.36 42.6597 27.51 45.7697 28.77 49.1997C28.9 49.5497 29.02 49.8897 29.13 50.2397C29.22 50.5397 29.3 50.8297 29.38 51.1197L29.36 51.1297Z" stroke="#39B54A" stroke-width="2" stroke-linecap="round" stroke-linejoin="round"/>
<path d="M57.2101 36.9297C55.7201 42.5997 51.8901 47.6197 46.2401 50.4497C40.7901 53.1797 34.7201 53.3297 29.4201 51.3497C29.3201 51.3197 29.2101 51.2697 29.1101 51.2297C29.0201 51.1997 28.9401 51.1697 28.8501 51.1297C28.9301 50.8397 29.0101 50.5497 29.1101 50.2497C29.2101 49.8897 29.3301 49.5497 29.4601 49.2097C30.7101 45.7497 32.8901 42.6197 35.8201 40.1997C37.0201 39.1997 38.3601 38.3297 39.8201 37.5997C42.3901 36.3097 45.0901 35.5997 47.7901 35.4197C51.0301 35.1897 54.2501 35.7197 57.2201 36.9297H57.2101Z" stroke="#39B54A" stroke-width="2" stroke-linecap="round" stroke-linejoin="round"/>
<path d="M28.7501 49.1995C27.5001 45.7695 25.3501 42.6495 22.4301 40.2395C21.2101 39.2295 19.8601 38.3395 18.3801 37.5995C15.8101 36.3095 13.1101 35.5995 10.4101 35.4195C9.44007 31.9095 9.40007 28.2295 10.2501 24.7695C14.7801 25.2595 19.1101 27.2195 22.5301 30.5095C23.5101 31.4395 24.4201 32.4895 25.2301 33.6495C28.5201 38.3595 29.6301 43.9495 28.7401 49.2095L28.7501 49.1995Z" stroke="#39B54A" stroke-width="2" stroke-linecap="round" stroke-linejoin="round"/>
<path d="M47.78 35.4198C45.09 35.5998 42.38 36.3098 39.81 37.5998C38.35 38.3298 37.02 39.1998 35.81 40.1998C32.87 42.6198 30.7 45.7498 29.45 49.2098C28.56 43.9498 29.66 38.3498 32.96 33.6398C33.76 32.4898 34.66 31.4498 35.63 30.5298C39.05 27.2298 43.4 25.2698 47.94 24.7598C48.79 28.2298 48.75 31.8998 47.78 35.4098V35.4198Z" stroke="#39B54A" stroke-width="2" stroke-linecap="round" stroke-linejoin="round"/>
<path d="M32.97 33.6498C29.67 38.3598 28.57 43.9598 29.46 49.2198C29.33 49.5598 29.22 49.8998 29.11 50.2498C29.01 49.8898 28.89 49.5498 28.75 49.2098C29.64 43.9498 28.53 38.3698 25.24 33.6498C24.43 32.4898 23.52 31.4398 22.54 30.5098C23.58 26.3198 25.87 22.6198 28.99 19.8398C32.19 22.6098 34.55 26.3198 35.63 30.5398C34.66 31.4698 33.76 32.4998 32.96 33.6498H32.97Z" stroke="#39B54A" stroke-width="2" stroke-linecap="round" stroke-linejoin="round"/>
<path d="M28.9098 51.5202L28.3998 54.4702C27.1598 61.7002 32.0798 68.5402 39.3298 69.6602L51.2898 71.5102L53.5698 66.1102C54.7798 63.2402 57.8198 61.5902 60.8898 62.1302L63.6398 62.6102C66.8598 63.1802 69.7798 60.3602 69.1198 57.1502C68.8098 55.6202 68.1598 54.4902 68.1598 54.4902L70.4098 53.5102C70.9298 53.2802 71.1098 52.6302 70.7798 52.1702L70.3798 51.6102C70.1098 51.2402 70.1698 50.7202 70.5198 50.4202L71.4098 49.6302C71.8298 49.2602 71.8098 48.6102 71.3798 48.2602C70.4798 47.5402 70.2098 46.2902 70.7198 45.2602L71.0398 44.6102C71.0698 44.5502 74.6698 43.6302 74.6698 43.6302C75.3898 43.4002 75.8298 42.6802 75.7298 41.9302C75.6698 41.5402 75.4698 41.1802 75.1598 40.9302C75.1598 40.9302 69.3998 33.3202 69.3998 31.7402V31.4302C69.3998 30.7502 69.5298 30.0802 69.7998 29.4502L70.3098 28.2202C71.3098 25.8202 71.4298 23.1402 70.6498 20.6702C67.0498 9.26023 56.3798 0.990234 43.7798 0.990234C36.5798 0.990234 30.0098 3.69023 25.0298 8.13023" stroke="#39B54A" stroke-width="2" stroke-linecap="round" stroke-linejoin="round"/>
</g>
<defs>
<clipPath id="clip0_125_351">
<rect width="76.74" height="72.52" fill="white"/>
</clipPath>
</defs>
</svg>
