<svg width="69" height="66" viewBox="0 0 69 66" fill="none" xmlns="http://www.w3.org/2000/svg">
<g clip-path="url(#clip0_125_312)">
<path d="M67.27 35.0102C67.27 35.2602 67.27 35.5202 67.27 35.7702C67.04 45.9402 62.23 54.9802 54.82 60.9102C53.8 61.7302 52.73 62.4802 51.61 63.1702C49.78 64.3102 47.67 64.9002 45.52 64.9002H22.78C20.63 64.9002 18.51 64.3102 16.69 63.1702C15.08 62.1702 13.56 61.0302 12.15 59.7802C9.86002 57.7502 7.86002 55.4002 6.20002 52.8002C2.92002 47.6602 1.02002 41.5502 1.02002 35.0102C1.02002 34.3002 1.04002 33.6002 1.09002 32.9102H67.22C67.27 33.6002 67.29 34.3102 67.29 35.0102H67.27Z" stroke="#39B54A" stroke-width="2" stroke-linecap="round" stroke-linejoin="round"/>
<path d="M18.1002 32.9002H5.03016C4.14016 30.2402 3.66016 27.4002 3.66016 24.4502C3.66016 20.2502 4.63016 16.2802 6.35016 12.7402C8.51016 13.5502 10.5402 14.6302 12.3902 15.9402C14.0202 17.1002 15.5202 18.4402 16.8502 19.9202C16.6502 21.2302 16.5502 22.5702 16.5502 23.9302C16.5502 27.0702 17.0902 30.0902 18.0902 32.8902L18.1002 32.9002Z" stroke="#39B54A" stroke-width="2" stroke-linecap="round" stroke-linejoin="round"/>
<path d="M64.3302 24.8504C64.3302 27.6604 63.9002 30.3604 63.0902 32.9104H47.4902C47.9302 31.5604 48.4802 30.2604 49.1202 29.0204C50.9602 25.4504 53.5702 22.3504 56.7402 19.9404C58.6302 18.5004 60.7202 17.3004 62.9702 16.4004C63.8502 19.0504 64.3302 21.8904 64.3302 24.8504Z" stroke="#39B54A" stroke-width="2" stroke-linecap="round" stroke-linejoin="round"/>
<path d="M37.5398 24.8103L32.7898 32.4903C32.7098 32.6303 32.6298 32.7603 32.5498 32.9003H18.0898C17.0898 30.1003 16.5498 27.0803 16.5498 23.9403C16.5498 22.5803 16.6498 21.2403 16.8498 19.9303C17.7898 13.6603 20.9098 8.11031 25.4198 4.07031C32.3098 8.55031 37.0098 16.1203 37.5398 24.8203V24.8103Z" stroke="#39B54A" stroke-width="2" stroke-linecap="round" stroke-linejoin="round"/>
<path d="M9.41016 21.71L13.9902 32.52" stroke="#39B54A" stroke-width="2" stroke-linecap="round" stroke-linejoin="round"/>
<path d="M25.8301 11.21L28.1801 32.9" stroke="#39B54A" stroke-width="2" stroke-linecap="round" stroke-linejoin="round"/>
<path d="M21.3101 19.7305L27.0001 23.5505L27.7701 29.1405L32.6301 24.0605" stroke="#39B54A" stroke-width="2" stroke-linecap="round" stroke-linejoin="round"/>
<path d="M54.7798 32.9004L58.9798 24.6504" stroke="#39B54A" stroke-width="2" stroke-linecap="round" stroke-linejoin="round"/>
<path d="M57.4398 12.9601C56.6698 15.3301 55.0198 17.1801 52.9698 18.2401C51.7298 18.8901 50.7998 20.0001 50.3598 21.3301L49.4998 23.9601L49.1098 29.0001C48.4698 30.2401 47.9298 31.5401 47.4798 32.8901H32.5498C32.6198 32.7501 32.7098 32.6101 32.7898 32.4801L37.5398 24.8001L39.9798 20.8601L40.8398 18.2301C41.2798 16.9001 41.1898 15.4501 40.5598 14.1901C39.5298 12.1201 39.2898 9.67006 40.0598 7.30006C41.6098 2.54006 46.6998 -0.0699433 51.4598 1.41006C56.2798 2.91006 58.9898 8.16006 57.4398 12.9601Z" stroke="#39B54A" stroke-width="2" stroke-linecap="round" stroke-linejoin="round"/>
</g>
<defs>
<clipPath id="clip0_125_312">
<rect width="68.27" height="65.89" fill="white"/>
</clipPath>
</defs>
</svg>
