<svg width="69" height="69" viewBox="0 0 69 69" fill="none" xmlns="http://www.w3.org/2000/svg">
<g clip-path="url(#clip0_125_360)">
<path d="M35.2 20.2201V11.5801H14.39V23.1101C14.39 27.4101 13.48 31.6601 11.73 35.5901L1.57 58.3401C1.19 59.1801 1 60.0901 1 61.0101C1 64.6301 3.94 67.5701 7.56 67.5701H22.97H26.62H42.03C45.65 67.5701 48.59 64.6301 48.59 61.0101C48.59 60.0901 48.4 59.1801 48.02 58.3401L43.64 48.5201" stroke="#39B54A" stroke-width="2" stroke-linecap="round" stroke-linejoin="round"/>
<path d="M36.89 1H12.7C10.2423 1 8.25 2.99233 8.25 5.45V7.13C8.25 9.58767 10.2423 11.58 12.7 11.58H36.89C39.3477 11.58 41.34 9.58767 41.34 7.13V5.45C41.34 2.99233 39.3477 1 36.89 1Z" stroke="#39B54A" stroke-width="2" stroke-linecap="round" stroke-linejoin="round"/>
<path d="M8.25 42.7305H34.66" stroke="#39B54A" stroke-width="2" stroke-linecap="round" stroke-linejoin="round"/>
<path d="M13.57 63.6595C16.5082 63.6595 18.89 61.2777 18.89 58.3395C18.89 55.4014 16.5082 53.0195 13.57 53.0195C10.6318 53.0195 8.25 55.4014 8.25 58.3395C8.25 61.2777 10.6318 63.6595 13.57 63.6595Z" stroke="#39B54A" stroke-width="2" stroke-linecap="round" stroke-linejoin="round"/>
<path d="M32.5302 56.1199C34.3803 56.1199 35.8802 54.6201 35.8802 52.7699C35.8802 50.9198 34.3803 49.4199 32.5302 49.4199C30.68 49.4199 29.1802 50.9198 29.1802 52.7699C29.1802 54.6201 30.68 56.1199 32.5302 56.1199Z" stroke="#39B54A" stroke-width="2" stroke-linecap="round" stroke-linejoin="round"/>
<path d="M49.2501 49.43C59.1139 49.43 67.1101 41.4338 67.1101 31.57C67.1101 21.7062 59.1139 13.71 49.2501 13.71C39.3863 13.71 31.3901 21.7062 31.3901 31.57C31.3901 41.4338 39.3863 49.43 49.2501 49.43Z" stroke="#39B54A" stroke-width="2" stroke-linecap="round" stroke-linejoin="round"/>
<path d="M39.96 31.4304L46.12 37.5004L59.71 25.3604" stroke="#39B54A" stroke-width="2" stroke-linecap="round" stroke-linejoin="round"/>
</g>
<defs>
<clipPath id="clip0_125_360">
<rect width="68.11" height="68.57" fill="white"/>
</clipPath>
</defs>
</svg>
