<?xml version="1.0" standalone="no"?>
<!DOCTYPE svg PUBLIC "-//W3C//DTD SVG 1.1//EN" "http://www.w3.org/Graphics/SVG/1.1/DTD/svg11.dtd" >
<svg xmlns="http://www.w3.org/2000/svg" xmlns:xlink="http://www.w3.org/1999/xlink" version="1.1">
<metadata>
Created by FontForge 20201107 at Wed Jul 23 03:47:08 2025
 By 
Copyright (c) 2019 by Mathieu Desjardins. All rights reserved.
</metadata>
<defs>
<font id="PPEditorialNew-Italic" horiz-adv-x="1972" >
  <font-face 
    font-family="PP Editorial New"
    font-weight="400"
    font-style="italic"
    font-stretch="normal"
    units-per-em="2048"
    panose-1="0 0 5 0 0 0 0 0 0 0"
    ascent="1638"
    descent="-410"
    x-height="1108"
    cap-height="1638"
    bbox="-899 -590 2912 2200"
    underline-thickness="71"
    underline-position="-179"
    slope="-17"
    unicode-range="U+0020-FB02"
  />
<missing-glyph horiz-adv-x="1064" 
d="M199 1679h673v-2130h-673v2130zM709 1466v70h-351v-70h138v-77h-140v-72h353v72h-140v77h140zM569 1112v150h-213v-222h353v72h-140zM426 1190h70v-78h-70v78zM709 913v70h-353v-70h140v-79h-140v-70h213v149h140zM709 643v213h-70v-141h-283v-72h353zM709 354v242h-213
v-121h73v49h70v-100h-213v172h-70v-242h353zM709 -14v241h-353v-241h353zM426 156h213v-99h-213v99zM709 -133v70h-353v-70h148l-148 -100v-70h353v70h-217l149 100h68z" />
    <glyph glyph-name="f_f" unicode="ff" horiz-adv-x="1198" 
d="M1466 1679q152 0 152 -82q0 -40 -29 -72t-73 -32q-40 0 -105 48t-102 48q-31 0 -51 -23.5t-41 -90.5q-12 -42 -32 -158t-40 -184l-15 -48h238l-22 -65h-236l-246 -809q-43 -139 -107.5 -257.5t-147 -210t-186 -143t-214.5 -51.5q-119 0 -119 84q0 49 38.5 85t88.5 36
q34 0 81.5 -39t76.5 -39q74 0 128.5 103.5t145.5 400.5l254 840h-373l-247 -813q-91 -302 -280 -496t-409 -194q-118 0 -118 84q0 49 38.5 84.5t90.5 35.5q39 0 92.5 -38.5t85.5 -38.5q76 0 130.5 103t145.5 400l265 873h-179l19 65h178l4 11q38 124 84 217t109.5 168
t149.5 114t192 39q127 0 127 -82q0 -39 -29.5 -69.5t-71.5 -30.5q-38 0 -99.5 44t-94.5 44q-31 0 -51 -23.5t-41 -91.5q-9 -35 -29.5 -152t-42.5 -188h375l18 60q29 93 61 167.5t78.5 145t100.5 117.5t126.5 75.5t157.5 28.5z" />
    <glyph glyph-name="f_f_i" unicode="ffi" horiz-adv-x="1773" 
d="M1411 1577q-28 0 -52.5 -12t-43.5 -30t-38 -50.5t-32 -61.5t-29 -76t-26 -80.5t-26.5 -88.5t-26.5 -88l-2 -5h368q41 0 92 11.5t84 29.5l33 -18l-262 -821q-37 -124 -37 -148t8 -35.5t29 -11.5q54 0 117.5 79t118.5 200h47q-30 -73 -67 -138t-84.5 -123.5t-105.5 -93
t-118 -34.5q-146 0 -146 131q0 48 43 182l228 725h-367l-246 -809q-43 -140 -107.5 -258.5t-146.5 -209.5t-185.5 -142.5t-215.5 -51.5q-119 0 -119 84q0 49 38.5 85t88.5 36q34 0 81.5 -39t76.5 -39q72 0 128 105.5t146 398.5l256 840h-381l-237 -778
q-60 -199 -163.5 -355.5t-241 -247t-283.5 -90.5q-61 0 -90 23t-29 61q0 49 39 85t90 36q39 0 92.5 -39t85.5 -39q76 0 131 104t146 400l254 840h-179l19 65h178l4 11q38 124 84 217t109.5 168t149.5 114t192 39q127 0 127 -82q0 -39 -31 -69.5t-74 -30.5q-33 0 -66 22
t-64 44t-58 22q-32 0 -55 -24.5t-39 -90.5q-1 -6 -24.5 -132.5t-45.5 -207.5h381l4 17q170 561 592 561q260 0 260 -115q0 -41 -30 -74.5t-83 -33.5q-34 0 -68.5 21.5t-60 47t-62 47t-73.5 21.5z" />
    <glyph glyph-name="f_i" unicode="fi" horiz-adv-x="1187" 
d="M825 1577q-25 0 -47 -8.5t-41 -26.5t-34.5 -38t-31 -53t-26.5 -60.5t-25 -70t-23 -73t-23 -79t-23 -78.5l-2 -5h369q41 0 92 11.5t84 29.5l32 -18l-262 -821q-3 -10 -11.5 -38t-13.5 -44t-9.5 -36t-4.5 -30q0 -47 37 -47q54 0 117.5 79t118.5 200h49
q-30 -73 -67.5 -138.5t-85 -123.5t-105.5 -92.5t-117 -34.5q-145 0 -145 131q0 57 43 182l227 725h-367l-245 -809q-57 -185 -155.5 -333.5t-233 -238.5t-279.5 -90q-131 0 -131 82q0 50 38.5 86.5t90.5 36.5q39 0 92.5 -39t85.5 -39q76 0 131 104t146 400l256 840h-181
l21 65h180l4 17q170 561 592 561q262 0 262 -115q0 -41 -30.5 -74.5t-83.5 -33.5q-34 0 -69 21.5t-60 47t-62 47t-74 21.5z" />
    <glyph glyph-name="f_l" unicode="fl" horiz-adv-x="1196" 
d="M874 92q54 0 117.5 79t118.5 200h49q-30 -73 -67.5 -138.5t-85 -123.5t-105.5 -92.5t-117 -34.5q-145 0 -145 131q0 54 41 182l373 1206q-28 8 -73 31.5t-89 40t-90 16.5q-44 0 -95 -33.5t-73 -111.5q-3 -13 -11 -60t-14 -78t-17.5 -80t-25.5 -93l-14 -48h229l-22 -65
h-228l-245 -809q-57 -185 -155.5 -333.5t-233 -238.5t-279.5 -90q-131 0 -131 82q0 50 38.5 86.5t90.5 36.5q39 0 92.5 -39t85.5 -39q76 0 131 104t146 400l254 840h-179l21 65h178l18 60q38 125 88 218.5t121.5 166.5t171 111t224.5 38q123 0 139 -63q94 7 174 82l25 -15
l-431 -1396q-36 -116 -36 -148q0 -47 36 -47z" />
    <glyph glyph-name=".notdef" horiz-adv-x="1064" 
d="M199 1679h673v-2130h-673v2130zM709 1466v70h-351v-70h138v-77h-140v-72h353v72h-140v77h140zM569 1112v150h-213v-222h353v72h-140zM426 1190h70v-78h-70v78zM709 913v70h-353v-70h140v-79h-140v-70h213v149h140zM709 643v213h-70v-141h-283v-72h353zM709 354v242h-213
v-121h73v49h70v-100h-213v172h-70v-242h353zM709 -14v241h-353v-241h353zM426 156h213v-99h-213v99zM709 -133v70h-353v-70h148l-148 -100v-70h353v70h-217l149 100h68z" />
    <glyph glyph-name=".null" horiz-adv-x="0" 
 />
    <glyph glyph-name="nonmarkingreturn" horiz-adv-x="682" 
 />
    <glyph glyph-name="space" unicode=" " horiz-adv-x="417" 
 />
    <glyph glyph-name="exclam" unicode="!" horiz-adv-x="444" 
d="M422 1540q22 71 55.5 105t83.5 34q82 0 82 -82q0 -31 -12 -73q-14 -45 -56 -143t-91.5 -211.5t-126.5 -321t-150 -442.5h-47q69 233 119 442.5t70.5 326.5t39 218t33.5 147zM53 -25q-42 0 -69 26.5t-27 66.5q0 57 43.5 103t101.5 46q44 0 70.5 -26t26.5 -66
q0 -56 -44 -103t-102 -47z" />
    <glyph glyph-name="quotedbl" unicode="&#x22;" horiz-adv-x="688" 
d="M379 1571q30 108 104 108q47 0 64.5 -30.5t-0.5 -89.5q-21 -68 -93.5 -222.5t-101.5 -222.5l-47 4q14 76 33 229t41 224zM688 1571q34 108 107 108q46 0 62.5 -30.5t-1.5 -89.5q-16 -53 -43 -115t-73.5 -160t-77.5 -170l-46 4q12 71 31.5 226t40.5 227z" />
    <glyph glyph-name="numbersign" unicode="#" horiz-adv-x="1648" 
d="M1655 1231v-137h-309l-152 -523h317v-137h-356l-137 -475h-141l137 475h-424l-137 -475h-142l138 475h-279v137h317l152 523h-326v137h365l129 448h141l-129 -448h424l129 448h141l-129 -448h271zM629 571h424l151 523h-424z" />
    <glyph glyph-name="dollar" unicode="$" horiz-adv-x="1089" 
d="M936 1737l-45 -148q85 -13 160.5 -50.5t124.5 -86.5l-91 -295h-49q25 83 25 146q0 88 -50 144t-143 69l-184 -605q70 -65 112.5 -109.5t83 -100t58.5 -110.5t18 -116q0 -92 -38 -181.5t-107.5 -163t-178 -119.5t-237.5 -48l-49 -158h-67l49 160q-200 15 -344 135l114 402
h49q-30 -105 -30 -185q0 -124 63.5 -192.5t171.5 -77.5l209 684l-8 8q-129 113 -190.5 207t-61.5 201q0 90 34 171t96.5 143.5t159 99t212.5 36.5h22l43 140h68zM487 1227q0 -62 34.5 -123.5t111.5 -140.5l170 557q-149 -3 -232.5 -89.5t-83.5 -203.5zM760 381
q0 145 -148 299l-192 -635q83 5 149.5 36t107 78.5t62 104t21.5 117.5z" />
    <glyph glyph-name="percent" unicode="%" horiz-adv-x="1574" 
d="M477 840q-88 0 -137 64t-49 169q0 123 60.5 264t162 241.5t203.5 100.5q88 0 137 -64t49 -169q0 -124 -60.5 -265t-161.5 -241t-204 -100zM205 0l1194 1638h94l-1192 -1638h-96zM475 893q66 0 141 116t122.5 263t47.5 246q0 106 -67 106q-66 0 -141 -115.5t-122.5 -263
t-47.5 -246.5q0 -106 67 -106zM1032 -29q-88 0 -138 65.5t-50 170.5q0 91 37 198t95.5 197t137.5 150.5t156 60.5q88 0 138 -65t50 -170q0 -123 -61 -264.5t-162 -242t-203 -100.5zM1030 27q66 0 141 115t122.5 262.5t47.5 246.5q0 107 -69 107q-66 0 -141 -115.5
t-122.5 -263t-47.5 -246.5q0 -106 69 -106z" />
    <glyph glyph-name="ampersand" unicode="&#x26;" horiz-adv-x="1536" 
d="M1477 915l-17 -49q-100 0 -153.5 -28t-94.5 -115q-143 -284 -288 -457q104 -125 231 -125q105 0 166 81.5t61 223.5q0 72 -18 158l45 17q29 -111 29 -197q0 -204 -103.5 -327.5t-277.5 -123.5q-160 0 -293 136q-179 -142 -375 -142q-167 0 -273 90t-106 258
q0 80 26.5 153t68 130.5t105.5 114.5t126.5 99t144.5 89q-2 29 -2 78q0 108 26.5 206t71.5 172.5t102.5 135.5t121.5 99.5t127.5 59.5t120.5 21q92 0 148 -50t56 -144q0 -49 -15 -95t-38 -82.5t-61.5 -74t-73.5 -65t-87.5 -60t-90 -53.5t-94.5 -52t-88 -49q-10 -5 -13 -8
q15 -158 64.5 -329t128.5 -289q114 148 221 397q40 92 22.5 119.5t-127.5 27.5l19 49h457zM1044 1606q-55 0 -116.5 -40t-116 -109.5t-90 -176.5t-35.5 -227v-39q457 242 457 479q0 54 -26 83.5t-73 29.5zM487 76q122 0 236 82q-92 121 -150 296t-81 353
q-122 -95 -189 -204.5t-67 -246.5q0 -144 69 -212t182 -68z" />
    <glyph glyph-name="quotesingle" unicode="'" horiz-adv-x="339" 
d="M369 1571q30 108 104 108q47 0 64.5 -30.5t-0.5 -89.5q-15 -52 -43.5 -116t-73.5 -158t-78 -171l-47 4q14 76 33 229t41 224z" />
    <glyph glyph-name="parenleft" unicode="(" horiz-adv-x="790" 
d="M424 -463l-21 -43q-158 123 -251 297t-93 399q0 222 78 463.5t210.5 454.5t318.5 391t391 277l2 -43q-201 -146 -383 -432t-292 -618.5t-110 -610.5q0 -330 150 -535z" />
    <glyph glyph-name="parenright" unicode=")" horiz-adv-x="790" 
d="M387 1733l21 43q157 -124 250.5 -298.5t93.5 -398.5q0 -222 -78 -463.5t-210.5 -454t-318.5 -390.5t-391 -277l-2 43q201 146 383 432.5t292 619t110 609.5q0 330 -150 535z" />
    <glyph glyph-name="asterisk" unicode="*" horiz-adv-x="854" 
d="M494 840q-29 0 -48.5 20t-19.5 49q0 27 10 49.5t28.5 45.5t39.5 49.5t47.5 74.5t48.5 107q-89 -45 -167 -117t-124 -94q-33 -16 -51 -16q-34 0 -52 20t-18 51q0 32 22.5 57t57.5 38q33 13 81.5 19.5t110.5 20t132 43.5q-69 41 -180 64q-57 7 -88 24.5t-31 57.5
q0 46 37 78t82 32q63 0 104 -102q31 -75 96 -131q12 47 14 85t-1.5 78.5t-3.5 53.5q0 78 30.5 130t91.5 52q70 0 70 -69q0 -42 -31 -89.5t-76 -111.5t-67 -129q60 32 105 65.5t80.5 65t56.5 45.5q22 20 34.5 29.5t32 18.5t37.5 9q31 0 48.5 -19t17.5 -48q0 -89 -136 -109
q-14 -5 -100.5 -24t-167.5 -56q77 -46 162 -57q30 -3 51 -8t42.5 -14t32.5 -24.5t11 -37.5q0 -36 -26 -65q-38 -45 -86 -45q-69 0 -109 100q-13 27 -21 41t-29 39.5t-48 46.5q-19 -74 -19 -148q0 -18 4 -71t0 -64q-6 -50 -38.5 -80t-79.5 -30z" />
    <glyph glyph-name="plus" unicode="+" horiz-adv-x="1011" 
d="M440 541h-338l45 145h338l109 348h156l-107 -348h336l-45 -145h-336l-106 -346h-156z" />
    <glyph glyph-name="comma" unicode="," horiz-adv-x="466" 
d="M-88 -258l-16 45q98 34 157 92t68 123q-33 -16 -70 -16q-42 0 -67 27.5t-25 68.5q0 55 38 95t103 40q56 0 90.5 -36.5t34.5 -108.5q0 -87 -81.5 -182.5t-231.5 -147.5z" />
    <glyph glyph-name="hyphen" unicode="-" horiz-adv-x="870" 
d="M776 479h-692l45 148h692z" />
    <glyph glyph-name="period" unicode="." horiz-adv-x="409" 
d="M37 -25q-43 0 -70.5 26.5t-27.5 66.5q0 57 44 103t103 46q44 0 70 -26t26 -66q0 -56 -43.5 -103t-101.5 -47z" />
    <glyph glyph-name="slash" unicode="/" horiz-adv-x="688" 
d="M-90 -33l901 1725h141l-901 -1725h-141z" />
    <glyph glyph-name="zero" unicode="0" horiz-adv-x="1157" 
d="M457 -31q-168 0 -261.5 127t-93.5 355q0 118 26.5 255t74 273t119 261.5t155 222t188 154.5t212.5 58q166 0 259 -126.5t93 -350.5q0 -143 -36.5 -310t-107.5 -328.5t-163 -294t-214.5 -214.5t-250.5 -82zM451 53q87 0 175.5 94t157.5 242t124 321t84.5 341t29.5 292
q0 117 -32 181.5t-111 64.5q-73 0 -148 -66.5t-136.5 -175t-116 -246.5t-91.5 -281t-58.5 -279t-21.5 -240q0 -248 144 -248z" />
    <glyph glyph-name="one" unicode="1" horiz-adv-x="698" 
d="M784 1638l-438 -1435q-31 -95 -6.5 -124.5t143.5 -29.5l-20 -49h-582l21 49q110 0 161.5 30.5t79.5 123.5l359 1171q12 40 17.5 60.5t4.5 39t-10 23t-32 3.5t-55 -11t-85 -29l6 60l416 147z" />
    <glyph glyph-name="two" unicode="2" horiz-adv-x="1030" 
d="M172 182h434q93 0 163 68t146 201h52l-246 -451h-836l4 51q533 438 769.5 730t236.5 509q0 103 -48.5 159t-148.5 56q-138 0 -254.5 -121.5t-173.5 -326.5h-51q62 280 224.5 447t377.5 167q134 0 208.5 -73t74.5 -203q0 -133 -74 -287.5t-206 -311.5t-294 -307t-358 -301
v-6z" />
    <glyph glyph-name="three" unicode="3" horiz-adv-x="958" 
d="M248 -33q-127 0 -227.5 41.5t-100.5 104.5q0 38 34 70t79 32q31 0 54.5 -17t39.5 -41.5t33.5 -49t48 -41.5t72.5 -17q96 0 186.5 71t147.5 190.5t57 250.5q0 148 -82.5 219.5t-255.5 71.5l12 53q224 54 362 180t138 275q0 79 -42 125.5t-128 46.5q-66 0 -124 -24.5
t-100 -66t-71.5 -90t-48.5 -104.5h-49q53 198 186.5 311t304.5 113q138 0 210.5 -71.5t72.5 -188.5q0 -114 -76 -223.5t-189 -182.5t-233 -100v-12q157 -7 246.5 -98t89.5 -240q0 -118 -53 -227t-141 -188t-207 -126t-246 -47z" />
    <glyph glyph-name="four" unicode="4" horiz-adv-x="1085" 
d="M592 436h-572l31 182l950 1051h160l-321 -1053h194l-55 -180h-195l-71 -233q-32 -95 -9.5 -124.5t136.5 -29.5l-19 -49h-545l19 49q101 0 149 30.5t76 123.5zM158 625l-4 -9h493l262 850z" />
    <glyph glyph-name="five" unicode="5" horiz-adv-x="948" 
d="M250 -33q-71 0 -141.5 18t-119 53.5t-48.5 78.5q0 37 33 67.5t77 30.5q32 0 55.5 -17t38.5 -41.5t32 -49t45.5 -41.5t68.5 -17q92 0 183.5 100t148.5 255t57 307q0 147 -50.5 209.5t-131.5 62.5q-61 0 -108 -26.5t-107 -82.5l-58 54l240 710h592l-58 -182h-514l-153 -459
l10 -8q119 113 272 113q129 0 209 -89t80 -261q0 -94 -23 -190t-64 -183t-101 -162.5t-131 -130.5t-157.5 -87t-176.5 -32z" />
    <glyph glyph-name="six" unicode="6" horiz-adv-x="1046" 
d="M745 1120q136 0 206.5 -94.5t70.5 -247.5q0 -77 -17.5 -165t-50 -179t-85.5 -174.5t-118.5 -149t-154.5 -104.5t-188 -39q-168 0 -261.5 105.5t-93.5 298.5q0 152 52 313.5t155.5 317.5t244 289.5t331.5 236t405 151.5l10 -47q-210 -66 -395.5 -217.5t-325.5 -353.5
q112 59 215 59zM406 51q88 0 169 85t133 208.5t82.5 252.5t30.5 226q0 98 -37.5 155.5t-113.5 57.5q-58 0 -122.5 -38t-125.5 -113q-176 -326 -176 -596q0 -116 42.5 -177t117.5 -61z" />
    <glyph glyph-name="seven" unicode="7" horiz-adv-x="972" 
d="M1237 1638l-1010 -1663l-153 76l887 1399l4 10h-453q-94 0 -141 -43.5t-86 -171.5l-43 29l65 205l49 159h881z" />
    <glyph glyph-name="eight" unicode="8" horiz-adv-x="1044" 
d="M1178 1378q0 -59 -24 -117t-60 -104.5t-95.5 -98.5t-112.5 -89.5t-130 -87.5q49 -60 78 -99t63 -95.5t50 -112.5t16 -115q0 -128 -75 -241.5t-205 -182t-282 -68.5q-175 0 -283 89.5t-108 228.5q0 50 15 99t38 90t62.5 86t76.5 79.5t92.5 77t98 72t105.5 71.5
q-42 54 -68 91t-54.5 87.5t-42.5 101t-14 103.5q0 178 143.5 305t356.5 127q165 0 262 -83t97 -214zM674 979q76 54 130 99.5t103 99.5t74 111t25 116q0 81 -47 131.5t-140 50.5q-120 0 -201 -81.5t-81 -207.5q0 -82 36 -158.5t101 -160.5zM735 401q0 95 -41.5 179
t-118.5 184q-89 -59 -150 -108t-120 -111t-89 -129.5t-30 -139.5q0 -95 59 -157t165 -62q137 0 231 98.5t94 245.5z" />
    <glyph glyph-name="nine" unicode="9" horiz-adv-x="1048" 
d="M811 1679q168 0 260 -105t92 -298q0 -126 -37.5 -261t-107 -266t-174.5 -254.5t-234 -226t-292.5 -181.5t-342.5 -120l-8 47q210 66 394.5 218.5t324.5 355.5q-112 -62 -213 -62q-137 0 -206.5 94t-69.5 248q0 77 17.5 165t50 179t85.5 174.5t118.5 149t154.5 104.5
t188 39zM793 758q86 156 132 312.5t46 287.5q0 118 -41.5 177.5t-116.5 59.5q-72 0 -139 -56t-116 -144t-86 -192t-56 -204t-19 -176q0 -99 37 -156t115 -57q122 0 244 148z" />
    <glyph glyph-name="colon" unicode=":" horiz-adv-x="409" 
d="M309 860q-44 0 -71 25t-27 65q0 57 44 103.5t103 46.5q44 0 70.5 -25t26.5 -65q0 -57 -44 -103.5t-102 -46.5zM39 -25q-44 0 -71 26.5t-27 66.5q0 57 44 103t103 46q44 0 70 -26t26 -66q0 -55 -44 -102.5t-101 -47.5z" />
    <glyph glyph-name="semicolon" unicode=";" horiz-adv-x="466" 
d="M311 860q-44 0 -71 25t-27 65q0 57 44 103.5t101 46.5q45 0 72 -25t27 -65q0 -57 -44 -103.5t-102 -46.5zM-88 -258l-16 45q98 34 157 92t68 123q-33 -16 -70 -16q-42 0 -67 27.5t-25 68.5q0 55 38 95t103 40q56 0 90.5 -36.5t34.5 -108.5q0 -87 -81.5 -182.5
t-231.5 -147.5z" />
    <glyph glyph-name="less" unicode="&#x3c;" horiz-adv-x="960" 
d="M164 748l815 237l-57 -172l-664 -186l-2 -11l567 -184l-53 -145l-672 237z" />
    <glyph glyph-name="equal" unicode="=" horiz-adv-x="909" 
d="M860 727h-692l45 150h692zM768 354h-692l45 148h692z" />
    <glyph glyph-name="greater" unicode="&#x3e;" horiz-adv-x="960" 
d="M852 524l-815 -237l57 170l664 188l2 10l-567 185l53 145l674 -237z" />
    <glyph glyph-name="question" unicode="?" horiz-adv-x="782" 
d="M401 1286h-45l52 338q40 23 109.5 39t139.5 16q140 0 216.5 -67.5t76.5 -192.5q0 -56 -17 -107t-43 -91.5t-75.5 -88.5t-94 -84.5t-120.5 -93.5q-82 -61 -122 -92.5t-85 -73t-62.5 -73t-17.5 -62.5q0 -71 90 -125l-28 -39q-174 90 -174 218q0 44 15.5 85.5t39 76t66 75
t82.5 72t104 78.5q158 118 221.5 194t63.5 162q0 63 -35.5 100t-104.5 37q-89 0 -149 -67.5t-103 -233.5zM252 -25q-43 0 -70.5 26.5t-27.5 66.5q0 57 44 103t103 46q44 0 70 -26t26 -66q0 -56 -43.5 -103t-101.5 -47z" />
    <glyph glyph-name="at" unicode="@" horiz-adv-x="2070" 
d="M1907 272h61q-114 -227 -273.5 -393t-373 -262t-455.5 -96q-369 0 -581.5 205t-212.5 550q0 152 43.5 306.5t121 292.5t189.5 259t243 209t288 138.5t319 50.5q153 0 276.5 -46t204.5 -128.5t124.5 -197t43.5 -251.5q0 -139 -44.5 -279t-118 -252.5t-164.5 -200.5
t-189.5 -136.5t-185.5 -48.5q-80 0 -124 38t-44 111q0 81 51 209l70 166h-27q-270 -522 -492 -522q-81 0 -126.5 63t-45.5 172q0 128 60 283.5t152.5 286t214 219t233.5 88.5q96 0 143 -65.5t33 -163.5h4l68 163q50 0 95 22.5t73 55.5l32 -16l-325 -780q-49 -120 -49 -172
q0 -70 73 -70q60 0 135 44.5t149 125.5t136 182t100.5 226.5t38.5 246.5q0 247 -153.5 403t-429.5 156q-150 0 -295 -48t-265 -132t-222.5 -199t-173.5 -246t-110.5 -277.5t-39.5 -289.5q0 -322 191.5 -502t523.5 -180q326 0 591 178t439 504zM743 139q60 0 149.5 86
t169 206.5t128.5 234.5q57 134 57 217q0 61 -29.5 92t-72.5 31q-70 0 -155 -76.5t-154.5 -187.5t-116.5 -243.5t-47 -236.5q0 -123 71 -123z" />
    <glyph glyph-name="A" unicode="A" horiz-adv-x="1349" 
d="M1149 1671l-64 -1460q-3 -100 29.5 -131t142.5 -31l-18 -49h-614l16 49q87 0 131 15.5t61 48t21 98.5l16 295h-548l-216 -330q-45 -68 -46 -88t30 -29q34 -10 139 -10l-16 -49h-465l14 49q79 0 131.5 25t104.5 102l989 1495h162zM905 1399l-532 -815h504l47 815h-19z" />
    <glyph glyph-name="B" unicode="B" horiz-adv-x="1286" 
d="M489 0h-600l15 49q117 0 166 31.5t77 122.5l377 1233q34 91 9 122t-156 31l14 49h555q201 0 313.5 -83.5t112.5 -233.5q0 -121 -71 -220.5t-188.5 -156.5t-258.5 -67l-2 -13q168 -5 268.5 -90t100.5 -229q0 -124 -58 -228t-157.5 -172.5t-233 -106.5t-283.5 -38z
M764 1511l-182 -589q44 -9 96 -9q132 0 242.5 53t175.5 148.5t65 212.5q0 120 -70.5 174.5t-189.5 54.5q-124 0 -137 -45zM551 823l-203 -667q-6 -15 -2 -28t17 -22.5t43 -15.5t75 -6q110 0 206 40.5t161 108.5t102 156t37 182q0 74 -24 126.5t-66.5 80.5t-91 40.5
t-107.5 12.5q-90 0 -147 -8z" />
    <glyph glyph-name="C" unicode="C" horiz-adv-x="1280" 
d="M571 -33q-152 0 -257.5 73t-154 194t-48.5 280q0 125 30.5 260t85.5 262.5t136 243t176.5 201.5t212.5 137t239 51q101 0 170.5 -33t122.5 -100q19 -27 31.5 -25.5t25.5 31.5l45 109l48 -6l-164 -572h-49q17 109 14.5 201.5t-23 159.5t-71.5 105t-131 38
q-93 0 -181.5 -50t-159 -134t-130 -192.5t-98.5 -226t-61 -234.5t-22 -218q0 -200 79.5 -308t221.5 -108q87 0 168 40t149.5 112.5t124.5 160.5t105 197h60q-51 -119 -99.5 -209t-112.5 -176t-133 -141.5t-158.5 -89t-191.5 -33.5z" />
    <glyph glyph-name="D" unicode="D" horiz-adv-x="1527" 
d="M496 0h-607l15 49q117 0 166 31.5t77 122.5l377 1233q34 91 9 122t-156 31l14 49h545q280 0 455.5 -160t175.5 -438q0 -141 -37.5 -275t-105.5 -248.5t-165.5 -210.5t-215 -163.5t-258 -105t-289.5 -37.5zM502 84q136 0 265 57.5t230 157t177.5 226.5t117.5 273t41 289
q0 222 -106.5 345.5t-282.5 123.5q-160 0 -178 -63l-414 -1339q-11 -34 25 -52t125 -18z" />
    <glyph glyph-name="E" unicode="E" horiz-adv-x="1275" 
d="M1417 1638l-112 -383h-60q41 158 18.5 224.5t-128.5 66.5h-261q-90 0 -116 -86l-172 -561h258q82 0 126.5 37.5t76.5 134.5h49l-135 -461h-52q32 116 13 165.5t-101 49.5h-256l-184 -602q-25 -85 -13.5 -108t72.5 -23h285q122 0 207 65.5t184 245.5l62 -18l-201 -385
h-1088l15 49q117 0 166 31.5t77 122.5l377 1233q34 91 9 122t-156 31l14 49h1026z" />
    <glyph glyph-name="F" unicode="F" horiz-adv-x="1222" 
d="M1497 1638l-113 -383h-59q41 158 18 224.5t-129 66.5h-358q-71 0 -92 -67l-189 -617h287q89 0 134 36.5t79 133.5h49l-139 -487h-53q30 125 10.5 180t-102.5 55h-289l-176 -577q-34 -91 -1 -122.5t189 -31.5l-16 -49h-658l15 49q117 0 166 31.5t77 122.5l377 1233
q34 91 9 122t-156 31l14 49h1106z" />
    <glyph glyph-name="G" unicode="G" horiz-adv-x="1470" 
d="M1061 1577q-110 0 -217 -64t-192.5 -172.5t-151.5 -244.5t-102 -287.5t-36 -292.5q0 -209 85.5 -329.5t263.5 -120.5q85 0 163 43.5t136 121.5l106 377q14 45 12 77t-31 52.5t-99 30.5t-193 10l16 49h658l-9 -49q-55 0 -82.5 -26t-52.5 -113l-137 -471
q-111 -96 -249 -148.5t-283 -52.5q-141 0 -247.5 44t-171 124.5t-96.5 185.5t-32 234q0 154 46 315t132 302.5t198 253.5t255 177.5t292 65.5q229 0 332 -149q25 -40 45 4l51 127l48 -6l-154 -568h-49q17 108 11 200t-32 158.5t-85 104t-148 37.5z" />
    <glyph glyph-name="H" unicode="H" horiz-adv-x="1576" 
d="M1849 1638l-12 -49q-114 0 -162 -31t-76 -122l-378 -1233q-33 -91 -7.5 -122.5t154.5 -31.5l-14 -49h-604l12 49q109 0 157 31.5t76 122.5l189 618h-621l-190 -618q-32 -91 -9 -122.5t146 -31.5l-14 -49h-607l15 49q117 0 166 31.5t77 122.5l377 1233q34 91 9 122
t-156 31l14 49h606l-14 -49q-109 0 -156 -31t-75 -122l-162 -527h620l162 527q33 91 10 122t-145 31l14 49h598z" />
    <glyph glyph-name="I" unicode="I" horiz-adv-x="729" 
d="M147 203l377 1233q34 91 9 122t-156 31l14 49h613l-15 -49q-113 0 -161 -31t-76 -122l-377 -1233q-34 -91 -8.5 -122.5t155.5 -31.5l-14 -49h-619l15 49q117 0 166 31.5t77 122.5z" />
    <glyph glyph-name="J" unicode="J" horiz-adv-x="968" 
d="M496 446l297 990q34 91 2 122t-183 31l17 49h641l-15 -49q-113 0 -161 -31t-76 -122l-283 -936q-86 -288 -209.5 -410.5t-294.5 -122.5q-141 0 -213.5 68t-72.5 166q0 84 46 142t113 58q41 0 66 -20.5t25 -56.5q0 -34 -38 -92.5t-38 -98.5q0 -86 102 -86q91 0 150.5 93.5
t124.5 305.5z" />
    <glyph glyph-name="K" unicode="K" horiz-adv-x="1480" 
d="M147 203l377 1233q34 91 9 122t-156 31l14 49h613l-15 -49q-113 0 -161 -31t-76 -122l-377 -1233q-34 -91 -8.5 -122.5t155.5 -31.5l-14 -49h-619l15 49q117 0 166 31.5t77 122.5zM836 973l303 -776q34 -89 84 -118.5t153 -29.5l-16 -49h-633l10 49q91 0 133 16t45 49
t-18 85l-276 696l555 506q100 92 100 137q0 28 -28 39.5t-103 11.5l14 49h555l-12 -49q-93 0 -162 -28.5t-160 -106.5z" />
    <glyph glyph-name="L" unicode="L" horiz-adv-x="1208" 
d="M1014 1638l-15 -49q-117 0 -166 -31t-77 -122l-369 -1211q-24 -86 -8.5 -109.5t86.5 -23.5h244q118 0 193 65t183 263l60 -19l-209 -401h-1047l15 49q118 0 168 31.5t78 122.5l376 1233q33 91 7.5 122t-156.5 31l14 49h623z" />
    <glyph glyph-name="M" unicode="M" horiz-adv-x="1894" 
d="M866 1638l6 -1276h7l729 1276h483l-12 -49q-103 0 -146.5 -32t-66.5 -123l-310 -1229q-19 -60 -11 -94.5t51 -48t145 -13.5l-17 -49h-639l15 49q114 0 160.5 32t70.5 124l324 1315h-10l-902 -1561h-90l-12 1540h-8l-397 -1296q-33 -91 -7.5 -122.5t154.5 -31.5l-14 -49
h-478l15 49q115 0 164 31.5t77 122.5l377 1233q32 91 6.5 122t-155.5 31l14 49h477z" />
    <glyph glyph-name="N" unicode="N" horiz-adv-x="1513" 
d="M1808 1638l-14 -49q-117 0 -166.5 -31t-77.5 -122l-444 -1456h-129l-395 1361l-344 -1138q-21 -59 -16 -93.5t46 -47.5t142 -13l-17 -49h-504l15 49q117 0 166 31.5t77 122.5l390 1284q-25 61 -57 81.5t-89 20.5l10 49h334l375 -1296h14l336 1094q21 59 15.5 93t-46.5 47
t-143 13l17 49h505z" />
    <glyph glyph-name="O" unicode="O" horiz-adv-x="1404" 
d="M555 -33q-90 0 -164 27.5t-125.5 77t-86.5 118t-51.5 149.5t-16.5 173q0 165 48 335t135 316t198.5 261t247 181t272.5 66q112 0 198 -42t138.5 -117t79 -172t26.5 -212q0 -166 -48 -336.5t-134.5 -316.5t-197.5 -261t-246.5 -181t-272.5 -66zM584 53q112 0 231 114.5
t208 286.5t146.5 381t57.5 390q0 362 -244 362q-90 0 -185.5 -74t-175.5 -198t-144.5 -274.5t-101 -316t-36.5 -310.5q0 -361 244 -361z" />
    <glyph glyph-name="P" unicode="P" horiz-adv-x="1257" 
d="M-111 0l15 49q117 0 166 31.5t77 122.5l377 1233q34 91 9 122t-156 31l14 49h553q229 0 346 -85t117 -265q0 -111 -46 -218t-127 -191.5t-203 -136.5t-263 -52q-146 0 -238 37l-159 -524q-34 -91 -4 -122.5t176 -31.5l-15 -49h-639zM735 784q86 0 161.5 32.5t128 86
t91 122.5t56.5 142.5t18 145.5q0 243 -260 243q-82 0 -118 -14t-48 -51l-205 -672q94 -35 176 -35z" />
    <glyph glyph-name="Q" unicode="Q" horiz-adv-x="1415" 
d="M1065 -274q70 0 119.5 21t81.5 75l47 -25q-40 -111 -124.5 -181.5t-203.5 -70.5q-87 0 -176 33.5t-203 97.5q-137 76 -221.5 109t-177.5 33q-75 0 -170 -25l63 182q149 -16 324 9q-105 30 -176.5 107.5t-104 183.5t-32.5 237q0 165 48 335t135 316t198.5 261t247 181
t272.5 66q112 0 198 -42t138.5 -117t79 -172t26.5 -212q0 -233 -91 -465t-248.5 -407t-342.5 -246q-237 -105 -563 -110l-6 -21q55 6 127 6q69 0 144.5 -15.5t120.5 -30t132 -46.5q174 -67 338 -67zM983 1587q-90 0 -185.5 -74t-175.5 -198t-144.5 -274.5t-101 -316
t-36.5 -310.5q0 -361 244 -361q112 0 231 114.5t208 286.5t146.5 381t57.5 390q0 362 -244 362z" />
    <glyph glyph-name="R" unicode="R" horiz-adv-x="1361" 
d="M-111 0l15 49q117 0 166 31.5t77 122.5l377 1233q34 91 9 122t-156 31l14 49h547q210 0 324 -83.5t114 -245.5q0 -140 -86.5 -248t-237 -164t-335.5 -51l-6 -15q86 -9 144.5 -66t90.5 -175l88 -293q21 -74 39 -116.5t48 -75t71.5 -44.5t105.5 -12l-14 -49h-162
q-64 0 -106.5 9.5t-83.5 37t-70.5 82.5t-52.5 143l-107 390q-24 76 -59.5 109t-87.5 38l-182 -606q-34 -91 -4 -122.5t176 -31.5l-17 -49h-639zM764 1489l-174 -569q18 -2 55 -2q150 3 265 49.5t182 137t67 214.5q0 237 -268 237q-107 0 -127 -67z" />
    <glyph glyph-name="S" unicode="S" horiz-adv-x="1028" 
d="M487 -18q-190 0 -342 159q-44 44 -69 -26l-39 -115h-57l147 557h49q-18 -87 -3 -172t50.5 -152.5t100 -109t145.5 -41.5q67 0 118 24.5t80 65t43.5 87t14.5 97.5q0 95 -45.5 184.5t-138.5 215.5l-95 135q-69 96 -104 174.5t-35 175.5q0 85 30.5 162t86 137t141 95.5
t189.5 35.5q95 0 167.5 -34t139.5 -107q33 -33 47 6l43 102h51l-131 -479h-49q27 199 -44.5 308.5t-207.5 109.5q-125 0 -191.5 -76.5t-66.5 -187.5q0 -44 9 -83t33 -82t39 -65.5t52 -74.5l82 -117q5 -7 30 -41t32.5 -46t30 -44.5t31.5 -50t26 -49.5t25 -55.5t17.5 -54
t13 -60t3.5 -60.5q0 -89 -29.5 -168.5t-84 -142.5t-141.5 -100t-194 -37z" />
    <glyph glyph-name="T" unicode="T" horiz-adv-x="1230" 
d="M141 0l15 49q117 0 166 31.5t75 122.5l391 1274q20 69 -51 69h-112q-115 0 -171 -56t-130 -235h-62l133 383h1121l-91 -383h-63q39 172 15 231.5t-136 59.5h-135q-70 0 -92 -69l-391 -1274q-21 -59 -17 -93.5t43 -47.5t137 -13l-14 -49h-631z" />
    <glyph glyph-name="U" unicode="U" horiz-adv-x="1472" 
d="M614 -31q-138 0 -232.5 43t-138 121t-47 187t39.5 241l268 875q33 91 8.5 122t-150.5 31l15 49h610l-14 -49q-116 0 -165 -31t-77 -122l-276 -897q-41 -142 -36.5 -247.5t68.5 -165.5t181 -60q178 0 305.5 128t208.5 392l262 850q21 59 16.5 93t-43.5 47t-137 13l14 49
h465l-12 -49q-96 0 -138.5 -31t-70.5 -122l-262 -858q-32 -109 -68.5 -193.5t-92 -165t-124 -133.5t-164.5 -85t-213 -32z" />
    <glyph glyph-name="V" unicode="V" horiz-adv-x="1419" 
d="M682 1427l-82 -1120h14l795 1157q48 67 50 86q4 22 -30 31q-33 8 -124 8l14 49h465l-15 -49q-86 0 -140.5 -24t-108.5 -101l-1037 -1497h-110l78 1460q6 100 -22.5 131t-127.5 31l16 49h590l-14 -49q-85 0 -128 -15.5t-60.5 -48t-22.5 -98.5z" />
    <glyph glyph-name="W" unicode="W" horiz-adv-x="1957" 
d="M2281 1638l-14 -49q-82 0 -133.5 -26.5t-99.5 -108.5l-840 -1487h-111l60 1174l-647 -1174h-111l61 1460q5 100 -22.5 131t-122.5 31l14 49h541l-12 -49q-101 0 -134.5 -33t-39.5 -129l-66 -1091h14l533 983l6 108q5 101 -15.5 131.5t-94.5 30.5l12 49h520l-14 -49
q-105 0 -141 -33t-42 -129l-79 -1091h14l618 1118q52 82 35 108.5t-149 26.5l14 49h446z" />
    <glyph glyph-name="X" unicode="X" horiz-adv-x="1419" 
d="M1214 1589l13 49h469l-13 -47q-77 0 -134.5 -32t-147.5 -129l-510 -556l170 -669q24 -94 69.5 -125t149.5 -31l-16 -49h-613l17 49q89 0 126.5 13.5t43 48t-12.5 94.5l-131 518l-452 -528q-71 -79 -51.5 -112.5t137.5 -33.5l-13 -49h-491l14 47q88 0 155.5 39.5
t168.5 153.5l508 575l-156 619q-24 94 -63 124.5t-123 30.5l14 49h561l-16 -49q-117 0 -141 -32t4 -123l118 -467l420 473q75 86 57.5 117.5t-131.5 31.5z" />
    <glyph glyph-name="Y" unicode="Y" horiz-adv-x="1320" 
d="M842 727l-162 -524q-34 -91 -6 -122.5t168 -31.5l-17 -49h-628l14 49q116 0 166 31.5t78 122.5l159 518l-131 711q-18 95 -53.5 126t-118.5 31l15 49h573l-16 -49q-88 0 -126.5 -14t-47.5 -49t4 -96l102 -590h10l471 628q50 66 54 83q5 23 -30 31q-32 7 -122 7l16 49h449
l-12 -49q-81 0 -136 -23t-110 -96z" />
    <glyph glyph-name="Z" unicode="Z" horiz-adv-x="1146" 
d="M432 1638h942l-1153 -1546h434q58 0 100.5 15t83.5 54.5t78.5 104t83.5 168.5h64l-170 -434h-961v49l1125 1497h-379q-121 0 -183 -60t-122 -237h-64z" />
    <glyph glyph-name="bracketleft" unicode="[" horiz-adv-x="604" 
d="M219 -512h-434l700 2294h435l-25 -84h-203l-651 -2126h205z" />
    <glyph glyph-name="backslash" unicode="\" horiz-adv-x="880" 
d="M367 1698h141l184 -1731h-139z" />
    <glyph glyph-name="bracketright" unicode="]" horiz-adv-x="604" 
d="M399 1782h435l-701 -2294h-434l25 84h202l652 2126h-203z" />
    <glyph glyph-name="asciicircum" unicode="^" horiz-adv-x="1183" 
d="M346 797h-166l658 841h176l143 -841h-153l-111 690h-16z" />
    <glyph glyph-name="underscore" unicode="_" horiz-adv-x="1404" 
d="M1182 -184l-31 -109h-1407l33 109h1405z" />
    <glyph glyph-name="grave" unicode="`" horiz-adv-x="499" 
d="M393 1651l172 -375h-65l-299 375h192z" />
    <glyph glyph-name="a" unicode="a" horiz-adv-x="1114" 
d="M791 92q54 0 116 78t119 201h47q-30 -73 -67.5 -138.5t-85 -123.5t-105.5 -92.5t-117 -34.5q-145 0 -145 131q0 14 2.5 28t8.5 32.5t11 32t16 41t17 44.5l80 225h-18q-42 -91 -90.5 -176t-111 -171.5t-133 -139t-134.5 -52.5q-93 0 -140 72.5t-47 196.5q0 107 36 230
t99 234t140 203t167 146.5t173 54.5q98 0 144 -63.5t40 -167.5h6l60 164q58 0 106 22t76 57l33 -18l-295 -823q-4 -12 -13.5 -38t-15.5 -42.5t-11 -36t-5 -29.5q0 -24 8 -35.5t29 -11.5zM285 127q58 0 142.5 89.5t159 215.5t113.5 240q39 112 39 198q0 140 -92 140
q-66 0 -143.5 -75t-140 -185t-104.5 -242t-42 -238q0 -143 68 -143z" />
    <glyph glyph-name="b" unicode="b" horiz-adv-x="1030" 
d="M387 -29q-113 0 -220.5 32t-158.5 69l445 1364q30 86 5 120.5t-130 34.5l12 47q184 0 255.5 11.5t109.5 48.5l24 -15l-371 -1118l4 8q29 70 63 138t82 143t97.5 131t109 92.5t117.5 36.5q87 0 128.5 -73.5t41.5 -198.5q0 -113 -30.5 -236t-87.5 -235t-131.5 -202
t-170 -144t-194.5 -54zM395 74q78 0 154.5 75t130.5 186t87.5 240.5t33.5 237.5q0 152 -74 152q-58 0 -135 -87t-143.5 -209.5t-116.5 -254.5l-99 -279q65 -61 162 -61z" />
    <glyph glyph-name="c" unicode="c" horiz-adv-x="802" 
d="M289 -29q-119 0 -187.5 89.5t-68.5 244.5q0 135 49.5 281t129 263t188 193t216.5 76q84 0 137.5 -50.5t53.5 -139.5q0 -88 -45 -161t-105 -73q-33 0 -53 22t-20 54q0 23 11.5 42t27.5 33t32 29t27.5 38.5t11.5 52.5q0 32 -19.5 52.5t-60.5 20.5q-94 0 -182.5 -115
t-140 -276t-51.5 -305q0 -108 32.5 -173t100.5 -65q82 0 164.5 83.5t154.5 226.5h45q-86 -211 -201.5 -327t-246.5 -116z" />
    <glyph glyph-name="d" unicode="d" horiz-adv-x="1126" 
d="M807 92q54 0 116 78t119 201h48q-30 -73 -67.5 -138.5t-85 -123.5t-105.5 -92.5t-117 -34.5q-146 0 -146 131q0 11 2 24.5t4 23.5t8 29l9 28.5t12.5 36t13.5 38.5l76 223h-28q-42 -92 -90 -177.5t-110.5 -173.5t-132.5 -141t-134 -53q-88 0 -136.5 75.5t-48.5 199.5
q0 107 36 230t99 234t140 203t167 146.5t173 54.5q98 0 143.5 -63.5t40.5 -167.5h4l187 553q29 85 -5.5 120t-142.5 35l12 47q174 0 257.5 13t123.5 47l25 -15l-463 -1396q-41 -120 -41 -148q0 -24 8 -35.5t29 -11.5zM285 119q57 0 141.5 91t158.5 218.5t115 243.5
q39 112 39 198q0 140 -92 140q-66 0 -143.5 -75t-140 -185t-104.5 -242t-42 -238q0 -151 68 -151z" />
    <glyph glyph-name="e" unicode="e" horiz-adv-x="831" 
d="M383 102q173 0 338 334h45q-89 -219 -210 -342t-263 -123q-123 0 -195.5 83t-72.5 233q0 129 52 276t133.5 269t192.5 203t220 81q90 0 143 -51t53 -135q0 -110 -84.5 -211t-214 -166.5t-272.5 -87.5q-19 -93 -19 -166q0 -97 41.5 -147t112.5 -50zM610 1038
q-69 0 -139.5 -78t-122.5 -191t-84 -239q171 43 292.5 159.5t121.5 254.5q0 94 -68 94z" />
    <glyph glyph-name="f" unicode="f" horiz-adv-x="616" 
d="M887 1679q78 0 113.5 -19.5t35.5 -60.5q0 -39 -30.5 -72.5t-71.5 -33.5q-40 0 -104 48t-101 48q-32 0 -53 -24t-39 -90q-6 -28 -18 -96t-25.5 -129t-30.5 -117l-14 -48h231l-20 -65h-232l-245 -809q-56 -185 -154.5 -333.5t-233 -238.5t-278.5 -90q-131 0 -131 80
q0 49 38.5 87t88.5 38q33 0 64 -19.5t60 -39t56 -19.5q75 0 129.5 103t145.5 401l256 840h-179l21 65h178l18 60q37 125 81.5 217t106.5 166.5t146.5 112.5t190.5 38z" />
    <glyph glyph-name="g" unicode="g" horiz-adv-x="960" 
d="M1001 1120q82 0 82 -51q0 -31 -22 -55.5t-60 -24.5q-25 0 -74 17.5t-77 17.5q-17 0 -35 -6q62 -78 62 -197q0 -187 -119 -336.5t-293 -169.5q-234 -29 -234 -102q0 -32 37 -57.5t135 -59.5l193 -69q128 -44 178.5 -91t50.5 -120q0 -89 -75 -156t-197 -100t-272 -33
q-236 0 -378.5 75t-142.5 177q0 174 400 219q-129 58 -129 135q0 41 28 75t75.5 56.5t98.5 37t107 22.5q-92 27 -146.5 103.5t-54.5 182.5q0 129 62 245.5t169 188.5t230 72q111 0 186 -65q51 33 110 51t105 18zM424 383q75 0 141 76t101.5 186.5t35.5 218.5q0 185 -110 185
q-76 0 -142.5 -77.5t-102.5 -188t-36 -216.5q0 -184 113 -184zM516 -133l-258 90q-4 2 -13.5 5t-13.5 5q-315 -43 -315 -178q0 -84 116.5 -134t289.5 -50q161 0 247 41.5t86 107.5q0 67 -139 113z" />
    <glyph glyph-name="h" unicode="h" horiz-adv-x="1089" 
d="M186 0h-200l467 1436q30 86 5 120.5t-130 34.5l12 47q317 0 365 60l24 -15l-407 -1226h20q157 341 286 499t251 158q70 0 108.5 -40.5t38.5 -108.5q0 -53 -28 -142.5t-57 -159.5t-86.5 -199t-78.5 -179q-47 -123 -47 -146q0 -24 8 -35.5t29 -11.5q54 0 117 79t118 200h48
q-30 -73 -67 -138t-84.5 -123.5t-105.5 -93t-118 -34.5q-146 0 -146 131q0 17 5.5 37.5t11.5 36t21 50.5l24 56q24 61 63.5 158t63 154.5t48.5 123.5t36.5 108t11.5 66q0 66 -43 66q-26 0 -62.5 -26t-92 -95t-118 -174t-144.5 -279.5t-167 -394.5z" />
    <glyph glyph-name="i" unicode="i" horiz-adv-x="641" 
d="M569 1319q-59 0 -95 35t-36 92q0 58 36 92.5t95 34.5t95 -34.5t36 -92.5q0 -57 -36 -92t-95 -35zM131 291l176 495q53 144 53 181q0 34 -26 34q-43 0 -105 -66.5t-125 -170.5h-49q76 147 183.5 246.5t214.5 99.5q53 0 80.5 -32.5t27.5 -80.5q0 -54 -59 -215l-178 -497
q-43 -121 -43 -146t7.5 -36t28.5 -11q54 0 117.5 79t118.5 200h47q-30 -73 -67 -138t-84.5 -123.5t-105.5 -93t-118 -34.5q-145 0 -145 131q0 14 2 27.5t8 33t10 32t14.5 41t16.5 44.5z" />
    <glyph glyph-name="j" unicode="j" horiz-adv-x="575" 
d="M547 1319q-59 0 -95 35t-36 92q0 58 36 92.5t95 34.5t95 -34.5t36 -92.5q0 -57 -36 -92t-95 -35zM508 780l-191 -555q-107 -320 -284 -498t-424 -178q-53 0 -81 23.5t-28 62.5q0 47 38.5 83t88.5 36q41 0 94.5 -39t88.5 -39q33 0 63 22.5t57 62t59.5 114.5t62 156
t73.5 211l188 544q54 160 54 181q0 34 -29 34q-42 0 -103 -66t-126 -171h-50q78 148 185 247t213 99q53 0 80.5 -32.5t27.5 -80.5q0 -58 -57 -217z" />
    <glyph glyph-name="k" unicode="k" horiz-adv-x="1101" 
d="M786 115q96 0 215 243h48q-37 -82 -73 -143.5t-82 -117t-100 -85.5t-114 -30q-99 0 -143 91t-52 267q-7 100 -2 180q84 21 154 58t114 78.5t74.5 87.5t43 84.5t12.5 68.5q0 68 -54 68q-29 0 -72.5 -25t-110 -93.5t-136.5 -172t-156.5 -279t-167.5 -395.5h-198l467 1436
q30 86 5 120.5t-130 34.5l12 47q313 0 365 60l26 -15l-405 -1226h14q146 324 304.5 488.5t287.5 164.5q71 0 109 -41.5t38 -101.5q0 -50 -27 -111.5t-76 -123.5t-128.5 -116.5t-173.5 -83.5q0 -32 16 -200q11 -114 32 -165.5t64 -51.5z" />
    <glyph glyph-name="l" unicode="l" horiz-adv-x="585" 
d="M696 1698l25 -15l-453 -1396q-39 -115 -39 -148q0 -24 8 -35.5t29 -11.5q54 0 116.5 78.5t119.5 200.5h47q-30 -73 -67.5 -138.5t-85 -123.5t-105.5 -92.5t-117 -34.5q-145 0 -145 131q0 53 45 180l368 1143q32 86 7 120.5t-130 34.5l13 47q172 0 250.5 14t113.5 46z" />
    <glyph glyph-name="m" unicode="m" horiz-adv-x="1622" 
d="M238 0h-201l270 786q53 144 53 181q0 34 -26 34q-43 0 -105 -66.5t-125 -170.5h-49q76 147 183.5 246.5t214.5 99.5q53 0 80.5 -32.5t27.5 -80.5q0 -25 -11 -64t-20 -62t-34 -87l-121 -327h18q165 351 283 504t237 153q58 0 91.5 -40.5t33.5 -98.5q0 -35 -8.5 -75.5
t-30 -97.5t-38 -97t-53 -123t-54.5 -125h18q159 343 287 500t252 157q70 0 107.5 -40.5t37.5 -108.5q0 -53 -28 -143t-56.5 -158.5t-86.5 -200t-78 -178.5q-4 -13 -18 -49t-21.5 -60t-7.5 -37q0 -47 36 -47q54 0 117.5 79t118.5 200h49q-31 -74 -68.5 -138.5t-84.5 -123
t-105 -93t-117 -34.5q-145 0 -145 131q0 17 5 37.5t11 36.5t20.5 50t22.5 56q20 49 64 156.5t64 157.5t46.5 120.5t37.5 111t11 64.5q0 66 -43 66q-25 0 -61 -26t-85 -81.5t-112.5 -160.5t-130.5 -246q-80 -165 -192 -455h-201l166 424q10 25 32.5 82t33.5 85.5t29.5 76.5
t28.5 76.5t20.5 62.5t15 57t4.5 39q0 66 -45 66q-26 0 -61 -26t-87.5 -95t-113 -174t-139.5 -279t-164 -395z" />
    <glyph glyph-name="n" unicode="n" horiz-adv-x="1142" 
d="M238 0h-201l270 786q53 144 53 181q0 34 -26 34q-43 0 -105 -66.5t-125 -170.5h-49q76 147 183.5 246.5t214.5 99.5q53 0 80.5 -32.5t27.5 -80.5q0 -25 -11 -64t-20 -62t-34 -87l-121 -327h20q164 346 289.5 501.5t247.5 155.5q69 0 107 -40.5t38 -108.5
q0 -53 -28 -142.5t-57 -159.5t-86.5 -199t-78.5 -179q-4 -13 -18 -49t-21.5 -60t-7.5 -37q0 -24 8 -35.5t29 -11.5q54 0 117.5 79t118.5 200h49q-31 -74 -68.5 -138.5t-85 -123t-105.5 -93t-118 -34.5q-143 0 -143 131q0 17 5 37.5t11 36.5t20.5 50t22.5 56q20 49 64 156.5
t64 157.5t46.5 120.5t37.5 111t11 64.5q0 66 -43 66q-26 0 -62 -26t-91 -95t-117.5 -174t-144.5 -279.5t-168 -394.5z" />
    <glyph glyph-name="o" unicode="o" horiz-adv-x="983" 
d="M342 -29q-136 0 -219.5 96t-83.5 257q0 143 51.5 287.5t133.5 255t192 180t221 69.5q137 0 221 -97.5t84 -258.5q0 -190 -85.5 -373.5t-226 -299.5t-288.5 -116zM358 59q85 0 178 122t153.5 302.5t60.5 341.5q0 97 -31.5 151t-95.5 54q-85 0 -177.5 -123.5t-152.5 -305.5
t-60 -341q0 -201 125 -201z" />
    <glyph glyph-name="p" unicode="p" horiz-adv-x="1075" 
d="M868 1114q79 0 131 -70.5t52 -205.5q0 -83 -21.5 -179t-59 -190t-92 -182t-116 -154.5t-135 -106.5t-146.5 -40q-122 0 -200 88l-101 -322q-32 -95 -3.5 -124t161.5 -29l-23 -50h-532l14 50q77 0 117 30.5t68 122.5l362 1155q-59 -105 -137.5 -199.5t-165.5 -152.5
l-27 37q138 93 252 263.5t162 320.5v-2l35 110h186l-215 -641h19q31 71 62.5 132.5t74 125.5t84.5 109.5t93 74.5t101 29zM459 70q88 0 181.5 127.5t151.5 298.5t58 303q0 166 -80 166q-59 0 -139.5 -98t-149.5 -235.5t-110 -269.5l-31 -98q-2 -86 29.5 -140t89.5 -54z" />
    <glyph glyph-name="q" unicode="q" horiz-adv-x="1028" 
d="M1090 1114l-500 -1366q-36 -94 -21.5 -121.5t111.5 -27.5l-16 -50h-537l20 48q109 0 162 29t86 116l285 774h-14q-29 -63 -55.5 -116t-63.5 -120t-75.5 -118t-81 -96.5t-90 -70t-93.5 -24.5q-94 0 -143.5 74.5t-49.5 202.5q0 106 36 228.5t99 233.5t140 203t167 146.5
t173 54.5q98 0 145 -62.5t41 -166.5l59 162q112 0 183 83zM289 119q58 0 141.5 91t155.5 218.5t112 243.5q41 118 41 196q0 142 -90 142q-89 0 -192 -123.5t-171.5 -299.5t-68.5 -319q0 -149 72 -149z" />
    <glyph glyph-name="r" unicode="r" horiz-adv-x="858" 
d="M254 0h-203l260 784q49 145 49 183q0 34 -26 34q-43 0 -105 -66.5t-125 -170.5h-49q76 147 183.5 246.5t214.5 99.5q53 0 80.5 -32.5t27.5 -80.5q0 -25 -11 -64t-20 -62t-34 -87l-121 -327h18q253 659 522 659q76 0 76 -69q0 -48 -33.5 -88.5t-74.5 -40.5q-20 0 -51.5 11
t-53.5 11q-39 0 -87 -43t-113 -142t-149 -292.5t-175 -462.5z" />
    <glyph glyph-name="s" unicode="s" horiz-adv-x="753" 
d="M272 -29q-121 0 -210 63t-89 148q0 41 25.5 66.5t62.5 25.5q29 0 44.5 -18.5t31.5 -65.5q29 -75 68 -110t100 -35q68 0 104.5 45.5t36.5 120.5q0 53 -21.5 99t-66.5 110l-55 86q-66 98 -93.5 158.5t-27.5 130.5q0 142 106 233.5t257 91.5q113 0 178 -52t65 -112
q0 -40 -26.5 -66t-61.5 -26q-30 0 -45.5 20t-27.5 62q-17 49 -46.5 76t-84.5 27q-63 0 -103.5 -41.5t-40.5 -114.5q0 -89 92 -223l52 -84q48 -74 68 -109t36 -82t16 -94q0 -140 -98.5 -235t-245.5 -95z" />
    <glyph glyph-name="t" unicode="t" horiz-adv-x="675" 
d="M537 1020l-246 -705q-3 -9 -10.5 -34t-11 -36.5t-8.5 -30t-7 -32t-2 -24.5q0 -27 9 -40.5t34 -13.5q66 0 143 86t142 218h49q-78 -184 -195 -305t-246 -121q-141 0 -141 135q0 68 47 200l246 703h-154l23 55q136 7 220.5 73t156.5 200h67l-96 -263h201l-21 -65h-200z" />
    <glyph glyph-name="u" unicode="u" horiz-adv-x="1148" 
d="M203 -29q-70 0 -109 40.5t-39 105.5q0 37 12.5 90.5t27.5 99.5t47 121.5t50 117t58.5 128.5t52.5 114q57 155 57 181q0 35 -26 35q-43 0 -105 -67t-125 -171h-49q76 146 184 246t214 100q53 0 80.5 -33t27.5 -82q0 -35 -16.5 -82.5t-52.5 -132.5q-25 -60 -64 -153
t-62.5 -150t-49 -121.5t-38 -108t-14.5 -69.5q-3 -65 41 -65q61 0 151 97.5t201 309.5q206 383 213 563h238l-281 -811q-3 -9 -10.5 -29.5t-12 -34t-10 -31t-8 -30.5t-2.5 -22q0 -45 37 -45q54 0 117.5 78.5t118.5 199.5h49q-31 -74 -68.5 -139.5t-84.5 -124t-105 -93
t-117 -34.5q-145 0 -145 133q0 13 2.5 26.5t8.5 32.5t11 32t16 41.5t17 44.5l129 344h-18q-170 -340 -298.5 -496t-250.5 -156z" />
    <glyph glyph-name="v" unicode="v" horiz-adv-x="927" 
d="M827 1114q45 0 73 -37.5t28 -103.5q0 -88 -26.5 -198t-72 -220t-109 -216t-133.5 -187.5t-150 -131t-154 -49.5q-101 0 -158 69.5t-57 195.5q0 282 393 710h-2q-24 0 -109.5 21.5t-111.5 21.5q-43 0 -43 -39q0 -22 25.5 -54t25.5 -58q0 -25 -16.5 -42.5t-41.5 -17.5
q-23 0 -39 17.5t-16 52.5q0 53 41 137q30 59 65.5 89t86.5 30q28 0 113 -12.5t110 -12.5q30 0 59 21l10 10l35 -35q-160 -180 -272.5 -392t-112.5 -374q0 -84 29.5 -134t93.5 -50q67 0 144 71t137 173t99.5 220t39.5 208q0 55 -28.5 132.5t-28.5 104.5q0 34 18.5 57t54.5 23
z" />
    <glyph glyph-name="w" unicode="w" horiz-adv-x="1372" 
d="M1262 1116q44 0 71 -41t27 -127q0 -127 -50.5 -296t-129 -320t-185.5 -256t-209 -105q-80 0 -128 51.5t-48 141.5q0 52 29 162h-12q-77 -168 -170.5 -261.5t-194.5 -93.5q-88 0 -143.5 67t-55.5 185q0 293 394 723h-2q-25 0 -109 21.5t-108 21.5q-43 0 -43 -39
q0 -22 24.5 -54t24.5 -58q0 -25 -16.5 -42.5t-41.5 -17.5q-23 0 -39 17t-16 49q0 57 41 141q58 119 154 119q26 0 109.5 -12.5t107.5 -12.5q33 0 57 17q4 6 12 14l35 -35q-156 -182 -269.5 -396t-113.5 -390q0 -83 22.5 -122.5t69.5 -39.5q91 0 191 153.5t165 357.5t72 363
h213q-19 -102 -56 -213t-68.5 -186.5t-55.5 -162.5t-24 -158q0 -154 90 -154q79 0 165 108t140.5 259t54.5 276q0 75 -27.5 157.5t-27.5 108.5q0 34 19.5 57t54.5 23z" />
    <glyph glyph-name="x" unicode="x" horiz-adv-x="1083" 
d="M1090 1112q86 0 86 -65q0 -47 -36 -90.5t-79 -43.5q-19 0 -60 10.5t-63 10.5q-54 0 -126.5 -75.5t-178.5 -248.5l16 -299q4 -86 15.5 -134.5t25.5 -62.5t35 -14q68 0 186 226h47q-67 -157 -151 -250.5t-184 -93.5q-85 0 -125 79t-49 256l-7 97l-43 -70
q-227 -362 -401 -362q-86 0 -86 57q0 51 39.5 95t81.5 44q18 0 57.5 -9t65.5 -9q91 0 282 323l-16 289q-4 94 -11.5 141.5t-18 62.5t-30.5 15q-58 0 -174 -225h-49q82 176 159 260t171 84q52 0 81.5 -23.5t47 -88t23.5 -183.5l8 -137q92 148 161.5 237t146 143t153.5 54z
" />
    <glyph glyph-name="y" unicode="y" horiz-adv-x="940" 
d="M-111 -463q-57 0 -86.5 23t-29.5 61q0 50 38.5 86.5t90.5 36.5q34 0 63.5 -17.5t57 -35t55.5 -17.5q96 0 233 244q32 390 19 901q-1 100 -13.5 136t-40.5 36q-58 0 -161 -258h-47q25 67 47.5 118t51.5 102t58.5 83.5t66 53t75.5 20.5q80 0 114 -64t37 -219
q5 -378 -31 -731q156 200 241 384.5t85 318.5q0 61 -28.5 135t-28.5 100q0 32 21.5 56t56.5 24q45 0 71.5 -47t26.5 -139q0 -328 -402 -871q-67 -95 -121.5 -164t-121.5 -140t-127.5 -115.5t-130.5 -72.5t-140 -28z" />
    <glyph glyph-name="z" unicode="z" horiz-adv-x="854" 
d="M918 1047q0 -53 -53 -125.5t-143.5 -155t-186 -162t-206.5 -174.5t-179 -166q25 10 61 10q48 0 94 -18.5t81.5 -45t68.5 -53t67 -45t64 -18.5q50 0 75 45.5t25 116.5q0 72 -22 143l49 15q26 -83 26 -160q0 -158 -57 -253t-150 -95q-47 0 -91.5 27.5t-81 66.5l-73 78
t-81.5 66.5t-92 27.5q-35 0 -57.5 -16.5t-22.5 -46.5q0 -13 10 -37t10 -37q0 -23 -17 -38t-40 -15q-25 0 -40 19t-15 50q0 60 50.5 137.5t140 163t180.5 163t205 173.5t179 158q-44 -21 -82 -21q-45 0 -96 26.5t-99 52.5t-85 26q-47 0 -82 -44t-55 -118l-45 4
q86 336 237 336q43 0 90 -25.5t81.5 -55.5t85.5 -55.5t102 -25.5q42 0 64 16t22 42q0 13 -12.5 31.5t-12.5 29.5q0 18 13.5 29.5t37.5 11.5q27 0 42.5 -16.5t15.5 -42.5z" />
    <glyph glyph-name="braceleft" unicode="{" horiz-adv-x="823" 
d="M434 -457l-14 -49q-77 7 -137 25t-108.5 50t-74.5 84.5t-26 123.5q0 89 39 194t85 185t85 173t39 160q0 101 -57.5 142t-164.5 41l15 49q78 0 135.5 11.5t96 39t62 53t39 77.5t22 87t15.5 105q19 169 58 295q56 172 189 268t358 119l-15 -47q-63 -12 -114 -34
t-86.5 -47.5t-62 -62t-42.5 -69.5t-27.5 -79t-17 -81.5t-10.5 -85.5q-7 -113 -21.5 -194t-44.5 -154t-77 -118.5t-120 -74.5t-173 -35l-3 -8q97 -11 168.5 -72t71.5 -176q0 -65 -27 -140t-66 -144l-78 -138t-66 -144t-27 -140q0 -158 182 -189z" />
    <glyph glyph-name="bar" unicode="|" horiz-adv-x="563" 
d="M-59 -328l612 2007h152l-613 -2007h-151z" />
    <glyph glyph-name="braceright" unicode="}" horiz-adv-x="821" 
d="M436 1726l15 50q344 -32 344 -283q0 -73 -25.5 -154.5t-62 -153.5t-73 -141t-62 -138.5t-25.5 -125.5q0 -101 58 -141.5t165 -40.5l-16 -49q-52 0 -95 -6.5t-76 -15.5t-59.5 -27t-45 -34.5t-33 -45t-23 -50t-16.5 -59t-11.5 -63.5t-9.5 -70q-24 -185 -59 -297
q-56 -173 -188.5 -268.5t-356.5 -118.5l14 47q73 14 129.5 39.5t93.5 62.5t61.5 74t40 90t22.5 93t14 100q6 113 20 194t44 154t77 118.5t120 74t173 34.5l2 9q-97 11 -167.5 71.5t-70.5 175.5q0 65 27 140t65.5 144t77 138.5t65.5 144.5t27 140q0 157 -180 188z" />
    <glyph glyph-name="asciitilde" unicode="~" horiz-adv-x="1265" 
d="M1190 795l49 -7q-53 -148 -144 -231.5t-202 -83.5q-71 0 -140 26.5t-115.5 57.5t-112 57.5t-130.5 26.5q-184 0 -264 -168l-49 4q53 149 144 233.5t204 84.5q58 0 112.5 -17.5t97.5 -42.5t85.5 -50t93.5 -42.5t105 -17.5q182 0 266 170z" />
    <glyph glyph-name="exclamdown" unicode="&#xa1;" horiz-adv-x="444" 
d="M383 1114q43 0 69.5 -25t26.5 -65q0 -57 -43 -103.5t-102 -46.5q-44 0 -70 25.5t-26 65.5q0 57 43 103t102 46zM16 -449q-24 -73 -57.5 -107t-83.5 -34q-82 0 -82 82q0 34 12 74q15 49 76.5 187.5t157.5 384t190 548.5h50q-90 -300 -145 -550t-78.5 -392.5t-39.5 -192.5z
" />
    <glyph glyph-name="cent" unicode="&#xa2;" horiz-adv-x="829" 
d="M657 694q-41 0 -61 33l-326 -553q33 -70 103 -70q82 0 164.5 83.5t154.5 226.5h45q-86 -211 -201.5 -327t-246.5 -116q-67 0 -121 31l-268 -453h-68l289 490q-88 91 -88 266q0 135 49.5 281t129 263t188 193t216.5 76q72 0 121 -37l330 557h70l-359 -604q29 -47 29 -106
q0 -88 -45 -161t-105 -73zM240 342q0 -48 6 -92l442 747q-16 41 -74 41q-94 0 -182.5 -115t-140 -276t-51.5 -305z" />
    <glyph glyph-name="sterling" unicode="&#xa3;" horiz-adv-x="1239" 
d="M1071 1679q127 0 188.5 -69.5t61.5 -175.5q0 -76 -37.5 -131.5t-97.5 -55.5q-38 0 -61 20.5t-23 53.5q0 37 31.5 92.5t31.5 87.5q0 96 -102 96q-107 0 -186 -117t-121 -331q-48 -247 -64 -313h303l-24 -68h-295q-2 -12 -10 -41q-82 -313 -187 -494q77 -35 143.5 -54
t145.5 -19q236 0 344 323h55q-24 -81 -50.5 -148t-67.5 -139.5t-88 -121.5t-112.5 -81t-141.5 -32q-49 0 -93 11.5t-86.5 38t-67.5 45.5t-69 55q-130 -150 -295 -150q-159 0 -159 131q0 90 79 154.5t195 64.5q58 0 123 -20q54 151 119 469l2 8h-213l24 68h203
q21 96 42.5 176.5t52.5 169.5t65 158.5t80 135t98.5 108.5t120 69t143.5 26zM104 49q109 0 185 137q-58 39 -119 39q-62 0 -99.5 -33t-37.5 -81q0 -62 71 -62z" />
    <glyph glyph-name="currency" unicode="&#xa4;" horiz-adv-x="1343" 
d="M1202 881q0 -110 -51 -221t-141 -199l137 -199l-111 -84l-135 195q-142 -92 -299 -92q-158 0 -252 94l-256 -199l-71 98l258 199q-27 69 -27 137q0 110 51 222t141 200l-135 195l111 84l133 -193q142 92 297 92q163 0 258 -98l258 199l72 -99l-262 -202q24 -58 24 -129z
M391 635q0 -99 62 -161t172 -62q117 0 220 66t161.5 168.5t58.5 209.5q0 99 -63 161t-171 62q-89 0 -171.5 -39.5t-140.5 -102t-93 -142.5t-35 -160z" />
    <glyph glyph-name="yen" unicode="&#xa5;" horiz-adv-x="1320" 
d="M1663 1638l-12 -49q-81 0 -136 -23t-110 -96l-485 -641h432l-21 -69h-465l-24 -33l-45 -145h477l-21 -70h-477l-96 -309q-34 -91 -6 -122.5t168 -31.5l-17 -49h-628l14 49q116 0 166 31.5t78 122.5l96 309h-463l21 70h462l43 139l-8 39h-442l20 69h410l-111 603
q-18 95 -53.5 126t-118.5 31l15 49h573l-16 -49q-88 0 -126.5 -14t-47.5 -49t4 -96l102 -590h10l471 628q50 66 54 83q5 23 -30 31q-32 7 -122 7l16 49h449z" />
    <glyph glyph-name="brokenbar" unicode="&#xa6;" horiz-adv-x="563" 
d="M303 860l250 819h152l-250 -819h-152zM-59 -328l249 820h152l-250 -820h-151z" />
    <glyph glyph-name="section" unicode="&#xa7;" horiz-adv-x="911" 
d="M809 1677q117 0 184.5 -59t67.5 -141q0 -54 -29.5 -92.5t-79.5 -38.5q-36 0 -58 18.5t-22 50.5q0 14 11.5 47.5t11.5 55.5q0 88 -113 88q-111 0 -180.5 -84.5t-69.5 -188.5q0 -50 24 -101t60.5 -92.5t78.5 -89.5t78.5 -91t60.5 -98t24 -109q0 -216 -299 -418
q49 -79 49 -164q0 -106 -51 -201t-144 -154t-204 -59q-117 0 -185.5 59t-68.5 140q0 54 30 93.5t81 39.5q35 0 57 -19.5t22 -50.5q0 -15 -11 -48.5t-11 -55.5q0 -88 110 -88q111 0 181.5 84t70.5 188q0 58 -33.5 118.5t-81.5 113t-95.5 106t-81 117t-33.5 127.5
q0 222 299 418q-49 83 -49 166q0 105 51 199.5t144 154t204 59.5zM526 381q201 144 201 297q0 54 -25.5 108.5t-56.5 90t-81 89.5t-75 87q-198 -146 -198 -299q0 -55 25.5 -109t55 -89t79.5 -89t75 -86z" />
    <glyph glyph-name="dieresis" unicode="&#xa8;" horiz-adv-x="833" 
d="M510 1313q-52 0 -87.5 35.5t-35.5 87.5q0 54 35 88.5t88 34.5q54 0 88.5 -34.5t34.5 -88.5q0 -53 -34.5 -88t-88.5 -35zM885 1313q-53 0 -88 35.5t-35 87.5q0 54 35 88.5t88 34.5t87 -34.5t34 -88.5q0 -53 -34.5 -88t-86.5 -35z" />
    <glyph glyph-name="copyright" unicode="&#xa9;" horiz-adv-x="1828" 
d="M1888 1077q0 -137 -41.5 -275.5t-115 -261.5t-179.5 -230t-230 -184.5t-272 -122t-300 -44.5q-297 0 -466 170t-169 449q0 136 41 274t113.5 260.5t178.5 230t230 185t273 122t304 44.5q298 0 465.5 -169.5t167.5 -447.5zM1819 1063q0 254 -153 407.5t-429 153.5
q-215 0 -412 -89.5t-335.5 -233.5t-221 -331t-82.5 -378q0 -259 153 -411t427 -152q142 0 279.5 41t252.5 112t212.5 170t165 212.5t105.5 242t38 256.5zM453 668q0 126 57.5 251.5t150.5 220t219.5 153.5t256.5 59q75 0 137 -18.5t93 -41t57 -41t38 -18.5q14 0 23 14.5
t22 59.5h49l-88 -379h-49q25 145 -50 240.5t-226 95.5q-103 0 -201 -53t-168 -137t-113 -193t-43 -217q0 -142 72 -218.5t203 -76.5q154 0 299 94t235 262h50q-100 -207 -269 -324.5t-368 -117.5q-184 0 -285.5 103t-101.5 282z" />
    <glyph glyph-name="guillemotleft" unicode="&#xab;" horiz-adv-x="909" 
d="M647 1094l-364 -494l96 -500h-43l-232 500l490 494h53zM983 1094l-362 -494l94 -500h-43l-232 500l492 494h51z" />
    <glyph glyph-name="logicalnot" unicode="&#xac;" horiz-adv-x="1120" 
d="M66 762l49 151h1015l-184 -600h-151l137 449h-866z" />
    <glyph glyph-name="registered" unicode="&#xae;" horiz-adv-x="1828" 
d="M1255 1694q298 0 465.5 -169.5t167.5 -447.5q0 -137 -41.5 -275.5t-115 -261.5t-179.5 -230t-230 -184.5t-272 -122t-300 -44.5q-297 0 -466 170t-169 449q0 136 41 274t113.5 260.5t178.5 230t230 185t273 122t304 44.5zM766 29q142 0 279.5 41t252.5 112t212.5 170
t165 212.5t105.5 242t38 256.5q0 254 -153 407.5t-429 153.5q-215 0 -412 -89.5t-335.5 -233.5t-221 -331t-82.5 -378q0 -259 153 -411t427 -152zM1016 827h-17l-2 -6q52 -9 85.5 -51t58.5 -129l49 -168q23 -77 60 -106t114 -29l-8 -41h-113q-52 0 -80.5 4t-55.5 20.5
t-43.5 49t-31.5 88.5l-55 215q-22 81 -47 116.5t-70 47.5l-108 -353q-30 -83 -16.5 -113t100.5 -30l-11 -45h-391l8 45q67 0 101.5 30t60.5 113l209 680q30 85 15 114.5t-107 29.5l10 47h397q136 0 212.5 -57.5t76.5 -170.5q0 -130 -114 -215.5t-287 -85.5zM983 1239
l-106 -344q50 -12 94 -12q132 0 217.5 74.5t85.5 185.5q0 77 -44 114t-122 37q-107 0 -125 -55z" />
    <glyph glyph-name="macron" unicode="&#xaf;" horiz-adv-x="794" 
d="M350 1384l29 97h573l-26 -97h-576z" />
    <glyph glyph-name="degree" unicode="&#xb0;" horiz-adv-x="681" 
d="M463 1051q-115 0 -182.5 63t-67.5 174q0 103 58.5 197.5t156.5 152.5t207 58q112 0 179 -64.5t67 -171.5q0 -103 -58 -197.5t-155 -153t-205 -58.5zM492 1163q99 0 179.5 84t80.5 187q0 72 -39 110.5t-111 38.5q-99 0 -178.5 -83.5t-79.5 -186.5q0 -72 38.5 -111
t109.5 -39z" />
    <glyph glyph-name="plusminus" unicode="&#xb1;" horiz-adv-x="1040" 
d="M487 692h-337l43 146h339l107 348h158l-107 -348h334l-43 -146h-338l-104 -346h-158zM856 180h-846l53 150h848z" />
    <glyph glyph-name="acute" unicode="&#xb4;" horiz-adv-x="499" 
d="M391 1276h-65l233 375h195z" />
    <glyph glyph-name="paragraph" unicode="&#xb6;" horiz-adv-x="1286" 
d="M1499 1638l-14 -49q-117 0 -166.5 -31t-77.5 -122l-575 -1887h-97l613 2005h-234l-610 -2005h-96l405 1307q-170 0 -267 67.5t-97 198.5q0 149 79.5 268t214 183.5t295.5 64.5h627z" />
    <glyph glyph-name="periodcentered" unicode="&#xb7;" horiz-adv-x="407" 
d="M260 707q-43 0 -69.5 25t-26.5 65q0 57 43 103t102 46q44 0 70.5 -25t26.5 -65q0 -57 -43.5 -103t-102.5 -46z" />
    <glyph glyph-name="cedilla" unicode="&#xb8;" horiz-adv-x="667" 
d="M-12 -162l88 182h78l-60 -126q77 -2 126.5 -38.5t49.5 -107.5q0 -95 -99.5 -164t-270.5 -69q-66 0 -131 12l22 47q13 0 39 -1t37 -1q127 0 190.5 52t63.5 120q0 94 -133 94z" />
    <glyph glyph-name="guillemotright" unicode="&#xbb;" horiz-adv-x="909" 
d="M-41 102l363 494l-95 500h43l232 -500l-492 -494h-51zM295 102l364 494l-96 500h43l232 -500l-490 -494h-53z" />
    <glyph glyph-name="onequarter" unicode="&#xbc;" horiz-adv-x="1607" 
d="M770 1649l-260 -856q-18 -58 1 -75.5t107 -17.5l-14 -28h-420l15 28q72 0 105.5 18.5t51.5 74.5l207 684q19 59 10 68q-12 11 -95 -23q-10 -4 -23 -9l4 37l291 121zM227 0l1194 1638h95l-1192 -1638h-97zM1155 262h-375l33 113l594 622h109l-191 -622h115l-35 -113h-113
l-45 -141q-19 -57 -3 -74.5t91 -17.5l-12 -29h-369l13 29q67 0 97.5 18.5t47.5 73.5zM883 379l-2 -4h309l151 489z" />
    <glyph glyph-name="onehalf" unicode="&#xbd;" horiz-adv-x="1783" 
d="M770 1649l-260 -856q-18 -58 1 -75.5t107 -17.5l-14 -28h-420l15 28q72 0 105.5 18.5t51.5 74.5l207 684q19 59 10 68q-12 11 -95 -23q-10 -4 -23 -9l4 37l291 121zM262 0l1192 1638h94l-1190 -1638h-96zM1403 0h-526l10 29q86 70 138 113t126 108.5t119 111t96.5 105
t79 107t46.5 100.5t19 102q0 48 -29 75.5t-85 27.5q-84 0 -152.5 -68.5t-107.5 -185.5h-37q51 167 163 270.5t246 103.5q85 0 128.5 -41t43.5 -112q0 -274 -610 -717v-8h287q53 0 88 31.5t84 107.5h33z" />
    <glyph glyph-name="threequarters" unicode="&#xbe;" horiz-adv-x="1748" 
d="M416 653q-76 0 -134.5 25t-58.5 63q0 30 21 51t53 21q24 0 41 -16t26.5 -35t31 -35t53.5 -16q93 0 166 84t73 204q0 88 -49.5 133.5t-140.5 45.5l6 30q139 42 215 113t76 162q0 98 -109 98q-149 0 -203 -170h-37q40 130 125 196t197 66q84 0 130 -40.5t46 -116.5
q0 -101 -85 -183.5t-216 -120.5v-8q86 -2 145.5 -57.5t59.5 -149.5q0 -136 -127 -240t-305 -104zM358 0l1192 1638h95l-1190 -1638h-97zM1294 262h-372l32 113l592 622h111l-191 -622h113l-35 -113h-112l-43 -141q-20 -57 -4 -74.5t90 -17.5l-13 -29h-368l12 29
q67 0 98 18.5t49 73.5zM1024 379l-4 -4h309l154 489z" />
    <glyph glyph-name="questiondown" unicode="&#xbf;" horiz-adv-x="784" 
d="M532 1114q44 0 71.5 -25t27.5 -65q0 -57 -44 -103.5t-102 -46.5q-44 0 -70 25.5t-26 65.5q0 57 43 103t100 46zM385 -197h45l-51 -335q-41 -24 -111 -41t-141 -17q-139 0 -216 68.5t-77 193.5q0 56 17 106.5t42.5 90.5t76 88.5t94.5 84t120 93.5q168 127 214 172
q75 73 75 131q0 67 -90 125l27 39q176 -92 176 -219q0 -55 -20.5 -103.5t-66 -97t-93 -87.5t-127.5 -97q-159 -119 -223 -195t-64 -161q0 -64 35.5 -102t105.5 -38q88 0 149 67.5t103 233.5z" />
    <glyph glyph-name="Agrave" unicode="&#xc0;" horiz-adv-x="1349" 
d="M958 2154l172 -374h-65l-299 374h192zM1149 1671l-64 -1460q-3 -100 29.5 -131t142.5 -31l-18 -49h-614l16 49q87 0 131 15.5t61 48t21 98.5l16 295h-548l-216 -330q-45 -68 -46 -88t30 -29q34 -10 139 -10l-16 -49h-465l14 49q79 0 131.5 25t104.5 102l989 1495h162z
M905 1399l-532 -815h504l47 815h-19z" />
    <glyph glyph-name="Aacute" unicode="&#xc1;" horiz-adv-x="1349" 
d="M1305 2154h194l-362 -374h-66zM1149 1671l-64 -1460q-3 -100 29.5 -131t142.5 -31l-18 -49h-614l16 49q87 0 131 15.5t61 48t21 98.5l16 295h-548l-216 -330q-45 -68 -46 -88t30 -29q34 -10 139 -10l-16 -49h-465l14 49q79 0 131.5 25t104.5 102l989 1495h162zM905 1399
l-532 -815h504l47 815h-19z" />
    <glyph glyph-name="Acircumflex" unicode="&#xc2;" horiz-adv-x="1349" 
d="M1296 2154l54 -374h-60l-119 266l-301 -266h-65l303 374h188zM1149 1671l-64 -1460q-3 -100 29.5 -131t142.5 -31l-18 -49h-614l16 49q87 0 131 15.5t61 48t21 98.5l16 295h-548l-216 -330q-45 -68 -46 -88t30 -29q34 -10 139 -10l-16 -49h-465l14 49q79 0 131.5 25
t104.5 102l989 1495h162zM905 1399l-532 -815h504l47 815h-19z" />
    <glyph glyph-name="Atilde" unicode="&#xc3;" horiz-adv-x="1349" 
d="M1448 2103l49 -6q-100 -276 -244 -276q-37 0 -68.5 14.5t-53 35t-41.5 40.5t-45.5 34.5t-53.5 14.5q-57 0 -95 -38t-69 -110l-49 7q101 278 244 278q37 0 68.5 -14.5t53 -35t41.5 -41.5t45.5 -35.5t53.5 -14.5q57 0 95 37.5t69 109.5zM1149 1671l-64 -1460
q-3 -100 29.5 -131t142.5 -31l-18 -49h-614l16 49q87 0 131 15.5t61 48t21 98.5l16 295h-548l-216 -330q-45 -68 -46 -88t30 -29q34 -10 139 -10l-16 -49h-465l14 49q79 0 131.5 25t104.5 102l989 1495h162zM905 1399l-532 -815h504l47 815h-19z" />
    <glyph glyph-name="Adieresis" unicode="&#xc4;" horiz-adv-x="1349" 
d="M952 1825q-52 0 -87.5 35.5t-35.5 87.5t35 86t88 34q54 0 88.5 -33.5t34.5 -86.5t-34.5 -88t-88.5 -35zM1327 2068q53 0 87 -34t34 -86q0 -53 -34.5 -88t-86.5 -35q-53 0 -88 35.5t-35 87.5t35 86t88 34zM1149 1671l-64 -1460q-3 -100 29.5 -131t142.5 -31l-18 -49h-614
l16 49q87 0 131 15.5t61 48t21 98.5l16 295h-548l-216 -330q-45 -68 -46 -88t30 -29q34 -10 139 -10l-16 -49h-465l14 49q79 0 131.5 25t104.5 102l989 1495h162zM905 1399l-532 -815h504l47 815h-19z" />
    <glyph glyph-name="Aring" unicode="&#xc5;" horiz-adv-x="1349" 
d="M1200 2200q72 0 115 -42.5t43 -109.5q0 -95 -77.5 -174.5t-180.5 -79.5q-73 0 -115.5 44t-42.5 112q0 95 77.5 172.5t180.5 77.5zM1110 1864q73 0 121.5 60t48.5 122q0 40 -23 63t-67 23q-73 0 -121.5 -57t-48.5 -121q0 -40 23 -65t67 -25zM1149 1671l-64 -1460
q-3 -100 29.5 -131t142.5 -31l-18 -49h-614l16 49q87 0 131 15.5t61 48t21 98.5l16 295h-548l-216 -330q-45 -68 -46 -88t30 -29q34 -10 139 -10l-16 -49h-465l14 49q79 0 131.5 25t104.5 102l989 1495h162zM905 1399l-532 -815h504l47 815h-19z" />
    <glyph glyph-name="AE" unicode="&#xc6;" horiz-adv-x="1851" 
d="M1993 1638l-113 -383h-59q41 158 18 224.5t-129 66.5h-260q-89 0 -115 -86l-172 -561h256q82 0 126.5 37.5t76.5 134.5h49l-135 -461h-49q31 116 11.5 165.5t-99.5 49.5h-258l-185 -602q-23 -85 -11.5 -108t71.5 -23h287q120 0 205.5 65.5t185.5 245.5l61 -18l-203 -385
h-1085l14 49q115 0 164.5 31.5t77.5 122.5l100 329h-442l-260 -360q-3 -4 -8 -11q-13 -17 -18.5 -25.5t-14 -21.5t-10 -18t-3.5 -14t2 -12t10 -8t17.5 -6.5t27 -3.5t36 -2.5t47.5 -0.5l-14 -49h-445l14 49q90 0 147 23.5t111 99.5l938 1294q47 67 51 84q6 25 -33 33
q-31 6 -114 6l17 49h1114zM434 606h412l293 955h-19z" />
    <glyph glyph-name="Ccedilla" unicode="&#xc7;" horiz-adv-x="1280" 
d="M1434 1645l-164 -572h-49q17 109 14.5 201.5t-23 159.5t-71.5 105t-131 38q-93 0 -181.5 -50t-159 -134t-130 -192.5t-98.5 -226t-61 -234.5t-22 -218q0 -200 79.5 -308t221.5 -108q87 0 168 40t149.5 112.5t124.5 160.5t105 197h60q-51 -119 -99.5 -209t-112.5 -176
t-133 -141.5t-158.5 -89t-191.5 -33.5h-8l-31 -65q77 -2 127 -38.5t50 -107.5q0 -96 -99 -164.5t-270 -68.5q-68 0 -133 12l22 47q25 -2 76 -2q127 0 190.5 52t63.5 120q0 92 -133 92l61 129q-125 19 -210.5 95t-125.5 189t-40 257q0 125 30.5 260t85.5 262.5t136 243
t176.5 201.5t212.5 137t239 51q101 0 170.5 -33t122.5 -100q19 -27 31.5 -25.5t25.5 31.5l45 109z" />
    <glyph glyph-name="Egrave" unicode="&#xc8;" horiz-adv-x="1275" 
d="M852 2154l172 -374h-66l-299 374h193zM1417 1638l-112 -383h-60q41 158 18.5 224.5t-128.5 66.5h-261q-90 0 -116 -86l-172 -561h258q82 0 126.5 37.5t76.5 134.5h49l-135 -461h-52q32 116 13 165.5t-101 49.5h-256l-184 -602q-25 -85 -13.5 -108t72.5 -23h285
q122 0 207 65.5t184 245.5l62 -18l-201 -385h-1088l15 49q117 0 166 31.5t77 122.5l377 1233q34 91 9 122t-156 31l14 49h1026z" />
    <glyph glyph-name="Eacute" unicode="&#xc9;" horiz-adv-x="1275" 
d="M1032 1780h-65l233 374h195zM1417 1638l-112 -383h-60q41 158 18.5 224.5t-128.5 66.5h-261q-90 0 -116 -86l-172 -561h258q82 0 126.5 37.5t76.5 134.5h49l-135 -461h-52q32 116 13 165.5t-101 49.5h-256l-184 -602q-25 -85 -13.5 -108t72.5 -23h285q122 0 207 65.5
t184 245.5l62 -18l-201 -385h-1088l15 49q117 0 166 31.5t77 122.5l377 1233q34 91 9 122t-156 31l14 49h1026z" />
    <glyph glyph-name="Ecircumflex" unicode="&#xca;" horiz-adv-x="1275" 
d="M1186 1780l-119 266l-301 -266h-66l304 374h188l53 -374h-59zM391 1638h1026l-112 -383h-60q41 158 18.5 224.5t-128.5 66.5h-261q-90 0 -116 -86l-172 -561h258q82 0 126.5 37.5t76.5 134.5h49l-135 -461h-52q32 116 13 165.5t-101 49.5h-256l-184 -602
q-25 -85 -13.5 -108t72.5 -23h285q122 0 207 65.5t184 245.5l62 -18l-201 -385h-1088l15 49q117 0 166 31.5t77 122.5l377 1233q34 91 9 122t-156 31z" />
    <glyph glyph-name="Edieresis" unicode="&#xcb;" horiz-adv-x="1275" 
d="M848 1825q-52 0 -87.5 35.5t-35.5 87.5t35 86t88 34q54 0 88.5 -33.5t34.5 -86.5t-34.5 -88t-88.5 -35zM1223 1825q-53 0 -88 35.5t-35 87.5t35 86t88 34t86.5 -34t33.5 -86q0 -53 -34 -88t-86 -35zM1417 1638l-112 -383h-60q41 158 18.5 224.5t-128.5 66.5h-261
q-90 0 -116 -86l-172 -561h258q82 0 126.5 37.5t76.5 134.5h49l-135 -461h-52q32 116 13 165.5t-101 49.5h-256l-184 -602q-25 -85 -13.5 -108t72.5 -23h285q122 0 207 65.5t184 245.5l62 -18l-201 -385h-1088l15 49q117 0 166 31.5t77 122.5l377 1233q34 91 9 122t-156 31
l14 49h1026z" />
    <glyph glyph-name="Igrave" unicode="&#xcc;" horiz-adv-x="729" 
d="M596 2154l172 -374h-66l-299 374h193zM147 203l377 1233q34 91 9 122t-156 31l14 49h613l-15 -49q-113 0 -161 -31t-76 -122l-377 -1233q-34 -91 -8.5 -122.5t155.5 -31.5l-14 -49h-619l15 49q117 0 166 31.5t77 122.5z" />
    <glyph glyph-name="Iacute" unicode="&#xcd;" horiz-adv-x="729" 
d="M776 1780h-65l233 374h195zM147 203l377 1233q34 91 9 122t-156 31l14 49h613l-15 -49q-113 0 -161 -31t-76 -122l-377 -1233q-34 -91 -8.5 -122.5t155.5 -31.5l-14 -49h-619l15 49q117 0 166 31.5t77 122.5z" />
    <glyph glyph-name="Icircumflex" unicode="&#xce;" horiz-adv-x="729" 
d="M928 1780l-119 266l-301 -266h-66l303 374h189l53 -374h-59zM1004 1638l-15 -49q-113 0 -161 -31t-76 -122l-377 -1233q-34 -91 -8.5 -122.5t155.5 -31.5l-14 -49h-619l15 49q117 0 166 31.5t77 122.5l377 1233q34 91 9 122t-156 31l14 49h613z" />
    <glyph glyph-name="Idieresis" unicode="&#xcf;" horiz-adv-x="729" 
d="M590 1825q-52 0 -87.5 35.5t-35.5 87.5t35 86t88 34q54 0 88.5 -33.5t34.5 -86.5t-34.5 -88t-88.5 -35zM965 1825q-53 0 -88 35.5t-35 87.5t35 86t88 34t86.5 -34t33.5 -86q0 -53 -34 -88t-86 -35zM147 203l377 1233q34 91 9 122t-156 31l14 49h613l-15 -49
q-113 0 -161 -31t-76 -122l-377 -1233q-34 -91 -8.5 -122.5t155.5 -31.5l-14 -49h-619l15 49q117 0 166 31.5t77 122.5z" />
    <glyph glyph-name="Eth" unicode="&#xd0;" horiz-adv-x="1527" 
d="M936 1638q280 0 455.5 -160t175.5 -438q0 -141 -37.5 -275t-105.5 -248.5t-165.5 -210.5t-215 -163.5t-258 -105t-289.5 -37.5h-607l15 49q117 0 166 31.5t77 122.5l191 624h-193l21 68h192l166 541q34 91 9 122t-156 31l14 49h545zM502 84q136 0 265 57.5t230 157
t177.5 226.5t117.5 273t41 289q0 222 -106.5 345.5t-282.5 123.5q-160 0 -178 -63l-184 -598h340l-21 -68h-340l-209 -673q-11 -34 25 -52t125 -18z" />
    <glyph glyph-name="Ntilde" unicode="&#xd1;" horiz-adv-x="1513" 
d="M1004 1960q-57 0 -95 -38t-69 -110l-49 7q101 278 243 278q37 0 68.5 -14.5t53 -35t41.5 -41.5t45.5 -35.5t53.5 -14.5q57 0 95 37.5t69 109.5l49 -6q-100 -276 -243 -276q-37 0 -68.5 14.5t-53 35t-41.5 40.5t-45.5 34.5t-53.5 14.5zM1808 1638l-14 -49
q-117 0 -166.5 -31t-77.5 -122l-444 -1456h-129l-395 1361l-344 -1138q-21 -59 -16 -93.5t46 -47.5t142 -13l-17 -49h-504l15 49q117 0 166 31.5t77 122.5l390 1284q-25 61 -57 81.5t-89 20.5l10 49h334l375 -1296h14l336 1094q21 59 15.5 93t-46.5 47t-143 13l17 49h505z
" />
    <glyph glyph-name="Ograve" unicode="&#xd2;" horiz-adv-x="1404" 
d="M963 2154l172 -374h-66l-299 374h193zM555 -33q-90 0 -164 27.5t-125.5 77t-86.5 118t-51.5 149.5t-16.5 173q0 165 48 335t135 316t198.5 261t247 181t272.5 66q112 0 198 -42t138.5 -117t79 -172t26.5 -212q0 -166 -48 -336.5t-134.5 -316.5t-197.5 -261t-246.5 -181
t-272.5 -66zM584 53q112 0 231 114.5t208 286.5t146.5 381t57.5 390q0 362 -244 362q-90 0 -185.5 -74t-175.5 -198t-144.5 -274.5t-101 -316t-36.5 -310.5q0 -361 244 -361z" />
    <glyph glyph-name="Oacute" unicode="&#xd3;" horiz-adv-x="1404" 
d="M1143 1780h-66l234 374h194zM555 -33q-90 0 -164 27.5t-125.5 77t-86.5 118t-51.5 149.5t-16.5 173q0 165 48 335t135 316t198.5 261t247 181t272.5 66q112 0 198 -42t138.5 -117t79 -172t26.5 -212q0 -166 -48 -336.5t-134.5 -316.5t-197.5 -261t-246.5 -181t-272.5 -66
zM584 53q112 0 231 114.5t208 286.5t146.5 381t57.5 390q0 362 -244 362q-90 0 -185.5 -74t-175.5 -198t-144.5 -274.5t-101 -316t-36.5 -310.5q0 -361 244 -361z" />
    <glyph glyph-name="Ocircumflex" unicode="&#xd4;" horiz-adv-x="1404" 
d="M1294 1780l-118 266l-302 -266h-65l303 374h188l54 -374h-60zM1012 1671q112 0 198 -42t138.5 -117t79 -172t26.5 -212q0 -166 -48 -336.5t-134.5 -316.5t-197.5 -261t-246.5 -181t-272.5 -66q-90 0 -164 27.5t-125.5 77t-86.5 118t-51.5 149.5t-16.5 173q0 165 48 335
t135 316t198.5 261t247 181t272.5 66zM584 53q112 0 231 114.5t208 286.5t146.5 381t57.5 390q0 362 -244 362q-90 0 -185.5 -74t-175.5 -198t-144.5 -274.5t-101 -316t-36.5 -310.5q0 -361 244 -361z" />
    <glyph glyph-name="Otilde" unicode="&#xd5;" horiz-adv-x="1404" 
d="M1257 1821q-37 0 -68.5 14.5t-53 35t-41.5 40.5t-45.5 34.5t-53.5 14.5q-57 0 -95 -38t-69 -110l-49 7q101 278 244 278q37 0 68.5 -14.5t53 -35t41.5 -41.5t45.5 -35.5t53.5 -14.5q57 0 95 37.5t69 109.5l49 -6q-100 -276 -244 -276zM555 -33q-90 0 -164 27.5t-125.5 77
t-86.5 118t-51.5 149.5t-16.5 173q0 165 48 335t135 316t198.5 261t247 181t272.5 66q112 0 198 -42t138.5 -117t79 -172t26.5 -212q0 -166 -48 -336.5t-134.5 -316.5t-197.5 -261t-246.5 -181t-272.5 -66zM584 53q112 0 231 114.5t208 286.5t146.5 381t57.5 390
q0 362 -244 362q-90 0 -185.5 -74t-175.5 -198t-144.5 -274.5t-101 -316t-36.5 -310.5q0 -361 244 -361z" />
    <glyph glyph-name="Odieresis" unicode="&#xd6;" horiz-adv-x="1404" 
d="M956 1825q-52 0 -87 35t-35 88q0 52 34.5 86t87.5 34q54 0 88.5 -33.5t34.5 -86.5t-34.5 -88t-88.5 -35zM1331 1825q-53 0 -88 35.5t-35 87.5t35 86t88 34t87 -34t34 -86q0 -53 -34.5 -88t-86.5 -35zM555 -33q-90 0 -164 27.5t-125.5 77t-86.5 118t-51.5 149.5t-16.5 173
q0 165 48 335t135 316t198.5 261t247 181t272.5 66q112 0 198 -42t138.5 -117t79 -172t26.5 -212q0 -166 -48 -336.5t-134.5 -316.5t-197.5 -261t-246.5 -181t-272.5 -66zM584 53q112 0 231 114.5t208 286.5t146.5 381t57.5 390q0 362 -244 362q-90 0 -185.5 -74
t-175.5 -198t-144.5 -274.5t-101 -316t-36.5 -310.5q0 -361 244 -361z" />
    <glyph glyph-name="multiply" unicode="&#xd7;" horiz-adv-x="950" 
d="M831 944l99 -108l-314 -254l199 -238l-121 -100l-198 239l-297 -239l-95 108l297 242l-206 250l118 100l209 -252z" />
    <glyph glyph-name="Oslash" unicode="&#xd8;" horiz-adv-x="1404" 
d="M1503 1759l51 -35l-188 -237q88 -140 88 -359q0 -166 -48 -336.5t-134.5 -316.5t-197.5 -261t-246.5 -181t-272.5 -66q-193 0 -307 123l-189 -235l-51 36l199 250q-96 140 -96 371q0 165 48 335t135 316t198.5 261t247 181t272.5 66q201 0 315 -133zM340 414
q0 -54 6 -101l862 1080q-47 194 -225 194q-90 0 -185.5 -74t-175.5 -198t-144.5 -274.5t-101 -316t-36.5 -310.5zM1227 1225q0 30 -4 84l-863 -1078q54 -178 224 -178q112 0 231 114.5t208 286.5t146.5 381t57.5 390z" />
    <glyph glyph-name="Ugrave" unicode="&#xd9;" horiz-adv-x="1472" 
d="M1042 2154l172 -374h-65l-299 374h192zM614 -31q-138 0 -232.5 43t-138 121t-47 187t39.5 241l268 875q33 91 8.5 122t-150.5 31l15 49h610l-14 -49q-116 0 -165 -31t-77 -122l-276 -897q-41 -142 -36.5 -247.5t68.5 -165.5t181 -60q178 0 305.5 128t208.5 392l262 850
q21 59 16.5 93t-43.5 47t-137 13l14 49h465l-12 -49q-96 0 -138.5 -31t-70.5 -122l-262 -858q-32 -109 -68.5 -193.5t-92 -165t-124 -133.5t-164.5 -85t-213 -32z" />
    <glyph glyph-name="Uacute" unicode="&#xda;" horiz-adv-x="1472" 
d="M1221 1780h-66l234 374h194zM614 -31q-138 0 -232.5 43t-138 121t-47 187t39.5 241l268 875q33 91 8.5 122t-150.5 31l15 49h610l-14 -49q-116 0 -165 -31t-77 -122l-276 -897q-41 -142 -36.5 -247.5t68.5 -165.5t181 -60q178 0 305.5 128t208.5 392l262 850
q21 59 16.5 93t-43.5 47t-137 13l14 49h465l-12 -49q-96 0 -138.5 -31t-70.5 -122l-262 -858q-32 -109 -68.5 -193.5t-92 -165t-124 -133.5t-164.5 -85t-213 -32z" />
    <glyph glyph-name="Ucircumflex" unicode="&#xdb;" horiz-adv-x="1472" 
d="M1374 1780l-119 266l-301 -266h-65l303 374h188l54 -374h-60zM1759 1638l-12 -49q-96 0 -138.5 -31t-70.5 -122l-262 -858q-32 -109 -68.5 -193.5t-92 -165t-124 -133.5t-164.5 -85t-213 -32q-138 0 -232.5 43t-138 121t-47 187t39.5 241l268 875q33 91 8.5 122
t-150.5 31l15 49h610l-14 -49q-116 0 -165 -31t-77 -122l-276 -897q-41 -142 -36.5 -247.5t68.5 -165.5t181 -60q178 0 305.5 128t208.5 392l262 850q21 59 16.5 93t-43.5 47t-137 13l14 49h465z" />
    <glyph glyph-name="Udieresis" unicode="&#xdc;" horiz-adv-x="1472" 
d="M1036 1825q-52 0 -87.5 35.5t-35.5 87.5t35 86t88 34q54 0 88.5 -33.5t34.5 -86.5t-34.5 -88t-88.5 -35zM1411 1825q-53 0 -88 35.5t-35 87.5t35 86t88 34t87 -34t34 -86q0 -53 -34.5 -88t-86.5 -35zM614 -31q-138 0 -232.5 43t-138 121t-47 187t39.5 241l268 875
q33 91 8.5 122t-150.5 31l15 49h610l-14 -49q-116 0 -165 -31t-77 -122l-276 -897q-41 -142 -36.5 -247.5t68.5 -165.5t181 -60q178 0 305.5 128t208.5 392l262 850q21 59 16.5 93t-43.5 47t-137 13l14 49h465l-12 -49q-96 0 -138.5 -31t-70.5 -122l-262 -858
q-32 -109 -68.5 -193.5t-92 -165t-124 -133.5t-164.5 -85t-213 -32z" />
    <glyph glyph-name="Yacute" unicode="&#xdd;" horiz-adv-x="1320" 
d="M1124 1780h-65l233 374h195zM842 727l-162 -524q-34 -91 -6 -122.5t168 -31.5l-17 -49h-628l14 49q116 0 166 31.5t78 122.5l159 518l-131 711q-18 95 -53.5 126t-118.5 31l15 49h573l-16 -49q-88 0 -126.5 -14t-47.5 -49t4 -96l102 -590h10l471 628q50 66 54 83
q5 23 -30 31q-32 7 -122 7l16 49h449l-12 -49q-81 0 -136 -23t-110 -96z" />
    <glyph glyph-name="Thorn" unicode="&#xde;" horiz-adv-x="1247" 
d="M881 1337q124 0 217.5 -36.5t150 -118t56.5 -199.5q0 -111 -45.5 -218t-125 -191.5t-200 -136.5t-260.5 -52q-134 0 -230 43l-69 -225q-34 -91 -8.5 -122.5t155.5 -31.5l-14 -49h-619l15 49q117 0 166 31.5t77 122.5l377 1233q34 91 9 122t-156 31l14 49h613l-15 -49
q-113 0 -161 -31t-76 -122l-37 -121q71 22 166 22zM635 483q85 0 159 33t126.5 87.5t90 124t56 143.5t18.5 145q0 235 -223 235q-149 0 -205 -125l-184 -604q69 -39 162 -39z" />
    <glyph glyph-name="germandbls" unicode="&#xdf;" horiz-adv-x="1138" 
d="M946 1102q-118 -95 -151 -128.5t-33 -70.5q0 -34 32 -75.5t87 -94.5q81 -83 126.5 -158.5t45.5 -166.5q0 -58 -19 -119t-57.5 -117.5t-91 -101t-124 -71t-151.5 -26.5q-132 0 -235 64l104 352l49 -2q-28 -88 -28 -156q0 -74 32.5 -117.5t94.5 -43.5q112 0 179.5 86.5
t67.5 197.5q0 77 -34 139t-101 132q-45 49 -65.5 73.5t-42 63.5t-21.5 72q0 34 10 62.5t39.5 64t58.5 64t91 85.5q115 104 171 188t56 170q0 61 -30.5 94t-87.5 33q-109 0 -197.5 -107t-163.5 -355l-281 -922q-58 -186 -153.5 -333.5t-228 -238t-277.5 -90.5q-131 0 -131 82
q0 50 38.5 86.5t90.5 36.5q39 0 92.5 -39t85.5 -39q76 0 131 104t146 400l252 832h-179l23 73h178l18 60q76 247 218.5 390.5t343.5 143.5q140 0 217.5 -65t77.5 -162q0 -30 -8 -59.5t-17 -51t-34 -51t-38.5 -44.5t-53.5 -48t-56 -45t-66 -51z" />
    <glyph glyph-name="agrave" unicode="&#xe0;" horiz-adv-x="1114" 
d="M647 1651l172 -375h-65l-299 375h192zM791 92q54 0 116 78t119 201h47q-30 -73 -67.5 -138.5t-85 -123.5t-105.5 -92.5t-117 -34.5q-145 0 -145 131q0 14 2.5 28t8.5 32.5t11 32t16 41t17 44.5l80 225h-18q-42 -91 -90.5 -176t-111 -171.5t-133 -139t-134.5 -52.5
q-93 0 -140 72.5t-47 196.5q0 107 36 230t99 234t140 203t167 146.5t173 54.5q98 0 144 -63.5t40 -167.5h6l60 164q58 0 106 22t76 57l33 -18l-295 -823q-4 -12 -13.5 -38t-15.5 -42.5t-11 -36t-5 -29.5q0 -24 8 -35.5t29 -11.5zM285 127q58 0 142.5 89.5t159 215.5
t113.5 240q39 112 39 198q0 140 -92 140q-66 0 -143.5 -75t-140 -185t-104.5 -242t-42 -238q0 -143 68 -143z" />
    <glyph glyph-name="aacute" unicode="&#xe1;" horiz-adv-x="1114" 
d="M993 1651h195l-363 -375h-65zM1061 1126l33 -18l-295 -823q-4 -12 -13.5 -38t-15.5 -42.5t-11 -36t-5 -29.5q0 -24 8 -35.5t29 -11.5q54 0 116 78t119 201h47q-30 -73 -67.5 -138.5t-85 -123.5t-105.5 -92.5t-117 -34.5q-145 0 -145 131q0 14 2.5 28t8.5 32.5t11 32
t16 41t17 44.5l80 225h-18q-42 -91 -90.5 -176t-111 -171.5t-133 -139t-134.5 -52.5q-93 0 -140 72.5t-47 196.5q0 107 36 230t99 234t140 203t167 146.5t173 54.5q98 0 144 -63.5t40 -167.5h6l60 164q58 0 106 22t76 57zM285 127q58 0 142.5 89.5t159 215.5t113.5 240
q39 112 39 198q0 140 -92 140q-66 0 -143.5 -75t-140 -185t-104.5 -242t-42 -238q0 -143 68 -143z" />
    <glyph glyph-name="acircumflex" unicode="&#xe2;" horiz-adv-x="1114" 
d="M979 1276l-119 266l-301 -266h-65l303 375h188l53 -375h-59zM791 92q54 0 116 78t119 201h47q-30 -73 -67.5 -138.5t-85 -123.5t-105.5 -92.5t-117 -34.5q-145 0 -145 131q0 14 2.5 28t8.5 32.5t11 32t16 41t17 44.5l80 225h-18q-42 -91 -90.5 -176t-111 -171.5
t-133 -139t-134.5 -52.5q-93 0 -140 72.5t-47 196.5q0 107 36 230t99 234t140 203t167 146.5t173 54.5q98 0 144 -63.5t40 -167.5h6l60 164q58 0 106 22t76 57l33 -18l-295 -823q-4 -12 -13.5 -38t-15.5 -42.5t-11 -36t-5 -29.5q0 -24 8 -35.5t29 -11.5zM285 127
q58 0 142.5 89.5t159 215.5t113.5 240q39 112 39 198q0 140 -92 140q-66 0 -143.5 -75t-140 -185t-104.5 -242t-42 -238q0 -143 68 -143z" />
    <glyph glyph-name="atilde" unicode="&#xe3;" horiz-adv-x="1114" 
d="M680 1456q-57 0 -95 -37.5t-69 -109.5l-49 6q101 278 244 278q37 0 68.5 -14.5t53 -35.5t41.5 -41.5t45.5 -35t53.5 -14.5q57 0 95 37.5t69 109.5l49 -6q-100 -276 -244 -276q-37 0 -68.5 14.5t-53 35t-41.5 40.5t-45.5 34.5t-53.5 14.5zM1061 1126l33 -18l-295 -823
q-4 -12 -13.5 -38t-15.5 -42.5t-11 -36t-5 -29.5q0 -24 8 -35.5t29 -11.5q54 0 116 78t119 201h47q-30 -73 -67.5 -138.5t-85 -123.5t-105.5 -92.5t-117 -34.5q-145 0 -145 131q0 14 2.5 28t8.5 32.5t11 32t16 41t17 44.5l80 225h-18q-42 -91 -90.5 -176t-111 -171.5
t-133 -139t-134.5 -52.5q-93 0 -140 72.5t-47 196.5q0 107 36 230t99 234t140 203t167 146.5t173 54.5q98 0 144 -63.5t40 -167.5h6l60 164q58 0 106 22t76 57zM285 127q58 0 142.5 89.5t159 215.5t113.5 240q39 112 39 198q0 140 -92 140q-66 0 -143.5 -75t-140 -185
t-104.5 -242t-42 -238q0 -143 68 -143z" />
    <glyph glyph-name="adieresis" unicode="&#xe4;" horiz-adv-x="1114" 
d="M641 1321q-53 0 -88 35.5t-35 87.5t35 86.5t88 34.5q54 0 88.5 -34t34.5 -87t-34.5 -88t-88.5 -35zM1016 1565q52 0 86.5 -34.5t34.5 -86.5q0 -53 -34.5 -88t-86.5 -35t-87.5 35.5t-35.5 87.5t35 86.5t88 34.5zM1061 1126l33 -18l-295 -823q-4 -12 -13.5 -38t-15.5 -42.5
t-11 -36t-5 -29.5q0 -24 8 -35.5t29 -11.5q54 0 116 78t119 201h47q-30 -73 -67.5 -138.5t-85 -123.5t-105.5 -92.5t-117 -34.5q-145 0 -145 131q0 14 2.5 28t8.5 32.5t11 32t16 41t17 44.5l80 225h-18q-42 -91 -90.5 -176t-111 -171.5t-133 -139t-134.5 -52.5
q-93 0 -140 72.5t-47 196.5q0 107 36 230t99 234t140 203t167 146.5t173 54.5q98 0 144 -63.5t40 -167.5h6l60 164q58 0 106 22t76 57zM285 127q58 0 142.5 89.5t159 215.5t113.5 240q39 112 39 198q0 140 -92 140q-66 0 -143.5 -75t-140 -185t-104.5 -242t-42 -238
q0 -143 68 -143z" />
    <glyph glyph-name="aring" unicode="&#xe5;" horiz-adv-x="1114" 
d="M788 1290q-73 0 -115 44t-42 112q0 95 77.5 172.5t180.5 77.5q72 0 115 -42.5t43 -109.5q0 -95 -78 -174.5t-181 -79.5zM879 1628q-73 0 -121.5 -57t-48.5 -121q0 -40 23 -65t67 -25q73 0 121.5 60t48.5 122q0 40 -23 63t-67 23zM791 92q54 0 116 78t119 201h47
q-30 -73 -67.5 -138.5t-85 -123.5t-105.5 -92.5t-117 -34.5q-145 0 -145 131q0 14 2.5 28t8.5 32.5t11 32t16 41t17 44.5l80 225h-18q-42 -91 -90.5 -176t-111 -171.5t-133 -139t-134.5 -52.5q-93 0 -140 72.5t-47 196.5q0 107 36 230t99 234t140 203t167 146.5t173 54.5
q98 0 144 -63.5t40 -167.5h6l60 164q58 0 106 22t76 57l33 -18l-295 -823q-4 -12 -13.5 -38t-15.5 -42.5t-11 -36t-5 -29.5q0 -24 8 -35.5t29 -11.5zM285 127q58 0 142.5 89.5t159 215.5t113.5 240q39 112 39 198q0 140 -92 140q-66 0 -143.5 -75t-140 -185t-104.5 -242
t-42 -238q0 -143 68 -143z" />
    <glyph glyph-name="ae" unicode="&#xe6;" horiz-adv-x="1335" 
d="M893 104q164 0 334 332h45q-88 -220 -208.5 -342.5t-258.5 -122.5q-125 0 -193.5 86t-68.5 228q0 39 6 82h-6q-148 -396 -393 -396q-82 0 -134.5 48t-52.5 135q0 58 24.5 110.5t69 95t101.5 79t128 65t142.5 50.5t149.5 38q67 191 67 303q0 147 -108 147
q-72 0 -134.5 -55t-62.5 -143q0 -16 3 -44t3 -38q0 -44 -26.5 -67t-65.5 -23q-40 0 -65 24t-25 70q0 81 61.5 164t157 136.5t188.5 53.5q56 0 98 -18.5t66.5 -51t37.5 -69.5t18 -82q83 99 176.5 157t183.5 58t140 -50.5t50 -129.5q0 -95 -81.5 -176.5t-206.5 -132
t-275 -72.5q-37 -138 -37 -238q0 -99 40.5 -155t111.5 -56zM1130 1034q-63 0 -128 -62.5t-116 -156t-89 -205.5q110 31 198 75.5t149.5 114t61.5 148.5q0 86 -76 86zM242 119q83 0 162.5 114.5t150.5 298.5q-168 -38 -281.5 -125.5t-113.5 -193.5q0 -45 22 -69.5t60 -24.5z
" />
    <glyph glyph-name="ccedilla" unicode="&#xe7;" horiz-adv-x="802" 
d="M373 104q82 0 164.5 83.5t154.5 226.5h45q-86 -210 -200.5 -326t-243.5 -117l-29 -61q77 -2 126.5 -38.5t49.5 -107.5q0 -96 -98.5 -164.5t-269.5 -68.5q-69 0 -133 12l22 47q25 -2 76 -2q127 0 190.5 52t63.5 120q0 93 -133 93l61 129q-88 23 -137 108t-49 215
q0 135 49.5 281t129 263t188 193t216.5 76q84 0 137.5 -50.5t53.5 -139.5q0 -88 -45 -161t-105 -73q-33 0 -53 22t-20 54q0 23 11.5 42t27.5 33t32 29t27.5 38.5t11.5 52.5q0 32 -19.5 52.5t-60.5 20.5q-94 0 -182.5 -115t-140 -276t-51.5 -305q0 -108 32.5 -173t100.5 -65z
" />
    <glyph glyph-name="egrave" unicode="&#xe8;" horiz-adv-x="831" 
d="M561 1651l172 -375h-65l-299 375h192zM383 102q173 0 338 334h45q-89 -219 -210 -342t-263 -123q-123 0 -195.5 83t-72.5 233q0 129 52 276t133.5 269t192.5 203t220 81q90 0 143 -51t53 -135q0 -110 -84.5 -211t-214 -166.5t-272.5 -87.5q-19 -93 -19 -166
q0 -97 41.5 -147t112.5 -50zM610 1038q-69 0 -139.5 -78t-122.5 -191t-84 -239q171 43 292.5 159.5t121.5 254.5q0 94 -68 94z" />
    <glyph glyph-name="eacute" unicode="&#xe9;" horiz-adv-x="831" 
d="M909 1651h195l-363 -375h-65zM819 930q0 -110 -84.5 -211t-214 -166.5t-272.5 -87.5q-19 -93 -19 -166q0 -97 41.5 -147t112.5 -50q173 0 338 334h45q-89 -219 -210 -342t-263 -123q-123 0 -195.5 83t-72.5 233q0 129 52 276t133.5 269t192.5 203t220 81q90 0 143 -51
t53 -135zM610 1038q-69 0 -139.5 -78t-122.5 -191t-84 -239q171 43 292.5 159.5t121.5 254.5q0 94 -68 94z" />
    <glyph glyph-name="ecircumflex" unicode="&#xea;" horiz-adv-x="831" 
d="M899 1651l53 -375h-59l-119 266l-301 -266h-65l303 375h188zM819 930q0 -110 -84.5 -211t-214 -166.5t-272.5 -87.5q-19 -93 -19 -166q0 -97 41.5 -147t112.5 -50q173 0 338 334h45q-89 -219 -210 -342t-263 -123q-123 0 -195.5 83t-72.5 233q0 129 52 276t133.5 269
t192.5 203t220 81q90 0 143 -51t53 -135zM610 1038q-69 0 -139.5 -78t-122.5 -191t-84 -239q171 43 292.5 159.5t121.5 254.5q0 94 -68 94z" />
    <glyph glyph-name="edieresis" unicode="&#xeb;" horiz-adv-x="831" 
d="M555 1321q-53 0 -88 35.5t-35 87.5t35 86.5t88 34.5q54 0 88.5 -34t34.5 -87t-34.5 -88t-88.5 -35zM930 1565q52 0 86.5 -34.5t34.5 -86.5q0 -53 -34.5 -88t-86.5 -35t-87.5 35.5t-35.5 87.5t35 86.5t88 34.5zM819 930q0 -110 -84.5 -211t-214 -166.5t-272.5 -87.5
q-19 -93 -19 -166q0 -97 41.5 -147t112.5 -50q173 0 338 334h45q-89 -219 -210 -342t-263 -123q-123 0 -195.5 83t-72.5 233q0 129 52 276t133.5 269t192.5 203t220 81q90 0 143 -51t53 -135zM610 1038q-69 0 -139.5 -78t-122.5 -191t-84 -239q171 43 292.5 159.5
t121.5 254.5q0 94 -68 94z" />
    <glyph glyph-name="igrave" unicode="&#xec;" horiz-adv-x="641" 
d="M383 1651l172 -375h-66l-299 375h193zM131 291l176 495q53 144 53 181q0 34 -26 34q-43 0 -105 -66.5t-125 -170.5h-49q76 147 183.5 246.5t214.5 99.5q53 0 80.5 -32.5t27.5 -80.5q0 -54 -59 -215l-178 -497q-43 -121 -43 -146t7.5 -36t28.5 -11q54 0 117.5 79
t118.5 200h47q-30 -73 -67 -138t-84.5 -123.5t-105.5 -93t-118 -34.5q-145 0 -145 131q0 14 2 27.5t8 33t10 32t14.5 41t16.5 44.5z" />
    <glyph glyph-name="iacute" unicode="&#xed;" horiz-adv-x="641" 
d="M563 1276h-65l233 375h195zM131 291l176 495q53 144 53 181q0 34 -26 34q-43 0 -105 -66.5t-125 -170.5h-49q76 147 183.5 246.5t214.5 99.5q53 0 80.5 -32.5t27.5 -80.5q0 -54 -59 -215l-178 -497q-43 -121 -43 -146t7.5 -36t28.5 -11q54 0 117.5 79t118.5 200h47
q-30 -73 -67 -138t-84.5 -123.5t-105.5 -93t-118 -34.5q-145 0 -145 131q0 14 2 27.5t8 33t10 32t14.5 41t16.5 44.5z" />
    <glyph glyph-name="icircumflex" unicode="&#xee;" horiz-adv-x="641" 
d="M721 1651l53 -375h-59l-119 266l-301 -266h-66l303 375h189zM317 92q54 0 117.5 79t118.5 200h47q-30 -73 -67 -138t-84.5 -123.5t-105.5 -93t-118 -34.5q-145 0 -145 131q0 14 2 27.5t8 33t10 32t14.5 41t16.5 44.5l176 495q53 144 53 181q0 34 -26 34q-43 0 -105 -66.5
t-125 -170.5h-49q76 147 183.5 246.5t214.5 99.5q53 0 80.5 -32.5t27.5 -80.5q0 -54 -59 -215l-178 -497q-43 -121 -43 -146t7.5 -36t28.5 -11z" />
    <glyph glyph-name="idieresis" unicode="&#xef;" horiz-adv-x="641" 
d="M377 1321q-53 0 -88 35.5t-35 87.5t35 86.5t88 34.5q54 0 88.5 -34t34.5 -87t-34.5 -88t-88.5 -35zM752 1321q-52 0 -87.5 35.5t-35.5 87.5t35 86.5t88 34.5q52 0 86 -34t34 -87t-34 -88t-86 -35zM131 291l176 495q53 144 53 181q0 34 -26 34q-43 0 -105 -66.5
t-125 -170.5h-49q76 147 183.5 246.5t214.5 99.5q53 0 80.5 -32.5t27.5 -80.5q0 -54 -59 -215l-178 -497q-43 -121 -43 -146t7.5 -36t28.5 -11q54 0 117.5 79t118.5 200h47q-30 -73 -67 -138t-84.5 -123.5t-105.5 -93t-118 -34.5q-145 0 -145 131q0 14 2 27.5t8 33t10 32
t14.5 41t16.5 44.5z" />
    <glyph glyph-name="eth" unicode="&#xf0;" horiz-adv-x="1003" 
d="M1075 1589l27 -47l-273 -145q160 -224 160 -510q0 -158 -50 -323t-133 -297t-201 -216t-243 -84q-150 0 -232.5 100.5t-82.5 264.5q0 103 29.5 213t83.5 208.5t124 177t158.5 125t178.5 46.5q109 0 167 -55q-12 166 -71 292l-238 -127l-24 45l239 129q-75 138 -217 250
l41 43q168 -102 279 -239zM375 55q96 0 194 146.5t158.5 348.5t65.5 374q-40 82 -123 82t-163.5 -74t-136.5 -185t-90 -240t-34 -239q0 -213 129 -213z" />
    <glyph glyph-name="ntilde" unicode="&#xf1;" horiz-adv-x="1142" 
d="M930 1317q-37 0 -68.5 14.5t-53 35t-41.5 40.5t-45.5 34.5t-53.5 14.5q-57 0 -95 -37.5t-69 -109.5l-49 6q101 278 243 278q37 0 68.5 -14.5t53 -35.5t42 -41.5t46 -35t53.5 -14.5q57 0 94.5 37.5t68.5 109.5l50 -6q-100 -276 -244 -276zM238 0h-201l270 786
q53 144 53 181q0 34 -26 34q-43 0 -105 -66.5t-125 -170.5h-49q76 147 183.5 246.5t214.5 99.5q53 0 80.5 -32.5t27.5 -80.5q0 -25 -11 -64t-20 -62t-34 -87l-121 -327h20q164 346 289.5 501.5t247.5 155.5q69 0 107 -40.5t38 -108.5q0 -53 -28 -142.5t-57 -159.5
t-86.5 -199t-78.5 -179q-4 -13 -18 -49t-21.5 -60t-7.5 -37q0 -24 8 -35.5t29 -11.5q54 0 117.5 79t118.5 200h49q-31 -74 -68.5 -138.5t-85 -123t-105.5 -93t-118 -34.5q-143 0 -143 131q0 17 5 37.5t11 36.5t20.5 50t22.5 56q20 49 64 156.5t64 157.5t46.5 120.5t37.5 111
t11 64.5q0 66 -43 66q-26 0 -62 -26t-91 -95t-117.5 -174t-144.5 -279.5t-168 -394.5z" />
    <glyph glyph-name="ograve" unicode="&#xf2;" horiz-adv-x="983" 
d="M606 1651l172 -375h-65l-299 375h192zM342 -29q-136 0 -219.5 96t-83.5 257q0 143 51.5 287.5t133.5 255t192 180t221 69.5q137 0 221 -97.5t84 -258.5q0 -190 -85.5 -373.5t-226 -299.5t-288.5 -116zM358 59q85 0 178 122t153.5 302.5t60.5 341.5q0 97 -31.5 151
t-95.5 54q-85 0 -177.5 -123.5t-152.5 -305.5t-60 -341q0 -201 125 -201z" />
    <glyph glyph-name="oacute" unicode="&#xf3;" horiz-adv-x="983" 
d="M786 1276h-65l233 375h195zM342 -29q-136 0 -219.5 96t-83.5 257q0 143 51.5 287.5t133.5 255t192 180t221 69.5q137 0 221 -97.5t84 -258.5q0 -190 -85.5 -373.5t-226 -299.5t-288.5 -116zM358 59q85 0 178 122t153.5 302.5t60.5 341.5q0 97 -31.5 151t-95.5 54
q-85 0 -177.5 -123.5t-152.5 -305.5t-60 -341q0 -201 125 -201z" />
    <glyph glyph-name="ocircumflex" unicode="&#xf4;" horiz-adv-x="983" 
d="M938 1276l-119 266l-301 -266h-65l303 375h188l53 -375h-59zM637 1116q137 0 221 -97.5t84 -258.5q0 -190 -85.5 -373.5t-226 -299.5t-288.5 -116q-136 0 -219.5 96t-83.5 257q0 143 51.5 287.5t133.5 255t192 180t221 69.5zM358 59q85 0 178 122t153.5 302.5t60.5 341.5
q0 97 -31.5 151t-95.5 54q-85 0 -177.5 -123.5t-152.5 -305.5t-60 -341q0 -201 125 -201z" />
    <glyph glyph-name="otilde" unicode="&#xf5;" horiz-adv-x="983" 
d="M901 1317q-37 0 -68.5 14.5t-53 35t-41.5 40.5t-45.5 34.5t-53.5 14.5q-57 0 -95 -37.5t-69 -109.5l-49 6q101 278 244 278q37 0 68.5 -14.5t53 -35.5t41.5 -41.5t45.5 -35t53.5 -14.5q57 0 95 37.5t69 109.5l49 -6q-100 -276 -244 -276zM342 -29q-136 0 -219.5 96
t-83.5 257q0 143 51.5 287.5t133.5 255t192 180t221 69.5q137 0 221 -97.5t84 -258.5q0 -190 -85.5 -373.5t-226 -299.5t-288.5 -116zM358 59q85 0 178 122t153.5 302.5t60.5 341.5q0 97 -31.5 151t-95.5 54q-85 0 -177.5 -123.5t-152.5 -305.5t-60 -341q0 -201 125 -201z
" />
    <glyph glyph-name="odieresis" unicode="&#xf6;" horiz-adv-x="983" 
d="M600 1321q-52 0 -87.5 35.5t-35.5 87.5t35 86.5t88 34.5q54 0 88.5 -34t34.5 -87t-34.5 -88t-88.5 -35zM975 1321q-53 0 -88 35.5t-35 87.5t35 86.5t88 34.5t87 -34.5t34 -86.5q0 -53 -34.5 -88t-86.5 -35zM342 -29q-136 0 -219.5 96t-83.5 257q0 143 51.5 287.5
t133.5 255t192 180t221 69.5q137 0 221 -97.5t84 -258.5q0 -190 -85.5 -373.5t-226 -299.5t-288.5 -116zM358 59q85 0 178 122t153.5 302.5t60.5 341.5q0 97 -31.5 151t-95.5 54q-85 0 -177.5 -123.5t-152.5 -305.5t-60 -341q0 -201 125 -201z" />
    <glyph glyph-name="divide" unicode="&#xf7;" horiz-adv-x="976" 
d="M621 883q-36 0 -58 20t-22 53q0 45 36 83t82 38q36 0 57 -20t21 -53q0 -45 -35 -83t-81 -38zM901 539h-799l45 149h799zM397 154q-35 0 -57.5 20.5t-22.5 54.5q0 45 36.5 83t82.5 38q36 0 58 -20.5t22 -53.5q0 -45 -36.5 -83.5t-82.5 -38.5z" />
    <glyph glyph-name="oslash" unicode="&#xf8;" horiz-adv-x="997" 
d="M1042 1200l43 -31l-176 -202q49 -87 49 -207q0 -190 -85.5 -373.5t-226.5 -299.5t-290 -116q-138 0 -223 101l-166 -191l-43 33l178 205q-47 83 -47 205q0 143 51 287.5t133 255t192.5 180t221.5 69.5q145 0 226 -104zM637 1030q-83 0 -173 -117.5t-150 -292t-66 -333.5
l514 590q-16 153 -125 153zM373 59q83 0 173.5 116.5t151 290t66.5 333.5l-514 -592q16 -148 123 -148z" />
    <glyph glyph-name="ugrave" unicode="&#xf9;" horiz-adv-x="1148" 
d="M625 1651l172 -375h-66l-299 375h193zM203 -29q-70 0 -109 40.5t-39 105.5q0 37 12.5 90.5t27.5 99.5t47 121.5t50 117t58.5 128.5t52.5 114q57 155 57 181q0 35 -26 35q-43 0 -105 -67t-125 -171h-49q76 146 184 246t214 100q53 0 80.5 -33t27.5 -82q0 -35 -16.5 -82.5
t-52.5 -132.5q-25 -60 -64 -153t-62.5 -150t-49 -121.5t-38 -108t-14.5 -69.5q-3 -65 41 -65q61 0 151 97.5t201 309.5q206 383 213 563h238l-281 -811q-3 -9 -10.5 -29.5t-12 -34t-10 -31t-8 -30.5t-2.5 -22q0 -45 37 -45q54 0 117.5 78.5t118.5 199.5h49
q-31 -74 -68.5 -139.5t-84.5 -124t-105 -93t-117 -34.5q-145 0 -145 133q0 13 2.5 26.5t8.5 32.5t11 32t16 41.5t17 44.5l129 344h-18q-170 -340 -298.5 -496t-250.5 -156z" />
    <glyph glyph-name="uacute" unicode="&#xfa;" horiz-adv-x="1148" 
d="M805 1276h-66l234 375h194zM203 -29q-70 0 -109 40.5t-39 105.5q0 37 12.5 90.5t27.5 99.5t47 121.5t50 117t58.5 128.5t52.5 114q57 155 57 181q0 35 -26 35q-43 0 -105 -67t-125 -171h-49q76 146 184 246t214 100q53 0 80.5 -33t27.5 -82q0 -35 -16.5 -82.5
t-52.5 -132.5q-25 -60 -64 -153t-62.5 -150t-49 -121.5t-38 -108t-14.5 -69.5q-3 -65 41 -65q61 0 151 97.5t201 309.5q206 383 213 563h238l-281 -811q-3 -9 -10.5 -29.5t-12 -34t-10 -31t-8 -30.5t-2.5 -22q0 -45 37 -45q54 0 117.5 78.5t118.5 199.5h49
q-31 -74 -68.5 -139.5t-84.5 -124t-105 -93t-117 -34.5q-145 0 -145 133q0 13 2.5 26.5t8.5 32.5t11 32t16 41.5t17 44.5l129 344h-18q-170 -340 -298.5 -496t-250.5 -156z" />
    <glyph glyph-name="ucircumflex" unicode="&#xfb;" horiz-adv-x="1148" 
d="M956 1276l-118 266l-301 -266h-66l303 375h189l53 -375h-60zM821 82q54 0 117.5 78.5t118.5 199.5h49q-31 -74 -68.5 -139.5t-84.5 -124t-105 -93t-117 -34.5q-145 0 -145 133q0 13 2.5 26.5t8.5 32.5t11 32t16 41.5t17 44.5l129 344h-18q-170 -340 -298.5 -496
t-250.5 -156q-70 0 -109 40.5t-39 105.5q0 37 12.5 90.5t27.5 99.5t47 121.5t50 117t58.5 128.5t52.5 114q57 155 57 181q0 35 -26 35q-43 0 -105 -67t-125 -171h-49q76 146 184 246t214 100q53 0 80.5 -33t27.5 -82q0 -35 -16.5 -82.5t-52.5 -132.5q-25 -60 -64 -153
t-62.5 -150t-49 -121.5t-38 -108t-14.5 -69.5q-3 -65 41 -65q61 0 151 97.5t201 309.5q206 383 213 563h238l-281 -811q-3 -9 -10.5 -29.5t-12 -34t-10 -31t-8 -30.5t-2.5 -22q0 -45 37 -45z" />
    <glyph glyph-name="udieresis" unicode="&#xfc;" horiz-adv-x="1148" 
d="M618 1321q-52 0 -87 35t-35 88q0 52 34.5 86.5t87.5 34.5q54 0 88.5 -34t34.5 -87t-34.5 -88t-88.5 -35zM993 1321q-53 0 -88 35.5t-35 87.5t35 86.5t88 34.5t87 -34.5t34 -86.5q0 -53 -34.5 -88t-86.5 -35zM203 -29q-70 0 -109 40.5t-39 105.5q0 37 12.5 90.5t27.5 99.5
t47 121.5t50 117t58.5 128.5t52.5 114q57 155 57 181q0 35 -26 35q-43 0 -105 -67t-125 -171h-49q76 146 184 246t214 100q53 0 80.5 -33t27.5 -82q0 -35 -16.5 -82.5t-52.5 -132.5q-25 -60 -64 -153t-62.5 -150t-49 -121.5t-38 -108t-14.5 -69.5q-3 -65 41 -65
q61 0 151 97.5t201 309.5q206 383 213 563h238l-281 -811q-3 -9 -10.5 -29.5t-12 -34t-10 -31t-8 -30.5t-2.5 -22q0 -45 37 -45q54 0 117.5 78.5t118.5 199.5h49q-31 -74 -68.5 -139.5t-84.5 -124t-105 -93t-117 -34.5q-145 0 -145 133q0 13 2.5 26.5t8.5 32.5t11 32
t16 41.5t17 44.5l129 344h-18q-170 -340 -298.5 -496t-250.5 -156z" />
    <glyph glyph-name="yacute" unicode="&#xfd;" horiz-adv-x="940" 
d="M655 1276h-65l233 375h195zM-111 -463q-57 0 -86.5 23t-29.5 61q0 50 38.5 86.5t90.5 36.5q34 0 63.5 -17.5t57 -35t55.5 -17.5q96 0 233 244q32 390 19 901q-1 100 -13.5 136t-40.5 36q-58 0 -161 -258h-47q25 67 47.5 118t51.5 102t58.5 83.5t66 53t75.5 20.5
q80 0 114 -64t37 -219q5 -378 -31 -731q156 200 241 384.5t85 318.5q0 61 -28.5 135t-28.5 100q0 32 21.5 56t56.5 24q45 0 71.5 -47t26.5 -139q0 -328 -402 -871q-67 -95 -121.5 -164t-121.5 -140t-127.5 -115.5t-130.5 -72.5t-140 -28z" />
    <glyph glyph-name="thorn" unicode="&#xfe;" horiz-adv-x="1062" 
d="M858 1114q79 0 130.5 -70.5t51.5 -205.5q0 -87 -19 -184.5t-53.5 -192t-86.5 -180.5t-113 -151.5t-138.5 -104.5t-158.5 -39q-120 0 -197 84l-106 -338q-32 -95 -7.5 -124.5t146.5 -29.5l-20 -47h-518l14 47q75 0 115.5 31t70.5 123l367 1169q-58 -104 -135 -196.5
t-160 -149.5l-27 37q133 93 246 263.5t160 320.5v-5l162 519h188l-346 -1047h18q39 90 81 166t95.5 148.5t115.5 114.5t124 42zM449 70q61 0 121.5 50t107.5 131t84.5 177t57.5 194t20 177q0 166 -80 166q-59 0 -139 -98t-147.5 -235t-108.5 -270l-35 -112q2 -81 32 -130.5
t87 -49.5z" />
    <glyph glyph-name="ydieresis" unicode="&#xff;" horiz-adv-x="940" 
d="M471 1321q-53 0 -88 35.5t-35 87.5t35 86.5t88 34.5q54 0 88.5 -34t34.5 -87t-34.5 -88t-88.5 -35zM846 1321q-52 0 -87.5 35.5t-35.5 87.5t35 86.5t88 34.5q52 0 86.5 -34.5t34.5 -86.5q0 -53 -34.5 -88t-86.5 -35zM-111 -463q-57 0 -86.5 23t-29.5 61q0 50 38.5 86.5
t90.5 36.5q34 0 63.5 -17.5t57 -35t55.5 -17.5q96 0 233 244q32 390 19 901q-1 100 -13.5 136t-40.5 36q-58 0 -161 -258h-47q25 67 47.5 118t51.5 102t58.5 83.5t66 53t75.5 20.5q80 0 114 -64t37 -219q5 -378 -31 -731q156 200 241 384.5t85 318.5q0 61 -28.5 135
t-28.5 100q0 32 21.5 56t56.5 24q45 0 71.5 -47t26.5 -139q0 -328 -402 -871q-67 -95 -121.5 -164t-121.5 -140t-127.5 -115.5t-130.5 -72.5t-140 -28z" />
    <glyph glyph-name="Amacron" unicode="&#x100;" horiz-adv-x="1349" 
d="M834 1888l28 97h574l-27 -97h-575zM1149 1671l-64 -1460q-3 -100 29.5 -131t142.5 -31l-18 -49h-614l16 49q87 0 131 15.5t61 48t21 98.5l16 295h-548l-216 -330q-45 -68 -46 -88t30 -29q34 -10 139 -10l-16 -49h-465l14 49q79 0 131.5 25t104.5 102l989 1495h162z
M905 1399l-532 -815h504l47 815h-19z" />
    <glyph glyph-name="amacron" unicode="&#x101;" horiz-adv-x="1114" 
d="M522 1384l29 97h573l-26 -97h-576zM1061 1126l33 -18l-295 -823q-4 -12 -13.5 -38t-15.5 -42.5t-11 -36t-5 -29.5q0 -24 8 -35.5t29 -11.5q54 0 116 78t119 201h47q-30 -73 -67.5 -138.5t-85 -123.5t-105.5 -92.5t-117 -34.5q-145 0 -145 131q0 14 2.5 28t8.5 32.5t11 32
t16 41t17 44.5l80 225h-18q-42 -91 -90.5 -176t-111 -171.5t-133 -139t-134.5 -52.5q-93 0 -140 72.5t-47 196.5q0 107 36 230t99 234t140 203t167 146.5t173 54.5q98 0 144 -63.5t40 -167.5h6l60 164q58 0 106 22t76 57zM285 127q58 0 142.5 89.5t159 215.5t113.5 240
q39 112 39 198q0 140 -92 140q-66 0 -143.5 -75t-140 -185t-104.5 -242t-42 -238q0 -143 68 -143z" />
    <glyph glyph-name="Abreve" unicode="&#x102;" horiz-adv-x="1349" 
d="M1417 2126h47q-31 -141 -127 -218t-221 -77q-101 0 -161 48t-60 138q0 53 20 109h46q-5 -15 -5 -43q0 -64 43 -89.5t136 -25.5q227 0 282 158zM1149 1671l-64 -1460q-3 -100 29.5 -131t142.5 -31l-18 -49h-614l16 49q87 0 131 15.5t61 48t21 98.5l16 295h-548l-216 -330
q-45 -68 -46 -88t30 -29q34 -10 139 -10l-16 -49h-465l14 49q79 0 131.5 25t104.5 102l989 1495h162zM905 1399l-532 -815h504l47 815h-19z" />
    <glyph glyph-name="abreve" unicode="&#x103;" horiz-adv-x="1114" 
d="M805 1327q-101 0 -161 48t-60 138q0 53 20 109h45q-4 -12 -4 -43q0 -64 42.5 -89.5t135.5 -25.5q228 0 283 158h47q-31 -141 -127 -218t-221 -77zM1061 1126l33 -18l-295 -823q-4 -12 -13.5 -38t-15.5 -42.5t-11 -36t-5 -29.5q0 -24 8 -35.5t29 -11.5q54 0 116 78
t119 201h47q-30 -73 -67.5 -138.5t-85 -123.5t-105.5 -92.5t-117 -34.5q-145 0 -145 131q0 14 2.5 28t8.5 32.5t11 32t16 41t17 44.5l80 225h-18q-42 -91 -90.5 -176t-111 -171.5t-133 -139t-134.5 -52.5q-93 0 -140 72.5t-47 196.5q0 107 36 230t99 234t140 203t167 146.5
t173 54.5q98 0 144 -63.5t40 -167.5h6l60 164q58 0 106 22t76 57zM285 127q58 0 142.5 89.5t159 215.5t113.5 240q39 112 39 198q0 140 -92 140q-66 0 -143.5 -75t-140 -185t-104.5 -242t-42 -238q0 -143 68 -143z" />
    <glyph glyph-name="Aogonek" unicode="&#x104;" horiz-adv-x="1349" 
d="M1239 0h-133q-54 -24 -104 -54.5t-95.5 -69.5t-72.5 -86t-27 -95q0 -92 106 -92q64 0 168 49l11 -51q-124 -86 -248 -86q-85 0 -138 37t-53 112q0 54 28 103t68.5 84t96 66t101 49.5t93.5 33.5h-415l16 49q87 0 131 15.5t61 48t21 98.5l16 295h-548l-216 -330
q-45 -68 -46 -88t30 -29q34 -10 139 -10l-16 -49h-465l14 49q79 0 131.5 25t104.5 102l989 1495h162l-64 -1460q-3 -100 29.5 -131t142.5 -31zM905 1399l-532 -815h504l47 815h-19z" />
    <glyph glyph-name="aogonek" unicode="&#x105;" horiz-adv-x="1114" 
d="M791 92q54 0 116 78t119 201h47q-54 -133 -133.5 -238.5t-171.5 -138.5h4q-55 -24 -105 -54.5t-96.5 -69.5t-74 -87t-27.5 -96q0 -93 106 -93q62 0 168 50l11 -52q-124 -86 -248 -86q-85 0 -138 37t-53 113q0 50 24.5 97t60.5 80.5t87 64.5t95 50t92 36q-121 11 -121 129
q0 14 2.5 28t8.5 32.5t11 32t16 41t17 44.5l80 225h-18q-42 -91 -90.5 -176t-111 -171.5t-133 -139t-134.5 -52.5q-93 0 -140 72.5t-47 196.5q0 107 36 230t99 234t140 203t167 146.5t173 54.5q98 0 144 -63.5t40 -167.5h6l60 164q58 0 106 22t76 57l33 -18l-295 -823
q-4 -12 -13.5 -38t-15.5 -42.5t-11 -36t-5 -29.5q0 -24 8 -35.5t29 -11.5zM285 127q58 0 142.5 89.5t159 215.5t113.5 240q39 112 39 198q0 140 -92 140q-66 0 -143.5 -75t-140 -185t-104.5 -242t-42 -238q0 -143 68 -143z" />
    <glyph glyph-name="Cacute" unicode="&#x106;" horiz-adv-x="1280" 
d="M1067 1774h-66l234 374h195zM571 -33q-152 0 -257.5 73t-154 194t-48.5 280q0 125 30.5 260t85.5 262.5t136 243t176.5 201.5t212.5 137t239 51q101 0 170.5 -33t122.5 -100q19 -27 31.5 -25.5t25.5 31.5l45 109l48 -6l-164 -572h-49q17 109 14.5 201.5t-23 159.5
t-71.5 105t-131 38q-93 0 -181.5 -50t-159 -134t-130 -192.5t-98.5 -226t-61 -234.5t-22 -218q0 -200 79.5 -308t221.5 -108q87 0 168 40t149.5 112.5t124.5 160.5t105 197h60q-51 -119 -99.5 -209t-112.5 -176t-133 -141.5t-158.5 -89t-191.5 -33.5z" />
    <glyph glyph-name="cacute" unicode="&#x107;" horiz-adv-x="802" 
d="M719 1276h-66l234 375h194zM289 -29q-119 0 -187.5 89.5t-68.5 244.5q0 135 49.5 281t129 263t188 193t216.5 76q84 0 137.5 -50.5t53.5 -139.5q0 -88 -45 -161t-105 -73q-33 0 -53 22t-20 54q0 23 11.5 42t27.5 33t32 29t27.5 38.5t11.5 52.5q0 32 -19.5 52.5
t-60.5 20.5q-94 0 -182.5 -115t-140 -276t-51.5 -305q0 -108 32.5 -173t100.5 -65q82 0 164.5 83.5t154.5 226.5h45q-86 -211 -201.5 -327t-246.5 -116z" />
    <glyph glyph-name="Cdotaccent" unicode="&#x10a;" horiz-adv-x="1280" 
d="M1063 1819q-53 0 -88 35.5t-35 87.5t35 86t88 34t87 -34t34 -86q0 -53 -34.5 -88t-86.5 -35zM571 -33q-152 0 -257.5 73t-154 194t-48.5 280q0 125 30.5 260t85.5 262.5t136 243t176.5 201.5t212.5 137t239 51q101 0 170.5 -33t122.5 -100q19 -27 31.5 -25.5t25.5 31.5
l45 109l48 -6l-164 -572h-49q17 109 14.5 201.5t-23 159.5t-71.5 105t-131 38q-93 0 -181.5 -50t-159 -134t-130 -192.5t-98.5 -226t-61 -234.5t-22 -218q0 -200 79.5 -308t221.5 -108q87 0 168 40t149.5 112.5t124.5 160.5t105 197h60q-51 -119 -99.5 -209t-112.5 -176
t-133 -141.5t-158.5 -89t-191.5 -33.5z" />
    <glyph glyph-name="cdotaccent" unicode="&#x10b;" horiz-adv-x="802" 
d="M713 1321q-53 0 -88 35.5t-35 87.5t35 86.5t88 34.5t87 -34.5t34 -86.5q0 -53 -34.5 -88t-86.5 -35zM289 -29q-119 0 -187.5 89.5t-68.5 244.5q0 135 49.5 281t129 263t188 193t216.5 76q84 0 137.5 -50.5t53.5 -139.5q0 -88 -45 -161t-105 -73q-33 0 -53 22t-20 54
q0 23 11.5 42t27.5 33t32 29t27.5 38.5t11.5 52.5q0 32 -19.5 52.5t-60.5 20.5q-94 0 -182.5 -115t-140 -276t-51.5 -305q0 -108 32.5 -173t100.5 -65q82 0 164.5 83.5t154.5 226.5h45q-86 -211 -201.5 -327t-246.5 -116z" />
    <glyph glyph-name="Ccaron" unicode="&#x10c;" horiz-adv-x="1280" 
d="M901 1774l-51 374h57l121 -268l299 268h68l-305 -374h-189zM1434 1645l-164 -572h-49q17 109 14.5 201.5t-23 159.5t-71.5 105t-131 38q-93 0 -181.5 -50t-159 -134t-130 -192.5t-98.5 -226t-61 -234.5t-22 -218q0 -200 79.5 -308t221.5 -108q87 0 168 40t149.5 112.5
t124.5 160.5t105 197h60q-51 -119 -99.5 -209t-112.5 -176t-133 -141.5t-158.5 -89t-191.5 -33.5q-152 0 -257.5 73t-154 194t-48.5 280q0 125 30.5 260t85.5 262.5t136 243t176.5 201.5t212.5 137t239 51q101 0 170.5 -33t122.5 -100q19 -27 31.5 -25.5t25.5 31.5l45 109z
" />
    <glyph glyph-name="ccaron" unicode="&#x10d;" horiz-adv-x="802" 
d="M553 1276l-51 375h57l121 -269l299 269h68l-306 -375h-188zM584 770q0 23 11.5 42t27.5 33t32 29t27.5 38.5t11.5 52.5q0 32 -19.5 52.5t-60.5 20.5q-94 0 -182.5 -115t-140 -276t-51.5 -305q0 -108 32.5 -173t100.5 -65q82 0 164.5 83.5t154.5 226.5h45
q-86 -211 -201.5 -327t-246.5 -116q-119 0 -187.5 89.5t-68.5 244.5q0 135 49.5 281t129 263t188 193t216.5 76q84 0 137.5 -50.5t53.5 -139.5q0 -88 -45 -161t-105 -73q-33 0 -53 22t-20 54z" />
    <glyph glyph-name="Dcaron" unicode="&#x10e;" horiz-adv-x="1527" 
d="M932 1780l-51 374h57l121 -268l299 268h67l-305 -374h-188zM936 1638q280 0 455.5 -160t175.5 -438q0 -141 -37.5 -275t-105.5 -248.5t-165.5 -210.5t-215 -163.5t-258 -105t-289.5 -37.5h-607l15 49q117 0 166 31.5t77 122.5l377 1233q34 91 9 122t-156 31l14 49h545z
M502 84q136 0 265 57.5t230 157t177.5 226.5t117.5 273t41 289q0 222 -106.5 345.5t-282.5 123.5q-160 0 -178 -63l-414 -1339q-11 -34 25 -52t125 -18z" />
    <glyph glyph-name="dcaron" unicode="&#x10f;" horiz-adv-x="1126" 
d="M1249 1698l25 -15l-463 -1396q-41 -120 -41 -148q0 -24 8 -35.5t29 -11.5q54 0 116 78t119 201h48q-30 -73 -67.5 -138.5t-85 -123.5t-105.5 -92.5t-117 -34.5q-146 0 -146 131q0 11 2 24.5t4 23.5t8 29l9 28.5t12.5 36t13.5 38.5l76 223h-28q-42 -92 -90 -177.5
t-110.5 -173.5t-132.5 -141t-134 -53q-88 0 -136.5 75.5t-48.5 199.5q0 107 36 230t99 234t140 203t167 146.5t173 54.5q98 0 143.5 -63.5t40.5 -167.5h4l187 553q29 85 -5.5 120t-142.5 35l12 47q174 0 257.5 13t123.5 47zM1315 1290l123 393h170l-230 -393h-63zM285 119
q57 0 141.5 91t158.5 218.5t115 243.5q39 112 39 198q0 140 -92 140q-66 0 -143.5 -75t-140 -185t-104.5 -242t-42 -238q0 -151 68 -151z" />
    <glyph glyph-name="Dcroat" unicode="&#x110;" horiz-adv-x="1527" 
d="M936 1638q280 0 455.5 -160t175.5 -438q0 -141 -37.5 -275t-105.5 -248.5t-165.5 -210.5t-215 -163.5t-258 -105t-289.5 -37.5h-607l15 49q117 0 166 31.5t77 122.5l191 624h-193l21 68h192l166 541q34 91 9 122t-156 31l14 49h545zM502 84q136 0 265 57.5t230 157
t177.5 226.5t117.5 273t41 289q0 222 -106.5 345.5t-282.5 123.5q-160 0 -178 -63l-184 -598h340l-21 -68h-340l-209 -673q-11 -34 25 -52t125 -18z" />
    <glyph glyph-name="dcroat" unicode="&#x111;" horiz-adv-x="1126" 
d="M1294 1251h-164l-319 -964q-41 -120 -41 -148q0 -24 8 -35.5t29 -11.5q54 0 116 78t119 201h48q-30 -73 -67.5 -138.5t-85 -123.5t-105.5 -92.5t-117 -34.5q-146 0 -146 131q0 11 2 24.5t4 23.5t8 29l9 28.5t12.5 36t13.5 38.5l76 223h-28q-42 -92 -90 -177.5
t-110.5 -173.5t-132.5 -141t-134 -53q-88 0 -136.5 75.5t-48.5 199.5q0 107 36 230t99 234t140 203t167 146.5t173 54.5q98 0 143.5 -63.5t40.5 -167.5h4l125 368h-311l16 56h314l43 129q29 85 -5.5 120t-142.5 35l12 47q174 0 257.5 13t123.5 47l25 -15l-125 -376h164z
M285 119q57 0 141.5 91t158.5 218.5t115 243.5q39 112 39 198q0 140 -92 140q-66 0 -143.5 -75t-140 -185t-104.5 -242t-42 -238q0 -151 68 -151z" />
    <glyph glyph-name="Emacron" unicode="&#x112;" horiz-adv-x="1275" 
d="M729 1888l29 97h573l-26 -97h-576zM1417 1638l-112 -383h-60q41 158 18.5 224.5t-128.5 66.5h-261q-90 0 -116 -86l-172 -561h258q82 0 126.5 37.5t76.5 134.5h49l-135 -461h-52q32 116 13 165.5t-101 49.5h-256l-184 -602q-25 -85 -13.5 -108t72.5 -23h285
q122 0 207 65.5t184 245.5l62 -18l-201 -385h-1088l15 49q117 0 166 31.5t77 122.5l377 1233q34 91 9 122t-156 31l14 49h1026z" />
    <glyph glyph-name="emacron" unicode="&#x113;" horiz-adv-x="831" 
d="M438 1384l29 97h573l-26 -97h-576zM819 930q0 -110 -84.5 -211t-214 -166.5t-272.5 -87.5q-19 -93 -19 -166q0 -97 41.5 -147t112.5 -50q173 0 338 334h45q-89 -219 -210 -342t-263 -123q-123 0 -195.5 83t-72.5 233q0 129 52 276t133.5 269t192.5 203t220 81
q90 0 143 -51t53 -135zM610 1038q-69 0 -139.5 -78t-122.5 -191t-84 -239q171 43 292.5 159.5t121.5 254.5q0 94 -68 94z" />
    <glyph glyph-name="Edotaccent" unicode="&#x116;" horiz-adv-x="1275" 
d="M1026 1825q-52 0 -87.5 35.5t-35.5 87.5t35 86t88 34t87 -34t34 -86q0 -53 -34.5 -88t-86.5 -35zM1417 1638l-112 -383h-60q41 158 18.5 224.5t-128.5 66.5h-261q-90 0 -116 -86l-172 -561h258q82 0 126.5 37.5t76.5 134.5h49l-135 -461h-52q32 116 13 165.5t-101 49.5
h-256l-184 -602q-25 -85 -13.5 -108t72.5 -23h285q122 0 207 65.5t184 245.5l62 -18l-201 -385h-1088l15 49q117 0 166 31.5t77 122.5l377 1233q34 91 9 122t-156 31l14 49h1026z" />
    <glyph glyph-name="edotaccent" unicode="&#x117;" horiz-adv-x="831" 
d="M735 1565q53 0 87 -34.5t34 -86.5q0 -53 -34.5 -88t-86.5 -35q-53 0 -88 35.5t-35 87.5t35 86.5t88 34.5zM819 930q0 -110 -84.5 -211t-214 -166.5t-272.5 -87.5q-19 -93 -19 -166q0 -97 41.5 -147t112.5 -50q173 0 338 334h45q-89 -219 -210 -342t-263 -123
q-123 0 -195.5 83t-72.5 233q0 129 52 276t133.5 269t192.5 203t220 81q90 0 143 -51t53 -135zM610 1038q-69 0 -139.5 -78t-122.5 -191t-84 -239q171 43 292.5 159.5t121.5 254.5q0 94 -68 94z" />
    <glyph glyph-name="Eogonek" unicode="&#x118;" horiz-adv-x="1275" 
d="M391 1638h1026l-112 -383h-60q41 158 18.5 224.5t-128.5 66.5h-261q-90 0 -116 -86l-172 -561h258q82 0 126.5 37.5t76.5 134.5h49l-135 -461h-52q32 116 13 165.5t-101 49.5h-256l-184 -602q-25 -85 -13.5 -108t72.5 -23h285q122 0 207 65.5t184 245.5l62 -18l-201 -385
h-2q-55 -24 -105 -54.5t-96.5 -69.5t-74 -87t-27.5 -96q0 -92 106 -92q64 0 168 49l10 -51q-124 -86 -247 -86q-85 0 -138 37t-53 112q0 55 28.5 105t70 85.5t98.5 66.5t102.5 48.5t93.5 32.5h-1022l15 49q117 0 166 31.5t77 122.5l377 1233q34 91 9 122t-156 31z" />
    <glyph glyph-name="eogonek" unicode="&#x119;" horiz-adv-x="831" 
d="M383 102q173 0 338 334h45q-69 -171 -158.5 -284.5t-193.5 -155.5q-53 -25 -101 -55t-91 -68t-68 -84t-25 -92q0 -92 107 -92q63 0 167 49l11 -51q-124 -86 -248 -86q-85 0 -138 37t-53 112q0 55 27 104.5t74 87t95 64.5t105 49q-117 6 -184 88t-67 228q0 129 52 276
t133.5 269t192.5 203t220 81q90 0 143 -51t53 -135q0 -110 -84.5 -211t-214 -166.5t-272.5 -87.5q-19 -93 -19 -166q0 -97 41.5 -147t112.5 -50zM610 1038q-69 0 -139.5 -78t-122.5 -191t-84 -239q171 43 292.5 159.5t121.5 254.5q0 94 -68 94z" />
    <glyph glyph-name="Ecaron" unicode="&#x11a;" horiz-adv-x="1275" 
d="M866 1780l-51 374h57l121 -268l299 268h68l-305 -374h-189zM391 1638h1026l-112 -383h-60q41 158 18.5 224.5t-128.5 66.5h-261q-90 0 -116 -86l-172 -561h258q82 0 126.5 37.5t76.5 134.5h49l-135 -461h-52q32 116 13 165.5t-101 49.5h-256l-184 -602
q-25 -85 -13.5 -108t72.5 -23h285q122 0 207 65.5t184 245.5l62 -18l-201 -385h-1088l15 49q117 0 166 31.5t77 122.5l377 1233q34 91 9 122t-156 31z" />
    <glyph glyph-name="ecaron" unicode="&#x11b;" horiz-adv-x="831" 
d="M575 1276l-51 375h58l120 -269l299 269h68l-305 -375h-189zM819 930q0 -110 -84.5 -211t-214 -166.5t-272.5 -87.5q-19 -93 -19 -166q0 -97 41.5 -147t112.5 -50q173 0 338 334h45q-89 -219 -210 -342t-263 -123q-123 0 -195.5 83t-72.5 233q0 129 52 276t133.5 269
t192.5 203t220 81q90 0 143 -51t53 -135zM610 1038q-69 0 -139.5 -78t-122.5 -191t-84 -239q171 43 292.5 159.5t121.5 254.5q0 94 -68 94z" />
    <glyph glyph-name="Gbreve" unicode="&#x11e;" horiz-adv-x="1470" 
d="M1399 2126h47q-31 -141 -127 -218t-221 -77q-101 0 -161 48t-60 138q0 53 20 109h45q-4 -12 -4 -43q0 -64 42.5 -89.5t135.5 -25.5q228 0 283 158zM1061 1577q-110 0 -217 -64t-192.5 -172.5t-151.5 -244.5t-102 -287.5t-36 -292.5q0 -209 85.5 -329.5t263.5 -120.5
q85 0 163 43.5t136 121.5l106 377q14 45 12 77t-31 52.5t-99 30.5t-193 10l16 49h658l-9 -49q-55 0 -82.5 -26t-52.5 -113l-137 -471q-111 -96 -249 -148.5t-283 -52.5q-141 0 -247.5 44t-171 124.5t-96.5 185.5t-32 234q0 154 46 315t132 302.5t198 253.5t255 177.5
t292 65.5q229 0 332 -149q25 -40 45 4l51 127l48 -6l-154 -568h-49q17 108 11 200t-32 158.5t-85 104t-148 37.5z" />
    <glyph glyph-name="gbreve" unicode="&#x11f;" horiz-adv-x="960" 
d="M700 1339q-101 0 -161 48.5t-60 138.5q0 50 21 108h45q-4 -12 -4 -43q0 -64 42.5 -89t135.5 -25q228 0 282 157h48q-31 -141 -127.5 -218t-221.5 -77zM1001 1120q82 0 82 -51q0 -31 -22 -55.5t-60 -24.5q-25 0 -74 17.5t-77 17.5q-17 0 -35 -6q62 -78 62 -197
q0 -187 -119 -336.5t-293 -169.5q-234 -29 -234 -102q0 -32 37 -57.5t135 -59.5l193 -69q128 -44 178.5 -91t50.5 -120q0 -89 -75 -156t-197 -100t-272 -33q-236 0 -378.5 75t-142.5 177q0 174 400 219q-129 58 -129 135q0 41 28 75t75.5 56.5t98.5 37t107 22.5
q-92 27 -146.5 103.5t-54.5 182.5q0 129 62 245.5t169 188.5t230 72q111 0 186 -65q51 33 110 51t105 18zM424 383q75 0 141 76t101.5 186.5t35.5 218.5q0 185 -110 185q-76 0 -142.5 -77.5t-102.5 -188t-36 -216.5q0 -184 113 -184zM516 -133l-258 90q-4 2 -13.5 5t-13.5 5
q-315 -43 -315 -178q0 -84 116.5 -134t289.5 -50q161 0 247 41.5t86 107.5q0 67 -139 113z" />
    <glyph glyph-name="Gdotaccent" unicode="&#x120;" horiz-adv-x="1470" 
d="M1114 1825q-52 0 -87.5 35.5t-35.5 87.5t35 86t88 34t87 -34t34 -86q0 -53 -34.5 -88t-86.5 -35zM1061 1577q-110 0 -217 -64t-192.5 -172.5t-151.5 -244.5t-102 -287.5t-36 -292.5q0 -209 85.5 -329.5t263.5 -120.5q85 0 163 43.5t136 121.5l106 377q14 45 12 77
t-31 52.5t-99 30.5t-193 10l16 49h658l-9 -49q-55 0 -82.5 -26t-52.5 -113l-137 -471q-111 -96 -249 -148.5t-283 -52.5q-141 0 -247.5 44t-171 124.5t-96.5 185.5t-32 234q0 154 46 315t132 302.5t198 253.5t255 177.5t292 65.5q229 0 332 -149q25 -40 45 4l51 127l48 -6
l-154 -568h-49q17 108 11 200t-32 158.5t-85 104t-148 37.5z" />
    <glyph glyph-name="gdotaccent" unicode="&#x121;" horiz-adv-x="960" 
d="M717 1333q-53 0 -88 35.5t-35 87.5t35 86.5t88 34.5t87 -34.5t34 -86.5q0 -53 -34.5 -88t-86.5 -35zM1001 1120q82 0 82 -51q0 -31 -22 -55.5t-60 -24.5q-25 0 -74 17.5t-77 17.5q-17 0 -35 -6q62 -78 62 -197q0 -187 -119 -336.5t-293 -169.5q-234 -29 -234 -102
q0 -32 37 -57.5t135 -59.5l193 -69q128 -44 178.5 -91t50.5 -120q0 -89 -75 -156t-197 -100t-272 -33q-236 0 -378.5 75t-142.5 177q0 174 400 219q-129 58 -129 135q0 41 28 75t75.5 56.5t98.5 37t107 22.5q-92 27 -146.5 103.5t-54.5 182.5q0 129 62 245.5t169 188.5
t230 72q111 0 186 -65q51 33 110 51t105 18zM424 383q75 0 141 76t101.5 186.5t35.5 218.5q0 185 -110 185q-76 0 -142.5 -77.5t-102.5 -188t-36 -216.5q0 -184 113 -184zM516 -133l-258 90q-4 2 -13.5 5t-13.5 5q-315 -43 -315 -178q0 -84 116.5 -134t289.5 -50
q161 0 247 41.5t86 107.5q0 67 -139 113z" />
    <glyph glyph-name="uni0122" unicode="&#x122;" horiz-adv-x="1470" 
d="M1061 1577q-110 0 -217 -64t-192.5 -172.5t-151.5 -244.5t-102 -287.5t-36 -292.5q0 -209 85.5 -329.5t263.5 -120.5q85 0 163 43.5t136 121.5l106 377q14 45 12 77t-31 52.5t-99 30.5t-193 10l16 49h658l-9 -49q-55 0 -82.5 -26t-52.5 -113l-137 -471
q-111 -96 -249 -148.5t-283 -52.5q-141 0 -247.5 44t-171 124.5t-96.5 185.5t-32 234q0 154 46 315t132 302.5t198 253.5t255 177.5t292 65.5q229 0 332 -149q25 -40 45 4l51 127l48 -6l-154 -568h-49q17 108 11 200t-32 158.5t-85 104t-148 37.5zM606 -152q48 0 79.5 -33
t31.5 -79q0 -81 -72.5 -146.5t-202.5 -95.5v49q67 15 124 56t57 75q0 17 -15 17q-5 0 -26 -13.5t-43 -13.5q-25 0 -40.5 18t-15.5 46q0 49 35 84.5t88 35.5z" />
    <glyph glyph-name="uni0123" unicode="&#x123;" horiz-adv-x="960" 
d="M723 1370q-48 0 -79.5 33.5t-31.5 79.5q0 81 72.5 146t202.5 95v-49q-66 -15 -123 -56t-57 -75q0 -16 16 -16q4 0 24.5 13t43.5 13q25 0 40 -17.5t15 -45.5q0 -49 -35 -85t-88 -36zM1001 1120q82 0 82 -51q0 -31 -22 -55.5t-60 -24.5q-25 0 -74 17.5t-77 17.5
q-17 0 -35 -6q62 -78 62 -197q0 -187 -119 -336.5t-293 -169.5q-234 -29 -234 -102q0 -32 37 -57.5t135 -59.5l193 -69q128 -44 178.5 -91t50.5 -120q0 -89 -75 -156t-197 -100t-272 -33q-236 0 -378.5 75t-142.5 177q0 174 400 219q-129 58 -129 135q0 41 28 75t75.5 56.5
t98.5 37t107 22.5q-92 27 -146.5 103.5t-54.5 182.5q0 129 62 245.5t169 188.5t230 72q111 0 186 -65q51 33 110 51t105 18zM424 383q75 0 141 76t101.5 186.5t35.5 218.5q0 185 -110 185q-76 0 -142.5 -77.5t-102.5 -188t-36 -216.5q0 -184 113 -184zM516 -133l-258 90
q-4 2 -13.5 5t-13.5 5q-315 -43 -315 -178q0 -84 116.5 -134t289.5 -50q161 0 247 41.5t86 107.5q0 67 -139 113z" />
    <glyph glyph-name="Hbar" unicode="&#x126;" horiz-adv-x="1576" 
d="M1849 1638l-12 -49q-114 0 -162 -31t-76 -122l-45 -148h181l-19 -65h-182l-313 -1020q-33 -91 -7.5 -122.5t154.5 -31.5l-14 -49h-604l12 49q109 0 157 31.5t76 122.5l189 618h-621l-190 -618q-32 -91 -9 -122.5t146 -31.5l-14 -49h-607l15 49q117 0 166 31.5t77 122.5
l312 1020h-219l20 65h219l45 148q34 91 9 122t-156 31l14 49h606l-14 -49q-109 0 -156 -31t-75 -122l-45 -148h620l45 148q33 91 10 122t-145 31l14 49h598zM590 909h620l97 314h-621z" />
    <glyph glyph-name="hbar" unicode="&#x127;" horiz-adv-x="1087" 
d="M1001 371h48q-30 -73 -67 -138t-84.5 -123.5t-105.5 -93t-118 -34.5q-146 0 -146 131q0 17 5.5 37.5t11.5 36t21 50.5l24 56q24 61 63.5 158t63 154.5t48.5 123.5t36.5 108t11.5 66q0 66 -43 66q-26 0 -62.5 -26t-92 -95t-118 -174t-144.5 -279.5t-167 -394.5h-200
l413 1270h-161l16 55h162l37 111q30 86 5 120.5t-130 34.5l12 47q317 0 365 60l24 -15l-119 -358h303l-18 -55h-303l-270 -813h20q157 341 286 499t251 158q70 0 108.5 -40.5t38.5 -108.5q0 -53 -28 -142.5t-57 -159.5t-86.5 -199t-78.5 -179q-47 -123 -47 -146
q0 -24 8 -35.5t29 -11.5q54 0 117 79t118 200z" />
    <glyph glyph-name="Imacron" unicode="&#x12a;" horiz-adv-x="729" 
d="M473 1888l29 97h573l-26 -97h-576zM147 203l377 1233q34 91 9 122t-156 31l14 49h613l-15 -49q-113 0 -161 -31t-76 -122l-377 -1233q-34 -91 -8.5 -122.5t155.5 -31.5l-14 -49h-619l15 49q117 0 166 31.5t77 122.5z" />
    <glyph glyph-name="imacron" unicode="&#x12b;" horiz-adv-x="641" 
d="M260 1384l29 97h573l-26 -97h-576zM131 291l176 495q53 144 53 181q0 34 -26 34q-43 0 -105 -66.5t-125 -170.5h-49q76 147 183.5 246.5t214.5 99.5q53 0 80.5 -32.5t27.5 -80.5q0 -54 -59 -215l-178 -497q-43 -121 -43 -146t7.5 -36t28.5 -11q54 0 117.5 79t118.5 200
h47q-30 -73 -67 -138t-84.5 -123.5t-105.5 -93t-118 -34.5q-145 0 -145 131q0 14 2 27.5t8 33t10 32t14.5 41t16.5 44.5z" />
    <glyph glyph-name="Iogonek" unicode="&#x12e;" horiz-adv-x="729" 
d="M1004 1638l-15 -49q-113 0 -161 -31t-76 -122l-377 -1233q-34 -91 -8.5 -122.5t155.5 -31.5l-14 -49h-102q-55 -24 -105 -54.5t-96.5 -69.5t-74.5 -87t-28 -96q0 -92 107 -92q64 0 168 49l10 -51q-124 -86 -248 -86q-85 0 -137.5 36.5t-52.5 112.5q0 55 28.5 105t70 85.5
t98.5 66.5t102.5 48.5t93.5 32.5h-453l15 49q117 0 166 31.5t77 122.5l377 1233q34 91 9 122t-156 31l14 49h613z" />
    <glyph glyph-name="iogonek" unicode="&#x12f;" horiz-adv-x="641" 
d="M557 1565q53 0 87 -34.5t34 -86.5q0 -53 -34.5 -88t-86.5 -35q-53 0 -88 35.5t-35 87.5t35 86.5t88 34.5zM317 92q54 0 117.5 79t118.5 200h47q-54 -134 -131.5 -238.5t-169.5 -138.5q-71 -34 -129.5 -75t-101.5 -100t-43 -118q0 -92 106 -92q64 0 168 49l10 -51
q-124 -86 -248 -86q-85 0 -137.5 36.5t-52.5 112.5q0 58 29.5 109.5t80.5 90t102 65.5t110 49q-113 13 -113 129q0 14 2 27.5t8 33t10 32t14.5 41t16.5 44.5l176 495q53 144 53 181q0 34 -26 34q-43 0 -105 -66.5t-125 -170.5h-49q76 147 183.5 246.5t214.5 99.5
q53 0 80.5 -32.5t27.5 -80.5q0 -54 -59 -215l-178 -497q-43 -121 -43 -146t7.5 -36t28.5 -11z" />
    <glyph glyph-name="Idotaccent" unicode="&#x130;" horiz-adv-x="729" 
d="M770 1825q-52 0 -87.5 35.5t-35.5 87.5t35 86t88 34t87 -34t34 -86q0 -53 -34.5 -88t-86.5 -35zM147 203l377 1233q34 91 9 122t-156 31l14 49h613l-15 -49q-113 0 -161 -31t-76 -122l-377 -1233q-34 -91 -8.5 -122.5t155.5 -31.5l-14 -49h-619l15 49q117 0 166 31.5
t77 122.5z" />
    <glyph glyph-name="dotlessi" unicode="&#x131;" horiz-adv-x="641" 
d="M131 291l176 495q53 144 53 181q0 34 -26 34q-43 0 -105 -66.5t-125 -170.5h-49q76 147 183.5 246.5t214.5 99.5q53 0 80.5 -32.5t27.5 -80.5q0 -54 -59 -215l-178 -497q-43 -121 -43 -146t7.5 -36t28.5 -11q54 0 117.5 79t118.5 200h47q-30 -73 -67 -138t-84.5 -123.5
t-105.5 -93t-118 -34.5q-145 0 -145 131q0 14 2 27.5t8 33t10 32t14.5 41t16.5 44.5z" />
    <glyph glyph-name="uni0136" unicode="&#x136;" horiz-adv-x="1480" 
d="M147 203l377 1233q34 91 9 122t-156 31l14 49h613l-15 -49q-113 0 -161 -31t-76 -122l-377 -1233q-34 -91 -8.5 -122.5t155.5 -31.5l-14 -49h-619l15 49q117 0 166 31.5t77 122.5zM836 973l303 -776q34 -89 84 -118.5t153 -29.5l-16 -49h-633l10 49q91 0 133 16t45 49
t-18 85l-276 696l555 506q100 92 100 137q0 28 -28 39.5t-103 11.5l14 49h555l-12 -49q-93 0 -162 -28.5t-160 -106.5zM553 -152q48 0 79.5 -33t31.5 -79q0 -81 -72.5 -146.5t-202.5 -95.5v49q67 15 123.5 56t56.5 75q0 17 -14 17q-5 0 -26.5 -13.5t-43.5 -13.5
q-25 0 -40 18t-15 46q0 49 35 84.5t88 35.5z" />
    <glyph glyph-name="uni0137" unicode="&#x137;" horiz-adv-x="1101" 
d="M786 115q96 0 215 243h48q-37 -82 -73 -143.5t-82 -117t-100 -85.5t-114 -30q-99 0 -143 91t-52 267q-7 100 -2 180q84 21 154 58t114 78.5t74.5 87.5t43 84.5t12.5 68.5q0 68 -54 68q-29 0 -72.5 -25t-110 -93.5t-136.5 -172t-156.5 -279t-167.5 -395.5h-198l467 1436
q30 86 5 120.5t-130 34.5l12 47q313 0 365 60l26 -15l-405 -1226h14q146 324 304.5 488.5t287.5 164.5q71 0 109 -41.5t38 -101.5q0 -50 -27 -111.5t-76 -123.5t-128.5 -116.5t-173.5 -83.5q0 -32 16 -200q11 -114 32 -165.5t64 -51.5zM346 -152q48 0 79.5 -33t31.5 -79
q0 -81 -72.5 -146.5t-202.5 -95.5v49q67 15 123.5 56t56.5 75q0 17 -14 17q-5 0 -26 -13.5t-43 -13.5q-25 0 -40.5 18t-15.5 46q0 49 35 84.5t88 35.5z" />
    <glyph glyph-name="Lacute" unicode="&#x139;" horiz-adv-x="1208" 
d="M770 1780h-65l233 374h195zM1014 1638l-15 -49q-117 0 -166 -31t-77 -122l-369 -1211q-24 -86 -8.5 -109.5t86.5 -23.5h244q118 0 193 65t183 263l60 -19l-209 -401h-1047l15 49q118 0 168 31.5t78 122.5l376 1233q33 91 7.5 122t-156.5 31l14 49h623z" />
    <glyph glyph-name="lacute" unicode="&#x13a;" horiz-adv-x="585" 
d="M659 1798h-65l233 375h195zM696 1698l25 -15l-453 -1396q-39 -115 -39 -148q0 -24 8 -35.5t29 -11.5q54 0 116.5 78.5t119.5 200.5h47q-30 -73 -67.5 -138.5t-85 -123.5t-105.5 -92.5t-117 -34.5q-145 0 -145 131q0 53 45 180l368 1143q32 86 7 120.5t-130 34.5l13 47
q172 0 250.5 14t113.5 46z" />
    <glyph glyph-name="uni013B" unicode="&#x13b;" horiz-adv-x="1208" 
d="M1014 1638l-15 -49q-117 0 -166 -31t-77 -122l-369 -1211q-24 -86 -8.5 -109.5t86.5 -23.5h244q118 0 193 65t183 263l60 -19l-209 -401h-1047l15 49q118 0 168 31.5t78 122.5l376 1233q33 91 7.5 122t-156.5 31l14 49h623zM469 -152q46 0 73.5 -33.5t22.5 -78.5
q-9 -81 -88.5 -146.5t-212.5 -95.5l6 49q68 15 129.5 56t65.5 75q0 17 -14 17q-4 0 -26.5 -13.5t-45.5 -13.5q-24 0 -37 18t-10 46q5 49 44 84.5t93 35.5z" />
    <glyph glyph-name="uni013C" unicode="&#x13c;" horiz-adv-x="585" 
d="M696 1698l25 -15l-453 -1396q-39 -115 -39 -148q0 -24 8 -35.5t29 -11.5q54 0 116.5 78.5t119.5 200.5h47q-30 -73 -67.5 -138.5t-85 -123.5t-105.5 -92.5t-117 -34.5q-145 0 -145 131q0 53 45 180l368 1143q32 86 7 120.5t-130 34.5l13 47q172 0 250.5 14t113.5 46z
M111 -152q48 0 79 -33t31 -79q0 -81 -72 -146.5t-202 -95.5v49q67 15 123.5 56t56.5 75q0 17 -14 17q-5 0 -26.5 -13.5t-43.5 -13.5q-25 0 -40 18t-15 46q0 49 35 84.5t88 35.5z" />
    <glyph glyph-name="Lcaron" unicode="&#x13d;" horiz-adv-x="1208" 
d="M1184 1288h-64l123 393h170zM1014 1638l-15 -49q-117 0 -166 -31t-77 -122l-369 -1211q-24 -86 -8.5 -109.5t86.5 -23.5h244q118 0 193 65t183 263l60 -19l-209 -401h-1047l15 49q118 0 168 31.5t78 122.5l376 1233q33 91 7.5 122t-156.5 31l14 49h623z" />
    <glyph glyph-name="lcaron" unicode="&#x13e;" horiz-adv-x="585" 
d="M696 1698l25 -15l-453 -1396q-39 -115 -39 -148q0 -24 8 -35.5t29 -11.5q54 0 116.5 78.5t119.5 200.5h47q-30 -73 -67.5 -138.5t-85 -123.5t-105.5 -92.5t-117 -34.5q-145 0 -145 131q0 53 45 180l368 1143q32 86 7 120.5t-130 34.5l13 47q172 0 250.5 14t113.5 46z
M827 1290h-63l123 393h170z" />
    <glyph glyph-name="Lslash" unicode="&#x141;" horiz-adv-x="1226" 
d="M1104 420l59 -19l-209 -401h-1046l14 49q117 0 166.5 31.5t77.5 122.5l147 481l-200 -96l-27 55l252 121l207 672q32 91 6.5 122t-156.5 31l15 49h622l-14 -49q-117 0 -166.5 -31t-77.5 -122l-164 -541l420 203l29 -54l-473 -229l-180 -590q-13 -44 -16 -69.5t7 -40
t29.5 -19t56.5 -4.5h244q118 0 192.5 64.5t184.5 263.5z" />
    <glyph glyph-name="lslash" unicode="&#x142;" horiz-adv-x="589" 
d="M688 948l-237 -96l-183 -565q-39 -115 -39 -148q0 -24 8 -35.5t29 -11.5q54 0 116.5 78.5t119.5 200.5h47q-30 -73 -67.5 -138.5t-85 -123.5t-105.5 -92.5t-117 -34.5q-145 0 -145 131q0 53 45 180l149 465l-186 -76l-19 47l226 92l198 615q32 86 7 120.5t-130 34.5
l13 47q172 0 250.5 14t113.5 46l25 -15l-250 -770l199 82z" />
    <glyph glyph-name="Nacute" unicode="&#x143;" horiz-adv-x="1513" 
d="M1317 2154h194l-362 -374h-66zM1808 1638l-14 -49q-117 0 -166.5 -31t-77.5 -122l-444 -1456h-129l-395 1361l-344 -1138q-21 -59 -16 -93.5t46 -47.5t142 -13l-17 -49h-504l15 49q117 0 166 31.5t77 122.5l390 1284q-25 61 -57 81.5t-89 20.5l10 49h334l375 -1296h14
l336 1094q21 59 15.5 93t-46.5 47t-143 13l17 49h505z" />
    <glyph glyph-name="nacute" unicode="&#x144;" horiz-adv-x="1142" 
d="M813 1276h-65l233 375h195zM238 0h-201l270 786q53 144 53 181q0 34 -26 34q-43 0 -105 -66.5t-125 -170.5h-49q76 147 183.5 246.5t214.5 99.5q53 0 80.5 -32.5t27.5 -80.5q0 -25 -11 -64t-20 -62t-34 -87l-121 -327h20q164 346 289.5 501.5t247.5 155.5q69 0 107 -40.5
t38 -108.5q0 -53 -28 -142.5t-57 -159.5t-86.5 -199t-78.5 -179q-4 -13 -18 -49t-21.5 -60t-7.5 -37q0 -24 8 -35.5t29 -11.5q54 0 117.5 79t118.5 200h49q-31 -74 -68.5 -138.5t-85 -123t-105.5 -93t-118 -34.5q-143 0 -143 131q0 17 5 37.5t11 36.5t20.5 50t22.5 56
q20 49 64 156.5t64 157.5t46.5 120.5t37.5 111t11 64.5q0 66 -43 66q-26 0 -62 -26t-91 -95t-117.5 -174t-144.5 -279.5t-168 -394.5z" />
    <glyph glyph-name="uni0145" unicode="&#x145;" horiz-adv-x="1513" 
d="M1808 1638l-14 -49q-117 0 -166.5 -31t-77.5 -122l-444 -1456h-129l-395 1361l-344 -1138q-21 -59 -16 -93.5t46 -47.5t142 -13l-17 -49h-504l15 49q117 0 166 31.5t77 122.5l390 1284q-25 61 -57 81.5t-89 20.5l10 49h334l375 -1296h14l336 1094q21 59 15.5 93t-46.5 47
t-143 13l17 49h505zM606 -152q48 0 79.5 -33t31.5 -79q0 -81 -72.5 -146.5t-202.5 -95.5v49q67 15 124 56t57 75q0 17 -15 17q-5 0 -26 -13.5t-43 -13.5q-25 0 -40.5 18t-15.5 46q0 49 35 84.5t88 35.5z" />
    <glyph glyph-name="uni0146" unicode="&#x146;" horiz-adv-x="1142" 
d="M238 0h-201l270 786q53 144 53 181q0 34 -26 34q-43 0 -105 -66.5t-125 -170.5h-49q76 147 183.5 246.5t214.5 99.5q53 0 80.5 -32.5t27.5 -80.5q0 -25 -11 -64t-20 -62t-34 -87l-121 -327h20q164 346 289.5 501.5t247.5 155.5q69 0 107 -40.5t38 -108.5
q0 -53 -28 -142.5t-57 -159.5t-86.5 -199t-78.5 -179q-4 -13 -18 -49t-21.5 -60t-7.5 -37q0 -24 8 -35.5t29 -11.5q54 0 117.5 79t118.5 200h49q-31 -74 -68.5 -138.5t-85 -123t-105.5 -93t-118 -34.5q-143 0 -143 131q0 17 5 37.5t11 36.5t20.5 50t22.5 56q20 49 64 156.5
t64 157.5t46.5 120.5t37.5 111t11 64.5q0 66 -43 66q-26 0 -62 -26t-91 -95t-117.5 -174t-144.5 -279.5t-168 -394.5zM395 -152q48 0 79.5 -33t31.5 -79q0 -81 -72.5 -146.5t-202.5 -95.5v49q67 15 124 56t57 75q0 17 -15 17q-5 0 -26 -13.5t-43 -13.5q-25 0 -40.5 18
t-15.5 46q0 49 35 84.5t88 35.5z" />
    <glyph glyph-name="Ncaron" unicode="&#x147;" horiz-adv-x="1513" 
d="M985 1780l-51 374h57l121 -268l299 268h68l-305 -374h-189zM1808 1638l-14 -49q-117 0 -166.5 -31t-77.5 -122l-444 -1456h-129l-395 1361l-344 -1138q-21 -59 -16 -93.5t46 -47.5t142 -13l-17 -49h-504l15 49q117 0 166 31.5t77 122.5l390 1284q-25 61 -57 81.5
t-89 20.5l10 49h334l375 -1296h14l336 1094q21 59 15.5 93t-46.5 47t-143 13l17 49h505z" />
    <glyph glyph-name="ncaron" unicode="&#x148;" horiz-adv-x="1142" 
d="M649 1276l-51 375h57l121 -269l299 269h68l-305 -375h-189zM817 92q54 0 117.5 79t118.5 200h49q-31 -74 -68.5 -138.5t-85 -123t-105.5 -93t-118 -34.5q-143 0 -143 131q0 17 5 37.5t11 36.5t20.5 50t22.5 56q20 49 64 156.5t64 157.5t46.5 120.5t37.5 111t11 64.5
q0 66 -43 66q-26 0 -62 -26t-91 -95t-117.5 -174t-144.5 -279.5t-168 -394.5h-201l270 786q53 144 53 181q0 34 -26 34q-43 0 -105 -66.5t-125 -170.5h-49q76 147 183.5 246.5t214.5 99.5q53 0 80.5 -32.5t27.5 -80.5q0 -25 -11 -64t-20 -62t-34 -87l-121 -327h20
q164 346 289.5 501.5t247.5 155.5q69 0 107 -40.5t38 -108.5q0 -53 -28 -142.5t-57 -159.5t-86.5 -199t-78.5 -179q-4 -13 -18 -49t-21.5 -60t-7.5 -37q0 -24 8 -35.5t29 -11.5z" />
    <glyph glyph-name="Eng" unicode="&#x14a;" horiz-adv-x="1513" 
d="M1808 1638l-14 -49q-117 0 -166.5 -31t-77.5 -122l-407 -1334h2l-47 -153q-28 -88 -54 -150.5t-61.5 -118.5t-78 -89.5t-100 -52.5t-130.5 -19q-104 0 -156.5 26t-52.5 70q0 47 35.5 86t83.5 39q34 0 61 -21t42 -46.5t40.5 -46.5t56.5 -21q65 0 119 83.5t119 291.5h-45
l-395 1361l-344 -1138q-21 -59 -16 -93.5t46 -47.5t142 -13l-17 -49h-504l15 49q117 0 166 31.5t77 122.5l390 1284q-25 61 -57 81.5t-89 20.5l10 49h334l375 -1296h14l336 1094q21 59 15.5 93t-46.5 47t-143 13l17 49h505z" />
    <glyph glyph-name="eng" unicode="&#x14b;" horiz-adv-x="1105" 
d="M141 -461q-55 0 -82.5 23t-27.5 61q0 49 36.5 84t86.5 35q41 0 91 -38t85 -38q61 0 145.5 169t210.5 503q67 179 97.5 262.5t55.5 171t25 131.5q0 66 -43 66q-26 0 -62 -26t-91 -95t-117.5 -174t-144.5 -279.5t-168 -394.5h-201l270 786q53 144 53 181q0 34 -26 34
q-43 0 -105 -66.5t-125 -170.5h-49q76 147 183.5 246.5t214.5 99.5q53 0 80.5 -32.5t27.5 -80.5q0 -25 -11 -64t-20 -62t-34 -87l-121 -327h20q164 346 289.5 501.5t247.5 155.5q69 0 107 -40.5t38 -108.5q0 -79 -45.5 -227.5t-138.5 -395.5q-315 -803 -752 -803z" />
    <glyph glyph-name="Omacron" unicode="&#x14c;" horiz-adv-x="1404" 
d="M840 1888l28 97h574l-27 -97h-575zM555 -33q-90 0 -164 27.5t-125.5 77t-86.5 118t-51.5 149.5t-16.5 173q0 165 48 335t135 316t198.5 261t247 181t272.5 66q112 0 198 -42t138.5 -117t79 -172t26.5 -212q0 -166 -48 -336.5t-134.5 -316.5t-197.5 -261t-246.5 -181
t-272.5 -66zM584 53q112 0 231 114.5t208 286.5t146.5 381t57.5 390q0 362 -244 362q-90 0 -185.5 -74t-175.5 -198t-144.5 -274.5t-101 -316t-36.5 -310.5q0 -361 244 -361z" />
    <glyph glyph-name="omacron" unicode="&#x14d;" horiz-adv-x="983" 
d="M483 1384l29 97h573l-26 -97h-576zM342 -29q-136 0 -219.5 96t-83.5 257q0 143 51.5 287.5t133.5 255t192 180t221 69.5q137 0 221 -97.5t84 -258.5q0 -190 -85.5 -373.5t-226 -299.5t-288.5 -116zM358 59q85 0 178 122t153.5 302.5t60.5 341.5q0 97 -31.5 151t-95.5 54
q-85 0 -177.5 -123.5t-152.5 -305.5t-60 -341q0 -201 125 -201z" />
    <glyph glyph-name="Ohungarumlaut" unicode="&#x150;" horiz-adv-x="1404" 
d="M999 1780h-63l221 374h141zM1208 1780h-65l252 374h149zM555 -33q-90 0 -164 27.5t-125.5 77t-86.5 118t-51.5 149.5t-16.5 173q0 165 48 335t135 316t198.5 261t247 181t272.5 66q112 0 198 -42t138.5 -117t79 -172t26.5 -212q0 -166 -48 -336.5t-134.5 -316.5
t-197.5 -261t-246.5 -181t-272.5 -66zM584 53q112 0 231 114.5t208 286.5t146.5 381t57.5 390q0 362 -244 362q-90 0 -185.5 -74t-175.5 -198t-144.5 -274.5t-101 -316t-36.5 -310.5q0 -361 244 -361z" />
    <glyph glyph-name="ohungarumlaut" unicode="&#x151;" horiz-adv-x="983" 
d="M643 1276h-63l221 375h141zM852 1276h-66l252 375h150zM342 -29q-136 0 -219.5 96t-83.5 257q0 143 51.5 287.5t133.5 255t192 180t221 69.5q137 0 221 -97.5t84 -258.5q0 -190 -85.5 -373.5t-226 -299.5t-288.5 -116zM358 59q85 0 178 122t153.5 302.5t60.5 341.5
q0 97 -31.5 151t-95.5 54q-85 0 -177.5 -123.5t-152.5 -305.5t-60 -341q0 -201 125 -201z" />
    <glyph glyph-name="OE" unicode="&#x152;" horiz-adv-x="1986" 
d="M590 -16q-103 0 -184 26t-135.5 72.5t-89.5 114t-50.5 146t-15.5 173.5q0 136 31.5 274.5t89 265.5t143.5 238t189.5 193t232.5 129t268 47q53 0 166.5 -12.5t194.5 -12.5h700l-113 -383h-61q41 158 19 224.5t-128 66.5h-260q-91 0 -117 -86l-172 -561h258q81 0 125 37.5
t78 134.5h49l-135 -461h-51q32 116 13 165.5t-101 49.5h-258l-182 -602q-25 -78 -13 -104.5t72 -26.5h285q121 0 206.5 65.5t184.5 245.5l61 -18l-200 -385h-676q-86 0 -223 -8t-201 -8zM635 57q180 0 225 146l377 1233q25 80 -16 119.5t-134 39.5q-106 0 -208 -54
t-183 -145.5t-149.5 -211.5t-114 -252t-71 -268t-25.5 -258q0 -173 66.5 -261t232.5 -88z" />
    <glyph glyph-name="oe" unicode="&#x153;" horiz-adv-x="1437" 
d="M991 102q88 0 175.5 88t162.5 246h45q-86 -217 -209.5 -341t-259.5 -124q-92 0 -151.5 55.5t-79.5 157.5q-77 -99 -170.5 -156t-186.5 -57q-126 0 -200 96t-74 261q0 191 80 374t210 298t267 116q114 1 181 -67.5t87 -188.5q85 117 186 185.5t201 68.5q87 0 138 -53
t51 -146q0 -106 -87 -204t-219 -161.5t-276 -84.5q-16 -85 -16 -150q0 -100 38 -156.5t107 -56.5zM358 59q83 0 169.5 123t141 303t54.5 340q0 209 -121 209q-85 0 -172.5 -124t-142 -304t-54.5 -340q0 -207 125 -207zM1231 1034q-72 0 -145 -77t-125.5 -189.5t-83.5 -237.5
q177 41 301.5 153t124.5 247q0 104 -72 104z" />
    <glyph glyph-name="Racute" unicode="&#x154;" horiz-adv-x="1361" 
d="M1020 1780h-66l234 374h194zM-111 0l15 49q117 0 166 31.5t77 122.5l377 1233q34 91 9 122t-156 31l14 49h547q210 0 324 -83.5t114 -245.5q0 -140 -86.5 -248t-237 -164t-335.5 -51l-6 -15q86 -9 144.5 -66t90.5 -175l88 -293q21 -74 39 -116.5t48 -75t71.5 -44.5
t105.5 -12l-14 -49h-162q-64 0 -106.5 9.5t-83.5 37t-70.5 82.5t-52.5 143l-107 390q-24 76 -59.5 109t-87.5 38l-182 -606q-34 -91 -4 -122.5t176 -31.5l-17 -49h-639zM764 1489l-174 -569q18 -2 55 -2q150 3 265 49.5t182 137t67 214.5q0 237 -268 237q-107 0 -127 -67z
" />
    <glyph glyph-name="racute" unicode="&#x155;" horiz-adv-x="858" 
d="M774 1276h-65l233 375h195zM254 0h-203l260 784q49 145 49 183q0 34 -26 34q-43 0 -105 -66.5t-125 -170.5h-49q76 147 183.5 246.5t214.5 99.5q53 0 80.5 -32.5t27.5 -80.5q0 -25 -11 -64t-20 -62t-34 -87l-121 -327h18q253 659 522 659q76 0 76 -69q0 -48 -33.5 -88.5
t-74.5 -40.5q-20 0 -51.5 11t-53.5 11q-39 0 -87 -43t-113 -142t-149 -292.5t-175 -462.5z" />
    <glyph glyph-name="uni0156" unicode="&#x156;" horiz-adv-x="1361" 
d="M-111 0l15 49q117 0 166 31.5t77 122.5l377 1233q34 91 9 122t-156 31l14 49h547q210 0 324 -83.5t114 -245.5q0 -140 -86.5 -248t-237 -164t-335.5 -51l-6 -15q86 -9 144.5 -66t90.5 -175l88 -293q21 -74 39 -116.5t48 -75t71.5 -44.5t105.5 -12l-14 -49h-162
q-64 0 -106.5 9.5t-83.5 37t-70.5 82.5t-52.5 143l-107 390q-24 76 -59.5 109t-87.5 38l-182 -606q-34 -91 -4 -122.5t176 -31.5l-17 -49h-639zM764 1489l-174 -569q18 -2 55 -2q150 3 265 49.5t182 137t67 214.5q0 237 -268 237q-107 0 -127 -67zM674 -152q48 0 79 -33
t31 -79q0 -81 -72 -146.5t-202 -95.5v49q67 15 123.5 56t56.5 75q0 17 -14 17q-5 0 -26.5 -13.5t-43.5 -13.5q-25 0 -40 18t-15 46q0 49 35 84.5t88 35.5z" />
    <glyph glyph-name="uni0157" unicode="&#x157;" horiz-adv-x="858" 
d="M254 0h-203l260 784q49 145 49 183q0 34 -26 34q-43 0 -105 -66.5t-125 -170.5h-49q76 147 183.5 246.5t214.5 99.5q53 0 80.5 -32.5t27.5 -80.5q0 -25 -11 -64t-20 -62t-34 -87l-121 -327h18q253 659 522 659q76 0 76 -69q0 -48 -33.5 -88.5t-74.5 -40.5q-20 0 -51.5 11
t-53.5 11q-39 0 -87 -43t-113 -142t-149 -292.5t-175 -462.5zM102 -152q48 0 79.5 -33t31.5 -79q0 -81 -72 -146.5t-202 -95.5v49q67 15 123.5 56t56.5 75q0 17 -15 17q-5 0 -26 -13.5t-43 -13.5q-25 0 -40 18t-15 46q0 49 34.5 84.5t87.5 35.5z" />
    <glyph glyph-name="Rcaron" unicode="&#x158;" horiz-adv-x="1361" 
d="M856 1780l-51 374h57l121 -268l299 268h68l-306 -374h-188zM946 590l88 -293q21 -74 39 -116.5t48 -75t71.5 -44.5t105.5 -12l-14 -49h-162q-64 0 -106.5 9.5t-83.5 37t-70.5 82.5t-52.5 143l-107 390q-24 76 -59.5 109t-87.5 38l-182 -606q-34 -91 -4 -122.5t176 -31.5
l-17 -49h-639l15 49q117 0 166 31.5t77 122.5l377 1233q34 91 9 122t-156 31l14 49h547q210 0 324 -83.5t114 -245.5q0 -140 -86.5 -248t-237 -164t-335.5 -51l-6 -15q86 -9 144.5 -66t90.5 -175zM645 918q150 3 265 49.5t182 137t67 214.5q0 237 -268 237q-107 0 -127 -67
l-174 -569q18 -2 55 -2z" />
    <glyph glyph-name="rcaron" unicode="&#x159;" horiz-adv-x="858" 
d="M608 1276l-51 375h57l121 -269l299 269h68l-305 -375h-189zM915 1116q76 0 76 -69q0 -48 -33.5 -88.5t-74.5 -40.5q-20 0 -51.5 11t-53.5 11q-39 0 -87 -43t-113 -142t-149 -292.5t-175 -462.5h-203l260 784q49 145 49 183q0 34 -26 34q-43 0 -105 -66.5t-125 -170.5h-49
q76 147 183.5 246.5t214.5 99.5q53 0 80.5 -32.5t27.5 -80.5q0 -25 -11 -64t-20 -62t-34 -87l-121 -327h18q253 659 522 659z" />
    <glyph glyph-name="Sacute" unicode="&#x15a;" horiz-adv-x="1028" 
d="M885 1780h-66l234 374h194zM487 -18q-190 0 -342 159q-44 44 -69 -26l-39 -115h-57l147 557h49q-18 -87 -3 -172t50.5 -152.5t100 -109t145.5 -41.5q67 0 118 24.5t80 65t43.5 87t14.5 97.5q0 95 -45.5 184.5t-138.5 215.5l-95 135q-69 96 -104 174.5t-35 175.5
q0 85 30.5 162t86 137t141 95.5t189.5 35.5q95 0 167.5 -34t139.5 -107q33 -33 47 6l43 102h51l-131 -479h-49q27 199 -44.5 308.5t-207.5 109.5q-125 0 -191.5 -76.5t-66.5 -187.5q0 -44 9 -83t33 -82t39 -65.5t52 -74.5l82 -117q5 -7 30 -41t32.5 -46t30 -44.5t31.5 -50
t26 -49.5t25 -55.5t17.5 -54t13 -60t3.5 -60.5q0 -89 -29.5 -168.5t-84 -142.5t-141.5 -100t-194 -37z" />
    <glyph glyph-name="sacute" unicode="&#x15b;" horiz-adv-x="753" 
d="M625 1276h-66l234 375h194zM272 -29q-121 0 -210 63t-89 148q0 41 25.5 66.5t62.5 25.5q29 0 44.5 -18.5t31.5 -65.5q29 -75 68 -110t100 -35q68 0 104.5 45.5t36.5 120.5q0 53 -21.5 99t-66.5 110l-55 86q-66 98 -93.5 158.5t-27.5 130.5q0 142 106 233.5t257 91.5
q113 0 178 -52t65 -112q0 -40 -26.5 -66t-61.5 -26q-30 0 -45.5 20t-27.5 62q-17 49 -46.5 76t-84.5 27q-63 0 -103.5 -41.5t-40.5 -114.5q0 -89 92 -223l52 -84q48 -74 68 -109t36 -82t16 -94q0 -140 -98.5 -235t-245.5 -95z" />
    <glyph glyph-name="Scedilla" unicode="&#x15e;" horiz-adv-x="1028" 
d="M1108 1536l43 102h51l-131 -479h-49q27 199 -44.5 308.5t-207.5 109.5q-125 0 -191.5 -76.5t-66.5 -187.5q0 -44 9 -83t33 -82t39 -65.5t52 -74.5l82 -117q5 -7 30 -41t32.5 -46t30 -44.5t31.5 -50t26 -49.5t25 -55.5t17.5 -54t13 -60t3.5 -60.5q0 -89 -29.5 -168.5
t-84 -142.5t-141.5 -100t-194 -37q-33 0 -49 2l-39 -82q77 -2 126.5 -38.5t49.5 -107.5q0 -96 -98.5 -164.5t-269.5 -68.5q-69 0 -133 12l22 47q25 -2 76 -2q127 0 190.5 52t63.5 120q0 92 -133 92l74 154q-117 33 -222 143q-44 44 -69 -26l-39 -115h-57l147 557h49
q-18 -87 -3 -172t50.5 -152.5t100 -109t145.5 -41.5q67 0 118 24.5t80 65t43.5 87t14.5 97.5q0 95 -45.5 184.5t-138.5 215.5l-95 135q-69 96 -104 174.5t-35 175.5q0 85 30.5 162t86 137t141 95.5t189.5 35.5q95 0 167.5 -34t139.5 -107q33 -33 47 6z" />
    <glyph glyph-name="scedilla" unicode="&#x15f;" horiz-adv-x="753" 
d="M545 1120q113 0 178 -52t65 -112q0 -40 -26.5 -66t-61.5 -26q-30 0 -45.5 20t-27.5 62q-17 49 -46.5 76t-84.5 27q-63 0 -103.5 -41.5t-40.5 -114.5q0 -89 92 -223l52 -84q48 -74 68 -109t36 -82t16 -94q0 -139 -96.5 -234t-240.5 -96l-31 -63q77 -2 126.5 -38.5
t49.5 -107.5q0 -96 -99 -164.5t-270 -68.5q-68 0 -133 12l23 47q25 -2 75 -2q127 0 190.5 52t63.5 120q0 92 -133 92l62 127q-98 17 -164 75.5t-66 129.5q0 41 25.5 66.5t62.5 25.5q29 0 44.5 -18.5t31.5 -65.5q29 -75 68 -110t100 -35q68 0 104.5 45.5t36.5 120.5
q0 53 -21.5 99t-66.5 110l-55 86q-66 98 -93.5 158.5t-27.5 130.5q0 142 106 233.5t257 91.5z" />
    <glyph glyph-name="Scaron" unicode="&#x160;" horiz-adv-x="1028" 
d="M719 1780l-51 374h57l121 -268l299 268h67l-305 -374h-188zM1108 1536l43 102h51l-131 -479h-49q27 199 -44.5 308.5t-207.5 109.5q-125 0 -191.5 -76.5t-66.5 -187.5q0 -44 9 -83t33 -82t39 -65.5t52 -74.5l82 -117q5 -7 30 -41t32.5 -46t30 -44.5t31.5 -50t26 -49.5
t25 -55.5t17.5 -54t13 -60t3.5 -60.5q0 -89 -29.5 -168.5t-84 -142.5t-141.5 -100t-194 -37q-190 0 -342 159q-44 44 -69 -26l-39 -115h-57l147 557h49q-18 -87 -3 -172t50.5 -152.5t100 -109t145.5 -41.5q67 0 118 24.5t80 65t43.5 87t14.5 97.5q0 95 -45.5 184.5
t-138.5 215.5l-95 135q-69 96 -104 174.5t-35 175.5q0 85 30.5 162t86 137t141 95.5t189.5 35.5q95 0 167.5 -34t139.5 -107q33 -33 47 6z" />
    <glyph glyph-name="scaron" unicode="&#x161;" horiz-adv-x="753" 
d="M459 1276l-51 375h57l121 -269l299 269h67l-305 -375h-188zM545 1120q113 0 178 -52t65 -112q0 -40 -26.5 -66t-61.5 -26q-30 0 -45.5 20t-27.5 62q-17 49 -46.5 76t-84.5 27q-63 0 -103.5 -41.5t-40.5 -114.5q0 -89 92 -223l52 -84q48 -74 68 -109t36 -82t16 -94
q0 -140 -98.5 -235t-245.5 -95q-121 0 -210 63t-89 148q0 41 25.5 66.5t62.5 25.5q29 0 44.5 -18.5t31.5 -65.5q29 -75 68 -110t100 -35q68 0 104.5 45.5t36.5 120.5q0 53 -21.5 99t-66.5 110l-55 86q-66 98 -93.5 158.5t-27.5 130.5q0 142 106 233.5t257 91.5z" />
    <glyph glyph-name="uni0162" unicode="&#x162;" horiz-adv-x="1230" 
d="M262 1255l133 383h1121l-91 -383h-63q39 172 15 231.5t-136 59.5h-135q-70 0 -92 -69l-391 -1274q-21 -59 -17 -93.5t43 -47.5t137 -13l-14 -49h-287l-45 -98q76 -2 126 -38.5t50 -107.5q0 -96 -99.5 -164.5t-270.5 -68.5q-67 0 -131 12l22 47q25 -2 74 -2q128 0 192 52
t64 120q0 92 -135 92l74 156h-265l15 49q117 0 166 31.5t75 122.5l391 1274q20 69 -51 69h-112q-115 0 -171 -56t-130 -235h-62z" />
    <glyph glyph-name="uni0163" unicode="&#x163;" horiz-adv-x="675" 
d="M737 1020h-200l-246 -705q-3 -9 -10.5 -34t-11 -36.5t-8.5 -30t-7 -32t-2 -24.5q0 -27 9 -40.5t34 -13.5q66 0 143 86t142 218h49q-37 -87 -84 -161.5t-102.5 -134.5t-121 -94.5t-131.5 -35.5l-32 -72q77 -2 126.5 -38.5t49.5 -107.5q0 -96 -99.5 -164.5t-271.5 -68.5
q-67 0 -131 12l23 47q25 -2 75 -2q127 0 190.5 52t63.5 120q0 93 -133 93l68 141q-72 25 -72 123q0 68 47 200l246 703h-154l23 55q136 7 220.5 73t156.5 200h67l-96 -263h201z" />
    <glyph glyph-name="Tcaron" unicode="&#x164;" horiz-adv-x="1230" 
d="M874 1780l-51 374h58l120 -268l299 268h68l-305 -374h-189zM262 1255l133 383h1121l-91 -383h-63q39 172 15 231.5t-136 59.5h-135q-70 0 -92 -69l-391 -1274q-21 -59 -17 -93.5t43 -47.5t137 -13l-14 -49h-631l15 49q117 0 166 31.5t75 122.5l391 1274q20 69 -51 69
h-112q-115 0 -171 -56t-130 -235h-62z" />
    <glyph glyph-name="tcaron" unicode="&#x165;" horiz-adv-x="675" 
d="M803 1219h-64l123 393h170zM537 1020l-246 -705q-3 -9 -10.5 -34t-11 -36.5t-8.5 -30t-7 -32t-2 -24.5q0 -27 9 -40.5t34 -13.5q66 0 143 86t142 218h49q-78 -184 -195 -305t-246 -121q-141 0 -141 135q0 68 47 200l246 703h-154l23 55q136 7 220.5 73t156.5 200h67
l-96 -263h201l-21 -65h-200z" />
    <glyph glyph-name="Tbar" unicode="&#x166;" horiz-adv-x="1230" 
d="M262 1255l133 383h1121l-91 -383h-63q39 172 15 231.5t-136 59.5h-135q-70 0 -92 -69l-195 -633h320l-21 -68h-319l-176 -573q-21 -59 -17 -93.5t43 -47.5t137 -13l-14 -49h-631l15 49q117 0 166 31.5t75 122.5l176 573h-321l22 68h320l194 633q20 69 -51 69h-112
q-115 0 -171 -56t-130 -235h-62z" />
    <glyph glyph-name="tbar" unicode="&#x167;" horiz-adv-x="686" 
d="M768 1085l-20 -65h-201l-88 -254h221l-18 -64h-226l-133 -387q-41 -121 -41 -157q0 -27 9 -40.5t34 -13.5q66 0 143 86t142 218h49q-78 -184 -194.5 -305t-245.5 -121q-142 0 -142 135q0 62 49 200l134 385h-150l19 64h153l88 254h-153l24 55q134 7 218.5 73t156.5 200
h68l-97 -263h201z" />
    <glyph glyph-name="Umacron" unicode="&#x16a;" horiz-adv-x="1472" 
d="M918 1888l28 97h574l-27 -97h-575zM614 -31q-138 0 -232.5 43t-138 121t-47 187t39.5 241l268 875q33 91 8.5 122t-150.5 31l15 49h610l-14 -49q-116 0 -165 -31t-77 -122l-276 -897q-41 -142 -36.5 -247.5t68.5 -165.5t181 -60q178 0 305.5 128t208.5 392l262 850
q21 59 16.5 93t-43.5 47t-137 13l14 49h465l-12 -49q-96 0 -138.5 -31t-70.5 -122l-262 -858q-32 -109 -68.5 -193.5t-92 -165t-124 -133.5t-164.5 -85t-213 -32z" />
    <glyph glyph-name="umacron" unicode="&#x16b;" horiz-adv-x="1148" 
d="M502 1384l28 97h574l-27 -97h-575zM203 -29q-70 0 -109 40.5t-39 105.5q0 37 12.5 90.5t27.5 99.5t47 121.5t50 117t58.5 128.5t52.5 114q57 155 57 181q0 35 -26 35q-43 0 -105 -67t-125 -171h-49q76 146 184 246t214 100q53 0 80.5 -33t27.5 -82q0 -35 -16.5 -82.5
t-52.5 -132.5q-25 -60 -64 -153t-62.5 -150t-49 -121.5t-38 -108t-14.5 -69.5q-3 -65 41 -65q61 0 151 97.5t201 309.5q206 383 213 563h238l-281 -811q-3 -9 -10.5 -29.5t-12 -34t-10 -31t-8 -30.5t-2.5 -22q0 -45 37 -45q54 0 117.5 78.5t118.5 199.5h49
q-31 -74 -68.5 -139.5t-84.5 -124t-105 -93t-117 -34.5q-145 0 -145 133q0 13 2.5 26.5t8.5 32.5t11 32t16 41.5t17 44.5l129 344h-18q-170 -340 -298.5 -496t-250.5 -156z" />
    <glyph glyph-name="Uring" unicode="&#x16e;" horiz-adv-x="1472" 
d="M1182 1794q-73 0 -115.5 44t-42.5 112q0 95 77.5 172.5t180.5 77.5q72 0 115 -42.5t43 -109.5q0 -95 -77.5 -174.5t-180.5 -79.5zM1192 1864q73 0 121.5 60t48.5 122q0 40 -23 63t-67 23q-73 0 -121.5 -57t-48.5 -121q0 -40 23 -65t67 -25zM614 -31q-138 0 -232.5 43
t-138 121t-47 187t39.5 241l268 875q33 91 8.5 122t-150.5 31l15 49h610l-14 -49q-116 0 -165 -31t-77 -122l-276 -897q-41 -142 -36.5 -247.5t68.5 -165.5t181 -60q178 0 305.5 128t208.5 392l262 850q21 59 16.5 93t-43.5 47t-137 13l14 49h465l-12 -49q-96 0 -138.5 -31
t-70.5 -122l-262 -858q-32 -109 -68.5 -193.5t-92 -165t-124 -133.5t-164.5 -85t-213 -32z" />
    <glyph glyph-name="uring" unicode="&#x16f;" horiz-adv-x="1148" 
d="M766 1290q-73 0 -115.5 44t-42.5 112q0 95 77.5 172.5t180.5 77.5q72 0 115 -42.5t43 -109.5q0 -95 -77.5 -174.5t-180.5 -79.5zM776 1360q73 0 121.5 60t48.5 122q0 40 -23 63t-67 23q-73 0 -121.5 -57t-48.5 -121q0 -40 23 -65t67 -25zM203 -29q-70 0 -109 40.5
t-39 105.5q0 37 12.5 90.5t27.5 99.5t47 121.5t50 117t58.5 128.5t52.5 114q57 155 57 181q0 35 -26 35q-43 0 -105 -67t-125 -171h-49q76 146 184 246t214 100q53 0 80.5 -33t27.5 -82q0 -35 -16.5 -82.5t-52.5 -132.5q-25 -60 -64 -153t-62.5 -150t-49 -121.5t-38 -108
t-14.5 -69.5q-3 -65 41 -65q61 0 151 97.5t201 309.5q206 383 213 563h238l-281 -811q-3 -9 -10.5 -29.5t-12 -34t-10 -31t-8 -30.5t-2.5 -22q0 -45 37 -45q54 0 117.5 78.5t118.5 199.5h49q-31 -74 -68.5 -139.5t-84.5 -124t-105 -93t-117 -34.5q-145 0 -145 133
q0 13 2.5 26.5t8.5 32.5t11 32t16 41.5t17 44.5l129 344h-18q-170 -340 -298.5 -496t-250.5 -156z" />
    <glyph glyph-name="Uhungarumlaut" unicode="&#x170;" horiz-adv-x="1472" 
d="M1079 1780h-63l221 374h141zM1288 1780h-65l252 374h149zM614 -31q-138 0 -232.5 43t-138 121t-47 187t39.5 241l268 875q33 91 8.5 122t-150.5 31l15 49h610l-14 -49q-116 0 -165 -31t-77 -122l-276 -897q-41 -142 -36.5 -247.5t68.5 -165.5t181 -60q178 0 305.5 128
t208.5 392l262 850q21 59 16.5 93t-43.5 47t-137 13l14 49h465l-12 -49q-96 0 -138.5 -31t-70.5 -122l-262 -858q-32 -109 -68.5 -193.5t-92 -165t-124 -133.5t-164.5 -85t-213 -32z" />
    <glyph glyph-name="uhungarumlaut" unicode="&#x171;" horiz-adv-x="1148" 
d="M662 1276h-64l221 375h142zM870 1276h-65l252 375h149zM203 -29q-70 0 -109 40.5t-39 105.5q0 37 12.5 90.5t27.5 99.5t47 121.5t50 117t58.5 128.5t52.5 114q57 155 57 181q0 35 -26 35q-43 0 -105 -67t-125 -171h-49q76 146 184 246t214 100q53 0 80.5 -33t27.5 -82
q0 -35 -16.5 -82.5t-52.5 -132.5q-25 -60 -64 -153t-62.5 -150t-49 -121.5t-38 -108t-14.5 -69.5q-3 -65 41 -65q61 0 151 97.5t201 309.5q206 383 213 563h238l-281 -811q-3 -9 -10.5 -29.5t-12 -34t-10 -31t-8 -30.5t-2.5 -22q0 -45 37 -45q54 0 117.5 78.5t118.5 199.5
h49q-31 -74 -68.5 -139.5t-84.5 -124t-105 -93t-117 -34.5q-145 0 -145 133q0 13 2.5 26.5t8.5 32.5t11 32t16 41.5t17 44.5l129 344h-18q-170 -340 -298.5 -496t-250.5 -156z" />
    <glyph glyph-name="Uogonek" unicode="&#x172;" horiz-adv-x="1472" 
d="M1759 1638l-12 -49q-96 0 -138.5 -31t-70.5 -122l-262 -858q-28 -95 -59 -170.5t-76.5 -150t-99 -127.5t-128 -92.5t-163.5 -55.5q-55 -24 -105 -55t-95.5 -70t-73 -87t-27.5 -96q0 -92 106 -92q64 0 168 49l10 -51q-124 -86 -248 -86q-85 0 -137.5 37t-52.5 113
q0 50 24.5 96.5t60.5 80.5t86.5 64t94.5 49t92 35h-39q-138 0 -232.5 43t-138 121t-47 187t39.5 241l268 875q33 91 8.5 122t-150.5 31l15 49h610l-14 -49q-116 0 -165 -31t-77 -122l-276 -897q-41 -142 -36.5 -247.5t68.5 -165.5t181 -60q178 0 305.5 128t208.5 392
l262 850q21 59 16.5 93t-43.5 47t-137 13l14 49h465z" />
    <glyph glyph-name="uogonek" unicode="&#x173;" horiz-adv-x="1148" 
d="M821 82q54 0 117.5 78.5t118.5 199.5h49q-48 -119 -116 -217.5t-148 -142.5h-2q-14 -8 -33 -16q-112 -55 -190 -130.5t-78 -160.5q0 -92 106 -92q64 0 168 49l10 -51q-124 -86 -248 -86q-85 0 -137.5 36.5t-52.5 112.5q0 45 19.5 87.5t50 74.5t73.5 61t83 48.5t85 37.5
q-110 16 -110 131q0 13 2.5 26.5t8.5 32.5t11 32t16 41.5t17 44.5l129 344h-18q-170 -340 -298.5 -496t-250.5 -156q-70 0 -109 40.5t-39 105.5q0 37 12.5 90.5t27.5 99.5t47 121.5t50 117t58.5 128.5t52.5 114q57 155 57 181q0 35 -26 35q-43 0 -105 -67t-125 -171h-49
q76 146 184 246t214 100q53 0 80.5 -33t27.5 -82q0 -35 -16.5 -82.5t-52.5 -132.5q-25 -60 -64 -153t-62.5 -150t-49 -121.5t-38 -108t-14.5 -69.5q-3 -65 41 -65q61 0 151 97.5t201 309.5q206 383 213 563h238l-281 -811q-3 -9 -10.5 -29.5t-12 -34t-10 -31t-8 -30.5
t-2.5 -22q0 -45 37 -45z" />
    <glyph glyph-name="Wcircumflex" unicode="&#x174;" horiz-adv-x="1957" 
d="M1528 1794l-119 266l-301 -266h-66l304 375h188l53 -375h-59zM2281 1638l-14 -49q-82 0 -133.5 -26.5t-99.5 -108.5l-840 -1487h-111l60 1174l-647 -1174h-111l61 1460q5 100 -22.5 131t-122.5 31l14 49h541l-12 -49q-101 0 -134.5 -33t-39.5 -129l-66 -1091h14l533 983
l6 108q5 101 -15.5 131.5t-94.5 30.5l12 49h520l-14 -49q-105 0 -141 -33t-42 -129l-79 -1091h14l618 1118q52 82 35 108.5t-149 26.5l14 49h446z" />
    <glyph glyph-name="wcircumflex" unicode="&#x175;" horiz-adv-x="1372" 
d="M1149 1276l-119 266l-301 -266h-65l303 375h188l53 -375h-59zM1262 1116q44 0 71 -41t27 -127q0 -127 -50.5 -296t-129 -320t-185.5 -256t-209 -105q-80 0 -128 51.5t-48 141.5q0 52 29 162h-12q-77 -168 -170.5 -261.5t-194.5 -93.5q-88 0 -143.5 67t-55.5 185
q0 293 394 723h-2q-25 0 -109 21.5t-108 21.5q-43 0 -43 -39q0 -22 24.5 -54t24.5 -58q0 -25 -16.5 -42.5t-41.5 -17.5q-23 0 -39 17t-16 49q0 57 41 141q58 119 154 119q26 0 109.5 -12.5t107.5 -12.5q33 0 57 17q4 6 12 14l35 -35q-156 -182 -269.5 -396t-113.5 -390
q0 -83 22.5 -122.5t69.5 -39.5q91 0 191 153.5t165 357.5t72 363h213q-19 -102 -56 -213t-68.5 -186.5t-55.5 -162.5t-24 -158q0 -154 90 -154q79 0 165 108t140.5 259t54.5 276q0 75 -27.5 157.5t-27.5 108.5q0 34 19.5 57t54.5 23z" />
    <glyph glyph-name="Ycircumflex" unicode="&#x176;" horiz-adv-x="1320" 
d="M1276 1780l-119 266l-301 -266h-65l303 374h188l53 -374h-59zM1663 1638l-12 -49q-81 0 -136 -23t-110 -96l-563 -743l-162 -524q-34 -91 -6 -122.5t168 -31.5l-17 -49h-628l14 49q116 0 166 31.5t78 122.5l159 518l-131 711q-18 95 -53.5 126t-118.5 31l15 49h573
l-16 -49q-88 0 -126.5 -14t-47.5 -49t4 -96l102 -590h10l471 628q50 66 54 83q5 23 -30 31q-32 7 -122 7l16 49h449z" />
    <glyph glyph-name="ycircumflex" unicode="&#x177;" horiz-adv-x="940" 
d="M809 1276l-119 266l-301 -266h-65l303 375h188l53 -375h-59zM834 1114q45 0 71.5 -47t26.5 -139q0 -328 -402 -871q-67 -95 -121.5 -164t-121.5 -140t-127.5 -115.5t-130.5 -72.5t-140 -28q-57 0 -86.5 23t-29.5 61q0 50 38.5 86.5t90.5 36.5q34 0 63.5 -17.5t57 -35
t55.5 -17.5q96 0 233 244q32 390 19 901q-1 100 -13.5 136t-40.5 36q-58 0 -161 -258h-47q25 67 47.5 118t51.5 102t58.5 83.5t66 53t75.5 20.5q80 0 114 -64t37 -219q5 -378 -31 -731q156 200 241 384.5t85 318.5q0 61 -28.5 135t-28.5 100q0 32 21.5 56t56.5 24z" />
    <glyph glyph-name="Ydieresis" unicode="&#x178;" horiz-adv-x="1320" 
d="M938 1825q-52 0 -87.5 35.5t-35.5 87.5t35 86t88 34q54 0 88.5 -33.5t34.5 -86.5t-34.5 -88t-88.5 -35zM1313 1825q-53 0 -88 35.5t-35 87.5t35 86t88 34t87 -34t34 -86q0 -53 -34.5 -88t-86.5 -35zM842 727l-162 -524q-34 -91 -6 -122.5t168 -31.5l-17 -49h-628l14 49
q116 0 166 31.5t78 122.5l159 518l-131 711q-18 95 -53.5 126t-118.5 31l15 49h573l-16 -49q-88 0 -126.5 -14t-47.5 -49t4 -96l102 -590h10l471 628q50 66 54 83q5 23 -30 31q-32 7 -122 7l16 49h449l-12 -49q-81 0 -136 -23t-110 -96z" />
    <glyph glyph-name="Zacute" unicode="&#x179;" horiz-adv-x="1146" 
d="M938 1780h-66l234 374h194zM432 1638h942l-1153 -1546h434q58 0 100.5 15t83.5 54.5t78.5 104t83.5 168.5h64l-170 -434h-961v49l1125 1497h-379q-121 0 -183 -60t-122 -237h-64z" />
    <glyph glyph-name="zacute" unicode="&#x17a;" horiz-adv-x="854" 
d="M831 1651h195l-362 -375h-66zM860 1106q27 0 42.5 -16.5t15.5 -42.5q0 -53 -53 -125.5t-143.5 -155t-186 -162t-206.5 -174.5t-179 -166q25 10 61 10q48 0 94 -18.5t81.5 -45t68.5 -53t67 -45t64 -18.5q50 0 75 45.5t25 116.5q0 72 -22 143l49 15q26 -83 26 -160
q0 -158 -57 -253t-150 -95q-47 0 -91.5 27.5t-81 66.5l-73 78t-81.5 66.5t-92 27.5q-35 0 -57.5 -16.5t-22.5 -46.5q0 -13 10 -37t10 -37q0 -23 -17 -38t-40 -15q-25 0 -40 19t-15 50q0 60 50.5 137.5t140 163t180.5 163t205 173.5t179 158q-44 -21 -82 -21q-45 0 -96 26.5
t-99 52.5t-85 26q-47 0 -82 -44t-55 -118l-45 4q86 336 237 336q43 0 90 -25.5t81.5 -55.5t85.5 -55.5t102 -25.5q42 0 64 16t22 42q0 13 -12.5 31.5t-12.5 29.5q0 18 13.5 29.5t37.5 11.5z" />
    <glyph glyph-name="Zdotaccent" unicode="&#x17b;" horiz-adv-x="1146" 
d="M934 1825q-52 0 -87.5 35.5t-35.5 87.5t35 86t88 34t87 -34t34 -86q0 -53 -34.5 -88t-86.5 -35zM432 1638h942l-1153 -1546h434q58 0 100.5 15t83.5 54.5t78.5 104t83.5 168.5h64l-170 -434h-961v49l1125 1497h-379q-121 0 -183 -60t-122 -237h-64z" />
    <glyph glyph-name="zdotaccent" unicode="&#x17c;" horiz-adv-x="854" 
d="M659 1321q-52 0 -87 35t-35 88q0 52 34.5 86.5t87.5 34.5t87 -34.5t34 -86.5q0 -53 -34.5 -88t-86.5 -35zM918 1047q0 -53 -53 -125.5t-143.5 -155t-186 -162t-206.5 -174.5t-179 -166q25 10 61 10q48 0 94 -18.5t81.5 -45t68.5 -53t67 -45t64 -18.5q50 0 75 45.5
t25 116.5q0 72 -22 143l49 15q26 -83 26 -160q0 -158 -57 -253t-150 -95q-47 0 -91.5 27.5t-81 66.5l-73 78t-81.5 66.5t-92 27.5q-35 0 -57.5 -16.5t-22.5 -46.5q0 -13 10 -37t10 -37q0 -23 -17 -38t-40 -15q-25 0 -40 19t-15 50q0 60 50.5 137.5t140 163t180.5 163
t205 173.5t179 158q-44 -21 -82 -21q-45 0 -96 26.5t-99 52.5t-85 26q-47 0 -82 -44t-55 -118l-45 4q86 336 237 336q43 0 90 -25.5t81.5 -55.5t85.5 -55.5t102 -25.5q42 0 64 16t22 42q0 13 -12.5 31.5t-12.5 29.5q0 18 13.5 29.5t37.5 11.5q27 0 42.5 -16.5t15.5 -42.5z
" />
    <glyph glyph-name="Zcaron" unicode="&#x17d;" horiz-adv-x="1146" 
d="M774 1780l-51 374h57l121 -268l299 268h68l-305 -374h-189zM221 92h434q58 0 100.5 15t83.5 54.5t78.5 104t83.5 168.5h64l-170 -434h-961v49l1125 1497h-379q-121 0 -183 -60t-122 -237h-64l121 389h942z" />
    <glyph glyph-name="zcaron" unicode="&#x17e;" horiz-adv-x="854" 
d="M500 1276l-51 375h57l121 -269l299 269h67l-305 -375h-188zM860 1106q27 0 42.5 -16.5t15.5 -42.5q0 -53 -53 -125.5t-143.5 -155t-186 -162t-206.5 -174.5t-179 -166q25 10 61 10q48 0 94 -18.5t81.5 -45t68.5 -53t67 -45t64 -18.5q50 0 75 45.5t25 116.5q0 72 -22 143
l49 15q26 -83 26 -160q0 -158 -57 -253t-150 -95q-47 0 -91.5 27.5t-81 66.5l-73 78t-81.5 66.5t-92 27.5q-35 0 -57.5 -16.5t-22.5 -46.5q0 -13 10 -37t10 -37q0 -23 -17 -38t-40 -15q-25 0 -40 19t-15 50q0 60 50.5 137.5t140 163t180.5 163t205 173.5t179 158
q-44 -21 -82 -21q-45 0 -96 26.5t-99 52.5t-85 26q-47 0 -82 -44t-55 -118l-45 4q86 336 237 336q43 0 90 -25.5t81.5 -55.5t85.5 -55.5t102 -25.5q42 0 64 16t22 42q0 13 -12.5 31.5t-12.5 29.5q0 18 13.5 29.5t37.5 11.5z" />
    <glyph glyph-name="uni0218" unicode="&#x218;" horiz-adv-x="1028" 
d="M487 -18q-190 0 -342 159q-44 44 -69 -26l-39 -115h-57l147 557h49q-18 -87 -3 -172t50.5 -152.5t100 -109t145.5 -41.5q67 0 118 24.5t80 65t43.5 87t14.5 97.5q0 95 -45.5 184.5t-138.5 215.5l-95 135q-69 96 -104 174.5t-35 175.5q0 85 30.5 162t86 137t141 95.5
t189.5 35.5q95 0 167.5 -34t139.5 -107q33 -33 47 6l43 102h51l-131 -479h-49q27 199 -44.5 308.5t-207.5 109.5q-125 0 -191.5 -76.5t-66.5 -187.5q0 -44 9 -83t33 -82t39 -65.5t52 -74.5l82 -117q5 -7 30 -41t32.5 -46t30 -44.5t31.5 -50t26 -49.5t25 -55.5t17.5 -54
t13 -60t3.5 -60.5q0 -89 -29.5 -168.5t-84 -142.5t-141.5 -100t-194 -37zM371 -152q48 0 79 -33t31 -79q0 -81 -72 -146.5t-202 -95.5v49q67 15 123.5 56t56.5 75q0 17 -14 17q-5 0 -26.5 -13.5t-43.5 -13.5q-25 0 -40 18t-15 46q0 49 35 84.5t88 35.5z" />
    <glyph glyph-name="uni0219" unicode="&#x219;" horiz-adv-x="753" 
d="M272 -29q-121 0 -210 63t-89 148q0 41 25.5 66.5t62.5 25.5q29 0 44.5 -18.5t31.5 -65.5q29 -75 68 -110t100 -35q68 0 104.5 45.5t36.5 120.5q0 53 -21.5 99t-66.5 110l-55 86q-66 98 -93.5 158.5t-27.5 130.5q0 142 106 233.5t257 91.5q113 0 178 -52t65 -112
q0 -40 -26.5 -66t-61.5 -26q-30 0 -45.5 20t-27.5 62q-17 49 -46.5 76t-84.5 27q-63 0 -103.5 -41.5t-40.5 -114.5q0 -89 92 -223l52 -84q48 -74 68 -109t36 -82t16 -94q0 -140 -98.5 -235t-245.5 -95zM219 -145q48 0 79.5 -33.5t31.5 -79.5q0 -81 -72.5 -146.5
t-202.5 -95.5v49q67 15 124 56.5t57 75.5q0 16 -15 16q-5 0 -26 -13.5t-43 -13.5q-25 0 -40.5 18t-15.5 46q0 49 35 85t88 36z" />
    <glyph glyph-name="uni021A" unicode="&#x21a;" horiz-adv-x="1230" 
d="M141 0l15 49q117 0 166 31.5t75 122.5l391 1274q20 69 -51 69h-112q-115 0 -171 -56t-130 -235h-62l133 383h1121l-91 -383h-63q39 172 15 231.5t-136 59.5h-135q-70 0 -92 -69l-391 -1274q-21 -59 -17 -93.5t43 -47.5t137 -13l-14 -49h-631zM418 -152q48 0 79 -33
t31 -79q0 -81 -72 -146.5t-202 -95.5v49q67 15 123.5 56t56.5 75q0 17 -14 17q-5 0 -26.5 -13.5t-43.5 -13.5q-25 0 -40 18t-15 46q0 49 35 84.5t88 35.5z" />
    <glyph glyph-name="uni021B" unicode="&#x21b;" horiz-adv-x="675" 
d="M537 1020l-246 -705q-3 -9 -10.5 -34t-11 -36.5t-8.5 -30t-7 -32t-2 -24.5q0 -27 9 -40.5t34 -13.5q66 0 143 86t142 218h49q-78 -184 -195 -305t-246 -121q-141 0 -141 135q0 68 47 200l246 703h-154l23 55q136 7 220.5 73t156.5 200h67l-96 -263h201l-21 -65h-200z
M168 -152q48 0 79.5 -33t31.5 -79q0 -81 -72.5 -146.5t-202.5 -95.5v49q67 15 123.5 56t56.5 75q0 17 -14 17q-5 0 -26.5 -13.5t-43.5 -13.5q-25 0 -40 18t-15 46q0 49 35 84.5t88 35.5z" />
    <glyph glyph-name="circumflex" unicode="&#x2c6;" horiz-adv-x="735" 
d="M782 1651l52 -375h-58l-119 266l-301 -266h-67l305 375h188z" />
    <glyph glyph-name="caron" unicode="&#x2c7;" horiz-adv-x="735" 
d="M885 1651h67l-305 -375h-188l-51 375h57l121 -269z" />
    <glyph glyph-name="breve" unicode="&#x2d8;" horiz-adv-x="751" 
d="M911 1622h47q-31 -141 -127 -218t-221 -77q-101 0 -161 48t-60 138q0 51 21 109h45q-4 -12 -4 -43q0 -64 42.5 -89.5t135.5 -25.5q227 0 282 158z" />
    <glyph glyph-name="dotaccent" unicode="&#x2d9;" horiz-adv-x="440" 
d="M500 1313q-52 0 -87.5 35.5t-35.5 87.5q0 54 35 88.5t88 34.5t87 -34.5t34 -88.5q0 -53 -34.5 -88t-86.5 -35z" />
    <glyph glyph-name="ring" unicode="&#x2da;" horiz-adv-x="610" 
d="M524 1290q-73 0 -115 44t-42 112q0 95 77.5 172.5t180.5 77.5q72 0 114.5 -42.5t42.5 -109.5q0 -95 -77.5 -174.5t-180.5 -79.5zM535 1360q73 0 121.5 60t48.5 122q0 40 -23.5 63t-67.5 23q-73 0 -121.5 -57t-48.5 -121q0 -40 23.5 -65t67.5 -25z" />
    <glyph glyph-name="ogonek" unicode="&#x2db;" horiz-adv-x="659" 
d="M264 -18h64q-55 -24 -105 -55t-96.5 -70t-74 -87t-27.5 -96q0 -92 106 -92q64 0 168 49l10 -51q-124 -86 -248 -86q-85 0 -137.5 37t-52.5 113q0 55 28.5 105t70 85.5t98.5 66.5t102.5 48.5t93.5 32.5z" />
    <glyph glyph-name="tilde" unicode="&#x2dc;" horiz-adv-x="833" 
d="M788 1317q-37 0 -68.5 14.5t-53 35t-41.5 40.5t-45.5 34.5t-53.5 14.5q-57 0 -95 -37.5t-69 -109.5l-49 6q101 278 244 278q37 0 68.5 -14.5t53 -35.5t41.5 -41.5t45.5 -35t53.5 -14.5q57 0 95 37.5t69 109.5l49 -6q-100 -276 -244 -276z" />
    <glyph glyph-name="hungarumlaut" unicode="&#x2dd;" horiz-adv-x="673" 
d="M397 1276h-63l221 375h141zM606 1276h-65l250 375h149z" />
    <glyph glyph-name="gravecomb" unicode="&#x300;" horiz-adv-x="0" 
d="M-111 1651l172 -375h-65l-299 375h192z" />
    <glyph glyph-name="acutecomb" unicode="&#x301;" horiz-adv-x="0" 
d="M-68 1276h-65l233 375h195z" />
    <glyph glyph-name="uni0302" unicode="&#x302;" horiz-adv-x="0" 
d="M35 1651l53 -375h-59l-119 266l-301 -266h-66l303 375h189z" />
    <glyph glyph-name="tildecomb" unicode="&#x303;" horiz-adv-x="0" 
d="M-45 1317q-37 0 -68.5 14.5t-53 35t-41.5 40.5t-45.5 34.5t-53.5 14.5q-57 0 -95 -37.5t-69 -109.5l-49 6q101 278 244 278q37 0 68.5 -14.5t53 -35.5t41.5 -41.5t45.5 -35t53.5 -14.5q57 0 95 37.5t69 109.5l49 -6q-100 -276 -244 -276z" />
    <glyph glyph-name="uni0304" unicode="&#x304;" horiz-adv-x="0" 
d="M-444 1384l28 97h576l-27 -97h-577z" />
    <glyph glyph-name="uni0306" unicode="&#x306;" horiz-adv-x="0" 
d="M160 1622h47q-31 -141 -127 -218t-221 -77q-101 0 -161 48t-60 138q0 53 20 109h45q-4 -12 -4 -43q0 -64 42.5 -89.5t135.5 -25.5q228 0 283 158z" />
    <glyph glyph-name="uni0307" unicode="&#x307;" horiz-adv-x="0" 
d="M33 1321q-53 0 -88 35.5t-35 87.5t35 86.5t88 34.5t87 -34.5t34 -86.5q0 -53 -34.5 -88t-86.5 -35z" />
    <glyph glyph-name="uni0308" unicode="&#x308;" horiz-adv-x="0" 
d="M-346 1321q-52 0 -87.5 35.5t-35.5 87.5t35 86.5t88 34.5q54 0 88.5 -34t34.5 -87t-34.5 -88t-88.5 -35zM31 1321q-54 0 -89.5 35t-35.5 88q0 52 35.5 86.5t89.5 34.5q53 0 87 -34.5t34 -86.5q0 -53 -34.5 -88t-86.5 -35z" />
    <glyph glyph-name="uni030A" unicode="&#x30a;" horiz-adv-x="0" 
d="M-86 1290q-73 0 -115.5 44t-42.5 112q0 95 77.5 172.5t180.5 77.5q72 0 115 -42.5t43 -109.5q0 -95 -77.5 -174.5t-180.5 -79.5zM-76 1360q73 0 121.5 60t48.5 122q0 40 -23 63t-67 23q-73 0 -121.5 -57t-48.5 -121q0 -40 23 -65t67 -25z" />
    <glyph glyph-name="uni030B" unicode="&#x30b;" horiz-adv-x="0" 
d="M-217 1276h-64l222 375h141zM-8 1276h-66l252 375h150z" />
    <glyph glyph-name="uni030C" unicode="&#x30c;" horiz-adv-x="0" 
d="M150 1651h67l-305 -375h-188l-52 375h58l120 -269z" />
    <glyph glyph-name="uni0312" unicode="&#x312;" horiz-adv-x="0" 
d="M43 1358q-50 0 -81.5 33t-31.5 79q0 81 73.5 146.5t203.5 95.5v-49q-66 -15 -123 -56t-57 -75q0 -16 16 -16q4 0 24.5 13t43.5 13q25 0 40 -17.5t15 -45.5q0 -49 -35 -85t-88 -36z" />
    <glyph glyph-name="uni0326" unicode="&#x326;" horiz-adv-x="0" 
d="M-449 -152q48 0 79.5 -33t31.5 -79q0 -81 -72 -146.5t-202 -95.5v49q66 15 123 56t57 75q0 17 -17 17q-4 0 -24 -13.5t-43 -13.5q-25 0 -40 18t-15 46q0 49 34.5 84.5t87.5 35.5z" />
    <glyph glyph-name="uni0327" unicode="&#x327;" horiz-adv-x="0" 
d="M-680 -156l88 185h78l-59 -127q77 -2 126.5 -38.5t49.5 -107.5q0 -96 -99.5 -164.5t-271.5 -68.5q-66 0 -131 12l22 47q25 -2 76 -2q127 0 190.5 52t63.5 120q0 92 -133 92z" />
    <glyph glyph-name="uni0328" unicode="&#x328;" horiz-adv-x="0" 
d="M-395 -18h63q-55 -24 -105 -55t-96.5 -70t-74 -87t-27.5 -96q0 -92 107 -92q64 0 168 49l10 -51q-124 -86 -248 -86q-85 0 -137.5 37t-52.5 113q0 55 28.5 105t70 85.5t98.5 66.5t102.5 48.5t93.5 32.5z" />
    <glyph glyph-name="Wgrave" unicode="&#x1e80;" horiz-adv-x="1957" 
d="M1196 2169l172 -375h-65l-299 375h192zM2281 1638l-14 -49q-82 0 -133.5 -26.5t-99.5 -108.5l-840 -1487h-111l60 1174l-647 -1174h-111l61 1460q5 100 -22.5 131t-122.5 31l14 49h541l-12 -49q-101 0 -134.5 -33t-39.5 -129l-66 -1091h14l533 983l6 108
q5 101 -15.5 131.5t-94.5 30.5l12 49h520l-14 -49q-105 0 -141 -33t-42 -129l-79 -1091h14l618 1118q52 82 35 108.5t-149 26.5l14 49h446z" />
    <glyph glyph-name="wgrave" unicode="&#x1e81;" horiz-adv-x="1372" 
d="M817 1651l172 -375h-65l-299 375h192zM1262 1116q44 0 71 -41t27 -127q0 -127 -50.5 -296t-129 -320t-185.5 -256t-209 -105q-80 0 -128 51.5t-48 141.5q0 52 29 162h-12q-77 -168 -170.5 -261.5t-194.5 -93.5q-88 0 -143.5 67t-55.5 185q0 293 394 723h-2
q-25 0 -109 21.5t-108 21.5q-43 0 -43 -39q0 -22 24.5 -54t24.5 -58q0 -25 -16.5 -42.5t-41.5 -17.5q-23 0 -39 17t-16 49q0 57 41 141q58 119 154 119q26 0 109.5 -12.5t107.5 -12.5q33 0 57 17q4 6 12 14l35 -35q-156 -182 -269.5 -396t-113.5 -390q0 -83 22.5 -122.5
t69.5 -39.5q91 0 191 153.5t165 357.5t72 363h213q-19 -102 -56 -213t-68.5 -186.5t-55.5 -162.5t-24 -158q0 -154 90 -154q79 0 165 108t140.5 259t54.5 276q0 75 -27.5 157.5t-27.5 108.5q0 34 19.5 57t54.5 23z" />
    <glyph glyph-name="Wacute" unicode="&#x1e82;" horiz-adv-x="1957" 
d="M1544 2169h195l-363 -375h-65zM2281 1638l-14 -49q-82 0 -133.5 -26.5t-99.5 -108.5l-840 -1487h-111l60 1174l-647 -1174h-111l61 1460q5 100 -22.5 131t-122.5 31l14 49h541l-12 -49q-101 0 -134.5 -33t-39.5 -129l-66 -1091h14l533 983l6 108q5 101 -15.5 131.5
t-94.5 30.5l12 49h520l-14 -49q-105 0 -141 -33t-42 -129l-79 -1091h14l618 1118q52 82 35 108.5t-149 26.5l14 49h446z" />
    <glyph glyph-name="wacute" unicode="&#x1e83;" horiz-adv-x="1372" 
d="M1163 1651h195l-363 -375h-65zM1262 1116q44 0 71 -41t27 -127q0 -127 -50.5 -296t-129 -320t-185.5 -256t-209 -105q-80 0 -128 51.5t-48 141.5q0 52 29 162h-12q-77 -168 -170.5 -261.5t-194.5 -93.5q-88 0 -143.5 67t-55.5 185q0 293 394 723h-2q-25 0 -109 21.5
t-108 21.5q-43 0 -43 -39q0 -22 24.5 -54t24.5 -58q0 -25 -16.5 -42.5t-41.5 -17.5q-23 0 -39 17t-16 49q0 57 41 141q58 119 154 119q26 0 109.5 -12.5t107.5 -12.5q33 0 57 17q4 6 12 14l35 -35q-156 -182 -269.5 -396t-113.5 -390q0 -83 22.5 -122.5t69.5 -39.5
q91 0 191 153.5t165 357.5t72 363h213q-19 -102 -56 -213t-68.5 -186.5t-55.5 -162.5t-24 -158q0 -154 90 -154q79 0 165 108t140.5 259t54.5 276q0 75 -27.5 157.5t-27.5 108.5q0 34 19.5 57t54.5 23z" />
    <glyph glyph-name="Wdieresis" unicode="&#x1e84;" horiz-adv-x="1957" 
d="M1190 1839q-52 0 -87.5 35.5t-35.5 87.5t35 86.5t88 34.5q54 0 88.5 -34t34.5 -87t-34.5 -88t-88.5 -35zM1565 1839q-53 0 -88 35.5t-35 87.5t35 86.5t88 34.5t87 -34.5t34 -86.5q0 -53 -34.5 -88t-86.5 -35zM2281 1638l-14 -49q-82 0 -133.5 -26.5t-99.5 -108.5
l-840 -1487h-111l60 1174l-647 -1174h-111l61 1460q5 100 -22.5 131t-122.5 31l14 49h541l-12 -49q-101 0 -134.5 -33t-39.5 -129l-66 -1091h14l533 983l6 108q5 101 -15.5 131.5t-94.5 30.5l12 49h520l-14 -49q-105 0 -141 -33t-42 -129l-79 -1091h14l618 1118
q52 82 35 108.5t-149 26.5l14 49h446z" />
    <glyph glyph-name="wdieresis" unicode="&#x1e85;" horiz-adv-x="1372" 
d="M811 1321q-53 0 -88 35.5t-35 87.5t35 86.5t88 34.5q54 0 88.5 -34t34.5 -87t-34.5 -88t-88.5 -35zM1186 1321q-52 0 -87.5 35.5t-35.5 87.5t35 86.5t88 34.5q52 0 86.5 -34.5t34.5 -86.5q0 -53 -34.5 -88t-86.5 -35zM1262 1116q44 0 71 -41t27 -127q0 -127 -50.5 -296
t-129 -320t-185.5 -256t-209 -105q-80 0 -128 51.5t-48 141.5q0 52 29 162h-12q-77 -168 -170.5 -261.5t-194.5 -93.5q-88 0 -143.5 67t-55.5 185q0 293 394 723h-2q-25 0 -109 21.5t-108 21.5q-43 0 -43 -39q0 -22 24.5 -54t24.5 -58q0 -25 -16.5 -42.5t-41.5 -17.5
q-23 0 -39 17t-16 49q0 57 41 141q58 119 154 119q26 0 109.5 -12.5t107.5 -12.5q33 0 57 17q4 6 12 14l35 -35q-156 -182 -269.5 -396t-113.5 -390q0 -83 22.5 -122.5t69.5 -39.5q91 0 191 153.5t165 357.5t72 363h213q-19 -102 -56 -213t-68.5 -186.5t-55.5 -162.5
t-24 -158q0 -154 90 -154q79 0 165 108t140.5 259t54.5 276q0 75 -27.5 157.5t-27.5 108.5q0 34 19.5 57t54.5 23z" />
    <glyph glyph-name="Ygrave" unicode="&#x1ef2;" horiz-adv-x="1320" 
d="M944 2154l172 -374h-65l-299 374h192zM842 727l-162 -524q-34 -91 -6 -122.5t168 -31.5l-17 -49h-628l14 49q116 0 166 31.5t78 122.5l159 518l-131 711q-18 95 -53.5 126t-118.5 31l15 49h573l-16 -49q-88 0 -126.5 -14t-47.5 -49t4 -96l102 -590h10l471 628
q50 66 54 83q5 23 -30 31q-32 7 -122 7l16 49h449l-12 -49q-81 0 -136 -23t-110 -96z" />
    <glyph glyph-name="ygrave" unicode="&#x1ef3;" horiz-adv-x="940" 
d="M477 1651l172 -375h-65l-299 375h192zM-111 -463q-57 0 -86.5 23t-29.5 61q0 50 38.5 86.5t90.5 36.5q34 0 63.5 -17.5t57 -35t55.5 -17.5q96 0 233 244q32 390 19 901q-1 100 -13.5 136t-40.5 36q-58 0 -161 -258h-47q25 67 47.5 118t51.5 102t58.5 83.5t66 53
t75.5 20.5q80 0 114 -64t37 -219q5 -378 -31 -731q156 200 241 384.5t85 318.5q0 61 -28.5 135t-28.5 100q0 32 21.5 56t56.5 24q45 0 71.5 -47t26.5 -139q0 -328 -402 -871q-67 -95 -121.5 -164t-121.5 -140t-127.5 -115.5t-130.5 -72.5t-140 -28z" />
    <glyph glyph-name="endash" unicode="&#x2013;" horiz-adv-x="1247" 
d="M1214 479h-1204l45 148h1205z" />
    <glyph glyph-name="emdash" unicode="&#x2014;" horiz-adv-x="2426" 
d="M2406 479h-2410l47 148h2408z" />
    <glyph glyph-name="quoteleft" unicode="&#x2018;" horiz-adv-x="397" 
d="M506 1362q39 0 62.5 -26t23.5 -70q0 -61 -45 -102.5t-111 -41.5q-62 0 -102.5 39.5t-40.5 110.5q0 118 92.5 215.5t257.5 165.5l19 -43q-102 -48 -181.5 -123.5t-79.5 -140.5q0 -17 15 -17q6 0 33.5 16.5t56.5 16.5z" />
    <glyph glyph-name="quoteright" unicode="&#x2019;" horiz-adv-x="399" 
d="M412 1409q-39 0 -63.5 27t-24.5 71q0 61 45 102.5t110 41.5q63 0 104.5 -39.5t41.5 -110.5q0 -118 -93 -215.5t-258 -165.5l-18 43q101 48 179.5 123t78.5 139q0 19 -12 19q-8 0 -35 -17.5t-55 -17.5z" />
    <glyph glyph-name="quotesinglbase" unicode="&#x201a;" horiz-adv-x="471" 
d="M6 -29q-39 0 -63.5 26.5t-24.5 70.5q0 62 45.5 102.5t112.5 40.5q62 0 102.5 -39.5t40.5 -110.5q0 -118 -92 -214t-258 -166l-19 45q101 46 181 122t80 140q0 18 -15 18q-6 0 -33.5 -17.5t-56.5 -17.5z" />
    <glyph glyph-name="quotedblleft" unicode="&#x201c;" horiz-adv-x="784" 
d="M506 1362q39 0 62.5 -26t23.5 -70q0 -61 -45 -102.5t-111 -41.5q-62 0 -102.5 39.5t-40.5 110.5q0 118 92.5 215.5t257.5 165.5l19 -43q-102 -48 -181.5 -123.5t-79.5 -140.5q0 -17 15 -17q6 0 33.5 16.5t56.5 16.5zM891 1362q39 0 63.5 -26t24.5 -70q0 -61 -45.5 -102.5
t-110.5 -41.5q-63 0 -104 39.5t-41 110.5q0 118 92.5 215.5t257.5 165.5l19 -43q-102 -48 -181.5 -123.5t-79.5 -140.5q0 -17 15 -17q6 0 33.5 16.5t56.5 16.5z" />
    <glyph glyph-name="quotedblright" unicode="&#x201d;" horiz-adv-x="784" 
d="M412 1409q-39 0 -63.5 27t-24.5 71q0 61 45 102.5t110 41.5q63 0 104.5 -39.5t41.5 -110.5q0 -118 -93 -215.5t-258 -165.5l-18 43q101 48 179.5 123t78.5 139q0 19 -12 19q-8 0 -35 -17.5t-55 -17.5zM797 1409q-39 0 -63.5 27t-24.5 71q0 61 45.5 102.5t111.5 41.5
q63 0 103.5 -39.5t40.5 -110.5q0 -118 -93 -215.5t-258 -165.5l-18 43q102 48 181 123t79 139q0 19 -14 19q-6 0 -33.5 -17.5t-56.5 -17.5z" />
    <glyph glyph-name="quotedblbase" unicode="&#x201e;" horiz-adv-x="856" 
d="M6 -29q-39 0 -63.5 26.5t-24.5 70.5q0 62 45.5 102.5t112.5 40.5q62 0 102.5 -39.5t40.5 -110.5q0 -118 -92 -214t-258 -166l-19 45q101 46 181 122t80 140q0 18 -15 18q-6 0 -33.5 -17.5t-56.5 -17.5zM393 -29q-39 0 -63.5 26.5t-24.5 70.5q0 62 45.5 102.5t110.5 40.5
q63 0 104 -39.5t41 -110.5q0 -118 -93 -214t-259 -166l-16 45q100 46 179 122t79 140q0 18 -15 18q-6 0 -33 -17.5t-55 -17.5z" />
    <glyph glyph-name="dagger" unicode="&#x2020;" horiz-adv-x="997" 
d="M217 -451h-47l215 705q92 303 117.5 454.5t3.5 256.5q72 67 110.5 122t71.5 142q-59 -3 -115 -25t-98 -41.5t-72 -19.5q-49 0 -73.5 29t-10.5 81q15 46 48 72.5t71 26.5t74 -21t82 -43t108 -24q15 52 15.5 101t-7 79t-9 70.5t9.5 76.5q14 44 48 70.5t79 26.5
q46 0 69 -32.5t6 -86.5q-16 -51 -81 -138.5t-95 -168.5q61 4 118.5 27t101 43t73.5 20q46 0 69 -29.5t9 -81.5q-13 -46 -46 -72t-71 -26q-37 0 -73 20t-83 41.5t-110 24.5q-26 -92 -22.5 -152.5t34.5 -120.5q-81 -110 -150.5 -264.5t-158.5 -443.5z" />
    <glyph glyph-name="daggerdbl" unicode="&#x2021;" horiz-adv-x="1005" 
d="M195 -487q-46 0 -68.5 32t-7.5 86q16 51 81 139t95 169q-60 -4 -117.5 -27t-101.5 -43.5t-74 -20.5q-46 0 -69 30.5t-9 82.5q15 46 47 71t72 25q36 0 72 -20t83 -41.5t109 -24.5q28 89 25.5 152t-37.5 123q10 14 52 72t62 88.5t49 87.5t46 112q22 71 26.5 141.5t0 109.5
t-16.5 108q72 67 110.5 122t71.5 142q-59 -3 -114.5 -25t-97.5 -41.5t-72 -19.5q-49 0 -73.5 29t-10.5 81q15 46 47.5 72.5t70.5 26.5q31 0 61 -13t52 -29.5t62.5 -30.5t89.5 -15q15 52 15.5 101t-7.5 79t-9.5 70.5t9.5 76.5q14 44 48 70.5t79 26.5q47 0 70 -32.5t6 -86.5
q-11 -36 -33.5 -72.5t-45.5 -64t-51 -73.5t-47 -97q61 4 118.5 27t101 43t73.5 20q47 0 70.5 -29.5t7.5 -81.5q-13 -46 -46 -72t-71 -26q-37 0 -73 20t-83 41.5t-110 24.5q-28 -89 -25 -151t40 -122q-10 -14 -42.5 -58t-49.5 -68.5t-42.5 -66t-44 -83t-32.5 -86.5
q-21 -70 -25.5 -141t-0.5 -108.5t15 -108.5q-71 -66 -110.5 -122t-71.5 -143q59 3 115 25t98 41.5t72 19.5q49 0 73.5 -29t10.5 -81q-15 -46 -47.5 -72.5t-69.5 -26.5q-32 0 -62 13.5t-52.5 29.5t-62.5 30.5t-89 15.5q-23 -82 -7 -179t-1 -147q-12 -44 -46.5 -71t-80.5 -27z
" />
    <glyph glyph-name="bullet" unicode="&#x2022;" horiz-adv-x="641" 
d="M352 504q-95 0 -153 55t-58 143q0 121 95.5 221.5t220.5 100.5q96 0 152.5 -55t56.5 -142q0 -121 -94.5 -222t-219.5 -101z" />
    <glyph glyph-name="ellipsis" unicode="&#x2026;" horiz-adv-x="1357" 
d="M37 -25q-43 0 -70.5 26.5t-27.5 66.5q0 57 44 103t103 46q44 0 70 -26t26 -66q0 -56 -43.5 -103t-101.5 -47zM512 -25q-43 0 -70.5 26.5t-27.5 66.5q0 57 44 103t103 46q44 0 70 -26t26 -66q0 -56 -43.5 -103t-101.5 -47zM987 -25q-43 0 -70.5 26.5t-27.5 66.5
q0 57 44 103t103 46q44 0 70.5 -26t26.5 -66q0 -56 -44 -103t-102 -47z" />
    <glyph glyph-name="perthousand" unicode="&#x2030;" horiz-adv-x="2267" 
d="M477 840q-88 0 -137 64t-49 169q0 123 60.5 264t162 241.5t203.5 100.5q88 0 137 -64t49 -169q0 -124 -60.5 -265t-161.5 -241t-204 -100zM205 0l1194 1638h94l-1192 -1638h-96zM475 893q66 0 141 116t122.5 263t47.5 246q0 106 -67 106q-66 0 -141 -115.5t-122.5 -263
t-47.5 -246.5q0 -106 67 -106zM1032 -29q-88 0 -138 65.5t-50 170.5q0 91 37 198t95.5 197t137.5 150.5t156 60.5q88 0 138 -65t50 -170q0 -123 -61 -264.5t-162 -242t-203 -100.5zM1722 -29q-88 0 -138 65.5t-50 170.5q0 91 37 198t95.5 197t137.5 150.5t156 60.5
q88 0 138 -65t50 -170q0 -123 -60.5 -264.5t-162 -242t-203.5 -100.5zM1030 27q66 0 141 115t122.5 262.5t47.5 246.5q0 107 -69 107q-66 0 -141 -115.5t-122.5 -263t-47.5 -246.5q0 -106 69 -106zM1720 27q66 0 141.5 115t123 262.5t47.5 246.5q0 107 -68 107
q-67 0 -142.5 -115.5t-123 -262.5t-47.5 -247q0 -106 69 -106z" />
    <glyph glyph-name="guilsinglleft" unicode="&#x2039;" horiz-adv-x="573" 
d="M647 1094l-364 -494l96 -500h-43l-232 500l490 494h53z" />
    <glyph glyph-name="guilsinglright" unicode="&#x203a;" horiz-adv-x="573" 
d="M-41 100l363 494l-95 500h43l232 -500l-492 -494h-51z" />
    <glyph glyph-name="fraction" unicode="&#x2044;" horiz-adv-x="827" 
d="M-145 0l1192 1638h94l-1190 -1638h-96z" />
    <glyph glyph-name="Euro" unicode="&#x20ac;" horiz-adv-x="1343" 
d="M1096 1679q227 0 348 -151l-117 -393h-45q29 102 38.5 180.5t-1.5 144t-55.5 100.5t-122.5 35q-90 0 -177 -52t-159 -142.5t-131 -199.5t-107 -236h498l-45 -70h-479q-30 -92 -39 -131h440l-45 -70h-414q-45 -188 -45 -315q0 -144 55.5 -223.5t161.5 -79.5
q157 0 301.5 139.5t255.5 394.5l50 2q-59 -151 -126.5 -266.5t-151.5 -203t-187 -133.5t-222 -46q-175 0 -269.5 121t-94.5 330q0 128 35 280h-144l43 70h117q23 83 41 131h-141l45 70h121q56 144 133 268.5t173 226t215.5 160.5t246.5 59z" />
    <glyph glyph-name="trademark" unicode="&#x2122;" horiz-adv-x="2222" 
d="M686 1556h-86q-94 0 -144.5 -41.5t-105.5 -166.5h-49l125 290h821l-59 -290h-49q23 119 -1.5 163.5t-117.5 44.5h-82q-55 0 -70 -51l-172 -565q-33 -91 -17 -122.5t114 -31.5l-13 -49h-434l10 49q83 0 123.5 32t67.5 122l174 569q6 20 -3.5 33.5t-31.5 13.5zM1640 1638
l50 -673h6l469 673h301l-8 -49q-67 0 -101.5 -32.5t-60.5 -120.5l-146 -496q-32 -89 -13 -121.5t124 -32.5l-12 -49h-443l11 49q82 0 121 32.5t65 121.5l164 559h-8l-566 -803h-30l-66 803h-8l-172 -559q-31 -91 -17.5 -122.5t103.5 -31.5l-10 -49h-355l11 49q80 0 120.5 32
t67.5 122l152 496q32 91 22 122t-92 31l8 49h313z" />
    <glyph glyph-name="oneeighth" unicode="&#x215b;" horiz-adv-x="1732" 
d="M770 1649l-260 -856q-18 -58 1 -75.5t107 -17.5l-14 -28h-420l15 28q72 0 105.5 18.5t51.5 74.5l207 684q19 59 10 68q-12 11 -95 -23q-10 -4 -23 -9l4 37l291 121zM266 0l1192 1638h94l-1190 -1638h-96zM924 176q0 48 19 92t45.5 75.5t70 64.5t78 53.5t84.5 46.5
q-97 128 -97 217q0 114 100.5 193t243.5 79q96 0 152.5 -44.5t56.5 -123.5q0 -44 -21.5 -85.5t-64.5 -79t-88 -67.5t-110 -67q47 -56 68 -82.5t45 -77t24 -96.5q0 -120 -103.5 -206t-257.5 -86q-112 0 -178.5 53t-66.5 141zM1268 760q0 -76 82 -176q99 66 154 128.5
t55 129.5q0 48 -27.5 75t-79.5 27q-76 0 -130 -54.5t-54 -129.5zM1044 176q0 -64 33.5 -101.5t104.5 -37.5q87 0 142.5 51.5t55.5 128.5q0 105 -118 240q-40 -27 -63.5 -44t-57 -46.5t-52 -55.5t-32 -61.5t-13.5 -73.5z" />
    <glyph glyph-name="threeeighths" unicode="&#x215c;" horiz-adv-x="1880" 
d="M416 653q-76 0 -134.5 25t-58.5 63q0 30 21 51t53 21q24 0 41 -16t26.5 -35t31 -35t53.5 -16q93 0 166 84t73 204q0 88 -49.5 133.5t-140.5 45.5l6 30q139 42 215 113t76 162q0 98 -109 98q-149 0 -203 -170h-37q40 130 125 196t197 66q84 0 130 -40.5t46 -116.5
q0 -101 -85 -183.5t-216 -120.5v-8q86 -2 145.5 -57.5t59.5 -149.5q0 -136 -127 -240t-305 -104zM403 0l1192 1638h95l-1190 -1638h-97zM1073 176q0 59 25.5 110t75 93t92 68.5t106.5 60.5q-98 129 -98 217q0 114 100.5 193t243.5 79q96 0 152.5 -44.5t56.5 -123.5
q0 -44 -21.5 -85t-65 -79.5t-87.5 -68t-109 -66.5q2 -2 20.5 -25t22.5 -28t19.5 -25.5t20 -28.5t16.5 -27t15.5 -30.5t10 -28t8.5 -32t2 -31.5q0 -121 -103 -206.5t-257 -85.5q-112 0 -179 53t-67 141zM1419 760q0 -78 80 -176q209 137 209 258q0 48 -27 75t-77 27
q-76 0 -130.5 -54.5t-54.5 -129.5zM1194 176q0 -139 139 -139q86 0 142.5 51.5t56.5 128.5q0 59 -30.5 115.5t-88.5 124.5q-50 -33 -80.5 -56.5t-67 -59.5t-54 -77t-17.5 -88z" />
    <glyph glyph-name="fiveeighths" unicode="&#x215d;" horiz-adv-x="1835" 
d="M393 653q-80 0 -136 24.5t-56 61.5q0 29 25 51.5t55 22.5q23 0 40 -16t26 -35t28.5 -35t46.5 -16q61 0 125.5 61.5t106.5 157.5t42 188q0 61 -29.5 92t-80.5 31q-71 0 -146 -63l-34 28l182 432h381l-49 -116h-306l-106 -254l8 -4q83 53 160 53q78 0 129 -48.5t51 -135.5
q0 -122 -65 -233.5t-172.5 -179t-225.5 -67.5zM369 0l1194 1638h94l-1192 -1638h-96zM1026 176q0 59 25.5 110t75 93t92 68.5t106.5 60.5q-96 127 -96 217q0 114 100 193t242 79q97 0 153 -44.5t56 -123.5q0 -44 -21.5 -85t-65 -79.5t-87.5 -68t-109 -66.5q4 -5 23.5 -28.5
t25 -31t22 -29t22.5 -32.5t17 -31t15 -34.5t8 -33t4 -36.5q0 -120 -103.5 -206t-258.5 -86q-110 0 -178 53t-68 141zM1372 760q0 -74 80 -176q209 137 209 258q0 48 -27.5 75t-77.5 27q-76 0 -130 -54.5t-54 -129.5zM1147 176q0 -64 34 -101.5t105 -37.5q86 0 142.5 51.5
t56.5 128.5q0 60 -30.5 117t-88.5 123q-40 -27 -63.5 -44t-57.5 -47t-52 -55.5t-32 -61t-14 -73.5z" />
    <glyph glyph-name="seveneighths" unicode="&#x215e;" horiz-adv-x="1728" 
d="M250 0l1192 1638h94l-1190 -1638h-96zM1042 1638l-641 -985l-118 37l571 832h-295q-56 0 -90 -28.5t-76 -109.5l-20 23l65 127l56 104h548zM920 176q0 59 25.5 110t75 93t92 68.5t106.5 60.5q-97 128 -97 217q0 114 99.5 193t242.5 79q96 0 152.5 -44.5t56.5 -123.5
q0 -44 -21.5 -85.5t-64.5 -79t-87 -67.5t-109 -67q2 -2 20.5 -25t22.5 -28t19.5 -25.5t20 -28.5t16.5 -27t15.5 -30.5t10 -28t8.5 -32t2 -31.5q0 -120 -103.5 -206t-257.5 -86q-112 0 -178.5 53t-66.5 141zM1266 760q0 -78 80 -176q208 136 208 258q0 48 -27 75t-77 27
q-76 0 -130 -54.5t-54 -129.5zM1040 176q0 -64 33.5 -101.5t106.5 -37.5q86 0 142 51.5t56 128.5q0 105 -118 240q-40 -26 -64.5 -44t-57.5 -47t-52 -55t-32.5 -61.5t-13.5 -73.5z" />
    <glyph glyph-name="arrowleft" unicode="&#x2190;" horiz-adv-x="1748" 
d="M1647 612v-118h-1039q-72 0 -174 19t-160 19v-6q85 -38 150.5 -80t113.5 -89.5t76.5 -84.5t65.5 -92l-117 -100q-89 164 -193.5 264t-267.5 174v72q164 74 268 173.5t193 262.5l117 -98q-36 -56 -65.5 -93.5t-77 -85t-113 -89.5t-150.5 -80v-7q58 0 160 19.5t174 19.5
h1039z" />
    <glyph glyph-name="arrowup" unicode="&#x2191;" horiz-adv-x="1167" 
d="M643 909v-1038h-119v1038q0 72 19.5 175t19.5 161h-6q-38 -86 -80 -152t-89.5 -113t-84.5 -75.5t-92 -64.5l-100 114q164 89 264 193.5t174 267.5h72q74 -164 173.5 -268t262.5 -193l-99 -114q-56 35 -93.5 64t-85 76t-89.5 113t-80 152h-6q0 -58 19.5 -161t19.5 -175z
" />
    <glyph glyph-name="arrowright" unicode="&#x2192;" horiz-adv-x="1748" 
d="M1141 494h-1039v118h1039q72 0 174 -19.5t160 -19.5v7q-85 38 -150.5 80t-113 89.5t-77 85t-65.5 93.5l117 98q89 -163 193 -262.5t268 -173.5v-72q-163 -74 -267.5 -174t-193.5 -264l-117 100q37 55 65.5 92t76.5 84.5t113.5 89.5t150.5 80v6q-59 0 -161 -19t-173 -19z
" />
    <glyph glyph-name="arrowdown" unicode="&#x2193;" horiz-adv-x="1167" 
d="M524 1286h119v-1038q0 -72 -19.5 -175t-19.5 -161h6q38 86 80 152t89.5 113t85 76t93.5 64l99 -114q-163 -89 -262.5 -193t-173.5 -268h-72q-74 163 -174 267.5t-264 193.5l100 114q55 -36 92 -64.5t84.5 -75.5t89.5 -113t80 -152h6q0 58 -19.5 161t-19.5 175v1038z" />
    <glyph glyph-name="arrowboth" unicode="&#x2194;" horiz-adv-x="2363" 
d="M1683 928l117 98q89 -163 193 -262.5t268 -173.5v-72q-163 -74 -267.5 -174t-193.5 -264l-117 100q37 55 65.5 92t76.5 84.5t113.5 89.5t150.5 80v6q-59 0 -161 -19t-173 -19h-1147q-72 0 -174 19t-160 19v-6q85 -38 150.5 -80t113.5 -89.5t76.5 -84.5t65.5 -92
l-117 -100q-89 164 -193.5 264t-267.5 174v72q164 74 268 173.5t193 262.5l117 -98q-36 -56 -65.5 -93.5t-77 -85t-113 -89.5t-150.5 -80v-7q58 0 160 19.5t174 19.5h1147q72 0 174 -19.5t160 -19.5v7q-85 38 -150.5 80t-113 89.5t-77 85t-65.5 93.5z" />
    <glyph glyph-name="arrowupdn" unicode="&#x2195;" horiz-adv-x="1153" 
d="M596 -360h6q38 85 80 150.5t90 113t85 76t93 65.5l101 -117q-165 -89 -265 -192.5t-174 -267.5h-71q-74 163 -174.5 267t-264.5 193l101 117q56 -37 92.5 -65.5t84.5 -76t89.5 -113t79.5 -150.5h6q0 58 -19.5 159.5t-19.5 173.5v1147q0 70 19.5 173t19.5 161h-6
q-38 -85 -79.5 -150.5t-89.5 -113t-84.5 -76t-92.5 -65.5l-101 116q164 89 264.5 193.5t174.5 267.5h71q74 -164 174 -268t265 -193l-101 -116q-56 37 -93 65.5t-85 76t-90 113t-80 150.5h-6q0 -58 20.5 -160t20.5 -174v-1147q0 -72 -20.5 -173.5t-20.5 -159.5z" />
    <glyph glyph-name="uni2196" unicode="&#x2196;" horiz-adv-x="1374" 
d="M1260 70l-86 -86l-734 733q-50 51 -109 138t-100 128l-4 -4q34 -88 50.5 -164t16.5 -143.5t-6 -115t-20 -110.5l-151 11q53 175 50 321t-67 316l52 49q168 -64 313.5 -67t320.5 50l11 -151q-85 -19 -148.5 -25t-165.5 8.5t-217 57.5l-6 -4q42 -42 129 -100t137 -109z" />
    <glyph glyph-name="uni2197" unicode="&#x2197;" horiz-adv-x="1374" 
d="M932 717l-733 -733l-84 86l733 733q50 50 136 108.5t128 100.5l-4 4q-88 -33 -164 -49.5t-142.5 -17t-114.5 5.5t-112 20l13 151q175 -53 321 -50t314 67l51 -49q-64 -170 -67 -316t50 -321l-153 -11q-18 87 -24 149t8 166t57 218l-4 4q-40 -41 -99 -128t-110 -138z" />
    <glyph glyph-name="uni2198" unicode="&#x2198;" horiz-adv-x="1374" 
d="M115 1036l84 86l733 -733q51 -51 110 -138t99 -128l4 4q-43 114 -57 217.5t-8 165.5t24 149l153 -10q-53 -175 -50 -321t67 -316l-51 -49q-168 64 -314 67t-321 -50l-13 151q64 14 112 20t114.5 5.5t142.5 -17t164 -49.5l4 4q-42 42 -128 100.5t-136 108.5z" />
    <glyph glyph-name="uni2199" unicode="&#x2199;" horiz-adv-x="1374" 
d="M440 389l734 733l86 -86l-734 -733q-41 -41 -89.5 -75.5t-94.5 -66t-82 -67.5l6 -4q115 43 217 57.5t165.5 8.5t148.5 -25l-11 -151q-175 53 -320.5 50t-313.5 -67l-52 49q64 170 67 316t-50 321l151 10q14 -64 20 -111t6 -114t-16.5 -143t-50.5 -164l4 -4
q41 42 100 128.5t109 137.5z" />
    <glyph glyph-name="partialdiff" unicode="&#x2202;" horiz-adv-x="1183" 
d="M664 1659q213 0 319 -212t86 -609q-21 -402 -162.5 -630t-382.5 -228q-187 0 -303.5 140.5t-116.5 375.5q0 113 34 215t95.5 181.5t156.5 126t210 46.5q78 0 145 -22.5t114 -60.5t79 -78t55 -85q5 151 -13 268.5t-51 192t-82 122.5t-101.5 67.5t-114.5 19.5
q-211 0 -332 -197h-45q138 367 410 367zM549 70q118 0 213 86.5t153 237t74 343.5q-104 238 -303 238q-86 0 -158.5 -50.5t-117.5 -131t-70 -175t-25 -186.5q0 -168 61.5 -265t172.5 -97z" />
    <glyph glyph-name="emptyset" unicode="&#x2205;" horiz-adv-x="1333" 
d="M1171 1194l60 -59l-168 -168q123 -146 123 -336q0 -106 -41 -202t-111 -166t-166 -111t-202 -41q-192 0 -336 125l-168 -168l-60 59l168 168q-123 146 -123 336q0 141 69.5 261t189 189.5t260.5 69.5q191 0 338 -125zM231 631q0 -154 99 -277l612 613q-122 98 -276 98
q-180 0 -307.5 -127t-127.5 -307zM1102 631q0 154 -101 276l-612 -612q122 -98 277 -98q180 0 308 127t128 307z" />
    <glyph glyph-name="product" unicode="&#x220f;" horiz-adv-x="1726" 
d="M1952 1665l-15 -49q-117 0 -167 -32t-78 -122l-492 -1601q-33 -91 -6.5 -122.5t158.5 -31.5l-15 -49h-610l14 49q119 0 169.5 31.5t76.5 122.5l526 1720h-659l-526 -1720q-34 -91 -7.5 -122.5t158.5 -31.5l-14 -49h-610l14 49q119 0 169.5 31.5t76.5 122.5l491 1601
q34 89 7.5 121.5t-158.5 32.5l14 49h1483z" />
    <glyph glyph-name="summation" unicode="&#x2211;" horiz-adv-x="1476" 
d="M412 1665h1181l-12 -59l-65 -289l-43 31q14 63 18 103.5t0 67t-21.5 39t-41 17t-64.5 4.5h-711l318 -776l-916 -948h799q65 0 110 28.5t91 99.5t110 212l35 -41l-147 -330l-76 -168h-1180l15 49l956 993l2 7l-373 911z" />
    <glyph glyph-name="minus" unicode="&#x2212;" horiz-adv-x="976" 
d="M901 539h-799l45 149h799z" />
    <glyph glyph-name="radical" unicode="&#x221a;" horiz-adv-x="1441" 
d="M1706 1817h84l-1280 -1944h-72l-30 1063l-302 -121l-4 74l523 211l12 -901h6z" />
    <glyph glyph-name="infinity" unicode="&#x221e;" horiz-adv-x="1914" 
d="M1505 1212q165 0 270 -99.5t105 -274.5q0 -179 -106.5 -285.5t-270.5 -106.5q-57 0 -110.5 15.5t-94.5 37t-90.5 63.5t-83 75.5t-88.5 93.5q-148 -131 -263.5 -187.5t-227.5 -56.5q-159 0 -248.5 93.5t-89.5 238.5q0 157 97.5 254.5t246.5 97.5q65 0 124.5 -19.5
t116 -60.5t96.5 -78.5t97 -97.5q87 82 141 127t120 89t128 62.5t131 18.5zM1503 545q125 0 209 83.5t84 211.5q0 117 -70.5 188.5t-181.5 71.5q-33 0 -62 -6t-59.5 -22t-53 -30t-57 -45t-55.5 -51.5t-65 -65t-70 -69.5l-20 -20q59 -61 100 -99t92.5 -75.5t102.5 -54.5
t106 -17zM510 600q87 0 170 54t238 200q-115 119 -197 170t-170 51q-115 0 -187.5 -74t-72.5 -182q0 -94 58 -156.5t161 -62.5z" />
    <glyph glyph-name="integral" unicode="&#x222b;" horiz-adv-x="1003" 
d="M535 49q-54 -202 -165.5 -310t-279.5 -108q-98 0 -153.5 44t-55.5 116q0 61 36 106.5t89 45.5q33 0 49.5 -16.5t16.5 -43.5q0 -10 -4.5 -35t-6 -45t1 -41.5t18 -34t44.5 -12.5q70 0 125.5 81t91.5 214q34 122 57 299t35 328.5t41 336t72 324.5q63 203 175.5 312.5
t274.5 109.5q95 0 150 -43.5t55 -115.5q0 -62 -36 -107t-91 -45q-63 0 -63 66q0 12 6 45.5t8 55.5t-12.5 41t-50.5 19q-71 0 -125 -79t-99 -224q-45 -147 -73.5 -330.5t-38.5 -330.5t-33 -321.5t-59 -301.5z" />
    <glyph glyph-name="approxequal" unicode="&#x2248;" horiz-adv-x="1267" 
d="M1247 989l51 -6q-53 -148 -144 -231.5t-204 -83.5q-59 0 -113.5 17.5t-97.5 42t-85.5 49t-93.5 42t-105 17.5q-185 0 -265 -168l-49 4q53 149 143.5 233t202.5 84q59 0 113.5 -17.5t98 -42.5t86 -50t93.5 -42.5t105 -17.5q183 0 264 170zM1130 600l50 -6
q-51 -147 -142.5 -231t-203.5 -84q-59 0 -114 17t-98.5 41.5t-86 49.5t-93.5 42t-104 17q-186 0 -266 -167l-47 4q51 149 142 233t204 84q58 0 112.5 -17.5t97.5 -42.5t85 -50t93 -42.5t105 -17.5q182 0 266 170z" />
    <glyph glyph-name="notequal" unicode="&#x2260;" horiz-adv-x="909" 
d="M870 1186h82l-233 -309h186l-45 -150h-254l-170 -225h377l-45 -148h-442l-215 -284h-80l215 284h-170l45 148h235l168 225h-356l45 150h424z" />
    <glyph glyph-name="lessequal" unicode="&#x2264;" horiz-adv-x="968" 
d="M205 883l815 237l-57 -170l-664 -188l-2 -8l567 -187l-53 -145l-672 240zM750 217h-725l47 152h725z" />
    <glyph glyph-name="greaterequal" unicode="&#x2265;" horiz-adv-x="960" 
d="M895 659l-815 -237l57 172l664 188l2 9l-567 184l53 145l672 -237zM739 217h-725l45 152h727z" />
    <glyph glyph-name="uni2460" unicode="&#x2460;" horiz-adv-x="1974" 
d="M918 -20q-171 0 -311.5 50t-234.5 139.5t-145 213.5t-51 270q0 122 35.5 244t100 233t160.5 207.5t212 166.5t259.5 110.5t297.5 40.5q177 0 317.5 -53.5t228.5 -146t133.5 -212t45.5 -256.5q0 -118 -33.5 -238.5t-95.5 -232.5t-155.5 -210t-206.5 -170t-257 -114
t-300 -42zM926 27q147 0 282 39.5t241.5 108t194 160.5t145 197.5t89 219.5t31.5 225q0 130 -42 242.5t-123.5 200t-213 138t-299.5 50.5q-173 0 -331 -53.5t-277.5 -146t-208.5 -212.5t-135 -257t-46 -275q0 -284 185.5 -460.5t507.5 -176.5zM1307 1307l-258 -856
q-20 -57 -1 -75t107 -18l-14 -28h-420l14 28q73 0 106.5 18.5t51.5 74.5l207 684q19 59 9 68q-12 11 -97 -24q-8 -4 -19 -8l4 37l291 121z" />
    <glyph glyph-name="uni2461" unicode="&#x2461;" 
d="M918 -20q-171 0 -311.5 50t-234.5 139.5t-145 213.5t-51 270q0 122 35.5 244t100 233t160.5 207.5t212 166.5t259.5 110.5t297.5 40.5q177 0 317.5 -53.5t228.5 -146t133.5 -212t45.5 -256.5q0 -118 -33.5 -238.5t-95.5 -232.5t-155.5 -210t-206.5 -170t-257 -114
t-300 -42zM926 27q147 0 282 39.5t241.5 108t194 160.5t145 197.5t89 219.5t31.5 225q0 130 -42 242.5t-123.5 200t-213 138t-299.5 50.5q-173 0 -331 -53.5t-277.5 -146t-208.5 -212.5t-135 -257t-46 -275q0 -284 185.5 -460.5t507.5 -176.5zM1149 330h-526l8 28
q87 71 138 113.5t126 108.5t119.5 111t96.5 104.5t80 107.5t47 101t19 102q0 48 -30 75t-86 27q-84 0 -152.5 -68.5t-107.5 -185.5h-35q50 167 161.5 271t245.5 104q86 0 129 -40.5t43 -112.5q0 -272 -608 -717l-2 -8h287q54 0 88 31t84 108h33z" />
    <glyph glyph-name="uni2462" unicode="&#x2462;" 
d="M918 -20q-171 0 -311.5 50t-234.5 139.5t-145 213.5t-51 270q0 122 35.5 244t100 233t160.5 207.5t212 166.5t259.5 110.5t297.5 40.5q177 0 317.5 -53.5t228.5 -146t133.5 -212t45.5 -256.5q0 -118 -33.5 -238.5t-95.5 -232.5t-155.5 -210t-206.5 -170t-257 -114
t-300 -42zM926 27q147 0 282 39.5t241.5 108t194 160.5t145 197.5t89 219.5t31.5 225q0 130 -42 242.5t-123.5 200t-213 138t-299.5 50.5q-173 0 -331 -53.5t-277.5 -146t-208.5 -212.5t-135 -257t-46 -275q0 -284 185.5 -460.5t507.5 -176.5zM864 309q-76 0 -134 25t-58 63
q0 30 22 51t54 21q23 0 39.5 -16t26 -35t30.5 -35t53 -16q94 0 168 84t74 204q0 88 -50.5 133.5t-142.5 45.5l6 30q140 42 216.5 112.5t76.5 162.5q0 98 -110 98q-146 0 -203 -170h-37q42 130 127 196t197 66q82 0 128 -41t46 -117q0 -101 -84.5 -183t-214.5 -120l-2 -8
q87 -2 145.5 -57t58.5 -150q0 -136 -126 -240t-306 -104z" />
    <glyph glyph-name="uni2463" unicode="&#x2463;" 
d="M918 -20q-171 0 -311.5 50t-234.5 139.5t-145 213.5t-51 270q0 122 35.5 244t100 233t160.5 207.5t212 166.5t259.5 110.5t297.5 40.5q177 0 317.5 -53.5t228.5 -146t133.5 -212t45.5 -256.5q0 -118 -33.5 -238.5t-95.5 -232.5t-155.5 -210t-206.5 -170t-257 -114
t-300 -42zM926 27q147 0 282 39.5t241.5 108t194 160.5t145 197.5t89 219.5t31.5 225q0 130 -42 242.5t-123.5 200t-213 138t-299.5 50.5q-173 0 -331 -53.5t-277.5 -146t-208.5 -212.5t-135 -257t-46 -275q0 -284 185.5 -460.5t507.5 -176.5zM1014 592h-373l33 113l592 620
h108l-188 -620h112l-34 -113h-113l-43 -141q-20 -57 -4.5 -75t90.5 -18l-12 -28h-369l12 28q67 0 98 18.5t48 74.5zM743 709l-4 -4h310l153 489z" />
    <glyph glyph-name="uni2464" unicode="&#x2464;" 
d="M918 -20q-171 0 -311.5 50t-234.5 139.5t-145 213.5t-51 270q0 122 35.5 244t100 233t160.5 207.5t212 166.5t259.5 110.5t297.5 40.5q177 0 317.5 -53.5t228.5 -146t133.5 -212t45.5 -256.5q0 -118 -33.5 -238.5t-95.5 -232.5t-155.5 -210t-206.5 -170t-257 -114
t-300 -42zM926 27q147 0 282 39.5t241.5 108t194 160.5t145 197.5t89 219.5t31.5 225q0 130 -42 242.5t-123.5 200t-213 138t-299.5 50.5q-173 0 -331 -53.5t-277.5 -146t-208.5 -212.5t-135 -257t-46 -275q0 -284 185.5 -460.5t507.5 -176.5zM854 307q-79 0 -134.5 24.5
t-55.5 63.5q0 28 24 51t53 23q24 0 41 -16.5t26.5 -35.5t29 -35.5t47.5 -16.5q61 0 125 62t105.5 158t41.5 187q0 61 -29.5 92t-80.5 31q-74 0 -144 -64l-37 31l185 430h381l-52 -116h-305l-104 -254l6 -4q79 53 160 53q78 0 129 -48.5t51 -136.5q0 -92 -39 -180
t-102.5 -153.5t-148.5 -105.5t-173 -40z" />
    <glyph glyph-name="uni2465" unicode="&#x2465;" 
d="M918 -20q-171 0 -311.5 50t-234.5 139.5t-145 213.5t-51 270q0 122 35.5 244t100 233t160.5 207.5t212 166.5t259.5 110.5t297.5 40.5q177 0 317.5 -53.5t228.5 -146t133.5 -212t45.5 -256.5q0 -118 -33.5 -238.5t-95.5 -232.5t-155.5 -210t-206.5 -170t-257 -114
t-300 -42zM926 27q147 0 282 39.5t241.5 108t194 160.5t145 197.5t89 219.5t31.5 225q0 130 -42 242.5t-123.5 200t-213 138t-299.5 50.5q-173 0 -331 -53.5t-277.5 -146t-208.5 -212.5t-135 -257t-46 -275q0 -284 185.5 -460.5t507.5 -176.5zM913 307q-114 0 -174.5 65.5
t-60.5 188.5q0 114 54.5 238t149.5 233t240 189.5t310 103.5l6 -35q-300 -69 -480 -362l5 -4q85 75 180 75q93 0 141.5 -56t48.5 -152q0 -55 -17 -119t-52.5 -129t-84 -117.5t-118 -85.5t-148.5 -33zM913 358q60 0 114.5 50.5t89 123.5t55 148.5t20.5 130.5q0 64 -24 100.5
t-70 36.5q-38 0 -83.5 -23t-84.5 -63q-50 -83 -82.5 -181.5t-32.5 -188.5q0 -134 98 -134z" />
    <glyph glyph-name="uni2466" unicode="&#x2466;" 
d="M918 -20q-171 0 -311.5 50t-234.5 139.5t-145 213.5t-51 270q0 122 35.5 244t100 233t160.5 207.5t212 166.5t259.5 110.5t297.5 40.5q177 0 317.5 -53.5t228.5 -146t133.5 -212t45.5 -256.5q0 -118 -33.5 -238.5t-95.5 -232.5t-155.5 -210t-206.5 -170t-257 -114
t-300 -42zM926 27q147 0 282 39.5t241.5 108t194 160.5t145 197.5t89 219.5t31.5 225q0 130 -42 242.5t-123.5 200t-213 138t-299.5 50.5q-173 0 -331 -53.5t-277.5 -146t-208.5 -212.5t-135 -257t-46 -275q0 -284 185.5 -460.5t507.5 -176.5zM1487 1292l-641 -985l-119 37
l571 832h-294q-57 0 -91 -28t-75 -108l-21 23l66 125l55 104h549z" />
    <glyph glyph-name="uni2467" unicode="&#x2467;" 
d="M918 -20q-171 0 -311.5 50t-234.5 139.5t-145 213.5t-51 270q0 122 35.5 244t100 233t160.5 207.5t212 166.5t259.5 110.5t297.5 40.5q177 0 317.5 -53.5t228.5 -146t133.5 -212t45.5 -256.5q0 -118 -33.5 -238.5t-95.5 -232.5t-155.5 -210t-206.5 -170t-257 -114
t-300 -42zM926 27q147 0 282 39.5t241.5 108t194 160.5t145 197.5t89 219.5t31.5 225q0 130 -42 242.5t-123.5 200t-213 138t-299.5 50.5q-173 0 -331 -53.5t-277.5 -146t-208.5 -212.5t-135 -257t-46 -275q0 -284 185.5 -460.5t507.5 -176.5zM688 502q0 48 19 92t45.5 75.5
t71.5 65t78 53.5t85 48q-96 123 -96 215q0 114 100 193t242 79q96 0 152.5 -43.5t56.5 -122.5q0 -44 -21.5 -85t-65 -79.5t-87.5 -68t-109 -66.5q4 -5 31 -38.5t34 -43t26 -38.5t25.5 -46t13.5 -42.5t7 -49.5q0 -120 -104 -206.5t-258 -86.5q-110 0 -178 53.5t-68 141.5z
M1034 1085q0 -72 80 -174q209 133 209 256q0 48 -27 75.5t-77 27.5q-76 0 -130.5 -55t-54.5 -130zM809 502q0 -63 34 -101.5t105 -38.5q86 0 142.5 53t56.5 130q0 58 -30.5 114.5t-88.5 122.5q-38 -25 -64 -43t-58 -46.5t-51 -55t-32.5 -62t-13.5 -73.5z" />
    <glyph glyph-name="uni2468" unicode="&#x2468;" 
d="M1225 1659q171 0 311.5 -50.5t234 -140t144.5 -213.5t51 -270t-49.5 -291.5t-144.5 -272.5t-222.5 -225t-296 -155t-352.5 -57q-143 0 -262 35t-204 96.5t-144 145.5t-87 182.5t-28 207.5q0 118 33.5 239t95.5 233t155.5 209.5t207 170t257.5 114.5t300 42zM1217 1612
q-147 0 -282.5 -39.5t-241.5 -108t-194 -160.5t-145.5 -197.5t-89 -219.5t-31.5 -225q0 -130 42 -242.5t123.5 -200t213 -138t299.5 -50.5q173 0 331 53.5t277.5 146t208.5 212.5t135 257t46 275q0 284 -185 460.5t-507 176.5zM1229 1331q114 0 174.5 -65.5t60.5 -188.5
q0 -75 -24.5 -156.5t-69 -161t-112 -153.5t-149 -133.5t-184.5 -102t-214 -57.5l-6 37q297 65 479 361l-4 4q-90 -76 -181 -76q-93 0 -141.5 56t-48.5 153q0 55 17 119t52.5 128.5t84 117t118 85.5t148.5 33zM1229 1280q-60 0 -114.5 -50.5t-89 -123t-55 -148t-20.5 -129.5
q0 -66 23.5 -102.5t68.5 -36.5q39 0 85 23t85 63q50 83 82.5 182t32.5 189q0 133 -98 133z" />
    <glyph glyph-name="uni2469" unicode="&#x2469;" 
d="M918 -20q-171 0 -311.5 50t-234.5 139.5t-145 213.5t-51 270q0 122 35.5 244t100 233t160.5 207.5t212 166.5t259.5 110.5t297.5 40.5q177 0 317.5 -53.5t228.5 -146t133.5 -212t45.5 -256.5q0 -118 -33.5 -238.5t-95.5 -232.5t-155.5 -210t-206.5 -170t-257 -114
t-300 -42zM922 27q147 0 282 39.5t241.5 108t194 160.5t145 197.5t89 219.5t31.5 225q0 130 -42 242.5t-123.5 200t-213 138t-299.5 50.5q-173 0 -331 -53.5t-277.5 -146t-208.5 -212.5t-135 -257t-46 -275q0 -284 185.5 -460.5t507.5 -176.5zM1016 1307l-256 -856
q-18 -58 1 -75.5t105 -17.5l-14 -28h-414l15 28q72 0 104.5 18.5t50.5 74.5l205 684q19 64 4.5 70t-110.5 -34l4 37l284 121zM1161 309q-108 0 -166.5 74t-58.5 201q0 169 74 342.5t192.5 287t237.5 113.5q109 0 169 -76t60 -207q0 -126 -45 -259.5t-115.5 -237.5t-164 -171
t-183.5 -67zM1161 365q52 0 117 75t118.5 185.5t90.5 247.5t37 251q0 148 -80 148q-52 0 -117 -75.5t-119.5 -187t-91.5 -248.5t-37 -249q0 -147 82 -147z" />
    <glyph glyph-name="uni246A" unicode="&#x246a;" 
d="M918 -20q-171 0 -311.5 50t-234.5 139.5t-145 213.5t-51 270q0 122 35.5 244t100 233t160.5 207.5t212 166.5t259.5 110.5t297.5 40.5q177 0 317.5 -53.5t228.5 -146t133.5 -212t45.5 -256.5q0 -118 -33.5 -238.5t-95.5 -232.5t-155.5 -210t-206.5 -170t-257 -114
t-300 -42zM922 27q147 0 282 39.5t241.5 108t194 160.5t145 197.5t89 219.5t31.5 225q0 130 -42 242.5t-123.5 200t-213 138t-299.5 50.5q-173 0 -331 -53.5t-277.5 -146t-208.5 -212.5t-135 -257t-46 -275q0 -284 185.5 -460.5t507.5 -176.5zM1075 1307l-260 -856
q-18 -58 1.5 -75.5t107.5 -17.5l-15 -28h-422l15 28q74 0 107 18.5t50 74.5l209 684q19 64 4.5 70t-112.5 -34l4 37l291 121zM1552 1307l-260 -856q-18 -58 1.5 -75.5t107.5 -17.5l-15 -28h-419l14 28q73 0 106.5 18.5t51.5 74.5l207 684q19 58 10 67q-12 12 -96 -22
q-10 -4 -23 -9l4 37l291 121z" />
    <glyph glyph-name="uni246B" unicode="&#x246b;" 
d="M918 -20q-171 0 -311.5 50t-234.5 139.5t-145 213.5t-51 270q0 122 35.5 244t100 233t160.5 207.5t212 166.5t259.5 110.5t297.5 40.5q177 0 317.5 -53.5t228.5 -146t133.5 -212t45.5 -256.5q0 -118 -33.5 -238.5t-95.5 -232.5t-155.5 -210t-206.5 -170t-257 -114
t-300 -42zM922 27q147 0 282 39.5t241.5 108t194 160.5t145 197.5t89 219.5t31.5 225q0 130 -42 242.5t-123.5 200t-213 138t-299.5 50.5q-173 0 -331 -53.5t-277.5 -146t-208.5 -212.5t-135 -257t-46 -275q0 -284 185.5 -460.5t507.5 -176.5zM1006 1307l-258 -856
q-20 -57 -0.5 -75t106.5 -18l-14 -28h-420l14 28q73 0 106.5 18.5t51.5 74.5l207 684q19 59 9 68q-12 11 -97 -24q-8 -4 -19 -8l4 37l291 121zM1405 330h-526l8 28q87 71 138 113.5t126 108.5t119.5 111t96.5 104.5t80 107.5t47 101t19 102q0 48 -30 75t-86 27
q-84 0 -152.5 -68.5t-107.5 -185.5h-35q50 167 161.5 271t245.5 104q86 0 129 -40.5t43 -112.5q0 -272 -608 -717l-2 -8h287q54 0 88 31t84 108h33z" />
    <glyph glyph-name="uni246C" unicode="&#x246c;" 
d="M918 -20q-171 0 -311.5 50t-234.5 139.5t-145 213.5t-51 270q0 122 35.5 244t100 233t160.5 207.5t212 166.5t259.5 110.5t297.5 40.5q177 0 317.5 -53.5t228.5 -146t133.5 -212t45.5 -256.5q0 -118 -33.5 -238.5t-95.5 -232.5t-155.5 -210t-206.5 -170t-257 -114
t-300 -42zM922 27q147 0 282 39.5t241.5 108t194 160.5t145 197.5t89 219.5t31.5 225q0 130 -42 242.5t-123.5 200t-213 138t-299.5 50.5q-173 0 -331 -53.5t-277.5 -146t-208.5 -212.5t-135 -257t-46 -275q0 -284 185.5 -460.5t507.5 -176.5zM1010 1307l-258 -856
q-18 -58 1 -75.5t107 -17.5l-16 -28h-420l14 28q74 0 107.5 18.5t50.5 74.5l209 684q19 64 4 70t-113 -34l4 37l291 121zM1112 309q-76 0 -134 25t-58 63q0 30 21.5 51t53.5 21q24 0 41 -16t26 -35t30 -35t53 -16q94 0 167.5 84t73.5 204q0 88 -49.5 133.5t-140.5 45.5l6 30
q139 42 215 113t76 162q0 98 -111 98q-145 0 -202 -170h-35q40 130 124.5 196t196.5 66q83 0 129.5 -41t46.5 -117q0 -101 -85.5 -183t-215.5 -120v-8q86 -2 144.5 -57t58.5 -150q0 -136 -126 -240t-306 -104z" />
    <glyph glyph-name="uni246D" unicode="&#x246d;" 
d="M918 -20q-171 0 -311.5 50t-234.5 139.5t-145 213.5t-51 270q0 122 35.5 244t100 233t160.5 207.5t212 166.5t259.5 110.5t297.5 40.5q177 0 317.5 -53.5t228.5 -146t133.5 -212t45.5 -256.5q0 -118 -33.5 -238.5t-95.5 -232.5t-155.5 -210t-206.5 -170t-257 -114
t-300 -42zM922 27q147 0 282 39.5t241.5 108t194 160.5t145 197.5t89 219.5t31.5 225q0 130 -42 242.5t-123.5 200t-213 138t-299.5 50.5q-173 0 -331 -53.5t-277.5 -146t-208.5 -212.5t-135 -257t-46 -275q0 -284 185.5 -460.5t507.5 -176.5zM1004 1307l-259 -856
q-20 -57 -0.5 -75t107.5 -18l-14 -28h-420l14 28q73 0 106.5 18.5t51.5 74.5l207 684q19 59 9 68q-12 11 -97 -24q-8 -4 -19 -8l4 37l291 121zM1280 592h-375l33 113l592 622h110l-190 -622h115l-35 -113h-113l-45 -141q-19 -57 -3 -75t91 -18l-12 -28h-369l13 28
q67 0 97.5 18.5t47.5 74.5zM1008 709l-2 -4h309l151 489z" />
    <glyph glyph-name="uni246E" unicode="&#x246e;" 
d="M918 -20q-171 0 -311.5 50t-234.5 139.5t-145 213.5t-51 270q0 122 35.5 244t100 233t160.5 207.5t212 166.5t259.5 110.5t297.5 40.5q177 0 317.5 -53.5t228.5 -146t133.5 -212t45.5 -256.5q0 -118 -33.5 -238.5t-95.5 -232.5t-155.5 -210t-206.5 -170t-257 -114
t-300 -42zM922 27q147 0 282 39.5t241.5 108t194 160.5t145 197.5t89 219.5t31.5 225q0 130 -42 242.5t-123.5 200t-213 138t-299.5 50.5q-173 0 -331 -53.5t-277.5 -146t-208.5 -212.5t-135 -257t-46 -275q0 -284 185.5 -460.5t507.5 -176.5zM1026 1307l-258 -856
q-18 -58 1 -75.5t105 -17.5l-14 -28h-420l15 28q73 0 106.5 19t50.5 74l209 684q19 64 4.5 70t-112.5 -34l4 37l291 121zM1112 322q-79 0 -134.5 23.5t-55.5 62.5q0 29 23.5 51t53.5 22q24 0 41 -16.5t26 -35.5t28.5 -35.5t46.5 -16.5q62 0 126.5 62t106 157.5t41.5 187.5
q0 61 -29.5 93t-80.5 32q-72 0 -146 -65l-35 30l185 433h381l-52 -119h-305l-104 -254l6 -4q82 55 160 55t129 -49t51 -137q0 -121 -65 -232t-172.5 -178t-225.5 -67z" />
    <glyph glyph-name="uni246F" unicode="&#x246f;" 
d="M918 -20q-171 0 -311.5 50t-234.5 139.5t-145 213.5t-51 270q0 122 35.5 244t100 233t160.5 207.5t212 166.5t259.5 110.5t297.5 40.5q177 0 317.5 -53.5t228.5 -146t133.5 -212t45.5 -256.5q0 -118 -33.5 -238.5t-95.5 -232.5t-155.5 -210t-206.5 -170t-257 -114
t-300 -42zM922 27q147 0 282 39.5t241.5 108t194 160.5t145 197.5t89 219.5t31.5 225q0 130 -42 242.5t-123.5 200t-213 138t-299.5 50.5q-173 0 -331 -53.5t-277.5 -146t-208.5 -212.5t-135 -257t-46 -275q0 -284 185.5 -460.5t507.5 -176.5zM1178 313q-111 0 -170.5 65.5
t-59.5 188.5q0 91 33 189t98 192t152.5 173t206 135.5t248.5 74.5l6 -35q-292 -68 -469 -362l4 -4q86 76 176 76q91 0 138.5 -56t47.5 -153q0 -56 -16.5 -119.5t-51 -128.5t-82 -117.5t-116 -85.5t-145.5 -33zM1010 1307l-260 -856q-9 -31 -10 -47.5t11 -28t36 -14.5t71 -3
l-14 -30h-422l14 30q75 0 108 18t50 75l209 684q11 35 13 48.5t-9.5 19t-35.5 -2.5t-77 -29l4 35l291 121zM1178 365q59 0 112.5 50.5t87 123t53 148t19.5 130.5q0 65 -22.5 101t-67.5 36q-38 0 -82.5 -23t-83.5 -63q-49 -84 -81 -182.5t-32 -187.5q0 -133 97 -133z" />
    <glyph glyph-name="uni2470" unicode="&#x2470;" 
d="M918 -20q-171 0 -311.5 50t-234.5 139.5t-145 213.5t-51 270q0 122 35.5 244t100 233t160.5 207.5t212 166.5t259.5 110.5t297.5 40.5q177 0 317.5 -53.5t228.5 -146t133.5 -212t45.5 -256.5q0 -118 -33.5 -238.5t-95.5 -232.5t-155.5 -210t-206.5 -170t-257 -114
t-300 -42zM922 27q147 0 282 39.5t241.5 108t194 160.5t145 197.5t89 219.5t31.5 225q0 130 -42 242.5t-123.5 200t-213 138t-299.5 50.5q-173 0 -331 -53.5t-277.5 -146t-208.5 -212.5t-135 -257t-46 -275q0 -284 185.5 -460.5t507.5 -176.5zM1034 1307l-260 -856
q-18 -58 1.5 -75.5t107.5 -17.5l-15 -28h-422l15 28q75 0 107.5 18t49.5 75l209 684q19 64 4.5 70t-112.5 -34l4 37l166 68l125 53zM1747 1305l-635 -986l-117 35l566 834h-291q-55 0 -88.5 -28t-75.5 -107l-21 22l64 125l55 105h543z" />
    <glyph glyph-name="uni2471" unicode="&#x2471;" 
d="M918 -20q-171 0 -311.5 50t-234.5 139.5t-145 213.5t-51 270q0 122 35.5 244t100 233t160.5 207.5t212 166.5t259.5 110.5t297.5 40.5q177 0 317.5 -53.5t228.5 -146t133.5 -212t45.5 -256.5q0 -118 -33.5 -238.5t-95.5 -232.5t-155.5 -210t-206.5 -170t-257 -114
t-300 -42zM922 27q147 0 282 39.5t241.5 108t194 160.5t145 197.5t89 219.5t31.5 225q0 130 -42 242.5t-123.5 200t-213 138t-299.5 50.5q-173 0 -331 -53.5t-277.5 -146t-208.5 -212.5t-135 -257t-46 -275q0 -284 185.5 -460.5t507.5 -176.5zM1010 1307l-260 -856
q-18 -58 1 -75.5t107 -17.5l-14 -28h-420l12 28q74 0 107.5 18.5t50.5 74.5l209 684q19 64 4 70t-113 -34l4 37l291 121zM930 504q0 48 19 92t45.5 75.5t70 64.5t78 53.5t84.5 46.5q-97 128 -97 217q0 114 101 193t244 79q96 0 151 -44.5t55 -123.5q0 -44 -21.5 -85.5
t-64 -79t-87 -67.5t-109.5 -67q47 -56 68 -82.5t45 -77t24 -96.5q0 -121 -103 -207t-257 -86q-112 0 -179 53.5t-67 141.5zM1274 1087q0 -76 82 -176q98 65 152.5 128t54.5 130q0 48 -27 75.5t-78 27.5q-76 0 -130 -55t-54 -130zM1051 504q0 -139 137 -139q87 0 142.5 51.5
t55.5 128.5q0 60 -30.5 116.5t-87.5 122.5q-51 -34 -80 -56.5t-65.5 -59t-54 -77t-17.5 -87.5z" />
    <glyph glyph-name="uni2472" unicode="&#x2472;" 
d="M918 -20q-171 0 -311.5 50t-234.5 139.5t-145 213.5t-51 270q0 122 35.5 244t100 233t160.5 207.5t212 166.5t259.5 110.5t297.5 40.5q177 0 317.5 -53.5t228.5 -146t133.5 -212t45.5 -256.5q0 -118 -33.5 -238.5t-95.5 -232.5t-155.5 -210t-206.5 -170t-257 -114
t-300 -42zM922 27q147 0 282 39.5t241.5 108t194 160.5t145 197.5t89 219.5t31.5 225q0 130 -42 242.5t-123.5 200t-213 138t-299.5 50.5q-173 0 -331 -53.5t-277.5 -146t-208.5 -212.5t-135 -257t-46 -275q0 -284 185.5 -460.5t507.5 -176.5zM1493 1335q114 0 175 -65.5
t61 -188.5q0 -114 -54.5 -238t-149.5 -233t-240 -189.5t-310 -103.5l-6 35q298 68 479 363l-4 4q-86 -76 -180 -76q-93 0 -142 56.5t-49 152.5q0 55 17 119t52.5 128.5t84 117t118 85.5t148.5 33zM1024 1307l-258 -856q-18 -58 1 -75.5t107 -17.5l-16 -28h-420l15 28
q74 0 107 18.5t50 74.5l209 684q19 64 4.5 70t-112.5 -34l4 37l291 121zM1493 1284q-60 0 -114.5 -50.5t-89 -123.5t-55 -148.5t-20.5 -130.5q0 -64 24.5 -100.5t70.5 -36.5q38 0 83.5 23t84.5 63q49 83 81.5 182t32.5 189q0 133 -98 133z" />
    <glyph glyph-name="uni2473" unicode="&#x2473;" 
d="M918 -20q-171 0 -311.5 50t-234.5 139.5t-145 213.5t-51 270q0 122 35.5 244t100 233t160.5 207.5t212 166.5t259.5 110.5t297.5 40.5q177 0 317.5 -53.5t228.5 -146t133.5 -212t45.5 -256.5q0 -118 -33.5 -238.5t-95.5 -232.5t-155.5 -210t-206.5 -170t-257 -114
t-300 -42zM922 27q147 0 282 39.5t241.5 108t194 160.5t145 197.5t89 219.5t31.5 225q0 130 -42 242.5t-123.5 200t-213 138t-299.5 50.5q-173 0 -331 -53.5t-277.5 -146t-208.5 -212.5t-135 -257t-46 -275q0 -284 185.5 -460.5t507.5 -176.5zM858 330h-504l8 28
q83 71 132.5 113.5t121.5 108.5t114.5 111t92.5 105t76.5 107.5t45 100.5t18.5 102q0 48 -28 75t-83 27q-81 0 -147 -68.5t-103 -185.5h-33q48 167 155.5 271t236.5 104q82 0 122.5 -40.5t40.5 -112.5q0 -273 -583 -717l-2 -8h274q52 0 85 31t81 108h31zM1276 309
q-105 0 -162 74t-57 201q0 169 72 342.5t187.5 287t231.5 113.5q106 0 165 -76t59 -207q0 -126 -44 -259.5t-113 -237.5t-160 -171t-179 -67zM1276 365q51 0 114.5 75t115.5 185.5t88 247.5t36 251q0 148 -78 148q-51 0 -114 -75.5t-115.5 -187t-88.5 -248.5t-36 -249
q0 -147 78 -147z" />
    <glyph glyph-name="uni24EA" unicode="&#x24ea;" 
d="M918 -20q-171 0 -311.5 50t-234.5 139.5t-145 213.5t-51 270q0 122 35.5 244t100 233t160.5 207.5t212 166.5t259.5 110.5t297.5 40.5q177 0 317.5 -53.5t228.5 -146t133.5 -212t45.5 -256.5q0 -118 -33.5 -238.5t-95.5 -232.5t-155.5 -210t-206.5 -170t-257 -114
t-300 -42zM926 27q147 0 282 39.5t241.5 108t194 160.5t145 197.5t89 219.5t31.5 225q0 130 -42 242.5t-123.5 200t-213 138t-299.5 50.5q-173 0 -331 -53.5t-277.5 -146t-208.5 -212.5t-135 -257t-46 -275q0 -284 185.5 -460.5t507.5 -176.5zM926 309q-113 0 -174.5 74
t-61.5 201q0 126 47 260.5t120 240.5t170 174t190 68q114 0 175.5 -76t61.5 -207q0 -126 -46.5 -259.5t-120 -237.5t-170.5 -171t-191 -67zM926 365q55 0 122.5 75t123.5 185.5t94.5 247.5t38.5 251q0 148 -84 148q-54 0 -122 -75.5t-124 -187t-94.5 -248t-38.5 -249.5
q0 -147 84 -147z" />
    <glyph glyph-name="uni24EB" unicode="&#x24eb;" 
d="M918 -20q156 0 300 42t257 114t206.5 170t155.5 210t95.5 232.5t33.5 238.5q0 137 -45.5 256.5t-133.5 212t-228.5 146t-317.5 53.5q-154 0 -297.5 -40.5t-259.5 -110.5t-212 -166.5t-160.5 -207.5t-100 -233t-35.5 -244q0 -146 51 -270t145 -213.5t234.5 -139.5
t311.5 -50zM1075 1307l-260 -856q-18 -58 1.5 -75.5t107.5 -17.5l-15 -28h-422l15 28q74 0 107 18.5t50 74.5l209 684q19 64 4.5 70t-112.5 -34l4 37l291 121zM1552 1307l-260 -856q-18 -58 1.5 -75.5t107.5 -17.5l-15 -28h-419l14 28q73 0 106.5 18.5t51.5 74.5l207 684
q19 58 10 67q-12 12 -96 -22q-10 -4 -23 -9l4 37l291 121z" />
    <glyph glyph-name="uni24EC" unicode="&#x24ec;" 
d="M918 -20q156 0 300 42t257 114t206.5 170t155.5 210t95.5 232.5t33.5 238.5q0 137 -45.5 256.5t-133.5 212t-228.5 146t-317.5 53.5q-154 0 -297.5 -40.5t-259.5 -110.5t-212 -166.5t-160.5 -207.5t-100 -233t-35.5 -244q0 -146 51 -270t145 -213.5t234.5 -139.5
t311.5 -50zM1006 1307l-258 -856q-20 -57 -0.5 -75t106.5 -18l-14 -28h-420l14 28q73 0 106.5 18.5t51.5 74.5l207 684q19 59 9 68q-12 11 -97 -24q-8 -4 -19 -8l4 37l291 121zM1405 330h-526l8 28q87 71 138 113.5t126 108.5t119.5 111t96.5 104.5t80 107.5t47 101t19 102
q0 48 -30 75t-86 27q-84 0 -152.5 -68.5t-107.5 -185.5h-35q50 167 161.5 271t245.5 104q86 0 129 -40.5t43 -112.5q0 -272 -608 -717l-2 -8h287q54 0 88 31t84 108h33z" />
    <glyph glyph-name="uni24ED" unicode="&#x24ed;" 
d="M918 -20q156 0 300 42t257 114t206.5 170t155.5 210t95.5 232.5t33.5 238.5q0 137 -45.5 256.5t-133.5 212t-228.5 146t-317.5 53.5q-154 0 -297.5 -40.5t-259.5 -110.5t-212 -166.5t-160.5 -207.5t-100 -233t-35.5 -244q0 -146 51 -270t145 -213.5t234.5 -139.5
t311.5 -50zM1010 1307l-258 -856q-18 -58 1 -75.5t107 -17.5l-16 -28h-420l14 28q74 0 107.5 18.5t50.5 74.5l209 684q19 64 4 70t-113 -34l4 37l291 121zM1112 309q-76 0 -134 25t-58 63q0 30 21.5 51t53.5 21q24 0 41 -16t26 -35t30 -35t53 -16q94 0 167.5 84t73.5 204
q0 88 -49.5 133.5t-140.5 45.5l6 30q139 42 215 113t76 162q0 98 -111 98q-145 0 -202 -170h-35q40 130 124.5 196t196.5 66q83 0 129.5 -41t46.5 -117q0 -101 -85.5 -183t-215.5 -120v-8q86 -2 144.5 -57t58.5 -150q0 -136 -126 -240t-306 -104z" />
    <glyph glyph-name="uni24EE" unicode="&#x24ee;" 
d="M918 -20q156 0 300 42t257 114t206.5 170t155.5 210t95.5 232.5t33.5 238.5q0 137 -45.5 256.5t-133.5 212t-228.5 146t-317.5 53.5q-154 0 -297.5 -40.5t-259.5 -110.5t-212 -166.5t-160.5 -207.5t-100 -233t-35.5 -244q0 -146 51 -270t145 -213.5t234.5 -139.5
t311.5 -50zM995 1307l-258 -856q-18 -58 1.5 -75.5t105.5 -17.5l-15 -28h-419l14 28q73 0 107 19t51 74l209 684q19 64 4 70t-113 -34l4 37l291 121zM1280 592h-375l33 113l592 622h110l-190 -622h115l-35 -113h-113l-45 -141q-19 -57 -3 -75t91 -18l-12 -28h-369l13 28
q67 0 97.5 18.5t47.5 74.5zM1008 709l-2 -4h309l151 489z" />
    <glyph glyph-name="uni24EF" unicode="&#x24ef;" 
d="M918 -20q156 0 300 42t257 114t206.5 170t155.5 210t95.5 232.5t33.5 238.5q0 137 -45.5 256.5t-133.5 212t-228.5 146t-317.5 53.5q-154 0 -297.5 -40.5t-259.5 -110.5t-212 -166.5t-160.5 -207.5t-100 -233t-35.5 -244q0 -146 51 -270t145 -213.5t234.5 -139.5
t311.5 -50zM1026 1307l-258 -856q-18 -58 1 -75.5t105 -17.5l-14 -28h-420l15 28q73 0 106.5 19t50.5 74l209 684q19 64 4.5 70t-112.5 -34l4 37l291 121zM1112 322q-79 0 -134.5 23.5t-55.5 62.5q0 29 23.5 51t53.5 22q24 0 41 -16.5t26 -35.5t28.5 -35.5t46.5 -16.5
q62 0 126.5 62t106 157.5t41.5 187.5q0 61 -29.5 93t-80.5 32q-72 0 -146 -65l-35 30l185 433h381l-52 -119h-305l-104 -254l6 -4q82 55 160 55t129 -49t51 -137q0 -121 -65 -232t-172.5 -178t-225.5 -67z" />
    <glyph glyph-name="uni24F0" unicode="&#x24f0;" 
d="M918 -20q156 0 300 42t257 114t206.5 170t155.5 210t95.5 232.5t33.5 238.5q0 137 -45.5 256.5t-133.5 212t-228.5 146t-317.5 53.5q-154 0 -297.5 -40.5t-259.5 -110.5t-212 -166.5t-160.5 -207.5t-100 -233t-35.5 -244q0 -146 51 -270t145 -213.5t234.5 -139.5
t311.5 -50zM1182 313q-114 0 -175 65.5t-61 188.5q0 90 34 188.5t100.5 192.5t156 173t210 135.5t253.5 74.5l6 -35q-299 -68 -479 -362l4 -4q86 76 180 76q93 0 142 -56.5t49 -152.5q0 -55 -17 -119t-52.5 -129t-84 -117.5t-118 -85.5t-148.5 -33zM1001 1307l-260 -856
q-9 -31 -9.5 -47.5t11.5 -28t36 -14.5t71 -3l-14 -30h-420l12 30q75 0 108.5 18t51.5 75l207 684q17 57 9 66q-11 11 -93 -20q-11 -4 -25 -10l4 35l291 121zM1182 365q60 0 114.5 50.5t89 123t54.5 148t20 130.5q0 64 -23.5 100.5t-68.5 36.5q-39 0 -85 -23t-85 -63
q-50 -83 -82.5 -181.5t-32.5 -188.5q0 -133 99 -133z" />
    <glyph glyph-name="uni24F1" unicode="&#x24f1;" 
d="M918 -20q156 0 300 42t257 114t206.5 170t155.5 210t95.5 232.5t33.5 238.5q0 137 -45.5 256.5t-133.5 212t-228.5 146t-317.5 53.5q-154 0 -297.5 -40.5t-259.5 -110.5t-212 -166.5t-160.5 -207.5t-100 -233t-35.5 -244q0 -146 51 -270t145 -213.5t234.5 -139.5
t311.5 -50zM1024 1307l-258 -856q-18 -58 1 -75.5t107 -17.5l-16 -28h-420l15 28q75 0 107.5 18t49.5 75l209 684q19 64 4.5 70t-112.5 -34l4 37l166 68l125 53zM1755 1305l-641 -986l-119 35l572 834h-295q-56 0 -90 -28.5t-76 -108.5l-21 22l66 127l55 105h549z" />
    <glyph glyph-name="uni24F2" unicode="&#x24f2;" 
d="M918 -20q156 0 300 42t257 114t206.5 170t155.5 210t95.5 232.5t33.5 238.5q0 137 -45.5 256.5t-133.5 212t-228.5 146t-317.5 53.5q-154 0 -297.5 -40.5t-259.5 -110.5t-212 -166.5t-160.5 -207.5t-100 -233t-35.5 -244q0 -146 51 -270t145 -213.5t234.5 -139.5
t311.5 -50zM1010 1307l-260 -856q-18 -58 1 -75.5t107 -17.5l-14 -28h-420l12 28q74 0 107.5 18.5t50.5 74.5l209 684q19 64 4 70t-113 -34l4 37l291 121zM930 504q0 48 19 92t45.5 75.5t70 64.5t78 53.5t84.5 46.5q-97 128 -97 217q0 114 101 193t244 79q96 0 151 -44.5
t55 -123.5q0 -44 -21.5 -85.5t-64 -79t-87 -67.5t-109.5 -67q47 -56 68 -82.5t45 -77t24 -96.5q0 -121 -103 -207t-257 -86q-112 0 -179 53.5t-67 141.5zM1274 1087q0 -76 82 -176q98 65 152.5 128t54.5 130q0 48 -27 75.5t-78 27.5q-76 0 -130 -55t-54 -130zM1051 504
q0 -139 137 -139q87 0 142.5 51.5t55.5 128.5q0 60 -30.5 116.5t-87.5 122.5q-51 -34 -80 -56.5t-65.5 -59t-54 -77t-17.5 -87.5z" />
    <glyph glyph-name="uni24F3" unicode="&#x24f3;" 
d="M918 -20q156 0 300 42t257 114t206.5 170t155.5 210t95.5 232.5t33.5 238.5q0 137 -45.5 256.5t-133.5 212t-228.5 146t-317.5 53.5q-154 0 -297.5 -40.5t-259.5 -110.5t-212 -166.5t-160.5 -207.5t-100 -233t-35.5 -244q0 -146 51 -270t145 -213.5t234.5 -139.5
t311.5 -50zM1493 1335q114 0 175 -65.5t61 -188.5q0 -114 -54.5 -238t-149.5 -233t-240 -189.5t-310 -103.5l-6 35q298 68 479 363l-4 4q-86 -76 -180 -76q-93 0 -142 56.5t-49 152.5q0 55 17 119t52.5 128.5t84 117t118 85.5t148.5 33zM1024 1307l-258 -856
q-18 -58 1 -75.5t107 -17.5l-16 -28h-420l15 28q74 0 107 18.5t50 74.5l209 684q19 64 4.5 70t-112.5 -34l4 37l291 121zM1493 1284q-60 0 -114.5 -50.5t-89 -123.5t-55 -148.5t-20.5 -130.5q0 -64 24.5 -100.5t70.5 -36.5q38 0 83.5 23t84.5 63q49 83 81.5 182t32.5 189
q0 133 -98 133z" />
    <glyph glyph-name="uni24F4" unicode="&#x24f4;" 
d="M918 -20q156 0 300 42t257 114t206.5 170t155.5 210t95.5 232.5t33.5 238.5q0 137 -45.5 256.5t-133.5 212t-228.5 146t-317.5 53.5q-154 0 -297.5 -40.5t-259.5 -110.5t-212 -166.5t-160.5 -207.5t-100 -233t-35.5 -244q0 -146 51 -270t145 -213.5t234.5 -139.5
t311.5 -50zM844 330h-502l8 28q82 70 131.5 113.5t120.5 108.5t113.5 110.5t92 105t76 107.5t44.5 101t18 102q0 48 -28 75t-82 27q-79 0 -145 -68.5t-103 -185.5h-33q48 167 154.5 271t234.5 104q82 0 123 -40.5t41 -112.5q0 -272 -580 -717l-2 -8h273q51 0 85 31.5
t81 107.5h30zM1280 309q-107 0 -165 74t-58 201q0 169 74 342.5t192 287t236 113.5q109 0 168 -76t59 -207q0 -169 -74 -340.5t-193 -283t-239 -111.5zM1282 365q51 0 115.5 75t118 185.5t90 247.5t36.5 251q0 148 -79 148q-52 0 -117 -75.5t-118.5 -187t-90.5 -248.5
t-37 -249q0 -147 82 -147z" />
    <glyph glyph-name="uni24FF" unicode="&#x24ff;" 
d="M918 -20q156 0 300 42t257 114t206.5 170t155.5 210t95.5 232.5t33.5 238.5q0 137 -45.5 256.5t-133.5 212t-228.5 146t-317.5 53.5q-154 0 -297.5 -40.5t-259.5 -110.5t-212 -166.5t-160.5 -207.5t-100 -233t-35.5 -244q0 -146 51 -270t145 -213.5t234.5 -139.5
t311.5 -50zM922 309q-113 0 -174.5 74t-61.5 201q0 126 46.5 260.5t120 240.5t170 174t189.5 68q114 0 177 -76t63 -207q0 -126 -47 -259.5t-121 -237.5t-171 -171t-191 -67zM922 365q55 0 122.5 75t123 185.5t94 247.5t38.5 251q0 148 -81 148q-55 0 -123.5 -75.5
t-124.5 -187t-94.5 -248t-38.5 -249.5q0 -147 84 -147z" />
    <glyph glyph-name="lozenge" unicode="&#x25ca;" horiz-adv-x="1183" 
d="M500 -45h-176l-144 842l658 841h176l143 -841zM334 797l110 -691h19l528 691l-98 690h-16z" />
    <glyph glyph-name="uni2776" unicode="&#x2776;" horiz-adv-x="1974" 
d="M924 -20q184 0 350.5 59.5t290.5 160t216 229t138.5 271t46.5 281.5q0 146 -45.5 268t-134 213t-229 142t-320.5 51q-153 0 -296 -40.5t-258 -111t-211 -167t-160.5 -206.5t-100 -231t-35.5 -240q0 -201 88 -353.5t258.5 -239t401.5 -86.5zM1307 1307l-258 -856
q-20 -57 -1 -75t107 -18l-14 -28h-420l14 28q73 0 106.5 18.5t51.5 74.5l207 684q19 59 9 68q-12 11 -97 -24q-8 -4 -19 -8l4 37l291 121z" />
    </font>
</defs>
</svg>
