<svg width="92" height="77" viewBox="0 0 92 77" fill="none" xmlns="http://www.w3.org/2000/svg">
<g clip-path="url(#clip0_1_301)">
<path d="M43.2333 8.81588C47.239 7.19762 51.6057 6.30396 56.1888 6.30396C75.3034 6.30396 90.7971 21.8585 90.7971 41.0482C90.7971 60.2378 75.3034 75.7923 56.1888 75.7923C37.0743 75.7923 21.5806 60.2378 21.5806 41.0482C21.5806 33.2829 24.1187 26.1216 28.4012 20.3369" stroke="#FFAD01" stroke-width="2" stroke-linecap="round" stroke-linejoin="round"/>
<path d="M53.0854 75.6596C53.0854 75.6596 53.4223 70.5391 54.0237 69.5367C54.6252 68.5344 56.6221 63.9091 57.1995 62.7739C57.7769 61.6387 53.9636 57.0617 53.3862 55.0691C52.8088 53.0764 54.541 48.3907 56.1168 46.9174C57.6927 45.4441 56.2852 42.8114 57.0311 41.7003C57.7769 40.5893 62.9976 37.7875 65.6801 41.1207C68.3626 44.4538 69.325 46.6638 69.325 46.6638C69.325 46.6638 75.1231 47.3038 76.6749 48.439C78.2267 49.5742 76.1215 58.8369 76.1215 58.8369L70.3234 64.4042L60.9045 71.8675L59.5813 75.8045" stroke="#FFAD01" stroke-width="2" stroke-linecap="round" stroke-linejoin="round"/>
<path d="M80.6323 16.4603C80.6323 16.4603 81.2458 27.6553 80.9451 28.6818C80.6444 29.7083 81.9074 37.0267 81.9074 37.0267C81.9074 37.0267 83.9524 40.7462 85.4922 41.6037C87.0319 42.4611 90.785 42.5698 90.785 42.5698" stroke="#FFAD01" stroke-width="2" stroke-linecap="round" stroke-linejoin="round"/>
<path d="M50.3307 6.79907L51.1487 9.79405C51.1487 9.79405 60.7 15.8927 61.6984 16.7864C62.6968 17.68 62.1074 21.1702 60.2308 22.7159C58.3543 24.2617 55.6717 25.7955 55.2868 27.619C54.9019 29.4426 52.9651 32.4134 51.8103 32.9448C50.6555 33.4761 44.6288 32.5583 44.1356 33.9713C43.6424 35.3842 50.8239 40.4322 52.087 41.7848C53.3501 43.1374 52.496 45.5285 49.2962 44.5624C46.0964 43.5963 40.9238 41.35 40.9238 41.35" stroke="#FFAD01" stroke-width="2" stroke-linecap="round" stroke-linejoin="round"/>
<path d="M13.5812 41.4587C13.5812 41.4587 8.54094 25.566 18.0681 17.2453C27.5953 8.92455 34.2716 5.90541 35.1858 1.20764C35.1858 1.20764 51.9426 33.9592 22.6994 48.7771" stroke="#FFAD01" stroke-width="2" stroke-linecap="round" stroke-linejoin="round"/>
<path d="M10.8867 50.9268C10.8867 50.9268 19.7042 58.1365 26.8376 59.4769" stroke="#FFAD01" stroke-width="2" stroke-linecap="round" stroke-linejoin="round"/>
<path d="M14.2067 59.4769C14.2067 59.4769 0.397099 57.9069 1.23915 41.0481C1.23915 41.0481 19.6921 42.4611 20.6664 57.2427" stroke="#FFAD01" stroke-width="2" stroke-linecap="round" stroke-linejoin="round"/>
</g>
<defs>
<clipPath id="clip0_1_301">
<rect width="92" height="77" fill="white"/>
</clipPath>
</defs>
</svg>
