<svg width="92" height="84" viewBox="0 0 92 84" fill="none" xmlns="http://www.w3.org/2000/svg">
<g clip-path="url(#clip0_1_309)">
<path d="M82.4191 59.2106C75.9617 73.0184 61.9825 82.5939 45.79 82.5939C26.0117 82.5939 9.5531 68.3502 6.05127 49.5226" stroke="#018973" stroke-width="2" stroke-linecap="round" stroke-linejoin="round"/>
<path d="M9.86133 23.3271C16.5988 10.3067 30.1579 1.40613 45.7761 1.40613C65.4283 1.40613 81.8029 15.4811 85.4588 34.14" stroke="#018973" stroke-width="2" stroke-linecap="round" stroke-linejoin="round"/>
<path d="M52.6953 16.0013H39.5704C38.0697 16.0013 36.853 17.2226 36.853 18.7292V19.6572C36.853 21.1637 38.0697 22.385 39.5704 22.385H52.6953C54.1961 22.385 55.4127 21.1637 55.4127 19.6572V18.7292C55.4127 17.2226 54.1961 16.0013 52.6953 16.0013Z" stroke="#018973" stroke-width="2" stroke-linecap="round" stroke-linejoin="round"/>
<path d="M40.7333 22.9053V33.0994C40.7333 36.0101 39.6407 38.8082 37.6517 40.9314L30.676 48.4399C28.8271 50.4366 27.7905 53.0519 27.7905 55.7797C27.7905 60.1105 30.3819 64.0194 34.3459 65.6927L35.8167 66.3114C36.5591 66.6207 37.3435 66.7894 38.1559 66.7894H45.8179" stroke="#018973" stroke-width="2" stroke-linecap="round" stroke-linejoin="round"/>
<path d="M51.5187 22.9053V33.0994C51.5187 36.0101 52.6113 38.8082 54.6003 40.9314L61.576 48.4399C63.4249 50.4366 64.4615 53.0519 64.4615 55.7797C64.4615 60.1105 61.8701 64.0194 57.9061 65.6927L56.4353 66.3114C55.6929 66.6207 54.9085 66.7894 54.0961 66.7894H46.4341" stroke="#018973" stroke-width="2" stroke-linecap="round" stroke-linejoin="round"/>
<path d="M33.0293 45.923H58.8588" stroke="#018973" stroke-width="2" stroke-linecap="round" stroke-linejoin="round"/>
<path d="M40.9854 56.7359C42.1458 56.7359 43.0865 55.7916 43.0865 54.6267C43.0865 53.4619 42.1458 52.5176 40.9854 52.5176C39.825 52.5176 38.8843 53.4619 38.8843 54.6267C38.8843 55.7916 39.825 56.7359 40.9854 56.7359Z" stroke="#018973" stroke-width="2" stroke-linecap="round" stroke-linejoin="round"/>
<path d="M50.0343 63.0774C51.9297 63.0774 53.4661 61.535 53.4661 59.6324C53.4661 57.7298 51.9297 56.1875 50.0343 56.1875C48.139 56.1875 46.6025 57.7298 46.6025 59.6324C46.6025 61.535 48.139 63.0774 50.0343 63.0774Z" stroke="#018973" stroke-width="2" stroke-linecap="round" stroke-linejoin="round"/>
<path d="M53.4801 53.6003C54.4858 53.6003 55.3011 52.7819 55.3011 51.7724C55.3011 50.7628 54.4858 49.9445 53.4801 49.9445C52.4744 49.9445 51.6592 50.7628 51.6592 51.7724C51.6592 52.7819 52.4744 53.6003 53.4801 53.6003Z" stroke="#018973" stroke-width="2" stroke-linecap="round" stroke-linejoin="round"/>
<path d="M7.31169 37.5145C7.31169 37.5145 8.27819 42.0843 11.1497 44.6997C14.0212 47.315 19.1899 55.2032 10.4493 61.7556C10.4493 61.7556 -7.6201 51.4489 7.31169 37.5145Z" stroke="#018973" stroke-width="2" stroke-linecap="round" stroke-linejoin="round"/>
<path d="M84.6882 47.1463C84.6882 47.1463 83.7217 42.5765 80.8502 39.9612C77.9787 37.3458 72.81 29.4577 81.5506 22.9053C81.5506 22.9053 99.62 33.2119 84.6882 47.1463Z" stroke="#018973" stroke-width="2" stroke-linecap="round" stroke-linejoin="round"/>
</g>
<defs>
<clipPath id="clip0_1_309">
<rect width="92" height="84" fill="white"/>
</clipPath>
</defs>
</svg>
