<svg width="121" height="33" viewBox="0 0 121 33" fill="none" xmlns="http://www.w3.org/2000/svg">
<g clip-path="url(#clip0_1_154)">
<path d="M32.1112 30.2426C32.1112 30.609 32.054 30.9732 31.9141 31.3121C31.7743 31.6488 31.5773 31.9305 31.3506 32.1846C31.0964 32.4091 30.8167 32.6061 30.5074 32.748C30.1981 32.8878 29.8316 32.9725 29.465 32.9725C29.0985 32.9725 28.7045 32.8878 28.3676 32.748C28.0308 32.6082 27.7193 32.4112 27.4672 32.1846C27.213 31.9601 27.016 31.6509 26.8486 31.3121C26.7088 30.9754 26.624 30.609 26.624 30.2426V22.0551C26.624 20.31 26.9609 18.6792 27.6367 17.1311C28.3125 15.583 29.2129 14.2615 30.3654 13.1072C31.5201 11.953 32.8421 11.0529 34.3908 10.3795C35.9394 9.70389 37.5432 9.36715 39.2868 9.36715H39.344C40.2444 9.36715 40.9478 9.62129 41.4541 10.1275C41.9605 10.6336 42.2147 11.3092 42.2147 12.097C42.2147 12.8849 42.1299 12.8573 41.9901 13.1941C41.8503 13.5308 41.6236 13.8125 41.3715 14.0666C41.1173 14.3208 40.8079 14.5177 40.4711 14.6575C40.1342 14.7973 39.7677 14.882 39.3737 14.882H39.3165C38.3589 14.882 37.4309 15.0789 36.5581 15.4453C35.6852 15.8117 34.9268 16.3179 34.2785 16.9638C33.6302 17.6097 33.1238 18.3425 32.7298 19.2151C32.3357 20.0876 32.1387 20.9877 32.1387 21.9725V30.2151L32.1112 30.2426Z" fill="#018973"/>
<path d="M43.0007 20.9305C43.0007 19.2701 43.31 17.6945 43.9583 16.2332C44.6045 14.7697 45.4773 13.5033 46.5747 12.4062C47.6722 11.3092 48.9391 10.4367 50.403 9.81825C51.867 9.19985 53.4135 8.86099 55.0745 8.86099C56.7355 8.86099 58.3117 9.1702 59.7735 9.81825C61.2375 10.4367 62.5319 11.3092 63.6018 12.4062C64.6992 13.5033 65.5445 14.7697 66.1611 16.2332C66.7797 17.6966 67.0911 19.2722 67.0911 20.9305V29.9037C67.0911 30.2976 67.0064 30.664 66.8665 31.0008C66.7246 31.3375 66.5297 31.6192 66.2755 31.8733C66.0233 32.1275 65.714 32.3244 65.3751 32.4917C65.0382 32.6611 64.6717 32.7162 64.2776 32.7162C63.6315 32.7162 63.0679 32.5193 62.6167 32.1253C62.1654 31.7314 61.8561 31.2528 61.7163 30.6619C60.7587 31.3926 59.7184 31.9559 58.5935 32.3774C57.4685 32.7988 56.2863 32.9958 55.047 32.9958C53.8076 32.9958 51.8394 32.6866 50.3755 32.0385C48.9115 31.4201 47.6467 30.5476 46.5472 29.4505C45.4498 28.3535 44.5769 27.0595 43.9307 25.5961C43.2825 24.1327 42.9731 22.557 42.9731 20.9263H43.0007V20.9305ZM48.4878 20.9305C48.4878 21.8306 48.6573 22.6756 48.9942 23.4634C49.331 24.2788 49.8098 24.9544 50.4009 25.5728C50.992 26.1636 51.6954 26.6423 52.4835 26.979C53.2716 27.3157 54.1148 27.4852 55.0448 27.4852C55.9749 27.4852 56.8181 27.3157 57.6062 26.979C58.3943 26.6423 59.0977 26.1636 59.6888 25.5728C60.2799 24.9819 60.729 24.2788 61.068 23.4634C61.4048 22.6756 61.5743 21.803 61.5743 20.9305C61.5743 20.058 61.4048 19.1579 61.068 18.37C60.7311 17.5822 60.2799 16.8791 59.6888 16.2882C59.0977 15.6973 58.3943 15.2187 57.6062 14.882C56.7906 14.5452 55.9452 14.3758 55.0448 14.3758C54.1444 14.3758 53.2991 14.5452 52.5131 14.882C51.6975 15.2187 51.0216 15.6973 50.403 16.2882C49.8119 16.8791 49.3331 17.5822 48.9963 18.37C48.6594 19.1854 48.4899 20.0304 48.4899 20.9305H48.4878Z" fill="#018973"/>
<path d="M23.19 16.176H23.2176C22.5989 14.7126 21.7261 13.4186 20.6287 12.3491C19.5312 11.2521 18.2643 10.4071 16.8004 9.76112C15.3364 9.14272 13.7602 8.80386 12.1014 8.80386H5.51679V2.86971C5.51679 2.47579 5.45959 2.08188 5.31977 1.74514C5.17994 1.40841 4.98291 1.09921 4.75622 0.845066C4.50199 0.590927 4.22234 0.396087 3.88337 0.22666C3.54651 0.0868837 3.18 0.00217056 2.78594 0.00217056C2.39188 0.00217056 2.02537 0.0868837 1.68851 0.22666C1.35166 0.366437 1.06989 0.563395 0.815655 0.845066C0.561425 1.09921 0.364397 1.40841 0.22457 1.74514C0.0847434 2.08188 0 2.47579 0 2.86971V20.8734C0 22.5337 0.309313 24.0798 0.9576 25.5432C1.60589 27.0066 2.44908 28.3006 3.54651 29.3976C4.64394 30.4947 5.93839 31.3672 7.40233 31.9856C8.86628 32.604 10.4425 32.9429 12.0738 32.9429C13.7051 32.9429 15.311 32.6337 16.7728 31.9856C18.2368 31.3672 19.5016 30.4947 20.6011 29.3976C21.6985 28.3006 22.5439 27.0066 23.19 25.5432C23.8383 24.0798 24.1476 22.5041 24.1476 20.8734C24.1476 19.2426 23.8383 17.6373 23.19 16.176ZM10.8641 14.8545C12.131 15.1637 13.4806 15.5851 14.6076 16.121C14.3259 17.415 14.186 18.7661 14.2411 20.1152C14.2687 20.9877 14.381 21.8878 14.578 22.7604L11.5675 19.7509C11.2857 18.7937 10.9213 17.6119 10.8641 16.0934C10.8366 15.6995 10.8641 15.2781 10.8641 14.8566V14.8545ZM10.076 14.6575V16.121L10.0484 16.0934C10.076 17.0507 10.2455 17.8661 10.415 18.5967L6.0528 14.2361C6.78371 14.1238 8.33239 14.2933 10.0781 14.6575H10.076ZM5.51679 14.827L9.87896 19.1876C9.14805 18.9906 8.33028 18.8508 7.37479 18.8212L7.40233 18.8487C6.92353 18.8212 6.41719 18.8487 5.93839 18.8487C5.57188 17.1333 5.40451 15.5576 5.51679 14.8248V14.827ZM7.37479 23.3788C6.84091 22.2542 6.41719 20.9305 6.10788 19.6366H7.34513C8.86416 19.6937 10.0463 20.058 11.0039 20.3397L14.0144 23.3491C13.1416 23.1521 12.2687 23.0399 11.3683 23.0124C10.0463 22.9552 8.69467 23.0971 7.37267 23.3788H7.37479ZM8.80908 25.63C8.41502 25.2361 8.07816 24.7024 7.73919 24.1115C8.92136 23.8574 10.1311 23.7451 11.3408 23.8023V23.8299C12.6352 23.8574 13.9022 24.084 15.1119 24.4483L16.8004 26.1362C15.6754 26.9791 12.1014 28.9211 8.80908 25.63ZM17.3364 25.5453L15.6479 23.8574C15.2814 22.6206 15.0843 21.3541 15.0292 20.0877C14.972 18.8784 15.0864 17.6691 15.3386 16.4873C15.9572 16.7965 16.4635 17.1629 16.8576 17.5568H16.83C20.1223 20.8204 18.1817 24.4207 17.3364 25.5474V25.5453Z" fill="#018973"/>
<path d="M94.023 30.2426C94.023 30.6365 93.9382 31.0029 93.7984 31.3121C93.6565 31.6213 93.4616 31.9305 93.2349 32.1846C93.0103 32.4388 92.7285 32.6061 92.3917 32.748C92.0548 32.8878 91.7158 32.9449 91.3514 32.9449C90.987 32.9449 90.6205 32.8878 90.2816 32.748C89.9447 32.6082 89.6333 32.4112 89.3812 32.1846C89.1291 31.9305 88.932 31.6509 88.7625 31.3121C88.6206 30.9754 88.5358 30.6365 88.5358 30.2426V20.509C88.5083 19.6937 88.3388 18.9059 88.0295 18.1752C87.7202 17.4445 87.2986 16.824 86.7923 16.2903C86.2584 15.7566 85.6652 15.3331 84.9639 15.0239C84.2605 14.7147 83.5 14.5452 82.6568 14.5452C81.8136 14.5452 80.9958 14.7147 80.2649 15.0239C79.5319 15.3331 78.9132 15.7842 78.4069 16.3179C77.9006 16.8812 77.4768 17.5271 77.1951 18.2874C76.9154 19.0477 76.7459 19.8356 76.7459 20.706V30.2426C76.7459 30.6365 76.6887 31.0029 76.5489 31.3121C76.407 31.6488 76.212 31.9305 75.9854 32.1846C75.7332 32.4388 75.4515 32.6061 75.1422 32.748C74.8328 32.8878 74.4663 32.9449 74.0723 32.9449C73.6782 32.9449 73.3392 32.8878 73.0024 32.748C72.6655 32.6082 72.3562 32.4112 72.102 32.1846C71.8478 31.9305 71.6232 31.6509 71.4834 31.3121C71.3414 30.9754 71.2588 30.6365 71.2588 30.2426V20.706C71.2588 19.0753 71.5406 17.5843 72.1316 16.1484C72.7227 14.7422 73.5108 13.5033 74.5235 12.4634C75.5383 11.4236 76.748 10.5785 78.1548 9.96014C79.5636 9.34174 81.053 9.06007 82.6568 9.06007C84.2605 9.06007 85.7817 9.36927 87.1588 9.96014C88.538 10.5785 89.7477 11.3939 90.7625 12.4634C91.7752 13.5329 92.5633 14.7422 93.1544 16.1484C93.7454 17.5547 94.0272 19.0732 94.0272 20.706V30.2426H94.023Z" fill="#018973"/>
<path d="M96.3596 20.8733C96.3596 19.2129 96.6689 17.6373 97.3172 16.176C97.9655 14.7126 98.8362 13.4482 99.9336 12.3491C101.031 11.252 102.298 10.3795 103.762 9.76107C105.226 9.14266 106.772 8.80381 108.433 8.80381C110.094 8.80381 111.671 9.11301 113.132 9.76107C114.596 10.3795 115.891 11.252 116.961 12.3491C118.058 13.4461 118.903 14.7126 119.522 16.176C120.141 17.6394 120.452 19.2151 120.452 20.8733V29.8465C120.452 30.2405 120.367 30.6069 120.228 30.9436C120.086 31.2803 119.891 31.562 119.636 31.8161C119.384 32.0703 119.075 32.2672 118.736 32.4345C118.399 32.5743 118.033 32.659 117.639 32.659C116.99 32.659 116.429 32.4621 115.978 32.0682C115.529 31.6742 115.219 31.1956 115.077 30.6047C114.12 31.3354 113.079 31.8987 111.952 32.3202C110.825 32.7416 109.645 32.9386 108.406 32.9386C107.166 32.9386 105.198 32.6294 103.734 31.9813C102.27 31.3629 101.006 30.4904 99.9061 29.3933C98.8087 28.2963 97.9358 27.0023 97.2896 25.5389C96.6413 24.0755 96.332 22.4998 96.332 20.8691H96.3596V20.8733ZM101.847 20.8733C101.847 21.7734 102.016 22.6184 102.353 23.4062C102.69 24.2216 103.169 24.8972 103.76 25.5156C104.351 26.1065 105.054 26.5851 105.842 26.9218C106.628 27.2586 107.474 27.428 108.404 27.428C109.334 27.428 110.177 27.2586 110.965 26.9218C111.753 26.5851 112.457 26.1065 113.048 25.5156C113.639 24.9247 114.088 24.2216 114.427 23.4062C114.764 22.6184 114.933 21.7459 114.933 20.8733C114.933 20.0008 114.764 19.1007 114.427 18.3129C114.09 17.525 113.611 16.8219 113.048 16.231C112.457 15.6402 111.753 15.1615 110.965 14.8248C110.149 14.4881 109.304 14.3186 108.404 14.3186C107.503 14.3186 106.66 14.4881 105.872 14.8248C105.056 15.1615 104.381 15.6402 103.76 16.231C103.169 16.8219 102.69 17.525 102.353 18.3129C102.016 19.1282 101.847 19.9732 101.847 20.8733Z" fill="#018973"/>
</g>
<defs>
<clipPath id="clip0_1_154">
<rect width="120.45" height="33" fill="white"/>
</clipPath>
</defs>
</svg>
